<?xml version="1.0" encoding="utf-8"?>
<!-- Generator: Adobe Illustrator 21.1.0, SVG Export Plug-In . SVG Version: 6.00 Build 0)  -->
<svg version="1.1" id="Layer_1" xmlns="http://www.w3.org/2000/svg" xmlns:xlink="http://www.w3.org/1999/xlink" x="0px" y="0px"
	 viewBox="0 0 1094 500" style="enable-background:new 0 0 1094 500;" xml:space="preserve">
<style type="text/css">
	.st0{fill:#EE554B;}
	.st1{font-family:'Quicksand-Bold';}
	.st2{font-size:567.7075px;}
	.st3{letter-spacing:-28;}
	.st4{fill:#311C4B;}
</style>
<text transform="matrix(1 0 0 1 14.6792 445.5469)" class="st0 st1 st2 st3">1</text>
<text transform="matrix(1 0 0 1 192.3589 445.5469)" class="st0 st1 st2">0</text>
<g>
	<g>
		<path class="st4" d="M505.3,33.8c-7.2,81.8-6.9,167.2,22.3,245.1c24.8,66,69.8,125.3,134.2,156.5c35.7,17.3,75.4,26.8,114.9,30.5
			c38.5,3.6,77.1-1,111.7-18.8c61.8-31.7,101.8-95,117.5-161.3c9.4-39.7,11.2-80.8,8.7-121.4c-2.4-40-7.3-81.3-19.8-119.6
			c-3.1-9.6-6.8-19-11.1-28.2c-1.3-2.9-5.8-3.2-7.9-1c-23.7,25.7-46.9,52.1-71.2,77.1c-6,6.2-12.3,9.1-21,9.3
			c-8.3,0.1-16.6-0.8-24.9-1c-17-0.5-34.1,0-51.1,0.8c-34.7,1.8-69.4,5.4-104.1,7.3c-17,0.9-34,1.5-51,1.1
			c-8.6-0.2-17.3-0.5-25.9-1.2c-8.2-0.6-16.7-1.1-24.7-3.1c-8.7-2.2-14.3-7.9-20.2-14.4c-6.7-7.3-13.3-14.7-20-22
			c-13.6-14.9-27.1-29.8-40.7-44.7c-4.3-4.8-11.4,2.3-7.1,7.1c12.4,13.7,24.9,27.4,37.3,41c6.2,6.8,12.4,13.7,18.7,20.5
			c5.3,5.8,10.4,12.1,16.9,16.6c6.3,4.4,13.7,6,21.1,7c8.7,1.2,17.5,1.9,26.3,2.4c17.9,1,35.9,1,53.8,0.3c36-1.4,71.9-5.2,107.9-7.4
			c18-1.1,36-1.8,54-1.6c8.9,0.1,17.7,0.5,26.6,1c7.8,0.4,15.8,0.3,23-2.9c8-3.6,13.8-10.8,19.6-17.2c6.9-7.5,13.9-15,20.8-22.5
			c14.3-15.5,28.6-31,42.9-46.5c-2.6-0.3-5.2-0.7-7.9-1c16.8,36,23.1,76.2,27.3,115.4c4.1,39,5,78.7-0.7,117.6
			c-9.9,67.2-41.3,133.1-98.8,172.1c-29.4,20-63.1,29.8-98.6,30.2c-39,0.4-79.3-7.5-115.8-21.1c-33.6-12.6-63.7-32.1-88.5-58
			c-23.2-24.2-41.4-52.8-55.1-83.4c-32.2-72-36.5-152.9-31.7-230.5c0.6-10.1,1.4-20.2,2.3-30.2C515.9,27.4,505.9,27.4,505.3,33.8
			L505.3,33.8z"/>
	</g>
</g>
<g>
	<g>
		<path class="st4" d="M862.3,262.8c-5.1-13.4-15.1-23.1-23.7-34.1c-3.9-4.9-10.8-13.6-7.6-20.3c3.2-6.6,12.2-4.3,16,0.3
			c3.6,4.4,3.5,11.3,8.7,14.4c6.2,3.7,10.3-1.7,13-6.5c3-5.3,8.8-7.5,14.6-8c2.9-0.3,6.1-0.3,8.9,0.3c5,1.2,3.3,5.6,1,8.7
			c-5.6,7.4-12.9,13.8-19.3,20.5c-7.2,7.6-14.5,15.3-21.7,22.9c-4.4,4.7,2.6,11.8,7.1,7.1c7.7-8.1,15.4-16.2,23.1-24.3
			c3.6-3.8,7.2-7.6,10.8-11.5c3.3-3.5,7.1-6.9,9.6-11.1c4-6.5,3.9-15.8-3.3-20.2c-6.2-3.8-16-3.1-22.8-1.4
			c-7.1,1.8-13.4,5.9-16.9,12.5c-0.1,0.3-1.1,2.2-1.1,2.2c0.3,0,0.7,0,1,0c1.2,0.3,1.4,0,0.4-1c-0.1-1.4-1.2-3.3-1.8-4.6
			c-1.7-3.9-4.2-7.3-7.5-9.9c-13.3-10.5-33.3-0.7-30.3,16.8c1.7,9.7,8.7,17.8,14.8,25.1c6.5,7.7,13.5,15.3,17.2,24.8
			C854.9,271.4,864.6,268.8,862.3,262.8L862.3,262.8z"/>
	</g>
</g>
<g>
	<g>
		<path class="st4" d="M657.7,280.5c-11.8-10.4-21.6-22.6-29-36.5c-3.6-6.7-8.1-14.9-7.7-22.7c0.3-5.4,7.2-13.8,12.1-7.2
			c3.5,4.8,2.8,12.4,7.7,16.4c5.9,4.8,11.5-0.5,15.2-5c4.5-5.5,10.9-9.1,18-9.6c1.3-0.1,4-0.5,5.1,0.2c1.1,0.7,0.7,2.6,0.5,4.4
			c-0.4,4.3-1.8,8.5-3.3,12.4c-7.1,18.1-18,35.4-28.7,51.5c-3.6,5.4,5.1,10.4,8.6,5c11.5-17.3,23.2-36,30.4-55.6
			c2.4-6.5,6.8-20.8-0.3-25.8c-6.2-4.3-17-2.3-23.4,0.3c-3.5,1.4-6.8,3.3-9.7,5.8c-1.7,1.4-3.1,2.9-4.5,4.6
			c-0.6,0.7-1.3,1.5-1.8,2.3c-0.5,0.8,0.2,2.4-0.2,0.2c-1.4-7-5.2-16-12.4-18.6c-7-2.6-14.8,1-19.1,6.7c-5.6,7.4-4.5,17.4-1.4,25.6
			c7.5,20.2,21,38.4,37,52.6C655.4,291.8,662.5,284.8,657.7,280.5L657.7,280.5z"/>
	</g>
</g>
<g>
	<g>
		<path class="st4" d="M763.7,276.3c-7.6,19-16.4,37.5-26.1,55.6c-1.4,2.6-0.3,6.7,3,7.3c12.8,2.5,25.9,4,39,4.1
			c6.6,0.1,13.3-0.1,19.9-0.7c4.6-0.4,11.2,0,14.1-4.4c3.1-4.7-0.6-9.6-3.3-13.3c-4-5.5-7.9-11.1-11.9-16.6
			c-8.1-11.3-16.3-22.7-24.4-34c-3.7-5.2-12.4-0.2-8.6,5c6.4,9,12.9,17.9,19.3,26.9c3.2,4.5,6.4,9,9.6,13.4c1.7,2.4,3.4,4.7,5.1,7.1
			c1,1.4,3.5,6.4,4.9,6.9c0.4,1,0.7,0.8,1-0.6c1-1.1,0.9-1.5-0.2-1.1c-0.7-0.3-2.9,0.3-3.7,0.4c-2.8,0.3-5.7,0.5-8.5,0.6
			c-5.4,0.3-10.7,0.3-16.1,0.2c-11.3-0.3-22.4-1.6-33.5-3.7c1,2.4,2,4.9,3,7.3c10.1-18.8,19.1-38.2,27.1-58
			C775.8,273,766.1,270.4,763.7,276.3L763.7,276.3z"/>
	</g>
</g>
<g>
	<g>
		<path class="st4" d="M773.4,344.6c1.5,26.1,10.2,56.3,40.2,61c28.8,4.5,52.1-16.4,61.6-42c2.2-6-7.4-8.6-9.6-2.7
			c-7.7,20.7-27.2,39.1-50.8,34.8c-24.3-4.4-30.1-30-31.3-51.1C783,338.2,773,338.2,773.4,344.6L773.4,344.6z"/>
	</g>
</g>
<g>
	<g>
		<path class="st4" d="M770.2,344.5c0.2,11.1-1.6,22.1-5.7,32.5c-4.1,10.4-9.4,19.1-21.3,20.6c-9.4,1.1-20.5,1-29.5-2.1
			c-8.8-3-17.1-11.4-14.4-21.4c1.7-6.2-7.9-8.9-9.6-2.7c-3.3,11.7,3.1,23.4,12.9,29.8c11.1,7.1,26.4,7.5,39,6.4
			c6-0.5,12.1-1.7,17.1-5.1c5.8-3.9,9.5-9.9,12.4-16.1c6.2-13.2,9.2-27.5,9-42.1C780.1,338.1,770.1,338.1,770.2,344.5L770.2,344.5z"
			/>
	</g>
</g>
<g>
	<g>
		<path class="st4" d="M924.9,292.9c49-6.1,97.9-12.1,146.9-18.2c6.3-0.8,6.4-10.8,0-10c-49,6.1-97.9,12.1-146.9,18.2
			C918.6,283.6,918.5,293.6,924.9,292.9L924.9,292.9z"/>
	</g>
</g>
<g>
	<g>
		<path class="st4" d="M943.7,325.8c17.6,3.3,35.1,6.6,52.7,9.9c6.3,1.2,9-8.4,2.7-9.6c-17.6-3.3-35.1-6.6-52.7-9.9
			C940,315,937.3,324.6,943.7,325.8L943.7,325.8z"/>
	</g>
</g>
<g>
	<g>
		<path class="st4" d="M927.3,359.6c32.7,12.8,65.8,24.4,99.2,34.9c6.2,1.9,8.8-7.7,2.7-9.6c-33.5-10.5-66.6-22.2-99.2-34.9
			C924,347.6,921.4,357.3,927.3,359.6L927.3,359.6z"/>
	</g>
</g>
<g>
	<g>
		<path class="st4" d="M578.6,279.8c-43-0.6-86-0.8-129.1-0.7c-6.4,0-6.4,10,0,10c43-0.1,86,0.2,129.1,0.7
			C585,289.9,585,279.9,578.6,279.8L578.6,279.8z"/>
	</g>
</g>
<g>
	<g>
		<path class="st4" d="M581.3,318.3c-12.1,5.6-26,6.2-38.9,8.9c-13.5,2.9-26.7,6.9-39.6,11.8c-5.9,2.3-3.4,12,2.7,9.6
			c13.5-5.2,27.3-9.3,41.5-12.2c13.4-2.7,27-3.8,39.5-9.5C592.1,324.2,587.1,315.6,581.3,318.3L581.3,318.3z"/>
	</g>
</g>
<g>
	<g>
		<path class="st4" d="M608.3,357.7c-48.1,23-96.2,46-144.3,69c-5.8,2.8-0.7,11.4,5,8.6c48.1-23,96.2-46,144.3-69
			C619.1,363.6,614.1,354.9,608.3,357.7L608.3,357.7z"/>
	</g>
</g>
<g>
	<g>
		<path class="st4" d="M849.7,150.8c-1.6,2.2-3.2,4.4-4.8,6.6c-1.5,2.1-0.4,5.7,1.8,6.8c2.6,1.4,5.2,0.5,6.8-1.8
			c1.6-2.2,3.2-4.4,4.8-6.6c1.5-2.1,0.4-5.7-1.8-6.8C853.9,147.7,851.3,148.6,849.7,150.8L849.7,150.8z"/>
	</g>
</g>
<g>
	<g>
		<path class="st4" d="M874.5,155.3c-2.1,4.8-4.3,9.6-6.4,14.4c-1.1,2.5-0.7,5.4,1.8,6.8c2.1,1.2,5.7,0.7,6.8-1.8
			c2.1-4.8,4.3-9.6,6.4-14.4c1.1-2.5,0.7-5.4-1.8-6.8C879.2,152.3,875.6,152.9,874.5,155.3L874.5,155.3z"/>
	</g>
</g>
<g>
	<g>
		<path class="st4" d="M902.2,158.9c-2.1,5.6-4.3,11.1-6.4,16.7c-1,2.5,1.1,5.5,3.5,6.2c2.8,0.8,5.2-1,6.2-3.5
			c2.1-5.6,4.3-11.1,6.4-16.7c1-2.5-1.1-5.5-3.5-6.2C905.6,154.6,903.2,156.4,902.2,158.9L902.2,158.9z"/>
	</g>
</g>
<g>
	<g>
		<path class="st4" d="M944,103.3c7.9-8.3,15.7-16.6,23.6-24.9c-2.8-0.7-5.6-1.5-8.4-2.2c3.6,9.4,5.6,19,5.7,29
			c0.1,6.4,10.1,6.4,10,0c-0.1-10.9-2.1-21.5-6-31.7c-1.3-3.3-5.6-5.2-8.4-2.2c-7.9,8.3-15.7,16.6-23.6,24.9
			C932.5,100.9,939.6,107.9,944,103.3L944,103.3z"/>
	</g>
</g>
<g>
	<g>
		<path class="st4" d="M669.8,157.8c-0.3,3.5-1.4,6.8-3.2,9.8c-3.3,5.5,5.3,10.6,8.6,5c2.7-4.6,4.2-9.5,4.6-14.8c0.2-2.7-2.4-5-5-5
			C671.9,152.8,670,155.1,669.8,157.8L669.8,157.8z"/>
	</g>
</g>
<g>
	<g>
		<path class="st4" d="M623.5,159.3c1.2,4.9,3.1,9.5,5.6,13.9c3.2,5.6,11.8,0.6,8.6-5c-2.1-3.7-3.6-7.4-4.6-11.5
			C631.6,150.4,622,153,623.5,159.3L623.5,159.3z"/>
	</g>
</g>
<g>
	<g>
		<path class="st4" d="M593,171.2c3.1,4,6.3,8,9.4,11.9c1.7,2.1,5.3,1.8,7.1,0c2.1-2.1,1.7-4.9,0-7.1c-3.1-4-6.3-8-9.4-11.9
			c-1.7-2.1-5.3-1.8-7.1,0C590.9,166.2,591.3,169.1,593,171.2L593,171.2z"/>
	</g>
</g>
<g>
	<g>
		<path class="st4" d="M527.7,120c0.2-13.1,2.9-25.7,7.9-37.8c-2.8,0.7-5.6,1.5-8.4,2.2c10.8,11.7,21.3,23.7,31.3,36.1
			c4.1,5,11.1-2.1,7.1-7.1C555.6,101,545.1,89,534.3,77.3c-2.8-3-7-1-8.4,2.2c-5.3,12.9-8,26.5-8.2,40.5
			C517.6,126.4,527.6,126.4,527.7,120L527.7,120z"/>
	</g>
</g>
<g>
	<g>
		<path class="st4" d="M588.6,26.2c4.6,19.3,7.4,38.9,8.3,58.8c0.3,6.4,10.3,6.4,10,0c-0.9-20.7-3.8-41.3-8.7-61.4
			C596.8,17.3,587.1,20,588.6,26.2L588.6,26.2z"/>
	</g>
</g>
<g>
	<g>
		<path class="st4" d="M596.5,27.5c2.7-3,6.5-3.4,10.4-3.5c3.1-0.1,8.6-0.9,10.2,2.6c3.7,8.3-9.2,13-14.6,15
			c-6,2.2-3.4,11.8,2.7,9.6c6.9-2.5,14.4-5.4,18.8-11.6c3.6-5,4.7-12.4,1.8-18c-3.5-6.6-10.6-7.7-17.4-7.6c-6.9,0-14,1.1-18.9,6.4
			C585.1,25.2,592.2,32.3,596.5,27.5L596.5,27.5z"/>
	</g>
</g>
<g>
	<g>
		<path class="st4" d="M638.4,32c-0.7,12.6,0.2,25.7,3.7,37.9c2.8,9.8,10.4,20.4,22,18.5c10.4-1.7,16.6-14.3,19.9-23.2
			c4-10.7,4.4-22.4,1.8-33.5c-1.4-6.3-11.1-3.6-9.6,2.7c1.9,8.1,1.7,16.4-0.6,24.4c-1.7,5.9-6,18-12.7,19.7
			c-8.9,2.2-11.5-12.1-12.6-18c-1.8-9.4-2.3-18.9-1.7-28.4C648.7,25.6,638.7,25.6,638.4,32L638.4,32z"/>
	</g>
</g>
<g>
	<g>
		<path class="st4" d="M705.7,78c0.2-9.1,0.5-18.2,0.7-27.3c0.1-4.5,0.2-9.1,0.3-13.6c0.1-3.6-0.2-9.1,3.2-11.5
			c3-2.1,7.6,0.6,9.9,2.9c2.7,2.7,2.3,5.4-0.2,8c-5.1,5.3-14,7.9-20.4,10.8c-3.5,1.6-3,6.8,0,8.6c13,7.9,26,15.8,39,23.7
			c5.5,3.4,10.5-5.3,5-8.6c-13-7.9-26-15.8-39-23.7c0,2.9,0,5.8,0,8.6c9-4.2,22.1-8,26.3-18.1c4.5-10.6-5.1-20.6-15.1-22.7
			c-12.3-2.7-18.1,8.9-18.7,19.3c-0.8,14.5-0.8,29-1.1,43.5C695.5,84.4,705.5,84.4,705.7,78L705.7,78z"/>
	</g>
</g>
<g>
	<g>
		<path class="st4" d="M765,77.8c-2.3-15.7-3.4-31.7-3.3-47.6c0-2,0-3.9,0.1-5.9c0-0.7,0-1.3,0-2c-0.2-2.2-0.1-2.6,0.3-1.2
			c1.8-1,5.3-0.8,7.4-0.8c6.5,0.1,10,5,6.1,11c-3.6,5.5-10.1,6.3-15,9.8c-5.4,3.8-3,9.3,0.8,13.1c10,10.1,21.3,19,33,27.1
			c5.3,3.6,10.3-5,5-8.6c-6.1-4.2-12-8.6-17.7-13.4c-2.8-2.3-5.5-4.7-8.1-7.2c-1.1-1-2.2-2.1-3.3-3.1c-0.7-0.6-1.3-1.3-1.9-1.9
			c-1.2-1.5-1.5-1.8-1.1-0.9c-0.5,1.2-1,2.4-1.5,3.5c1.7-2,5.6-2.8,7.9-4.1c2.4-1.4,4.7-3,6.7-4.9c4-3.7,6.7-9,6.8-14.6
			c0.2-11.8-10.9-16.7-21.2-15.8c-4.5,0.4-10.6,0.8-13.2,5.1c-1.5,2.5-1.2,5.9-1.2,8.7c-0.1,3.9-0.1,7.9,0,11.8
			c0.2,14.9,1.5,29.6,3.6,44.3C756.2,86.8,765.9,84.1,765,77.8L765,77.8z"/>
	</g>
</g>
<g>
	<g>
		<path class="st4" d="M797.9,34c1.2,11.3,3.2,22.4,6.2,33.3c1.7,6.2,11.3,3.6,9.6-2.7C811,54.6,809,44.4,807.9,34
			C807.2,27.7,797.2,27.6,797.9,34L797.9,34z"/>
	</g>
</g>
<g>
	<g>
		<path class="st4" d="M806.4,37c2.5-1.4,19.6-6.8,17.6,0.4c-1.6,5.9-12.2,4.6-15.9,8.7c-5.2,5.8,1.8,11,6.3,13.7
			c7,4.2,14,8.4,21,12.6c5.5,3.3,10.6-5.3,5-8.6c-4.3-2.6-8.6-5.2-12.9-7.7c-2.2-1.3-4.3-2.6-6.5-3.9c-1.1-0.6-2.2-1.3-3.2-1.9
			c-2.1-1.9-2.8-1-2.1,2.8c0.6,0.4,5.2-1.7,5.9-2c1.8-0.7,3.7-1.5,5.4-2.6c2.9-1.9,5.2-4.6,6.3-7.9c2.6-7-1.4-13.6-8.3-15.8
			c-7.9-2.5-16.8-0.3-23.8,3.6C795.7,31.5,800.8,40.2,806.4,37L806.4,37z"/>
	</g>
</g>
<g>
	<g>
		<path class="st4" d="M859,81c0-14.6,0-29.2,0-43.7c0-3.6,0-7.1,0-10.7c0-3.7,0.6-8,0-11.7c0-0.6,0-1.3,0-1.9c-1.2,1.4-1.2,2,0,1.8
			c0.4,0.4,2.3,0.3,3.1,0.6c2.4,0.9,4.4,2.9,5,5.5c2.7,11.4-15.1,9.4-15.2,19.9c-0.1,5.9,5.8,10.3,9.5,14.2
			c5.3,5.6,10.7,11.2,16,16.8c4.4,4.7,11.5-2.4,7.1-7.1c-6.2-6.6-12.4-13.1-18.7-19.7c-0.8-0.8-3.8-3.1-3.8-4.1
			c-0.1,1,0.9,0,1.9-0.5c2.8-1.3,5.4-2.2,7.6-4.4c8.8-8.5,7-23.1-3.8-29c-4.5-2.4-12.5-3.8-16.6,0.2c-2.1,2.1-2,5-2.1,7.7
			c-0.1,4.5,0,9.1,0,13.6c0,17.5,0,35,0,52.5C849,87.4,859,87.4,859,81L859,81z"/>
	</g>
</g>
<g>
	<g>
		<path class="st4" d="M904,74c6.4,0,6.4-10,0-10C897.6,64,897.6,74,904,74L904,74z"/>
	</g>
</g>
<g>
	<g>
		<path class="st4" d="M923,58c6.4,0,6.4-10,0-10C916.6,48,916.6,58,923,58L923,58z"/>
	</g>
</g>
<g>
	<g>
		<path class="st4" d="M940,41c6.4,0,6.4-10,0-10C933.6,31,933.6,41,940,41L940,41z"/>
	</g>
</g>
</svg>
