<?xml version="1.0" encoding="utf-8"?>
<!-- Generator: Adobe Illustrator 21.1.0, SVG Export Plug-In . SVG Version: 6.00 Build 0)  -->
<svg version="1.1" id="Layer_1" xmlns="http://www.w3.org/2000/svg" xmlns:xlink="http://www.w3.org/1999/xlink" x="0px" y="0px"
	 viewBox="0 0 566.3 501.4" style="enable-background:new 0 0 566.3 501.4;" xml:space="preserve">
<style type="text/css">
	.st0{fill:#E5AB1A;}
	.st1{fill:#311C4B;}
</style>
<g>
	<path class="st0" d="M491,208.3c17.8,12.6,31.5,29,41.1,49.3c9.6,20.3,14.4,42,14.4,65c0,30.6-6.9,57.3-20.7,80.1
		c-13.8,22.8-33.3,40.3-58.4,52.4c-25.1,12.1-54.4,18.2-87.9,18.2c-15.1,0-30.1-1.9-45.2-5.7c-15.1-3.8-28.3-8.8-39.6-15.1
		c-15.5-8.4-23.2-19.7-23.2-33.9c0-10,3.6-19.3,10.7-27.6c7.1-8.4,15.7-12.6,25.7-12.6c8.4,0,17.4,3.1,27,9.4
		c18,13.8,37.9,20.7,59.7,20.7c13,0,25.3-3.2,37.1-9.7c11.7-6.5,21.2-15.9,28.6-28.3c7.3-12.3,11-26.5,11-42.4
		c0-22.6-6.8-40.2-20.4-52.8c-13.6-12.6-30-18.8-49.3-18.8c-8.4,0-15.7,0.8-22,2.5c-6.3,1.7-10,2.7-11.3,3.1c-10.9,3.4-19.9,5-27,5
		c-9.2,0-16.5-3.2-22-9.7c-5.4-6.5-8.2-14.5-8.2-24.2c0-5.9,1-11.1,3.1-15.7c2.1-4.6,5.6-9.6,10.7-15.1l97.3-106.1H297.9
		c-10.1,0-18.4-3.3-25.1-10c-6.7-6.7-10-15.1-10-25.1c0-9.6,3.3-17.7,10-24.2c6.7-6.5,15.1-9.7,25.1-9.7H490
		c12.6,0,22.2,3.5,28.9,10.4c6.7,6.9,10.1,16,10.1,27.3c0,10-5,20.1-15.1,30.1l-84.2,92.9C452.8,189,473.2,195.7,491,208.3z"/>
</g>
<title>CatButt</title>
<g>
	<path class="st1" d="M334.9,376.7c0.3-1.1,0.1-2.2-0.4-2.9c-11.6-15.5-25.6-27.7-41.7-36.4c-3.3-1.8-6.8-3.3-10.1-4.8l-2-0.9
		c-3.5-1.6-7.4-3.4-8.3-8.4c-0.6-3.7-0.6-7.7-0.6-11.5c0-1.7,0-3.3,0-4.9c-0.2-5.7-0.3-11.4-0.5-17.1c-0.6-22.7-1.1-45.8-1.6-68.6
		c-0.2-11.7-0.5-23.4-0.7-35.1c0-2-0.1-4-0.2-6.1c-0.4-8.4-0.9-17.9,2.8-25.7c2.3-4.7,5.7-8.4,9-12.1l0.4-0.5c3-3.2,5.9-6.5,8.9-9.7
		L321,98.3c2.1-2.2,1.3-4.8,0-6.3c-1.3-1.5-3.5-2.5-5.5-1.1l-0.8,0.5l-0.9-0.3c-0.4-0.1-0.9-0.2-1.3-0.2c-28-1.1-57-2.3-85.6-0.9
		l-2.6,0.1l11.5-53.3c0.7-3.4-1.9-5.3-3.9-5.7c-0.7-0.1-4.1-0.7-4.9,3l-12.2,56.6l-1.5,0.1c-10.1,0.8-19.9,2.1-29.2,3.6l-2.4,0.4
		l0.6-26.2c0.1-3.1-2.3-4.3-4.3-4.3c-1.8,0-4.8,0.8-4.8,4.4l-0.6,28l-1.5,0.3c-6.4,1.4-12.7,3-18.7,4.8c-1.9,0.6-4,1.2-6.3,2
		l-2.2,0.7l-0.4-2.3c-5.2-27.1-12-54.2-20.1-80.6c-0.6-2.1-2.1-2.8-3.2-3.1c-1.8-0.4-3.8,0.2-5,1.4c-1,1-1.2,2.4-0.7,3.9
		c8.3,26.9,15.1,54.6,20.4,82.3l0.3,1.6l-1.5,0.6c-16.7,7.4-30.2,17.5-40.1,29.9c-12.5,15.7-21.8,35.4-28.5,60.4
		c-9.8,36.4-15.9,88.5,9.9,130c10.9,17.6,28.5,33.4,52,47c4.6,2.7,9.6,5.3,14.8,7.7l1.6,0.7l-0.5,1.7c-8.2,27.1-17,54.2-26.2,80.5
		c-1.2,3.4,1.6,4.7,2.5,5c1.9,0.7,5.2,0.5,6.4-2.9c9-25.7,17.6-52.1,25.6-78.5l0.6-2.1l2,0.8c6.3,2.5,12.7,4.7,18.9,6.5l1.7,0.5
		l-0.3,1.7c-1.6,10.8-4.1,21.6-7.6,32c-0.5,1.5-0.3,2.8,0.6,3.8c1.1,1.3,3.2,1.9,4.9,1.5c1.1-0.2,2.6-1,3.3-3.1
		c3.4-10.2,5.9-20.9,7.5-31.6l0.3-2.1l2.3,0.5c0.9,0.2,1.7,0.4,2.6,0.6c7.5,1.6,15.1,2.8,22.8,3.5l1.8,0.2l0,1.8
		c0.1,23.6-0.4,47.3-1.3,70.3c-0.2,3.9,3.4,4.2,4.1,4.3c2.4,0.1,4.9-1.3,5.1-4.4c0.9-22.7,1.3-46,1.3-69.2l0-2.1l2.1,0.1
		c32.4,1.4,64.9-4.4,93.9-16.9c4.9-2.1,9.8-4.5,14.7-7.1C333.8,379.3,334.6,378.1,334.9,376.7z M321.1,375.5
		c-26.7,12.8-56.7,19.5-87.4,19.5c-3.3,0-6.5-0.1-9.8-0.2l-1.9-0.1l0-1.9c-0.2-15.8-0.5-31.7-1.1-47.2c-0.1-3.2-2.7-4.5-5.1-4.4
		c-0.7,0-4.3,0.4-4.1,4.3c0.6,15.1,1,30.7,1.1,46.3l0,2.3l-2.2-0.2c-1.7-0.2-3.3-0.4-4.9-0.6c-6.5-0.9-13.1-2.1-19.5-3.6l-1.7-0.4
		l0.2-1.7c0.5-6.2,0.8-12.4,0.8-18.5c0-2.1-1.1-3.2-2-3.7c-1.5-0.9-3.7-0.9-5.2,0c-0.9,0.5-2,1.6-1.9,3.7c0,5.1-0.2,10.3-0.5,15.4
		l-0.2,2.5l-2.4-0.7c-5.8-1.7-11.5-3.7-17-5.9l-1.7-0.7l0.5-1.8c2.7-9.3,5.2-17.9,7.5-26.2c0.9-3.3-1.6-5-3.2-5.4
		c-1.7-0.5-4.7-0.3-5.6,3c-2.1,7.6-4.4,15.6-7,24.5l-0.7,2.3l-2.1-1c-20.5-9.8-37.7-22.3-51.1-37.3c-33.6-37.6-28.3-92.6-22.1-122
		c5.1-24.2,12.3-43.7,22-59.6c10.1-16.5,24.2-29.1,41.8-37.5l2.4-1.1l0.4,2.6c1.2,6.7,2.2,13.3,3.1,19.6c0.2,1.1,0.9,1.8,1.6,2.2
		c1.2,0.8,2.8,1.1,4,0.8c3.6-1,3.3-4.8,3.2-5.9c-1-6.9-2.2-14-3.4-21l-0.3-1.7l1.6-0.6c7.2-2.6,14.9-4.8,22.8-6.7l2.5-0.6l-0.4,18.4
		c-0.1,3.1,2.3,4.3,4.3,4.3c1.8,0,4.8-0.8,4.8-4.4l0.4-20.2l1.6-0.3c8.5-1.6,17.6-2.8,26.9-3.6l2.7-0.3l-5.8,26.9
		c-0.5,2.2,0.5,3.6,1.3,4.4c1.4,1.2,3.4,1.7,5,1.2c1.3-0.4,2.1-1.4,2.4-3l6.5-30.2l1.5-0.1c25.5-1.4,50.8-0.6,78.9,0.5l4.3,0.2
		l-16.8,18.2c-2.1,2.3-4.3,4.6-6.4,6.8c-5.6,5.9-11.3,11.9-16.2,18.4c-5.6,7.4-8.1,16.4-8,29c0,8.6,0.2,17.4,0.4,25.9
		c0.1,3.2,0.1,6.5,0.2,9.7c0.5,23.8,1,47.9,1.6,71.8c0.3,12,0.6,23.9,1,35.9l0,1.3c0.1,4.6,0.2,9.3,2.2,13.4c1.6,3.3,4.7,6.1,9,8.3
		c1.6,0.8,3.3,1.6,4.9,2.4c8.4,4.1,16.3,8,23.8,13.6c6.8,5.1,13.2,11,18.9,17.7l1.7,2L321.1,375.5z"/>
	<path class="st1" d="M247,279.8l-8.6-5.1c-0.7-0.4-1.5-0.6-2.3-0.6c-0.5,0-0.9,0.1-1.4,0.2c-1.2,0.3-2.1,1-2.6,2
		c-1.2,2.3-0.6,5.1,1.6,6.4l8.6,5.1c1,0.6,2.4,0.8,3.7,0.4c1.2-0.3,2.1-1,2.6-2C249.8,283.8,249.1,281.1,247,279.8z"/>
	<path class="st1" d="M239.4,296.8l-6.1-2.5c-0.2-0.1-0.5-0.1-0.8-0.1c-0.8,0-1.8,0.3-2.5,0.7c-1,0.6-1.9,1.7-2.1,2.7
		c-0.3,1.4-0.2,2.7,0.4,3.5c0.6,1,1.5,1.6,3,2.3l6.1,2.5c0.7,0.3,2.3,0,3.3-0.5l0,0c1-0.6,1.9-1.7,2.1-2.7c0.3-1.4,0.2-2.7-0.4-3.5
		C241.8,298,240.9,297.4,239.4,296.8z"/>
	<path class="st1" d="M221.3,319.8l11.1,6.2c2.2,1.2,5.1,0.5,6.3-1.6c0.6-1,0.8-2.3,0.4-3.6c-0.3-1.2-1-2.1-2-2.7l-11.1-6.2
		c-0.7-0.4-1.5-0.6-2.3-0.6c-1.6,0-3.1,0.8-4,2.2c-0.6,1-0.8,2.3-0.4,3.6C219.6,318.3,220.4,319.2,221.3,319.8z"/>
	<path class="st1" d="M245.6,201.1c-0.4-0.1-0.8-0.2-1.2-0.2c-0.8,0-1.5,0.2-2.2,0.6l-10.9,6.5c-2.1,1.3-2.9,4.2-1.7,6.3
		c0.6,1,1.6,1.8,2.8,2.1c1.2,0.3,2.4,0.2,3.4-0.4l10.9-6.5c2.1-1.3,2.9-4.2,1.7-6.3C247.8,202.2,246.8,201.4,245.6,201.1z"/>
	<path class="st1" d="M229,197c0,0,0.1-0.2,0.3-0.4c0.1-0.2,0.3-0.4,0.4-0.6l0.6-0.7c0.8-0.8,1.6-1.6,2.4-2.4l0.7-0.6l0.5-0.4
		c0.2-0.1,0.4-0.3,0.4-0.3c0.9-0.6,1.8-1.1,2.9-1.7c0.9-0.5,1.7-1.5,2-2.7c0.3-1.2,0.2-2.5-0.4-3.4c-1-1.5-2.4-2.3-4-2.3
		c-0.8,0-1.6,0.2-2.4,0.6c-4.4,2.3-8.3,5.8-11.5,10.4c-0.6,0.8-0.7,2-0.4,3.2c0.3,1.3,1.1,2.4,2.1,2.9
		C224.9,200,227.4,199.3,229,197z"/>
	<path class="st1" d="M223.4,172.4c0.6-0.2,1.4-0.3,1.7-0.4c0.9-0.2,1.8-0.8,2.4-1.9c0.7-1.2,0.9-2.6,0.6-3.6
		c-0.9-2.8-3.1-3.3-4.7-3.3c-0.5,0-0.9,0-1.2,0.1c-3.9,0.7-7.6,3.2-10,7c-0.6,0.9-0.7,2.1-0.4,3.4c0.3,1.2,1.1,2.3,2,2.8
		c2.3,1.2,4.9,0.6,6.4-1.6l0.2-0.2c0.1-0.1,0.1-0.1,0.2-0.2c0.1-0.2,0.3-0.4,0.4-0.5c0.1-0.1,0.3-0.3,0.4-0.4l0.3-0.2l0.2-0.1
		c0.3-0.2,0.5-0.3,0.7-0.4l0.5-0.3L223.4,172.4z"/>
	<path class="st1" d="M202.4,201.7c-1.2-0.9-2.5-1.2-3.9-1.2c-2.1,0-4.3,0.9-5.7,2.4c-2.4,2.4-3.3,6.7-2,9.7c1,2.3,3.7,3.5,5.9,3.5
		c1.9,0.1,3.9-0.7,5.4-2.2c0,0,0.1-0.1,0.1-0.1l0.3-0.3l0.3-0.2c0.8-0.4,1.5-1.1,2.1-1.9c0.9-1.3,1.2-3.4,0.7-5.4
		C205.3,204.5,204.2,203,202.4,201.7z"/>
	<path class="st1" d="M203.1,289.8l0.6-0.5l0.8,0c2.2,0.1,4.1-1.2,4.7-3.4c0.8-2.5,0.2-5.2-1.7-7.3c-1.8-2-4.4-3.1-6.9-3.1
		c-0.5,0-1.1,0-1.6,0.2c-5.3,1-8.2,6.8-7.9,11.7c0.1,1.6,0.8,3,2,3.8c1.1,0.8,2.5,1,3.8,0.7h0l4.6-1.2
		C202.1,290.6,202.6,290.3,203.1,289.8z"/>
	<path class="st1" d="M150.1,266.6c4.5,2.2,10.3-0.1,15.4-2c0.6-0.2,1.2-0.5,1.8-0.7c6.8-2.5,13.5-5.6,19.9-9l0.4-0.2
		c1-0.3,1.9-1,2.4-1.9c0.6-1.1,0.7-2.7,0.3-4c-0.2-0.7-0.7-1.7-1.8-2.2c-11.3-5-21.4-11.7-30.1-19.8c-1.2-1.1-2.9-1.6-4.5-1.2
		c-1.6,0.4-2.8,1.6-3.2,3.2c-1.3,4.2-2.3,8.6-3.3,14l-0.3,1.7l-1.7-0.1c-0.1,0-0.3,0-0.4,0c-10.2,1.3-18.9-3.9-26-8l-0.8-0.5
		c-3.2-1.9-6.8-4-8.7-7.8c-1.8-3.7-2.4-8-2.9-11.7l-0.1-0.5c-1-7.2-1.5-16.3,3.5-22.7c4.4-5.7,12.2-8.2,19.4-6.2
		c3.3,0.9,5-1.6,5.4-3.3c0.5-1.6,0.3-4.7-3-5.6c-2.4-0.7-4.9-1-7.3-1c-7.1,0-14.1,2.7-19.4,7.8c-8.5,8.1-9,20.6-8,29.6
		c0.6,5.2,1.2,10.6,3.1,15.4c2,5.2,5.5,9.1,11.1,12.7c1.4,0.9,2.7,1.7,4,2.5l3.5,2.1l-3.8,1.5c-2.2,0.9-4.2,1.9-6,3.1
		C101.4,257,95.7,265,93.6,274c-4.4,18.7,7.4,37.8,26.3,42.7c3.4,0.9,5.1-1.8,5.5-3.5c0.5-2,0-4.6-3-5.4
		c-7.1-1.8-13.4-6.5-17.1-12.9c-3.5-6-4.5-13-2.7-19.6c1.9-6.8,6.2-12.7,12-16.2c8.2-4.9,17.8-4.7,25.3-3.9c1,0.1,1.8-0.3,2.3-0.7
		l3.4-2.5l-0.3,4.3C145,261.8,146.4,264.8,150.1,266.6z M154.4,255.6c0.1-0.3,0.1-0.6,0.2-0.8c0.1-0.3,0.1-0.6,0.2-0.9
		c0.4-2.4,0.8-5,1.3-7.6c0.3-1.5,0.6-3,1-4.8l0.7-3.1l2.5,2c3.9,3,8,5.8,12.1,8.2l3.4,2l-3.6,1.6c-1.8,0.8-3.4,1.5-4.8,2
		c-2.5,1-5.1,1.9-7.7,2.8c-0.2,0.1-0.6,0.2-0.9,0.4c-0.5,0.2-1.1,0.5-1.7,0.6l-3.2,1.1L154.4,255.6z"/>
	<path class="st1" d="M291.2,373.5c1.8-0.7,3-2.1,3.4-3.7c0.3-1.4-0.1-2.9-1.3-4.2c-5.1-5.7-11.1-10.5-17.9-14.2
		c-0.8-0.5-1.6-0.6-2.3-0.6c-2,0-3.4,1.5-4,2.6c-1,1.8-1.2,4.4,1.6,5.9c3.1,1.7,6,3.6,8.7,5.8l2.7,2.1l-12.8,5.1
		c-2.1,0.8-4.2,2.8-3.4,5.7c0.3,1.2,1.4,2.4,2.7,3c0.7,0.3,1.7,0.7,2.8,0.2v0L291.2,373.5z"/>
	<path class="st1" d="M258.9,135.5l11.9-17.6c0.6-0.9,0.9-1.9,0.7-2.8l0-0.2l0-0.4c0-1.3-0.4-2.4-1.3-3.1c-0.9-0.9-2.3-1.3-3.8-1.2
		l-0.3,0l-0.3-0.1c-0.4-0.1-0.9-0.2-1.3-0.2h-14.8c-1.4,0-2.5,0.5-3.3,1.4c-0.7,0.8-1.1,2-1.1,3.2c0,1.7,0.9,4.6,4.4,4.6h9.3
		l-8,11.9c-1.6,2.4-0.5,4.4,1.2,5.5C253.7,137.8,256.9,138.4,258.9,135.5z"/>
</g>
</svg>
