<?xml version="1.0" encoding="utf-8"?>
<!-- Generator: Adobe Illustrator 21.1.0, SVG Export Plug-In . SVG Version: 6.00 Build 0)  -->
<svg version="1.1" id="Layer_1" xmlns="http://www.w3.org/2000/svg" xmlns:xlink="http://www.w3.org/1999/xlink" x="0px" y="0px"
	 viewBox="0 0 875 500" style="enable-background:new 0 0 875 500;" xml:space="preserve">
<style type="text/css">
	.st0{fill:#EE534A;}
	.st1{fill:#311C4B;}
	.st2{fill:#311C4B;stroke:#311C4B;stroke-width:4;stroke-miterlimit:10;}
</style>
<title>4Purrfect</title>
<path class="st0" d="M379.1,296c7.3,7.2,11.3,17.2,11,27.5c0.2,10-3.8,19.6-11,26.4c-7.3,7.1-16.5,10.6-27.5,10.6h-28.8v88.5
	c0.5,22.7-17.5,41.4-40.2,41.9c-0.6,0-1.2,0-1.7,0c-10.9,0.2-21.3-4.1-28.8-12c-7.8-8-11.7-18-11.7-29.9v-88.5H62
	c-10.1,0-19.5-4-28.1-12s-13-17.5-13-28.5c0-10.1,3.7-19.8,10.3-27.5L248,27c8.1-10.7,20.9-16.8,34.4-16.4
	c10.9-0.2,21.3,4.1,28.8,12c7.8,8,12,18.7,11.7,29.9v232.7h28.8C361.9,284.8,371.9,288.8,379.1,296z M129.3,285.1h111.2V147.8
	L129.3,285.1z"/>
<path class="st1" d="M749.5,141.9c-11.4-39.2-41.2-74.5-81.2-86.2c-23.3-6.8-50.1-4.5-72.6,4.5c-10.5,4-19.8,10.5-27.1,19.1
	c-5.5,6.6-11.2,16.7-18.8,21.7c-12.3-15.7-26.6-29.8-43.9-40s-36.5-15.5-56.2-17.7C406.8,38.5,367,63,344,98.7
	c-12.9,20-17.2,42.5-13.6,65.9c3.9,24.9,14.2,49.7,23.8,72.9c18.9,46.1,46.4,89.3,81,125.2c20.2,20.9,42.6,39.5,65.1,57.9
	c22.1,18.1,42.9,38.5,68,52.4c4,1.8,8.8,0.7,11.6-2.7c24.8-38.3,60.9-66.5,90.2-101c27.6-32.6,51.8-68.6,68.1-108.2
	C753.5,223.7,761.1,181.4,749.5,141.9z M725.6,253.1c-14.8,37.7-37.9,72.4-63.9,103.3c-29.2,34.8-65,63.4-90.9,100.9
	c-18.6-11.3-34.8-26-51.4-40.1c-18-15.2-36.5-29.7-53.8-45.7c-34.4-31.4-62.9-68.7-84.2-110.1c-10.7-20.8-18.9-42.6-26.7-64.6
	c-7.9-22.3-15.1-46.7-7.7-70.2c10.9-34.7,48.5-67.9,85.7-69.4c20.8-0.6,41.4,4,60,13.4c19.1,9.8,34.3,24.9,47.5,41.7
	c0.6,0.8,1.3,1.4,2.2,1.9c1.3,3,4.8,4.4,7.8,3.1c0.1,0,0.1-0.1,0.2-0.1c17.3-7,23.5-25.6,37.8-36.2c16.5-12.1,41.7-16,61.7-13.9
	c39.9,4.1,71.6,37.1,83.9,73.8C746.1,177.9,739.5,217.6,725.6,253.1L725.6,253.1z"/>
<path class="st1" d="M534.9,144.2c0-9.6-14.9-9.6-14.9,0c0,7,2.3,56.1-13.8,48.8c-6.1-2.7-7-15.7-7.7-21.2c-0.7-8.2-1-16.4-0.9-24.6
	c0-9.6-14.9-9.6-14.9,0c0,17.8-2.2,54.6,20.4,60.5c14.1,3.7,24.7-7.8,28.4-20.1C535.9,173.6,534.9,158.6,534.9,144.2z"/>
<path class="st1" d="M595.1,191.3c-9.7-6.9-18-15.6-26.6-23.8c8.3-8.1,16.9-16.3,13.4-29.3c-3.6-13.4-19.6-20.4-31.8-13.4
	c-25.5,14.7-4.3,55.5-4.8,77.3c-0.2,9.6,14.6,9.6,14.9,0c0.2-8.6-1.8-17.2-3.8-25.8c10.1,9.6,19.8,19.6,31.2,27.7
	C595.4,209.7,602.9,196.8,595.1,191.3z M553.5,161.6c-0.8-5.2-0.9-10.5-0.3-15.8c0.9-6.6,9.4-13.8,13.8-5.1
	C571.1,148.7,558.7,156.4,553.5,161.6L553.5,161.6z"/>
<path class="st1" d="M472.9,228.1c-4.9-13.4-20.1-19.8-32.4-11.6c-2.5,1.6-3.7,4.5-3.3,7.3c-0.2,0.7-0.4,1.4-0.4,2.1
	c-1.3,18.5,1.2,38.6,8.4,55.7c3.7,8.8,16.5,1.2,12.8-7.4c-2-4.7-3.5-9.7-4.5-14.7C467.7,255.7,478.5,243.2,472.9,228.1z
	 M451.7,244.5c-0.3-5.6-0.3-11.2,0-16.7c3.3-0.6,5.9,1.3,7.3,5.1C461.1,238.8,457.3,242.5,451.7,244.5L451.7,244.5z"/>
<path class="st1" d="M534.7,221c-3-9.1-17.2-5.2-14.3,4c2,6.2,0.4,14.1-1,20.3c-1.1,4.9-3.7,18-9.6,19.8c-9.1,2.9-14.6-37.7-16.7-44
	c-3-9-17.3-5.2-14.3,4c4.1,12.3,4.9,25.3,9.9,37.4c4.4,10.4,13.9,21.4,26.4,16.5c10.2-4,15-16.3,17.6-26
	C535.4,243.1,537.8,230.8,534.7,221z"/>
<path class="st1" d="M592.2,264.1c-7-5-15.1-9.6-22.1-15.2c1.5-0.3,2.9-0.8,4.3-1.5c6-3.1,10-8.9,10.7-15.6
	c1.2-12.5-11-19-22.1-17.4c-27.7,4.1-18.7,42.7-14.4,61.1c2.2,9.3,16.5,5.4,14.3-4c-0.9-3.9-1.7-7.8-2.4-11.8
	c7.7,6.2,16.2,11.5,24.2,17.2C592.4,282.5,599.8,269.6,592.2,264.1z M570.4,230.1c0.8,4.2-6,5.3-11.6,5.7c0.3-1.7,0.9-3.2,1.9-4.6
	C562.6,228.9,570,227.8,570.4,230.1z"/>
<path class="st1" d="M644.1,261.1c-5.6-4-13.8-7.5-19.6-12.5c5.9-3.6,9.3-10.2,8.6-17.1c-0.7-9.3-7.8-19.1-16.9-21.8
	c-11.1-3.3-19.9,5.4-22.3,15.7c-3.4,15.2,7.4,29,9.3,43.6c1.2,9.4,16,9.5,14.9,0c-0.3-2.7-0.9-5.4-1.6-8c6.4,4.9,14.2,8.7,20.1,12.9
	C644.4,279.5,651.9,266.6,644.1,261.1z M611.5,223.7c1.7-0.4,5.6,4.1,6.5,6.8c1.9,5.4-2.2,6.6-7.4,7.4c-0.3,0.1-0.7,0.1-1,0.3
	C608.4,233.5,607.1,224.7,611.5,223.7L611.5,223.7z"/>
<path class="st1" d="M660.2,227.7c-5.5-0.9-11.1-0.2-16.1,2.2c-3.5,1.7-4.7,7-2.7,10.2c2.1,3.4,6.6,4.6,10.2,2.7
	c-1.2,0.6,0.7-0.3,0.9-0.3c0.5-0.2,1.1-0.3,1.6-0.4c0,0,1,0,1.3,0s2.3,0.2,0.9,0c3.8,0.6,8.2-1,9.1-5.2
	C666.2,233.4,664.3,228.3,660.2,227.7z"/>
<path class="st1" d="M487.4,316.6h-8.7c-0.1-3.4-0.2-6.9-0.2-10.4h7.4c4.1,0,7.4-3.3,7.4-7.4c0-4.1-3.3-7.4-7.4-7.4h-10.4
	c-3.2,0.1-6,2.1-7.1,5.1c-3,0.9-4.9,3.7-4.8,6.8c0,16.8,0.6,33.5,6.2,49.5c3.1,8.9,17.5,5.1,14.3-4c-2-5.6-3.4-11.4-4.2-17.3h7.4
	c4.1,0,7.4-3.3,7.4-7.4C494.8,319.9,491.5,316.6,487.4,316.6z"/>
<path class="st1" d="M527,339.1c-2.6,0.6-7.5,2.2-9.6,0c-1.5-1.5-1.8-4.6-1.9-7.7c0.2,0,0.4-0.1,0.7-0.2c4.7-1.6,9.5-1.4,14.4-1.2
	c9.6,0.3,9.6-14.6,0-14.9c-5-0.3-10,0-14.9,0.8c0.2-0.9,0.5-1.9,0.9-2.7c2.1-3.9,7.7-4.8,11.6-5.8c9.3-2.4,5.3-16.7-4-14.3
	c-7.9,2-16.3,5.1-20.4,12.6c-3.8,6.9-3.3,15.5-2.8,23.1c0.4,7.3,1,16,6.6,21.4c6.4,6.2,15.7,5,23.6,3.3
	C540.3,351.4,536.4,337.1,527,339.1z"/>
<path class="st1" d="M559.4,307.5L559.4,307.5L559.4,307.5L559.4,307.5z"/>
<path class="st1" d="M577.5,333.6c-0.8,2-1.9,3.9-3.1,5.7c-0.6,0.7-1.3,1.4-2,2c-0.3,0.3-0.3,0.4-1.7-0.5c-1.7-1.4-3.2-3-4.4-4.8
	c-1.8-2.8-3.3-5.8-4.5-8.9c-1.4-3.5-2.4-7.1-3-10.8c-0.2-1.2-0.3-2.5-0.3-3.7c0-0.7,0.2-3.2,0.1-3.3c0.1-0.5,0.3-1,0.4-1.5
	c0.4,0,0.6,0,0-0.1l0,0l0.1-0.1v-0.1l0,0c0,0,0.1,0,0.1,0l0.2-0.2l-0.2,0.2c0,0.1,0,0.3,0,0l-0.2,0.1c1.6,0.4,3.2,1,4.6,1.9
	c8.4,4.6,15.9-8.2,7.4-12.8c-7-3.9-16.2-6.2-22.6,0.2c-5.3,5.3-5.4,13.7-4.5,20.6c1.8,13.4,9.1,34.5,24.1,38.2
	c10.5,2.6,18.1-6.1,22-14.8C594.3,332.4,581.5,324.9,577.5,333.6z"/>
<polygon class="st1" points="559.2,307.7 559.2,307.7 559.2,307.7 "/>
<path class="st1" d="M635,290.1c-15.4-3-29.7,1.3-45.1,1.2c-9.6,0-9.6,14.9,0,14.9c5-0.1,9.9-0.4,14.9-1.1v35.3
	c0,9.6,14.9,9.6,14.9,0v-36.7c3.8-0.2,7.6,0.1,11.4,0.8C640.4,306.2,644.3,291.9,635,290.1z"/>
<path class="st2" d="M865.7,72.7c-6.2-9.8-23.1-5.6-32.1-7.1c-3.9-0.7-5.5,5.9-1.6,6.6c4.7,0.6,9.4,0.9,14.1,1
	c3.5-0.1,7,0.2,10.4,0.9c-11.7,10.4-23.5,20.7-36.5,29c-7.4,4.7-17.7,10.9-27.5,12c1.5-10,0.7-21.6-8.7-24
	c-5.8-1.5-14.7,1.2-17.4,7.7c-2.7,6.5,1.5,13.1,5.9,17c3.5,3.1,7.8,5.2,12.4,5.8c-5.5,18.2-20.4,29.7-37.1,33
	c-3.9,0.8-2.2,7.4,1.6,6.6c19.3-3.7,35.1-17.7,41.1-36.4c0.3-0.9,0.6-1.9,0.9-3c8.3-0.6,16.8-4.2,24-8.1
	c16.9-9.2,31.8-22.4,46.4-35.4c1.3,4.4-0.5,12.2-1.1,15.8c-0.8,5.3-2,10.5-2.4,15.9c-0.3,4.5,5.8,4.4,6.1,0
	c0.5-6.9,2.3-13.7,3.1-20.6C867.7,84.1,868.6,77.2,865.7,72.7z M786.1,115c-3.7-0.4-7.1-2-9.9-4.5c-2.3-2-5.8-5.8-4.2-9.4
	c1.6-3.6,9.3-4.8,12-2.7C788.1,101.7,787.1,109.9,786.1,115z"/>
<path class="st2" d="M443.3,354.6c-18.3,5.9-33,18.7-47.5,30.9c-4.3,3.6-8.8,7.1-13,10.7c-9.7-9.2-26.6-10.5-38.5-14.9
	c-4.5-1.6-6.4,5.5-2,7.2c10.2,3.7,26.1,4.9,34.9,12.7l-1,0.9c-6.3,6.3-12.8,14.6-22,16.3c-0.5,0.1-1.1,0.3-1.5,0.7
	c-7.4-7.2-19.6-8.7-29.2-11.1c-4.6-1.1-6.6,6-2,7.2c8.5,2.1,21,3,27,10.3c7.7,9.2,0.3,24.1-1.3,34.2c-0.8,4.7,6.4,6.7,7.2,2
	c1.9-11.4,8-25,2.8-36.2c7-1.6,12.6-6.4,17.6-11.2c2.4-2.3,4.7-4.5,7.1-6.8c5.9,11.9,5.2,26.7,8.4,39.4c1.2,4.6,8.3,2.7,7.2-2
	c-3.5-13.6-2.6-30.2-9.9-42.7c2.1-1.8,4.1-3.6,6.3-5.4c16-13,31.4-28.6,51.5-35C449.8,360.3,447.9,353.1,443.3,354.6z"/>
</svg>
