<?xml version="1.0" encoding="utf-8"?>
<!-- Generator: Adobe Illustrator 21.1.0, SVG Export Plug-In . SVG Version: 6.00 Build 0)  -->
<svg version="1.1" id="Layer_1" xmlns="http://www.w3.org/2000/svg" xmlns:xlink="http://www.w3.org/1999/xlink" x="0px" y="0px"
	 viewBox="0 0 889 500" style="enable-background:new 0 0 889 500;" xml:space="preserve">
<style type="text/css">
	.st0{fill:#E5AB1A;}
	.st1{fill:#311C4B;}
</style>
<title>5CatYawn</title>
<path class="st0" d="M785.8,185.5c23.6,13.2,43.1,32.6,56.5,56.1c13.7,23.8,20.5,50.2,20.5,79.3c0.1,29.7-8.8,58.7-25.5,83.3
	c-17.1,25.6-40.5,46.6-67.8,60.8c-28.1,15-59.5,22.7-91.4,22.5c-18.3-0.1-36.5-2.8-54.1-8.1c-18.6-5.4-33.7-12.8-45.4-22.2
	c-5.8-5.2-10.4-11.6-13.4-18.8c-3.4-7.2-5.2-14.9-5.4-22.8c0-8.1,3.5-15.3,10.4-21.8s16-9.7,27.2-9.7c8.1,0,18.1,4.3,30.2,12.8
	c18.8,11.6,35.4,17.5,49.7,17.5c18,0.1,35.8-4.3,51.7-12.8c15.6-8,28.8-19.8,38.6-34.3c9.4-13.6,14.4-29.8,14.4-46.3
	c0-24.2-8.3-43.9-24.9-59.1c-16-15-37.2-23.2-59.1-22.8c-9.3-0.1-18.6,1.2-27.5,4c-9.9,3.4-19.5,7.5-28.9,12.1
	c-8.1,4-14.4,6.9-19.1,8.7c-4.6,1.8-9.5,2.7-14.4,2.7c-17.5,0-29.9-4.7-37.3-14.1c-7.5-9.6-11.4-21.4-11.1-33.6
	c-0.1-3.2,0.1-6.3,0.7-9.4l20.8-166.6c1.6-9.1,6.5-17.4,13.8-23.2c7.5-6.1,16.9-9.3,26.5-9.1h194.2c20.3-0.5,37.1,15.6,37.6,35.8
	c0,0.6,0,1.2,0,1.8c0.2,9.8-3.7,19.2-10.8,25.9c-7.2,6.9-16.9,10.7-26.9,10.4H649.1l-12.8,97.4c8.5-5,19.2-9,32.2-12.1
	c12.1-3,24.5-4.6,37-4.7C735.1,165,761.8,171.9,785.8,185.5z"/>
<path class="st1" d="M103.7,63.5c-19.5,77.8-19.8,159.1-0.8,237c8.9,36.3,23.3,70.9,50.1,97.6c25.5,25.4,57.5,45.3,90.3,59.7
	c68.5,30.1,146.3,34,214.6,0.7c32.3-15.7,59.6-39.7,75.5-72.2c16.1-33,25.6-70.1,31.2-106.2c13.2-83.8,3.4-170.7-29.3-249
	c-1.8-4.3-7.4-7.1-11.2-3l-30.7,34.2c-9.4,10.5-18.4,22-28.6,31.7c-5.6,5.3-11.6,4.5-18.7,3.5c-7.8-1-15.6-2-23.5-2.8
	c-15-1.6-30-2.8-45.1-3.6c-30.6-1.6-61.3-1.5-91.8,0.3c-30.4,1.8-60.7,5.8-91.2,7.7c-8.7,0.5-17.4,1-26.1,0.9c-4.2,0-7.7,0-11-3
	c-2.9-2.5-5-6.2-7.3-9.3l-30.5-42c-2.3-3.2-7.4-4.9-10.5-1.4c-5.8,6.4-9,14.8-8.9,23.4c0,8.6,13.4,8.6,13.4,0
	c-0.2-5.1,1.6-10.1,4.9-13.9l-10.5-1.4l28.8,39.7c8.6,11.7,14.8,21,30.4,21.2c33.2,0.5,66.5-4.6,99.6-7.3c33-2.7,66.1-3.4,99.1-2.2
	c16.5,0.6,33,1.7,49.5,3.3c7.7,0.8,15.5,1.6,23.2,2.6c7.3,0.9,15.2,3,22.5,1.2c7.1-1.6,12.2-6.4,17-11.7
	c5.8-6.4,11.5-12.8,17.3-19.2l38.3-42.7l-11.2-3c27.6,66.4,39,138.4,33.1,210c-2.9,35.4-10.1,70.3-21.4,104
	c-5.7,17-12.4,33.8-22.5,48.8c-9.5,13.7-21.5,25.6-35.3,34.9c-59.7,41.2-136.7,45.4-204.1,22.5c-33.2-11.4-64.1-28.4-91.6-50.2
	c-13.8-11-26.7-23.5-36.7-38.3c-9.5-14.6-16.9-30.5-22-47.2C96.2,238.6,96.1,148.9,116.6,67C118.6,58.6,105.8,55.1,103.7,63.5
	L103.7,63.5z"/>
<path class="st1" d="M121.9,132.1c1.4-7,3.5-13.8,6.4-20.3l-10.5,1.4l13.9,15c5.9,6.3,15.3-3.2,9.5-9.5l-13.9-15
	c-2.7-3-8.8-2.5-10.5,1.4c-3.5,7.5-6.1,15.4-7.8,23.5C107.3,136.9,120.2,140.5,121.9,132.1L121.9,132.1z"/>
<path class="st1" d="M487.7,123.4c10.7-7.3,20.9-15.4,30.5-24.2l-10.5-1.4c5.3,10.5,9.2,21.8,11.6,33.3c1.7,8.4,14.6,4.9,12.9-3.6
	c-2.7-12.7-7-25-12.9-36.5c-2-4-7.4-4.1-10.5-1.4c-8.7,8-18,15.4-27.8,22.1C473.8,116.7,480.5,128.2,487.7,123.4L487.7,123.4z"/>
<path class="st1" d="M506.7,265.2c37.2-5.2,74.6-8.6,112.2-10.1c8.6-0.3,8.6-13.7,0-13.4c-38.8,1.6-77.3,5.1-115.8,10.6
	C494.7,253.5,498.3,266.4,506.7,265.2z"/>
<path class="st1" d="M517.9,315.9c20.2-0.4,40.3,0.3,60.4,2.2c8.6,0.8,8.5-12.6,0-13.4c-20.1-1.8-40.3-2.6-60.4-2.2
	C509.3,302.7,509.3,316,517.9,315.9z"/>
<path class="st1" d="M497.2,354.4c37,15,75.1,27.2,114,36.4c8.4,2,11.9-10.9,3.6-12.9c-38.9-9.2-77-21.4-114-36.4
	C492.8,338.3,489.4,351.2,497.2,354.4z"/>
<path class="st1" d="M21.1,278.5c34.7-0.9,69.3-1.1,104-0.6c8.6,0.1,8.6-13.3,0-13.4c-34.7-0.5-69.3-0.3-104,0.6
	C12.5,265.3,12.5,278.7,21.1,278.5z"/>
<path class="st1" d="M140.1,307.4c-23.9,2.6-47.8,4.8-71.7,6.6c-8.5,0.6-8.6,14,0,13.4c24-1.8,47.9-3.9,71.7-6.6
	C148.6,319.9,148.7,306.5,140.1,307.4z"/>
<path class="st1" d="M159.8,345.8L24.7,385.9c-8.2,2.4-4.7,15.3,3.6,12.9l135.1-40.1C171.6,356.2,168.1,343.3,159.8,345.8z"/>
<path class="st1" d="M320.5,242.2L301,281.5c-3.8,7.7,7.7,14.5,11.5,6.7l19.4-39.3C335.8,241.2,324.3,234.4,320.5,242.2L320.5,242.2
	z"/>
<path class="st1" d="M321.8,246.3c3.7,7.3,7.3,14.7,10.6,22.2c1.6,3.6,3.1,7.3,4.6,11c0.8,2.1,1.7,4.2,2.5,6.4
	c0.4,1.2,0.9,4.6,1.4,3l3.1-4c2.2-0.5,1.8-0.7-1.5-0.5l-5.6-0.2l-9.8-0.4l-21-0.8c-8.6-0.3-8.6,13.1,0,13.4l30.8,1.1
	c6.2,0.2,15.7,1.9,17.3-6.4c1.5-7.3-5.2-17.8-8-24.4c-4-9.2-8.2-18.3-12.8-27.2C329.4,231.9,317.8,238.6,321.8,246.3L321.8,246.3z"
	/>
<path class="st1" d="M382,136.6c-2.1,6.8-3.9,13.7-5.2,20.7c-1.6,8.4,11.3,12,12.9,3.6c1.4-7,3.1-13.9,5.2-20.7
	C397.3,131.9,384.4,128.4,382,136.6L382,136.6z"/>
<path class="st1" d="M411.6,143.5c-1.3,6.8-2.1,13.7-2.4,20.6c-0.4,8.6,13,8.6,13.4,0c0.3-5.7,0.9-11.4,2-17
	c0.9-3.5-1.1-7.1-4.6-8.2C416.6,137.9,412.3,139.9,411.6,143.5L411.6,143.5z"/>
<path class="st1" d="M437.1,152.2l-1.1,18.8c-0.5,8.6,12.9,8.6,13.4,0l1.1-18.8C450.9,143.6,437.6,143.6,437.1,152.2z"/>
<path class="st1" d="M468.7,162.1c0.1,5.4-0.5,10.8-1.8,16c-2.1,8.4,10.8,11.9,12.9,3.6c1.6-6.4,2.4-13,2.3-19.6
	C481.9,153.5,468.5,153.5,468.7,162.1z"/>
<path class="st1" d="M246.4,148.7l9.2,16.7c4.1,7.5,15.7,0.8,11.5-6.7l-9.2-16.6C253.7,134.5,242.2,141.2,246.4,148.7L246.4,148.7z"
	/>
<path class="st1" d="M208.5,161.7c3.6,6.6,7.8,12.9,12.5,18.9c2.2,2.9,7.1,2.3,9.5,0c2.8-2.8,2.2-6.6,0-9.5
	c-3.9-5.1-7.4-10.5-10.4-16.2C216,147.4,204.4,154.2,208.5,161.7z"/>
<path class="st1" d="M180,183.5l9.2,12.6c2.1,3,5.8,4.4,9.2,2.4c2.9-1.7,4.5-6.2,2.4-9.2l-9.2-12.6c-2.1-3-5.8-4.4-9.2-2.4
	C179.5,176,177.8,180.5,180,183.5L180,183.5z"/>
<path class="st1" d="M153.4,205.6l15.2,17.5c5.6,6.5,15.1-3,9.5-9.5l-15.2-17.5C157.2,189.6,147.8,199.1,153.4,205.6z"/>
<path class="st1" d="M418.8,231.9c24.9,0,24.9-38.6,0-38.6S393.9,231.9,418.8,231.9z"/>
<path class="st1" d="M241.5,231.9c24.9,0,24.9-38.6,0-38.6S216.6,231.9,241.5,231.9z"/>
<path class="st1" d="M319.3,294.7c2.1,7.4,3.5,15,4.3,22.6c0.3,3.7,0.5,7.3,0.6,11c0.1,1.5,0.1,3-0.1,4.5c0,0-4.7,0.1-5,0.1
	c-12,1.8-23.2,7.3-32,15.8c-9,8.8-15.4,21.3-13.7,34.2c1.5,11.3,9.2,20.3,18.6,26.2c11.5,7.3,25.5,10.3,38.9,11.8
	c13.9,1.5,29,1.9,42.6-1.8c23.6-6.4,40.5-29.1,29.7-53.2c-13.1-29.4-46.9-32.6-75.1-33c-8.6-0.1-8.6,13.2,0,13.4
	c20.9,0.3,47,0.6,60.1,20c5.7,8.4,7.3,19,1.1,27.6c-6.9,9.7-19.1,13.4-30.3,14.3c-20.6,1.8-49.6,0.5-65.5-14.6
	c-19-18.1,5-41.9,23.7-46.5c4.9-1.2,11-0.5,15.2-3.6c3.7-2.7,4.9-6.9,5.2-11.3c0.8-13.5-1.8-27.8-5.3-40.8
	C329.9,282.9,317,286.5,319.3,294.7L319.3,294.7z"/>
</svg>
