<?xml version="1.0" encoding="utf-8"?>
<!-- Generator: Adobe Illustrator 21.1.0, SVG Export Plug-In . SVG Version: 6.00 Build 0)  -->
<svg version="1.1" id="Layer_1" xmlns="http://www.w3.org/2000/svg" xmlns:xlink="http://www.w3.org/1999/xlink" x="0px" y="0px"
	 viewBox="0 0 1780.5 1135.6" style="enable-background:new 0 0 1780.5 1135.6;" xml:space="preserve">
<style type="text/css">
	.st0{enable-background:new    ;}
	.st1{fill:#E4AC24;}
	.st2{fill:#311C4B;stroke:#311C4B;stroke-width:0.5;stroke-miterlimit:10;}
	.st3{fill:#311C4B;}
</style>
<g class="st0">
	<path class="st1" d="M1723.4,128.4c15.6,13.2,23.4,30.1,23.4,50.9c0,10.4-2.4,21.2-7.2,32.3l-315,695.8
		c-5.6,14.4-14.4,25.6-26.3,33.5c-12,8-25.1,12-39.5,12c-20,0-37.3-6.8-52.1-20.4c-14.8-13.6-22.2-29.9-22.2-49.1
		c0-11.2,2.4-22,7.2-32.3l279-610.8h-318.6c-19.2,0-35.1-6.4-47.9-19.2c-12.8-12.8-19.2-28.7-19.2-47.9c0-18.4,6.4-33.7,19.2-46.1
		c12.8-12.4,28.7-18.6,47.9-18.6h416.8C1689.7,108.6,1707.8,115.2,1723.4,128.4z"/>
</g>
<g>
	<path class="st2" d="M105,343.1c-91.5,101.1-90.6,267-10.3,374.2c85.3,113.9,238.7,156.3,373.4,118
		C537,815.7,600.4,776.4,647,721.7c46-54,74.1-121.5,82.9-191.7c8.7-69.1-2.4-141.8-38.7-201.7c-34.7-57.1-89.7-99.3-152.4-121.5
		c-143.2-50.8-293,14.9-399.1,112.4c-14.4,13.2-28,27-41.2,41.5c-7.6,8.3,4.7,20.8,12.3,12.3c92.4-100.8,227.9-186.6,370.3-163
		c61.4,10.1,119.6,39,162.4,84.5c45.8,48.4,69.1,112.9,71.4,178.9c2.4,67.3-15.3,135.4-49.8,193.1
		c-35.2,58.7-88.9,104.7-150.9,133.3C394.1,855,244.9,838.5,146,748c-48.5-44.4-80.2-103.5-89.9-168.7c-9.3-63,1-130.7,33.4-186
		c7.9-13.6,17.2-26.2,27.9-37.9C125,347.1,112.5,334.6,105,343.1L105,343.1z"/>
	<path class="st2" d="M152.1,316.7c54.2,43.8,94.2,101.7,126.5,162.8c34.4,65.2,65.7,135.5,82,207.6c10.1,44.5,12.6,90.4,2.2,135.1
		c-2.5,11,14.4,15.7,16.9,4.7c18.6-80.2-1.9-161.2-31.3-235.9c-27-68.9-58.8-137.6-101.9-198.1c-23.4-33-50.5-63.2-82-88.8
		C155.8,297.3,143.3,309.7,152.1,316.7L152.1,316.7z"/>
	<path class="st2" d="M118.4,374.3c125.2,122.1,194.3,294.6,200.4,468.3c0.4,11.2,17.9,11.4,17.6,0c-5-140.2-49.5-279.6-131.4-394.2
		c-22.2-30.9-47-60.1-74.2-86.6C122.7,353.9,110.2,366.4,118.4,374.3L118.4,374.3z"/>
	<path class="st2" d="M266.6,823.5c-11-43.3-21.9-86.4-32.7-129.7c-10.3-40.8-19.8-81.8-32.7-121.9
		c-21.8-66.7-57.1-135.5-122.3-168.7c-10-5.1-19,10-8.9,15.1c65.5,33.3,97.9,104.3,118.3,171.2c23.9,78.5,41.3,159.1,61.4,238.6
		C252.5,839.2,269.4,834.6,266.6,823.5L266.6,823.5z"/>
	<path class="st2" d="M51.1,504.8c47,79.8,81,166.2,102.2,256.2c2.6,11,19.6,6.4,16.9-4.7C148.7,664.9,113.9,577,66.2,496
		C60.5,486.2,45.4,495.1,51.1,504.8L51.1,504.8z"/>
	<path class="st2" d="M346.1,574.4c78.8-107.9,212.1-221.8,355.1-166.6c10.5,4,15.1-12.9,4.7-16.9c-70.6-27.2-149.7-13-214.4,22.9
		c-65.2,36.2-116.8,92.1-160.3,151.7C324.3,574.7,339.6,583.5,346.1,574.4L346.1,574.4z"/>
	<path class="st2" d="M364.1,623.1C444,522.7,571.6,439.2,704.2,481.8c10.8,3.5,15.4-13.5,4.7-16.9
		c-138.4-44.4-273.5,40.6-357.2,145.9C344.7,619.5,357.1,632,364.1,623.1L364.1,623.1z"/>
	<path class="st2" d="M379.4,680c21.9-21.6,45.8-40.9,70.6-59.1c23.2-16.8,46.9-33.6,72.8-45.9c53.1-25.2,113.3-20.5,160.6,15.1
		c9,6.8,17.8-8.5,8.9-15.1c-48.4-36.5-111.8-43.3-167.4-20c-29.5,12.3-56.2,30.8-82,49.5c-26.8,19.3-52.6,39.8-76,63.1
		C359,675.6,371.4,688,379.4,680L379.4,680z"/>
	<path class="st2" d="M395.4,758.5c40.4-37.7,83.6-73.7,130.4-103.2c22.5-14.3,47.6-26.6,74.9-25.9c29.5,0.8,48.8,20.5,67.4,41.1
		c7.6,8.3,20-4,12.3-12.3c-18.6-20.5-38.4-40.2-67-44.9c-28.4-4.7-56.6,4.6-81.4,18c-54.4,29.7-104,73-149.1,115
		C374.7,753.9,387.2,766.3,395.4,758.5L395.4,758.5z"/>
	<path class="st2" d="M419.8,838c34.4-22.2,60.2-54.4,91.7-80.2c30.1-24.7,73.2-45.5,109.4-20.5c9.3,6.4,18.2-8.7,8.9-15.1
		c-35-24-79.2-13-112.1,9.2c-39.1,26.5-67.1,66-106.8,91.5C401.5,829,410.2,844.2,419.8,838L419.8,838z"/>
	<path class="st2" d="M316.3,499.4c20.3-12.1,42.7-15.7,65.6-9.4c11,2.9,15.5-14,4.7-16.9c-27.2-7.5-54.9-3.1-79.2,11.2
		C297.7,490,306.6,505.1,316.3,499.4L316.3,499.4z"/>
	<path class="st2" d="M293.3,447c41.5-38.7,99.3-26.5,148.8-13.9c11,2.8,15.7-14.1,4.7-16.9c-56.3-14.3-119.3-25-165.9,18.4
		C272.6,442.3,284.9,454.6,293.3,447L293.3,447z"/>
	<path class="st2" d="M242.6,386.2c48.1-32.5,103.2-62.6,162.7-63.1c50.1-0.6,99.5,21.9,125.8,65.5c5.8,9.7,21.1,0.8,15.1-8.9
		c-28.3-46.7-79.9-72.4-133.8-74.1c-65.1-2.1-126.4,30-178.8,65.3C224.5,377.3,233.2,392.6,242.6,386.2L242.6,386.2z"/>
	<path class="st2" d="M217.1,352.9c49.4-57.8,122.6-95.4,199.7-92.5c76.1,3.1,145.8,46.9,187.1,109.9c6.1,9.4,21.4,0.6,15.1-8.9
		c-34.3-52.3-85.9-92.4-146.2-109.6c-60.8-17.3-125.8-8.6-181.7,20c-33,16.9-62.3,40.5-86.3,68.7C197.4,349,209.8,361.5,217.1,352.9
		L217.1,352.9z"/>
</g>
<path class="st3" d="M824.8,619.7c-12.5,10.4-18.9,27.3-26.5,42.3c-9.2,18.2-18.4,37.6-31,52.8c-11.8,14.3-26.6,26.5-42.9,32.6
	c-17,6.4-36.8,4.6-53.4-2.8c-15.6-6.9-29.8-24.1-47.7-22.5c-8.9,0.8-9.1,17.3,0,16.5c7.6-0.7,14.5,3.7,20.9,7.9
	c7,4.6,13.7,9.4,21.1,13c17.2,8.2,37.8,10.4,56,5.8c16.8-4.3,32.4-15.3,45.6-27.9c14.4-13.7,24.7-31.3,34.4-49.7
	c5.2-9.8,10.3-19.8,15.1-30c4.2-8.5,8.5-18.2,15.5-24C839.1,627.8,832.2,613.6,824.8,619.7z"/>
<path class="st3" d="M1436.5,600.5c-16.2-1.8-33.4-7.2-47.5-17.3c9.1-10.3,14.9-25,7.3-39.3c-8.6-16.2-26.8-18.3-35.9-1.2
	c-7.2,13.9-3.1,27.9,4.6,38.7c-6.5,3.2-13.7,5.4-20.7,5.8c-5.7,0.3-11.6-0.7-17.1-1.1c-6-0.4-12-1-18-1.5c-12-1.2-24-2.8-35.9-4.6
	c-13.1-2.1-26.2-4.4-39.3-7.2c-3.1-0.7-6.1,0.8-7.8,4c-1.8,3.3-1.4,7.5,0.7,10.8c27,41.5,84,145.4,29.6,212.1
	c-11.5,14-27.4,22.5-42.7,22.9c-12.7,0.3-24.3-5-33.4-15.3c-15.9-18-23.7-47.9-23.8-91.3c0-4.2-2.1-7.5-5.4-8.5
	c-3.1-1-6.5,0.6-8.2,4c-4,8-8,16.1-12,24.1c-8,16.1-16.1,32.2-24.1,48.3c-0.5,1-0.9,1.9-1.4,2.9c-5.1,10.3-10.9,21.9-18.8,24.3
	c-3.6,1.1-7.3,0.1-11.5-2.8c-7.4-5.3-14.1-15.4-8.2-51c9.9-59.6,27.4-118.6,41.5-163.3c1-3.2,0.3-6.5-1.6-8.7
	c-2.4-2.5-6-3.2-8.8-1.8c-42.6,23.2-87.3,35.1-133.1,35.6c-1.2-5.3-2.6-10.3-4.2-15.1c-11-32.7-36.3-51.7-61.4-46.5
	c-10.7,2.2-24.7,13-30.5,27.3c-23.4,0.8-45.4,19.7-60.5,51.9c-5.7,12.1-10,25-14.3,37.5c-2.7,7.8-5.4,15.8-8.3,23.4l-0.1,0.3v0.3
	c-1.2,6.8-1.5,14.8-1.6,17.9c-0.3,6.8,0,9.7,0.5,11.1c-0.3,3.6-0.3,7.1-0.3,10.4c0.1,12.9,1.5,31.9,7.8,48.4
	c6.5,17.2,16.7,27.6,29.9,30.9c24,6,54.1-3.3,81-24.8c20.5-16.4,38.3-40.6,50-68.2c12.4-28.7,17.4-58.7,14.7-87.1
	c6.5-0.1,12-0.4,17.2-0.8c35.1-2.9,70-12.6,103.9-28.9c-10.7,35.6-20.1,70.7-27.4,104.4c-0.8,3.9-1.9,8-3,12.3
	c-6.6,27.5-14.9,61.6-1.9,86.6c5.5,10.7,13.9,17.5,23.1,19c8.5,1.2,17-2.2,23.8-9.8c8-9,13.7-21.1,19.1-32.9
	c1.8-3.7,3.4-7.2,5.1-10.7l15.8-31.6c3.4,35.6,13.6,62.1,30.2,78.6c11.2,11.2,25.1,16.8,39.5,16.8c15.5,0,31.7-6.5,45.6-19.6
	c29.9-28.2,36.6-77.3,32.9-113.9c-2.5-24.3-9.7-58.9-42.4-113c24,4.4,48,7.6,72.1,9.6c9.5,0.8,19.2,1.7,28.7,0.1
	c9.1-1.5,18-4.7,26.2-10c17.1,14.4,39.3,21.6,59.6,23.9C1445.1,618.5,1445.6,601.5,1436.5,600.5z M886.6,585
	c0.6-2.1,2.2-3.9,4.9-5.1l0.3-0.1c3.4-2.5,8.2-4.3,12.5-4.7c24-2.5,39.1,21.4,45.3,44.1c-1.6,0-3.1-0.1-4.8-0.3
	c-13-0.8-25.8-2.6-38.4-5.3c-1.2-0.3-2.5-0.4-4.2-0.6c-3.3-0.4-8-1-10.1-2.4l-2.4-14.1l-0.3-0.4C886.9,591.4,886,587.6,886.6,585z
	 M897.3,775.4c-19.1,15.8-40.1,24.4-60.9,24.8c-9.8,0.3-17.8-3.3-23.8-10.5c-12.7-15.3-14-42.4-13.6-57.3
	c1.4-53.7,29.8-104.2,69.2-124.1c0.8,2.4,1.9,4.6,3.1,6.7c8.8,14.4,27.6,16.5,42.6,18.2c2.7,0.3,5.3,0.6,7.6,1
	c10.1,1.5,20.7,2.5,31.4,2.9C957.9,688.2,935.7,743.5,897.3,775.4z M1377.8,572.6c-0.1,0.1-0.3,0.3-0.5,0.4c-2.5-2.8-4.5-6-5.7-9.4
	c-1.8-5.3-0.6-12.9,4.2-15.5c4.7-2.5,10,4.2,10.1,9.7C1386.2,563.9,1381.4,569.2,1377.8,572.6z"/>
<path class="st3" d="M1338.7,486.1c-1.9-1.2-4.3-1.4-6.4-0.3c-1.3,0.7-2.4,1.9-3.4,3.1c-5.3,6.1-11.2,11.5-17.3,16.5
	c-3,2.4-5.9,4.6-8.8,6.7c-2.6,1.8-5.7,4.6-8.5,5.4c-26.6,15-46.4-1-58.5-16.9c-5.5-7.5-10.7-16.2-15.1-25.9
	c12.4-15.8,23.7-34.7,32.9-54.6c9.5-20.9,16.7-43.3,21-66.2v-0.3c3.6-18.9,8.3-44.8-3.7-61.6c-6.3-8.7-14.6-12.8-24-11.9
	c-17.1,1.7-35.1,19.3-43.2,35.2c-18,35-20.5,84.1-6.8,134.7c1.9,6.8,3.9,13.5,6.3,19.8c-13,14.4-36.6,36.6-57.9,33.4
	c-10.5-1.5-19.5-9.2-26.6-22.6c-16.1-30.4-13.4-65.7-11-100c1-13.6,2.1-27.6,1.9-41.2v-1.8c-0.1-16.5-0.3-47.2-14.7-54.9
	c-12.1-6.5-21.9,7.9-28.4,17.5c-0.8,1.2-1.5,2.4-2.2,3.3c-23.4,33.3-45,69.9-64.1,109c0.3-40.8-1.3-81.7-4.6-121.9
	c-0.3-3.9-2.4-7.1-5.2-8.2c-2.6-1-5.2-0.3-7.2,2.2c-50.2,61-92.3,130.9-125.1,208.1l24-215.8c0.6-5.3-2.5-9.6-5.7-10.8
	c-2.5-0.8-5.8-0.1-7.8,4.4c-34.2,81.1-106.2,129.1-179.1,119.4c-3.7-0.6-6.8,2.4-7.3,7.1c-0.5,4.7,1.9,10.1,6.7,10.8
	c6.5,0.8,13,1.2,19.5,1.2c59.4,0,117.8-35.6,154.9-95l-25.8,231.2c-0.6,5.3,2.7,9.8,6.1,11c0.6,0.1,1.2,0.3,1.6,0.3
	c2.5,0,4.6-1.8,5.8-5c32.4-89.6,76.6-170.3,131.5-240.4c3.1,45.4,4,91.3,2.5,136.5c-0.1,4.2,2,7.6,5.4,8.6c3.3,1.1,6.6-0.6,8.2-4.2
	c11.8-26.6,24.3-51.6,37.2-74.3c0.8-1.4,2-3.6,3.6-6.4c9.3-17.3,34.1-63.2,48.3-66.2c1.8-0.4,3.1,0,4.3,1.1c4.9,4.6,3.4,34.1,3,43.8
	c-0.1,1.8-0.1,3.2-0.3,4.4c-0.3,8.7-1,17.6-1.8,26.1c-0.5,6.4-1,13-1.4,19.7c-1.2,20.5-1.4,47.4,7.6,73.5
	c6.4,18.3,16.4,32.7,28.3,40.8c13.1,8.9,28,9.8,42.9,3.1c13.6-6.2,27-16.5,39.9-30.5c13.6,29.1,31,47.4,50.6,53.1
	c17.8,5.1,36.2-1.9,51.4-12.8c5.8-4,11.2-8.7,16.5-13.6c4.7-4.4,9.2-9,12.1-15.3c0.6-1.4,1.2-2.8,1.4-4.3c0.3-2.9-0.7-6-2.7-7.8
	C1339.1,486.4,1338.9,486.2,1338.7,486.1z M1202.7,375.4c1.5-25.5,8.9-48.4,20.4-62.7c6.4-8,15.5-13.6,23.2-14.3
	c0.6,0,1.2-0.1,1.8-0.1c4.6,0,8,1.5,10.5,4.9c4.6,6,5.9,18,3.7,33.8c-6.1,44.1-23.4,86.4-48.7,119.6
	C1205.1,430.9,1201.2,402.3,1202.7,375.4z"/>
</svg>
