<?xml version="1.0" encoding="utf-8"?>
<!-- Generator: Adobe Illustrator 21.1.0, SVG Export Plug-In . SVG Version: 6.00 Build 0)  -->
<svg version="1.1" id="Layer_1" xmlns="http://www.w3.org/2000/svg" xmlns:xlink="http://www.w3.org/1999/xlink" x="0px" y="0px"
	 viewBox="0 0 1862.4 743.2" style="enable-background:new 0 0 1862.4 743.2;" xml:space="preserve">
<style type="text/css">
	.st0{fill:#E4AC24;}
	.st1{font-family:'Quicksand-Bold';}
	.st2{font-size:848.0561px;}
	.st3{fill:#311C4B;stroke:#311C4B;stroke-width:0.5;stroke-miterlimit:10;}
	.st4{fill:#311C4B;}
</style>
<text transform="matrix(1 0 0 1 -14.2754 664.1256)" class="st0 st1 st2">7</text>
<g>
	<path class="st3" d="M340.5,202.1c-91.5,101.1-90.6,267-10.3,374.2c85.3,113.9,238.7,156.3,373.4,118
		c68.9-19.6,132.3-58.9,178.9-113.6c46-54,74.1-121.5,82.9-191.7c8.7-69.1-2.4-141.8-38.7-201.7c-34.7-57.1-89.7-99.3-152.4-121.5
		C631.1,15,481.3,80.7,375.2,178.2c-14.4,13.2-28,27-41.2,41.5c-7.6,8.3,4.7,20.8,12.3,12.3c92.4-100.8,227.9-186.6,370.3-163
		c61.4,10.1,119.6,39,162.4,84.5c45.8,48.4,69.1,112.9,71.4,178.9c2.4,67.3-15.3,135.4-49.8,193.1
		c-35.2,58.7-88.9,104.7-150.9,133.3C629.6,714,480.4,697.5,381.5,607c-48.5-44.4-80.2-103.5-89.9-168.7c-9.3-63,1-130.7,33.4-186
		c7.9-13.6,17.2-26.2,27.9-37.9C360.5,206.1,348,193.6,340.5,202.1L340.5,202.1z"/>
	<path class="st3" d="M387.6,175.7c54.2,43.8,94.2,101.7,126.5,162.8c34.4,65.2,65.7,135.5,82,207.6c10.1,44.5,12.6,90.4,2.2,135.1
		c-2.5,11,14.4,15.7,16.9,4.7c18.6-80.2-1.9-161.2-31.3-235.9c-27-68.9-58.8-137.6-101.9-198.1c-23.4-33-50.5-63.2-82-88.8
		C391.3,156.3,378.8,168.7,387.6,175.7L387.6,175.7z"/>
	<path class="st3" d="M353.9,233.3c125.2,122.1,194.3,294.6,200.4,468.3c0.4,11.2,17.9,11.4,17.6,0c-5-140.2-49.5-279.6-131.4-394.2
		c-22.2-30.9-47-60.1-74.2-86.6C358.2,212.9,345.7,225.4,353.9,233.3L353.9,233.3z"/>
	<path class="st3" d="M502.1,682.5c-11-43.3-21.9-86.4-32.7-129.7c-10.3-40.8-19.8-81.8-32.7-121.9
		c-21.8-66.7-57.1-135.5-122.3-168.7c-10-5.1-19,10-8.9,15.1c65.5,33.3,97.9,104.3,118.3,171.2c23.9,78.5,41.3,159.1,61.4,238.6
		C488,698.2,504.9,693.6,502.1,682.5L502.1,682.5z"/>
	<path class="st3" d="M286.6,363.8c47,79.8,81,166.2,102.2,256.2c2.6,11,19.6,6.4,16.9-4.7c-21.5-91.4-56.3-179.3-104-260.3
		C296,345.2,280.9,354.1,286.6,363.8L286.6,363.8z"/>
	<path class="st3" d="M581.6,433.4c78.8-107.9,212.1-221.8,355.1-166.6c10.5,4,15.1-12.9,4.7-16.9c-70.6-27.2-149.7-13-214.4,22.9
		c-65.2,36.2-116.8,92.1-160.3,151.7C559.8,433.7,575.1,442.5,581.6,433.4L581.6,433.4z"/>
	<path class="st3" d="M599.6,482.1c79.9-100.4,207.5-183.9,340.1-141.3c10.8,3.5,15.4-13.5,4.7-16.9
		C806,279.5,670.9,364.5,587.2,469.8C580.2,478.5,592.6,491,599.6,482.1L599.6,482.1z"/>
	<path class="st3" d="M614.9,539c21.9-21.6,45.8-40.9,70.6-59.1c23.2-16.8,46.9-33.6,72.8-45.9c53.1-25.2,113.3-20.5,160.6,15.1
		c9,6.8,17.8-8.5,8.9-15.1c-48.4-36.5-111.8-43.3-167.4-20c-29.5,12.3-56.2,30.8-82,49.5c-26.8,19.3-52.6,39.8-76,63.1
		C594.5,534.6,606.9,547,614.9,539L614.9,539z"/>
	<path class="st3" d="M630.9,617.5c40.4-37.7,83.6-73.7,130.4-103.2c22.5-14.3,47.6-26.6,74.9-25.9c29.5,0.8,48.8,20.5,67.4,41.1
		c7.6,8.3,20-4,12.3-12.3c-18.6-20.5-38.4-40.2-67-44.9c-28.4-4.7-56.6,4.6-81.4,18c-54.4,29.7-104,73-149.1,115
		C610.2,612.9,622.7,625.3,630.9,617.5L630.9,617.5z"/>
	<path class="st3" d="M655.3,697c34.4-22.2,60.2-54.4,91.7-80.2c30.1-24.7,73.2-45.5,109.4-20.5c9.3,6.4,18.2-8.7,8.9-15.1
		c-35-24-79.2-13-112.1,9.2c-39.1,26.5-67.1,66-106.8,91.5C637,688,645.7,703.2,655.3,697L655.3,697z"/>
	<path class="st3" d="M551.8,358.4c20.3-12.1,42.7-15.7,65.6-9.4c11,2.9,15.5-14,4.7-16.9c-27.2-7.5-54.9-3.1-79.2,11.2
		C533.2,349,542.1,364.1,551.8,358.4L551.8,358.4z"/>
	<path class="st3" d="M528.8,306c41.5-38.7,99.3-26.5,148.8-13.9c11,2.8,15.7-14.1,4.7-16.9c-56.3-14.3-119.3-25-165.9,18.4
		C508.1,301.3,520.4,313.6,528.8,306L528.8,306z"/>
	<path class="st3" d="M478.1,245.2c48.1-32.5,103.2-62.6,162.7-63.1c50.1-0.6,99.5,21.9,125.8,65.5c5.8,9.7,21.1,0.8,15.1-8.9
		c-28.3-46.7-79.9-72.4-133.8-74.1c-65.1-2.1-126.4,30-178.8,65.3C460,236.3,468.7,251.6,478.1,245.2L478.1,245.2z"/>
	<path class="st3" d="M452.6,211.9c49.4-57.8,122.6-95.4,199.7-92.5c76.1,3.1,145.8,46.9,187.1,109.9c6.1,9.4,21.4,0.6,15.1-8.9
		c-34.3-52.3-85.9-92.4-146.2-109.6c-60.8-17.3-125.8-8.6-181.7,20c-33,16.9-62.3,40.5-86.3,68.7C432.9,208,445.3,220.5,452.6,211.9
		L452.6,211.9z"/>
</g>
<path class="st4" d="M1097.2,478.7c-14.7,10.4-22.2,27.3-31.2,42.3c-10.8,18.2-21.6,37.6-36.5,52.8c-13.9,14.3-31.3,26.5-50.5,32.6
	c-20,6.4-43.3,4.6-62.8-2.8c-18.4-6.9-35.1-24.1-56.2-22.5c-10.5,0.8-10.7,17.3,0,16.5c8.9-0.7,17.1,3.7,24.6,7.9
	c8.2,4.6,16.1,9.4,24.8,13c20.3,8.2,44.5,10.4,65.9,5.8c19.8-4.3,38.1-15.3,53.7-27.9c16.9-13.7,29.1-31.3,40.5-49.7
	c6.1-9.8,12.1-19.8,17.8-30c4.9-8.5,10-18.2,18.2-24C1114.1,486.8,1105.9,472.6,1097.2,478.7z"/>
<path class="st4" d="M1817.2,459.5c-19.1-1.8-39.3-7.2-55.9-17.3c10.7-10.3,17.5-25,8.6-39.3c-10.1-16.2-31.6-18.3-42.2-1.2
	c-8.5,13.9-3.6,27.9,5.4,38.7c-7.6,3.2-16.1,5.4-24.4,5.8c-6.7,0.3-13.6-0.7-20.1-1.1c-7.1-0.4-14.1-1-21.2-1.5
	c-14.1-1.2-28.3-2.8-42.3-4.6c-15.4-2.1-30.8-4.4-46.2-7.2c-3.7-0.7-7.2,0.8-9.2,4c-2.1,3.3-1.7,7.5,0.8,10.8
	c31.8,41.5,98.9,145.4,34.8,212.1c-13.5,14-32.2,22.5-50.2,22.9c-15,0.3-28.6-5-39.3-15.3c-18.7-18-27.9-47.9-28-91.3
	c0-4.2-2.5-7.5-6.4-8.5c-3.7-1-7.6,0.6-9.6,4c-4.7,8-9.4,16.1-14.1,24.1c-9.4,16.1-19,32.2-28.4,48.3c-0.6,1-1.1,1.9-1.7,2.9
	c-6,10.3-12.8,21.9-22.1,24.3c-4.2,1.1-8.6,0.1-13.5-2.8c-8.7-5.3-16.6-15.4-9.7-51c11.7-59.6,32.2-118.6,48.8-163.3
	c1.2-3.2,0.4-6.5-1.9-8.7c-2.8-2.5-7.1-3.2-10.4-1.8c-50.1,23.2-102.8,35.1-156.7,35.6c-1.4-5.3-3.1-10.3-4.9-15.1
	c-13-32.7-42.7-51.7-72.3-46.5c-12.6,2.2-29.1,13-35.9,27.3c-27.5,0.8-53.4,19.7-71.2,51.9c-6.7,12.1-11.8,25-16.8,37.5
	c-3.2,7.8-6.4,15.8-9.8,23.4l-0.1,0.3v0.3c-1.4,6.8-1.8,14.8-1.9,17.9c-0.3,6.8,0,9.7,0.6,11.1c-0.3,3.6-0.3,7.1-0.3,10.4
	c0.1,12.9,1.8,31.9,9.2,48.4c7.6,17.2,19.6,27.6,35.2,30.9c28.2,6,63.7-3.3,95.3-24.8c24.1-16.4,45.1-40.6,58.9-68.2
	c14.6-28.7,20.5-58.7,17.3-87.1c7.6-0.1,14.1-0.4,20.3-0.8c41.3-2.9,82.4-12.6,122.3-28.9c-12.6,35.6-23.6,70.7-32.3,104.4
	c-1,3.9-2.2,8-3.5,12.3c-7.8,27.5-17.5,61.6-2.2,86.6c6.5,10.7,16.4,17.5,27.2,19c10,1.2,20-2.2,28-9.8c9.4-9,16.1-21.1,22.5-32.9
	c2.1-3.7,4-7.2,6-10.7l18.6-31.6c4,35.6,16,62.1,35.5,78.6c13.2,11.2,29.5,16.8,46.5,16.8c18.3,0,37.3-6.5,53.7-19.6
	c35.2-28.2,43.1-77.3,38.7-113.9c-2.9-24.3-11.4-58.9-49.9-113c28.2,4.4,56.5,7.6,84.9,9.6c11.2,0.8,22.6,1.7,33.8,0.1
	c10.7-1.5,21.2-4.7,30.8-10c20.1,14.4,46.2,21.6,70.2,23.9C1827.3,477.5,1827.9,460.5,1817.2,459.5z M1170,444
	c0.7-2.1,2.6-3.9,5.8-5.1l0.4-0.1c4-2.5,9.6-4.3,14.7-4.7c28.3-2.5,46,21.4,53.3,44.1c-1.9,0-3.7-0.1-5.7-0.3
	c-15.3-0.8-30.4-2.6-45.2-5.3c-1.4-0.3-2.9-0.4-4.9-0.6c-3.9-0.4-9.4-1-11.9-2.4l-2.8-14.1l-0.3-0.4
	C1170.3,450.4,1169.2,446.6,1170,444z M1182.5,634.4c-22.5,15.8-47.2,24.4-71.7,24.8c-11.5,0.3-20.9-3.3-28-10.5
	c-15-15.3-16.5-42.4-16-57.3c1.7-53.7,35.1-104.2,81.4-124.1c1,2.4,2.2,4.6,3.7,6.7c10.4,14.4,32.5,16.5,50.1,18.2
	c3.2,0.3,6.2,0.6,8.9,1c11.9,1.5,24.4,2.5,36.9,2.9C1253.9,547.2,1227.8,602.5,1182.5,634.4z M1748.1,431.6
	c-0.1,0.1-0.4,0.3-0.6,0.4c-2.9-2.8-5.3-6-6.7-9.4c-2.1-5.3-0.7-12.9,4.9-15.5c5.5-2.5,11.8,4.2,11.9,9.7
	C1758,422.9,1752.3,428.2,1748.1,431.6z"/>
<path class="st4" d="M1702.1,345.1c-2.2-1.2-5.1-1.4-7.5-0.3c-1.5,0.7-2.8,1.9-4,3.1c-6.2,6.1-13.2,11.5-20.4,16.5
	c-3.5,2.4-6.9,4.6-10.4,6.7c-3.1,1.8-6.7,4.6-10,5.4c-31.3,15-54.6-1-68.8-16.9c-6.5-7.5-12.6-16.2-17.8-25.9
	c14.6-15.8,27.9-34.7,38.7-54.6c11.2-20.9,19.6-43.3,24.7-66.2v-0.3c4.2-18.9,9.8-44.8-4.4-61.6c-7.4-8.7-17.2-12.8-28.3-11.9
	c-20.1,1.7-41.3,19.3-50.9,35.2c-21.2,35-24.1,84.1-8,134.7c2.2,6.8,4.6,13.5,7.4,19.8c-15.3,14.4-43.1,36.6-68.2,33.4
	c-12.3-1.5-22.9-9.2-31.3-22.6c-19-30.4-15.8-65.7-12.9-100c1.2-13.6,2.5-27.6,2.2-41.2v-1.8c-0.1-16.5-0.4-47.2-17.3-54.9
	c-14.3-6.5-25.8,7.9-33.4,17.5c-1,1.2-1.8,2.4-2.6,3.3c-27.6,33.3-53,69.9-75.5,109c0.4-40.8-1.5-81.7-5.4-121.9
	c-0.4-3.9-2.8-7.1-6.1-8.2c-3.1-1-6.1-0.3-8.5,2.2c-59.1,61-108.6,130.9-147.3,208.1l28.3-215.8c0.7-5.3-2.9-9.6-6.7-10.8
	c-2.9-0.8-6.8-0.1-9.2,4.4c-40.2,81.1-125,129.1-210.8,119.4c-4.4-0.6-8,2.4-8.6,7.1c-0.6,4.7,2.2,10.1,7.9,10.8
	c7.6,0.8,15.3,1.2,22.9,1.2c69.9,0,138.7-35.6,182.3-95l-30.4,231.2c-0.7,5.3,3.2,9.8,7.2,11c0.7,0.1,1.4,0.3,1.9,0.3
	c2.9,0,5.4-1.8,6.8-5c38.1-89.6,90.2-170.3,154.8-240.4c3.7,45.4,4.7,91.3,2.9,136.5c-0.1,4.2,2.4,7.6,6.4,8.6
	c3.9,1.1,7.8-0.6,9.6-4.2c13.9-26.6,28.6-51.6,43.8-74.3c1-1.4,2.4-3.6,4.2-6.4c11-17.3,40.1-63.2,56.9-66.2c2.1-0.4,3.7,0,5.1,1.1
	c5.8,4.6,4,34.1,3.5,43.8c-0.1,1.8-0.1,3.2-0.3,4.4c-0.4,8.7-1.2,17.6-2.1,26.1c-0.6,6.4-1.2,13-1.7,19.7c-1.4,20.5-1.7,47.4,9,73.5
	c7.5,18.3,19.3,32.7,33.3,40.8c15.4,8.9,32.9,9.8,50.5,3.1c16-6.2,31.8-16.5,47-30.5c16,29.1,36.5,47.4,59.6,53.1
	c20.9,5.1,42.6-1.9,60.5-12.8c6.8-4,13.2-8.7,19.4-13.6c5.5-4.4,10.8-9,14.3-15.3c0.7-1.4,1.4-2.8,1.7-4.3c0.4-2.9-0.8-6-3.2-7.8
	C1702.6,345.4,1702.3,345.2,1702.1,345.1z M1542,234.4c1.8-25.5,10.5-48.4,24-62.7c7.5-8,18.3-13.6,27.3-14.3c0.7,0,1.4-0.1,2.1-0.1
	c5.4,0,9.4,1.5,12.3,4.9c5.4,6,6.9,18,4.4,33.8c-7.2,44.1-27.5,86.4-57.3,119.6C1544.8,289.9,1540.2,261.3,1542,234.4z"/>
</svg>
