<?xml version="1.0" encoding="utf-8"?>
<!-- Generator: Adobe Illustrator 21.1.0, SVG Export Plug-In . SVG Version: 6.00 Build 0)  -->
<svg version="1.1" id="Layer_1" xmlns="http://www.w3.org/2000/svg" xmlns:xlink="http://www.w3.org/1999/xlink" x="0px" y="0px"
	 viewBox="0 0 1059 500" style="enable-background:new 0 0 1059 500;" xml:space="preserve">
<style type="text/css">
	.st0{fill:#EE554B;}
	.st1{fill:#311C4B;}
</style>
<g>
	<g>
		<path class="st0" d="M324.7,286.3c12.1,19,18.2,38.7,18.2,59.3c0,26-7.2,50-21.6,72c-14.4,21.9-33.8,39.3-58.3,52.1
			c-24.4,12.8-51.3,19.2-80.5,19.2c-29.2,0-56.1-6.4-80.5-19.2c-24.4-12.8-43.9-30.2-58.3-52.1s-21.6-45.9-21.6-72
			c0-43.9,22.2-79.5,66.5-106.9c-16-9.1-29.1-21.5-39.4-37c-10.3-15.5-15.4-33.8-15.4-54.8c0-25.1,6.6-48.2,19.9-69.2
			c13.2-21,31.2-37.7,53.8-50s47.6-18.5,75-18.5c27.4,0,52.4,6.2,75,18.5c22.6,12.3,40.4,29,53.5,50c13,21,19.5,44.1,19.5,69.2
			c0,22.9-5.4,41.7-16.1,56.5c-10.7,14.9-24.1,26.6-40.1,35.3C295.8,251.5,312.6,267.4,324.7,286.3z M238,393.2
			c15.1-13.5,22.6-29.8,22.6-49c0-19.6-7.5-36.2-22.6-49.7c-15.1-13.5-33.6-20.2-55.5-20.2s-40.4,6.7-55.5,20.2
			c-15.1,13.5-22.6,30-22.6,49.7c0,19.2,7.5,35.5,22.6,49c15.1,13.5,33.6,20.2,55.5,20.2S222.9,406.7,238,393.2z M134.9,102.7
			C122.3,114.8,116,130,116,148.2c0,18.7,6.3,34.2,18.8,46.3c12.6,12.1,28.4,18.2,47.6,18.2c18.7,0,34.4-6.2,46.9-18.5
			c12.6-12.3,18.8-27.6,18.8-45.9c0-18.3-6.3-33.5-18.8-45.6c-12.6-12.1-28.2-18.2-46.9-18.2C163.3,84.5,147.4,90.6,134.9,102.7z"/>
	</g>
</g>
<path class="st1" d="M1035.1,392.2c-199.7,3.7-399.7,2.9-599.4-5.8c-20.4-0.9-42.2-2.3-60.8-13.6c-14.7-8.9-39.6-39.7-19.8-58.6
	c6.2-5.9-1.7-17.4-8.1-12.9c-13.5,9.3-25.3-8.2-22.9-24.3c2.7-17.7,16.4-26.2,29.6-29c6.7-1.4,6.1-13.9,0-15.9
	c-17.9-5.8-47.4-39.8-20.5-56.3c9.3-5.7,20.2-8,30.2-11c12.4-3.7,24.9-7,37.4-9.9c50.2-11.8,101.2-17.5,152.2-19.3
	c101.7-3.6,203.2,8.6,304.3,20.9c58.8,7.2,117.6,14.3,176.5,18.7c8.6,0.6,8.6-15.9,0-16.5c-223.1-16.4-450.7-75.7-672.2-10.3
	c-18.6,5.5-49.8,11.2-52.7,40.6c-2.8,28.6,21,52.6,41.2,59.1c0-5.3,0-10.6,0-15.9c-21.9,4.7-42.5,25.7-39.6,55.3
	c2.4,25.2,24.8,40.9,43.3,28.2c-2.7-4.3-5.4-8.6-8.1-12.9c-13.9,13.3-12.5,38-4.5,55.2c8.9,19,26,30.7,42.6,36.8
	c18.9,7,39.1,7.9,58.7,8.6c27.4,1,54.8,1.9,82.2,2.7c109,3.2,218,4.7,327,4.6c61.2-0.1,122.4-0.7,183.6-1.8
	C1043.7,408.5,1043.8,392.1,1035.1,392.2L1035.1,392.2z"/>
<path class="st1" d="M440,308.7c19.2,27.7,58.2,17.5,77.7-4.3c21.1-23.7,24.3-65.4,2.8-90.3c-47.2-54.7-134.8,45.2-79.8,95.2
	c7.1,6.5,14.1-7.9,7.1-14.2c-18.4-16.7-9.4-47.2,5-62.6c16.5-17.6,43.3-26.6,59.8-4.3c14.4,19.5,9.8,49.3-5.9,65.7
	c-14.5,15.1-42.9,23.2-56.8,3.1C444.2,288.9,434.4,300.6,440,308.7L440,308.7z"/>
<path class="st1" d="M398.4,359.2c11.2,2.4,21-4.9,24.9-17.5c3.5-11.4,2.1-27-7.7-33.3c-8.1-5.2-19-2.2-24.9,5.9
	c-7.7,10.4-6.3,25.6-1,37c4.3,9.3,16.4,1,12.1-8.3c-2.1-4.6-3.6-10.5-1.7-15.6c1.3-3.3,4.6-6,7.8-4.9c7.4,2.6,2.2,22.6-5.7,20.9
	C393.3,341.4,389.5,357.2,398.4,359.2L398.4,359.2z"/>
<path class="st1" d="M389.6,222.8c10.7,1.1,22.4-1.4,27.4-14.1c4.3-10.9,1.9-24.4-6.6-31.3c-8.4-6.9-20.4-6.3-28,1.9
	c-8,8.6-9.1,22.4-4.8,33.6c3.8,9.6,15.8,1.3,12.1-8.3c-3.7-9.6,6.1-21.1,13.4-13c2.6,2.8,2.8,8.3,0.6,11.5
	c-3.1,4.8-9.8,3.7-14.2,3.2C380.6,205.4,380.7,221.9,389.6,222.8L389.6,222.8z"/>
<path class="st1" d="M390.9,291.6c9.8-5,17.9-12.8,18.3-26.4c0.3-12.2-6.8-23.3-17-25.7c-9.9-2.4-20.1,3-24.4,14
	c-5.1,13-0.5,25.4,8.3,34c6.9,6.7,16.8-4.9,9.9-11.7c-3.8-3.8-7.7-7.9-5.9-14.3c1.4-5,5.8-7.3,10-5.7c4,1.5,5.9,6.3,5.1,11
	c-1.1,6-6.9,8.3-11.2,10.5C375.6,281.6,382.7,295.8,390.9,291.6L390.9,291.6z"/>
<path class="st1" d="M486.3,379.6c11.4,5.7,24-3.3,23.7-18.6c-0.4-15.7-12.9-24.9-24.9-26.7c-12.2-1.8-23.7,6.7-22.8,22.4
	c1,16.2,13.8,23.5,25.9,25.3c3.8,0.6,7-4.2,7-8.2c0-4.9-3.3-7.7-7-8.2c-4.1-0.6-9.7-2.5-11.5-7.5c-1.7-4.8,0.7-7.5,4.8-7.5
	c4.3,0,9.9,1.8,12.7,5.8c0.9,1.3,3.2,11.1-0.8,9.1C485.2,361.3,478.1,375.5,486.3,379.6L486.3,379.6z"/>
</svg>
