<?xml version="1.0" encoding="utf-8"?>
<!-- Generator: Adobe Illustrator 21.1.0, SVG Export Plug-In . SVG Version: 6.00 Build 0)  -->
<svg version="1.1" id="Layer_1" xmlns="http://www.w3.org/2000/svg" xmlns:xlink="http://www.w3.org/1999/xlink" x="0px" y="0px"
	 viewBox="0 0 687 500" style="enable-background:new 0 0 687 500;" xml:space="preserve">
<style type="text/css">
	.st0{fill:#E5AB1A;}
	.st1{font-family:'Quicksand-Bold';}
	.st2{font-size:611.4139px;}
	.st3{fill:#311C4B;}
</style>
<title>9SmellyCat-07</title>
<text transform="matrix(1 0 0 1 349.8281 481.2461)" class="st0 st1 st2">9</text>
<path class="st3" d="M138.1,30.2c0,63.2,11,140.2,79.5,163.9c28.3,9.8,65.5,15.9,93.2,1.7c24.8-12.7,39.5-39.7,46-66
	c9.8-39.7,1.4-81.4-7-120.6c-0.6-2.6-4.6-3.9-6.4-1.7l-16,20.4c-2.7,3.5-5.3,7.7-8.5,10.8c-3.8,3.6-9,2.8-13.9,3l-56.1,1.9
	l-54.6,1.8c-9.2,0.3-20.5,2.4-29.3-0.7c-8.2-2.9-13.6-10.7-18.4-17.5c-2.8-4-9.5-0.2-6.6,3.9c4.5,6.3,9.1,12.8,15.5,17.3
	c7.2,5,15.3,5.5,23.7,5.3c22.3-0.6,44.5-1.5,66.7-2.3c22.2-0.7,44.6-0.6,66.7-2.3c7.9-0.6,11.1-4,15.8-10.1l20.6-26.1l-6.4-1.7
	c7.2,33.1,14.1,67.3,9.9,101.3c-3.2,26.2-14.3,54.2-35.8,70.6c-24.7,18.8-59.1,14.1-87.2,6.5c-29.8-8-52-26.2-65.6-53.9
	c-16-32.6-18-69.9-18-105.5C145.7,25.3,138.1,25.3,138.1,30.2L138.1,30.2z"/>
<path class="st3" d="M195.6,182.5c-27.7,47.2-46.3,99.3-54.7,153.4c-7.2,47-6.5,104.3,35.7,135.5c20.5,15.2,47.5,17.5,72.1,19.2
	c25.8,1.8,54.3,2.4,78-9.4c42.5-21.1,59.4-71.6,56.6-116.2c-2-31.4-11.6-62-23.1-91.1c-11.5-29.2-25.7-57.4-42.4-84.1
	c-2.6-4.2-9.2-0.3-6.6,3.9c26.9,43.3,49.5,91.5,60.2,141.5c9.6,45,4.9,97-32.3,128.7c-19.3,16.4-43.5,19.9-68.2,19.9
	c-13.3-0.1-26.7-0.9-39.9-2.5c-13.2-1.5-26.8-3.6-38.9-9.4c-46.7-22.6-50.8-81.3-44.9-126.3c7.6-56.2,26.3-110.3,55-159.2
	C204.7,182,198.1,178.2,195.6,182.5L195.6,182.5z"/>
<path class="st3" d="M356.6,280.8c-14.4,6.5-19.2,22.7-21.6,37.1c-3.7,22.7-5.7,45.6-5.9,68.6c-0.1,11.8,0.3,23.6,1.1,35.4
	c0.5,6.3,2.7,13.1-2.5,17.5c-2.8,2.4-5.8,3.9-8.4,6.6c-9.5,10.3-12.7,25.9-5.2,38.2c2.6,4.2,9.2,0.4,6.6-3.9c-4.3-7-4-15.2-0.4-22.4
	c1.6-3.2,3.8-6.1,6.5-8.5c2.8-2.5,6.5-3.7,9.2-6.3c5.3-5.2,2.3-14.8,1.8-21.2c-0.7-10.3-1.1-20.6-1.1-31
	c-0.1-20.8,1.4-41.6,4.3-62.2c2.1-14.7,4.1-34.4,19.4-41.3c4.5-2,0.6-8.6-3.9-6.6L356.6,280.8z"/>
<path class="st3" d="M204.9,393.4c4.2-4,23.1-6.5,27.3-1.1c2.6,3.4,3.5,9.9,4.2,14c1.1,6.3,1.7,12.7,2,19.1
	c0.6,18-16.2,35.6-32.1,42.6c-11.3,5-22.5-3.9-14.2-15.5c4.8-6.6,15.8-4.1,19-12.5c2.7-6.9-0.7-15.8-2.5-22.6
	c-1.8-6.8-7.5-18.2-3.2-24.5c2.1-3.1-2.9-5.9-5-2.9c-4.2,6.2-1.3,15.3,0.6,21.9c2.1,7.6,9.4,23.9,1.4,29c-3.7,2.4-8.5,2.3-12.1,5.1
	c-2.8,2.4-4.9,5.6-5.9,9.2c-2.4,7.3-0.6,14.6,6.4,18.5c14.5,7.9,30.9-8.6,40.1-17.9c6.5-6.5,11.5-13.5,12.7-22.9
	c1.4-10.5-0.3-22.8-2.8-33c-1.8-7.5-4.3-14.8-12.8-15.8c-8.3-0.9-20.8-0.8-27.2,5.2C198.2,391.9,202.2,395.9,204.9,393.4z"/>
<path class="st3" d="M240.5,420.9c-17.3,0.1-20.8,19.7-14.7,32.8c1.5,3.3,6.5,0.4,5-2.9c-4.2-9.1-2.8-24.1,9.7-24.2
	C244.2,426.6,244.2,420.8,240.5,420.9z"/>
<path class="st3" d="M189.3,456.8c8-0.4,15,3.8,17,11.8c0.9,3.6,6.4,2.1,5.5-1.5c-2.6-10.3-12-16.5-22.5-16
	C185.7,451.3,185.6,457,189.3,456.8L189.3,456.8z"/>
<path class="st3" d="M208,398.2c-0.2,6.7,2.5,12.8,3.6,19.4c0.6,3.6,6.1,2.1,5.5-1.5c-1-6-3.6-11.6-3.4-17.8
	C213.9,394.5,208.1,394.5,208,398.2L208,398.2z"/>
<path class="st3" d="M214.5,396.9c1.1,3,1.8,6.2,2.2,9.4c0.6,2.9,1.4,5.8,2.4,8.7c1.1,3.5,6.6,2,5.5-1.5c-1-2.8-1.8-5.7-2.4-8.7
	c-0.3-3.2-1.1-6.3-2.2-9.4C218.6,392,213.1,393.5,214.5,396.9z"/>
<path class="st3" d="M222.2,393.9c0,6.5,3.2,11.3,5,17.2c1.1,3.5,6.6,2,5.5-1.5c-1.6-5.4-4.9-9.8-4.8-15.7
	C228,390.2,222.3,390.2,222.2,393.9L222.2,393.9z"/>
<path class="st3" d="M285.4,376.4c-9.6-5.9-26.6-4.1-29.4,8.1c-1.7,7.4-1,15.7-1,23.3c0,9.6,0.2,19.9,3.3,29
	c5.2,15.2,21.3,25,37.2,24.2c14.4-0.7,15.8-21.9,8.1-30.7c-3.4-3.9-8.3-6.1-12-9.7c-4.1-4-6.1-9.6-5.4-15.3
	c0.7-9.7,3.6-18.3,1.5-28.1c-0.7-3.6-6.3-2.1-5.5,1.5c2.8,13.9-6.8,29.4,2.1,42.1c4.6,6.5,13.8,9.2,17,16.4
	c1.9,4.2,1.8,11.6-1.5,15.4c-3.5,4-9.4,2.3-13.9,1.2c-22.5-5.4-25.3-26.2-25.3-46.2c0-6.9-1.2-16,0.9-22.6c1.7-5,4.6-5.4,9.2-5.6
	c3.6-0.2,8.4-0.2,11.6,1.8C285.6,383.3,288.5,378.2,285.4,376.4L285.4,376.4z"/>
<path class="st3" d="M259.2,421.4c10,3.3,15.4,14,12.1,24c-0.5,1.5-1.1,2.8-1.9,4.1c-1.9,3.1,3.1,6,5,2.9
	c7.1-11.7,3.5-26.9-8.2-34.1c-1.7-1-3.5-1.8-5.3-2.4C257.2,414.7,255.7,420.2,259.2,421.4L259.2,421.4z"/>
<path class="st3" d="M300.5,431.8c-9.9,3.4-12.8,16.7-10.2,25.8c1,3.5,6.5,2,5.5-1.5c-1.7-5.9-0.5-16.4,6.3-18.8
	C305.5,436.1,304,430.6,300.5,431.8L300.5,431.8z"/>
<path class="st3" d="M274.9,386.6c-0.6,6.6-1.8,13.2-2.3,19.9c-0.3,3.7,5.5,3.7,5.7,0c0.5-6.6,1.7-13.2,2.3-19.9
	C281,382.9,275.3,383,274.9,386.6z"/>
<path class="st3" d="M264.5,386.3c1.5,7.1-0.7,13.8-1.8,20.8c-0.6,3.6,4.9,5.2,5.5,1.5c1.3-8.1,3.7-15.6,1.8-23.8
	C269.2,381.2,263.7,382.7,264.5,386.3L264.5,386.3z"/>
<path class="st3" d="M191.4,307.9c-0.1,13.5,3.4,26.3,6.1,39.4c1.2,5.9,1.9,12,3.2,17.9c1.4,6.9,3.3,13.6,3.1,20.7
	c-0.1,3.7,5.7,3.7,5.7,0c0.2-11.5-3.5-23.4-5.5-34.6c-2.5-14.5-7.1-28.5-7-43.4C197.2,304.2,191.5,304.2,191.4,307.9L191.4,307.9z"
	/>
<path class="st3" d="M214.6,311.3c3.5,13.3,7.8,26.4,8.9,40.2c1,12.4,1.3,24.2,5.3,36.1c1.2,3.5,6.7,2,5.5-1.5
	c-4.4-13.2-3.9-26.5-5.6-40.1c-1.5-12.4-5.4-24.2-8.6-36.2C219.2,306.3,213.6,307.8,214.6,311.3L214.6,311.3z"/>
<path class="st3" d="M266.4,375.9c-6.9-7.7-3.6-21.4-3.5-30.9c0.1-13.3-2.6-26.5-2.7-39.8c0-3.7-5.8-3.7-5.7,0
	c0.2,15.3,3.2,30.3,2.5,45.5c-0.4,9.8-1.6,21.4,5.4,29.2C264.8,382.7,268.8,378.7,266.4,375.9L266.4,375.9z"/>
<path class="st3" d="M276.6,306c6.5,24.1-0.9,49.3,4.4,73.6c0.8,3.6,6.3,2.1,5.5-1.5c-5.4-24.3,2-49.4-4.4-73.6
	C281.2,300.9,275.7,302.4,276.6,306L276.6,306z"/>
<path class="st3" d="M335.3,396.2c13.5-0.2,28-5.1,41.3-0.9c3.5,1.1,5-4.4,1.5-5.5c-13.9-4.4-28.7,0.4-42.8,0.7
	C331.6,390.5,331.6,396.3,335.3,396.2L335.3,396.2z"/>
<path class="st3" d="M365.9,428c-17.9-7.1-27.9,22.6-19.3,34.8c2.1,3.1,7.1,0.1,5-2.9c-5.8-8.2-0.1-31.5,12.8-26.4
	C367.8,434.9,369.3,429.4,365.9,428L365.9,428z"/>
<path class="st3" d="M316.2,460.4c7.4,0.8,12.5,6.5,11.7,14c-0.4,3.7,5.3,3.6,5.7,0c1.3-10.7-7.2-18.6-17.4-19.7
	C312.5,454.3,312.6,460.1,316.2,460.4L316.2,460.4z"/>
<path class="st3" d="M340.1,402.5c0.4,5,1.5,9.8,3.2,14.5c1.3,3.4,6.8,1.9,5.5-1.5c-1.5-4.2-2.5-8.6-3-13
	C345.4,398.9,339.7,398.9,340.1,402.5L340.1,402.5z"/>
<path class="st3" d="M353.1,400.2c0,6.9,0.7,13.8,0.8,20.6c0,3.7,5.8,3.7,5.7,0c0-6.9-0.7-13.8-0.8-20.6
	C358.8,396.5,353.1,396.5,353.1,400.2z"/>
<path class="st3" d="M365.4,398.7c-1.8,5.2-1.8,10.7-2.4,16c-0.4,3.7,5.3,3.6,5.7,0c0.5-4.9,0.6-9.8,2.2-14.5
	C372.1,396.7,366.6,395.2,365.4,398.7L365.4,398.7z"/>
<path class="st3" d="M94.2,95.8c-7.8,5.8-17.5,14.1-14.8,25.1c2.1,8.9,10.8,15,17.3,20.6c9.6,8.2,17.3,15.9,14.9,29.5
	c-1.1,6.5-3.5,12.8-3.1,19.5c0.5,7.8,4.9,13.7,10.9,18.3c3.8,3.1,9.3-2.4,5.4-5.4c-7.1-5.5-9.7-11.3-8.1-20.1c1-5.7,2.9-11.2,3.1-17
	c0.4-9.4-4-17-10.4-23.5c-6.1-6.1-13.6-10.9-19.1-17.5c-7.8-9.3-0.4-16.8,7.7-22.8C102,99.5,98.2,92.8,94.2,95.8L94.2,95.8z"/>
<path class="st3" d="M57.2,140.3c2,8.3-7.4,15.4-3,23.9c1.7,3.2,4.9,4.8,7.4,7.2c3.5,3.3,4.4,7.2,4.7,11.8
	c0.9,14.4-1.5,27.1,13.9,34.3c4.4,2.1,8.3-4.5,3.9-6.6c-15.3-7.2-7.5-22.1-11.2-35.2c-0.7-2.5-1.8-4.8-3.3-6.9
	c-2.2-3.1-6.7-4.9-8.2-8.4c-1.8-4.2,1.3-8.2,2.6-12.3c1.1-3.2,1.2-6.7,0.4-10C63.4,133.5,56,135.5,57.2,140.3L57.2,140.3z"/>
<path class="st3" d="M372.9,204.5c8.3,7,17.2,15.3,18,26.7c0.7,9.2-2.8,18.5-4.8,27.4c-2.5,11.2-4.4,22.1-0.4,33.2
	c4.4,12.4,12.8,22.9,15.7,35.9c1.1,4.8,8.4,2.8,7.4-2c-3-13.4-11.7-24.1-16-36.9c-4.3-12.8,0.3-25.9,3.2-38.4
	c1.9-8.1,3.7-16.6,1.8-24.9c-2.6-11-11.1-19.4-19.4-26.4C374.5,195.9,369.1,201.3,372.9,204.5L372.9,204.5z"/>
<path class="st3" d="M409.8,141.6c10.2,8.3,15,15.9,17.8,28.8c1.5,6.5,2.5,13.2,2.7,19.9c0.2,8.2-2.7,13.6-6.1,20.7
	c-4.5,9.2-4.6,18,0.6,26.7c3.6,6.1,8.5,11.3,10.8,18c2.4,6.8,2.1,13.8,2.2,20.8c0,4.9,7.6,4.9,7.6,0c0-14.4-2-25.2-10.3-37.2
	c-4.4-6.4-8.2-12-6.1-20.2c1.7-6.4,6.4-11.5,8-18c3.1-12.2-0.4-26.9-3.5-38.9c-2.9-11.4-9.4-18.8-18.3-26.1
	C411.4,133.1,406,138.5,409.8,141.6L409.8,141.6z"/>
<path class="st3" d="M29.2,167.7c-3.9,7.5-9.8,17.3-7.5,26.1c2.7,10.2,16.8,10.1,18.7,19.7c2.1,10.9-4.9,22.3-5.3,33.2
	c-0.5,11.4,3.1,22.6,10.2,31.5c3.1,3.9,8.4-1.5,5.4-5.4c-7.6-9.7-9.5-22.2-6.8-34c1.9-8.5,5.5-17.5,4.1-26.4
	c-1.3-7.8-6.5-11-12.9-14.6c-11-6.2-3.8-17.7,0.7-26.3C38.1,167.2,31.5,163.3,29.2,167.7L29.2,167.7z"/>
<path class="st3" d="M409.2,267.6c5.4,11-1.4,22.4,3.5,33.2c2,4.4,6,6.6,9,10.1c4.6,5.5,2.2,12,3.9,18.4c1.3,4.7,8.7,2.7,7.4-2
	c-1.5-5.7,0.6-11.7-2.3-17.1c-2.7-5.2-9.2-7.8-11.3-13.2c-2-5.1-0.1-11.1,0.2-16.3c0.3-5.9-1-11.8-3.8-17
	C413.6,259.4,407,263.2,409.2,267.6L409.2,267.6z"/>
<path class="st3" d="M157.2,437.1c-14.4-9.4-29.2-13.9-36.9-30.6c-8.9-19-16.2-39.7-18-60.8c-1.7-20.7,4.7-39.3,12.2-58.2
	c5-12.5,12.2-26.7,7.2-40.4c-3.6-10.1-14.3-11.9-22.2-4.8c-4,3.6-5.2,15.4-12.4,11.3c-12.2-7.1-0.9-19.9,6.4-24.6
	c6.4-4.1,13.8-7.8,21.6-6.4c8.4,1.5,14.4,8.3,18.3,15.3c9.4,16.9,7.5,34.4,0,51.5c-7.2,16.2-13.9,31.2-12.5,49.4
	c1.2,15.9,6.3,32.4,17.6,44.1c3.4,3.5,8.8-1.9,5.4-5.4c-12.6-12.9-17-33.6-15.3-51.1c1.8-19.1,14.9-34.5,18.3-53.2
	c5.2-27.7-15.6-70.5-49.1-55.3c-12.2,5.5-28,17.1-22.2,32.5c4.4,11.7,20.1,17,26,3.5c1.5-3.5,3.2-8.3,8-8.5c3.7-0.1,4.8,3.4,5.5,6.5
	c2,9.2-1.9,18-5.2,26.3c-7.4,18.8-15.6,37.5-15.9,58.1c-0.3,24.5,8,48.4,17.7,70.4c4,9,8.7,16.7,16.8,22.6
	c7.6,5.6,16.6,9.2,24.5,14.3c4.1,2.7,8-3.9,3.9-6.6L157.2,437.1z"/>
<path class="st3" d="M203,79c-1.1-3.3-2.2-6.6-3.1-9.9c-1.3-4.8-8.6-2.7-7.4,2c0.9,3.3,1.9,6.6,3.1,9.9
	C197.1,85.6,204.5,83.7,203,79z"/>
<path class="st3" d="M189.6,83.4c-1.3-2.2-3-4.6-3.3-7.2c-0.1-2.1-1.7-3.8-3.8-3.8c-2.1,0-3.8,1.7-3.8,3.8c0.7,4,2.2,7.7,4.3,11.1
	C185.4,91.5,192,87.7,189.6,83.4z"/>
<path class="st3" d="M176.6,94.1c-1.5-2.7-2.5-5.6-3.8-8.4c-1.1-1.8-3.4-2.4-5.2-1.4c-1.8,1.1-2.4,3.4-1.4,5.2
	c1.3,2.8,2.2,5.7,3.8,8.4C172.5,102.2,179.2,98.4,176.6,94.1L176.6,94.1z"/>
<path class="st3" d="M305.7,81.9c2.6-3.5,4.6-6.7,5.1-11.1c0-2.1-1.7-3.8-3.8-3.8c-2.1,0-3.8,1.7-3.8,3.8c-0.3,2.8-2.5,5.1-4.1,7.2
	c-1,1.8-0.4,4.2,1.4,5.2C302.3,84.3,304.7,83.7,305.7,81.9z"/>
<path class="st3" d="M318.5,75.4c-0.3,3.9-2.9,7.4-3.7,11.2c-1,4.8,6.4,6.8,7.4,2c1-4.8,3.6-8.5,4-13.2S318.9,70.6,318.5,75.4
	L318.5,75.4z"/>
<path class="st3" d="M291.3,64.2c-1.7,2.4-3,5.1-5.1,7.2c-3.6,3.4,1.8,8.8,5.4,5.4c2.6-2.5,4.2-5.8,6.3-8.7c1-1.8,0.4-4.2-1.4-5.2
	C294.7,61.8,292.4,62.4,291.3,64.2L291.3,64.2z"/>
<path class="st3" d="M298.2,95.8c-5.1,3.1-7.1,9.3-3.1,14.2c1,1,2.4,1.4,3.7,1c5.1-2,8-6,7-11.5c-0.3-1.3-1.4-2.3-2.7-2.7
	c-2.3-0.6-4.7,0-6.5,1.5c-1.3,1.4-2.2,3.2-2.5,5.1c-0.5,2,0.7,4.1,2.7,4.7c2,0.5,4.1-0.7,4.7-2.7c0.1-0.4,0.2-0.8,0.3-1.2
	c0.1-0.4,0.2-0.5,0-0.1c0.1-0.2,0.2-0.3,0.2-0.4c0.4-0.2-0.5,0.4-0.6,0.5c-0.2,0.1-0.4,0.1-0.5,0.1c0.4,0,0.5,0,0.2,0l-2.7-2.7
	c0.1,0.3,0,0.7-0.2,1c-0.4,0.5-0.9,0.9-1.5,1.1l3.7,1c0.4,0.4-0.1-0.6,0,0c0-0.5,0-0.5,0-0.2c0.2-0.4,0.2-0.5,0-0.3
	c0.3-0.7,0.9-1.4,1.6-1.8C306.3,99.9,302.5,93.2,298.2,95.8L298.2,95.8z"/>
<path class="st3" d="M199.3,99.1c-3.5,0.5-6.4,3.2-7.2,6.7c-1,3.9,1.4,7.8,5.2,8.8c0.1,0,0.3,0.1,0.4,0.1c3.5,0.5,6.3-2,7.5-5.2
	c1.2-3.1,0.5-6.7-1.8-9.2c-1.2-1.2-3.1-1.4-4.6-0.6c-1.9,0.9-3.4,2.4-4.4,4.2c-1.1,1.8-0.4,4.2,1.4,5.2c1.8,1.1,4.2,0.4,5.2-1.4
	c0.2-0.2,0.3-0.5,0.4-0.7c-0.3,0.4,0.2-0.1,0.3-0.3c0.4-0.4-0.4,0.2,0.1-0.1c0.3-0.2,0.6-0.3,0.9-0.4l-4.6-0.6
	c0.3,0.3,0.3,0.3,0-0.1c0.2,0.4,0.2,0.3,0-0.2c0.1,0.3,0.2,0.5,0.2,0.8c-0.2-1-0.1,0,0,0.2c0.1,0.2,0,0.2,0-0.3c0,0.2,0,0.4-0.1,0.6
	c-0.1,0.5-0.3,0.6,0,0.1c-0.1,0.2-0.2,0.3-0.3,0.5c-0.2,0.3-0.2,0.3,0.1-0.2c-0.3,0.2-0.7,0.4,0,0c-0.4,0.2-0.3,0.2,0.3-0.1
	c-0.3,0.1-0.3,0.1,0.1,0c0.4-0.1,0.4-0.1,0,0c0.4,0,0.7,0.1,1,0.3c-0.3-0.2-0.3-0.2,0,0c0.3,0.2,0.3,0.1,0-0.1c-0.3-0.3-0.3-0.3,0,0
	c0.3,0.3,0.3,0.3,0,0v0.4c0-0.4,0-0.4,0,0c0.1-0.3,0.3-0.9,0-0.3c0.1-0.2,0.9-1.2,0.3-0.6c0.2-0.2,0.4-0.4,0.6-0.6
	c-0.4,0.3-0.4,0.4-0.1,0.1c-0.3,0.2-0.7,0.3-1.1,0.2c2.1-0.1,3.8-1.7,3.8-3.8c0-2.1-1.7-3.8-3.8-3.8L199.3,99.1z"/>
<path class="st3" d="M245.4,137.7c4-6,6.2-13.3,11-18.8h-5.4c5.7,4.8,7.6,13.3,9.3,20.3l2.7-4.7c-6.3,1.9-12.9-2-19.3-1.8
	c-4.9,0.2-4.9,7.8,0,7.6c7.3-0.3,13.9,3.7,21.3,1.5c2-0.6,3.2-2.7,2.7-4.7c-1.9-8.2-4.5-18-11.2-23.6c-1.5-1.5-3.9-1.5-5.4,0
	c-5.2,6.1-7.8,13.8-12.2,20.3C236,138,242.6,141.8,245.4,137.7L245.4,137.7z"/>
<path class="st3" d="M340.7,119c15.4,2.2,31,3.5,46.6,3.8c4.9,0,4.9-7.6,0-7.6c-15.6-0.3-31.2-1.6-46.6-3.8
	C335.8,110.7,335.8,118.4,340.7,119z"/>
<path class="st3" d="M337.2,142.9c9.6,4.4,19.9,4.6,30,7.3c4.8,1.2,6.8-6.1,2-7.4c-9.3-2.4-19.3-2.4-28.1-6.5
	C336.6,134.3,332.8,140.9,337.2,142.9L337.2,142.9z"/>
<path class="st3" d="M327.3,161.3c12.1,8,25.7,13.4,39,19.1c4.5,1.9,8.4-4.7,3.9-6.6c-13.3-5.7-26.9-11.1-39-19.1
	C327,151.9,323.2,158.6,327.3,161.3z"/>
<path class="st3" d="M160.3,113.6c-12.5-0.3-25.1,1.5-36.3,7.4c-4.4,2.3-0.5,8.9,3.9,6.6c10-5.3,21.3-6.6,32.5-6.4
	C165.2,121.4,165.2,113.7,160.3,113.6z"/>
<path class="st3" d="M169.2,131.3c-8.1,3.1-15.1,7.9-22.3,12.6c-4.1,2.7-0.3,9.3,3.9,6.6c6.6-4.3,13.1-9,20.5-11.8
	C175.8,137,173.8,129.5,169.2,131.3L169.2,131.3z"/>
<path class="st3" d="M177.5,153c-9.4,9.4-22.9,13.2-32.1,22.9c-3.4,3.6,2,9,5.4,5.4c9.2-9.7,22.6-13.5,32.1-22.9
	C186.4,154.9,181,149.5,177.5,153z"/>
<path class="st3" d="M251.4,142.4c-1.7,7.6-0.8,18.7,6.2,23.4c5.2,3.5,15.7,6.4,19.1-0.9c2.1-4.4-4.5-8.3-6.6-3.9
	c-1.1,2.4-7.5-0.7-8.9-2c-3.2-3.1-3.3-10.4-2.4-14.5C259.8,139.6,252.4,137.6,251.4,142.4L251.4,142.4z"/>
<path class="st3" d="M228.4,157.8c1.2,7.1,11.1,11.4,17.4,8.4c3.4-1.6,5-4.8,6.5-8.1c2.5-5.5,5.2-10.8,7.5-16.4
	c1.9-4.6-5.5-6.5-7.4-2c-2.3,5.5-4.9,11.1-7.6,16.5c-0.9,1.8-1.7,3.3-3.9,3.3s-4.8-1.4-5.2-3.7C235,150.9,227.6,153,228.4,157.8
	L228.4,157.8z"/>
</svg>
