<?xml version="1.0" encoding="utf-8"?>
<!-- Generator: Adobe Illustrator 21.1.0, SVG Export Plug-In . SVG Version: 6.00 Build 0)  -->
<svg version="1.1" id="Layer_1" xmlns="http://www.w3.org/2000/svg" xmlns:xlink="http://www.w3.org/1999/xlink" x="0px" y="0px"
	 viewBox="0 0 566 543.5" style="enable-background:new 0 0 566 543.5;" xml:space="preserve">
<style type="text/css">
	.st0{fill:#E5AB1A;}
	.st1{fill:#C1DDD9;}
	.st2{fill:#EE554B;}
	.st3{fill:#311C4B;}
	.st4{fill:none;}
	.st5{font-family:'FjallaOne-Regular';}
	.st6{font-size:93px;}
</style>
<path class="st0" d="M209.5,216c-3.3-17.3-13-33.1-27.7-42.9c-0.8-0.6-1.8-0.9-2.8-0.9c-1.9-1.9-5.5-2.2-6.9,1
	c-8.7,19.8-12.9,42-6.8,63.1c2.7,9.5,7.6,18.6,14.3,26c4.4,4.8,11.6,13.1,17.6,6.2c2.9-3.3,4.9-8.5,6.8-12.5
	c2.1-4.4,3.8-8.9,4.9-13.6C211,233.8,211.2,224.6,209.5,216z M191.9,196.3c0.1-0.3,0.2-0.6,0.3-0.9c0.5,0.8,1,1.7,1.5,2.5
	C193.2,197.4,192.6,196.9,191.9,196.3z M180.9,183.2c0-0.1,0-0.1,0.1-0.2c0.1,0.1,0.1,0.1,0.2,0.2C181,183.3,181,183.2,180.9,183.2z
	"/>
<path class="st1" d="M67.3,40.7c-0.9,62.4-1.6,127.3,23.3,185.8c10.5,24.8,25.4,47.9,45.2,66.3c19.9,18.6,44.4,31.1,70.4,39
	c29.5,8.9,60.4,11.3,91.1,11c28.4-0.3,57.7-1.4,85.4-7.9c24.9-5.8,48.7-17.6,63.2-39.5c15.5-23.5,19.5-52.8,20.8-80.3
	c1.6-35.2-1.7-70.8-5.7-105.8c-3.9-34.4-10.2-68.9-25.1-100.4c-1.5-3.1-4.9-3.5-7.3-1.2c-9,8.4-17.2,17.5-24.4,27.5
	c-3.3,4.6-6.4,9.3-9.2,14.1c-3,5-5.1,11.2-8.9,15.6c-4.1,4.7-11.2,4.3-16.9,5c-7.2,0.8-14.4,1.5-21.6,2.1c-14,1.1-28.1,1.9-42.2,2.4
	c-56.5,2-113-0.6-169.3-3.5c-7.8-0.4-14.6,0.4-19.4-6.7c-3.6-5.3-6.7-10.7-10.6-15.8c-8.2-10.6-17.9-20-28.7-27.9
	c-1.7-1.2-4.7-1.5-6,0.5c-4.1,6.4-6,13.2-5.1,20.8c0.6,5.5,9.1,4.7,8.5-0.8c-0.6-5.2,0.3-10.1,3.2-14.6c-2,0.2-4,0.4-6,0.5
	c10.8,7.9,20.5,17.2,28.5,28c6,8,10.4,20.6,21.1,23.3c6.5,1.6,13.8,1.1,20.4,1.4c8.1,0.4,16.1,0.8,24.2,1.2
	c14.1,0.7,28.2,1.3,42.3,1.7c29.8,1,59.7,1.4,89.5,0.6c14.9-0.4,29.8-1.1,44.6-2.2c7.2-0.5,14.4-1.2,21.7-1.9
	c6.5-0.7,13.6-0.7,19.8-2.7c5.5-1.7,9.1-5.6,11.9-10.5c3.7-6.4,6.9-13,11-19.2c8.1-12.3,17.8-23.5,28.6-33.6
	c-2.4-0.4-4.9-0.8-7.3-1.2c12.6,26.7,19,55.6,22.9,84.7c3.9,29.4,6.6,59.3,7.5,89c0.8,28.4,0.1,58.9-10,85.9
	c-9.4,25.1-28,42.2-53.2,50.9c-24.8,8.6-51.7,9.9-77.7,11.1c-30.1,1.4-60.4,0.9-90-5.2c-26.5-5.5-52.5-15.6-74.1-32
	c-20.9-15.8-37.2-37-48.9-60.3c-30.4-60.6-29.6-130-28.6-196.1C75.9,34.5,67.4,35.3,67.3,40.7L67.3,40.7z"/>
<path class="st1" d="M417.8,52.2c-4.5,4.8-8.9,9.6-13.4,14.4c-3.8,4,2.8,9.5,6.6,5.5c4.5-4.8,8.9-9.6,13.4-14.4
	C428.1,53.7,421.5,48.2,417.8,52.2L417.8,52.2z"/>
<path class="st1" d="M419.6,58.7c3.1,8,6.9,15.7,11.3,23.1c2.9,4.7,9.8-0.3,7-5c-4.1-6.7-7.5-13.7-10.3-21.1
	C425.6,50.6,417.6,53.6,419.6,58.7L419.6,58.7z"/>
<path class="st1" d="M82.8,74c0.5,8.4,1,16.8,1.5,25.3c0.3,5.5,8.9,4.7,8.5-0.8c-0.5-8.4-1-16.8-1.5-25.3
	C91.1,67.8,82.5,68.5,82.8,74L82.8,74z"/>
<path class="st1" d="M84.4,77.6c8,5.7,15.4,12.2,22.3,19.3c3.8,4,9.3-2.6,5.5-6.6C105.4,83.2,98,76.7,89.9,71
	C85.4,67.9,79.9,74.4,84.4,77.6L84.4,77.6z"/>
<path class="st1" d="M337.9,139.1c-0.3,6.3-0.6,12.6-0.9,18.9c-0.3,5.4,8.2,7,8.4,1.5c0.3-6.3,0.6-12.6,0.9-18.9
	C346.6,135.2,338.2,133.6,337.9,139.1L337.9,139.1z"/>
<path class="st1" d="M364.2,140.8c-0.7,4.7-1.4,9.4-2.1,14.1c-0.8,5.4,7.6,7,8.4,1.5c0.7-4.7,1.4-9.4,2.1-14.1
	C373.4,136.9,365,135.3,364.2,140.8L364.2,140.8z"/>
<path class="st1" d="M390.6,140.7c-1,5.4-2,10.7-3,16.1c-1,5.4,7.5,6.1,8.5,0.7c1-5.4,2-10.7,3-16.1
	C400.2,136,391.6,135.3,390.6,140.7L390.6,140.7z"/>
<path class="st1" d="M124.6,151c3.1,4.2,6.7,8,10.8,11.3c4.3,3.5,9.8-3.1,5.5-6.6c-3.5-2.9-6.6-6.1-9.3-9.7
	C128.3,141.6,121.3,146.6,124.6,151L124.6,151z"/>
<path class="st1" d="M144.4,146.1c4,4.3,7.9,8.5,11.9,12.8c1.6,1.7,4.7,1.1,6-0.5c1.7-1.9,1-4.3-0.5-6c-4-4.3-7.9-8.5-11.9-12.8
	c-1.6-1.7-4.7-1.1-6,0.5C142.2,142,142.9,144.4,144.4,146.1L144.4,146.1z"/>
<path class="st1" d="M167.4,138.3c3.7,4.9,7.5,9.6,11.6,14.2c3.6,4.1,10.6-0.8,7-5c-4-4.6-7.9-9.3-11.6-14.2
	C171,129,164,133.9,167.4,138.3L167.4,138.3z"/>
<path class="st0" d="M380.6,200.2c-2.6-8.6-7.4-16.7-14.1-22.7c-2.8-2.5-6.7-5.8-10.6-6c-1,0-1.8,0.1-2.6,0.4
	c-2-1.4-4.9-1.2-6.1,1.6c-7.7,18.8-9,39.5-3.8,59.2c2.3,8.7,18.3,49.4,28.8,27.3C381.1,241.7,386.7,220.3,380.6,200.2z"/>
<path class="st1" d="M271,225.1c5.3,17.4,6.9,35.6,7.3,53.7c0.2,8.1,0.6,17.9-5.5,24.1c-7.2,7.2-14.7,1.9-19-5.2
	c-2.9-4.7-9.8,0.3-7,5c4.5,7.4,11.9,13.8,21.1,12.3c9.5-1.6,15.6-9.9,17.8-18.8c2.8-11.3,1.2-24.4,0.3-35.8c-1-13-3.2-25.8-7-38.2
	C277.5,216.8,269.4,219.8,271,225.1L271,225.1z"/>
<path class="st1" d="M280.8,275.3c-0.6,13.9,4.5,35.2,17.3,39.1c12.5,3.7,21.4-10.5,19.5-25c-0.7-5.4-7.5-4.9-6.8,0.6
	c1.2,9.4-4.9,20.8-13.4,15.1c-7.4-4.9-10.3-18.8-9.9-28.1C287.8,271.5,281,269.8,280.8,275.3L280.8,275.3z"/>
<path class="st1" d="M424.2,214.5c43.6-3.6,87.2-7.2,130.9-10.8c5.5-0.5,4.7-9-0.8-8.5c-43.6,3.6-87.2,7.2-130.9,10.8
	C418,206.4,418.7,215,424.2,214.5L424.2,214.5z"/>
<path class="st1" d="M431.3,250.4c24.9,0.1,49.8,1.5,74.5,4.1c5.5,0.6,7-7.9,1.5-8.4c-25.5-2.7-51.2-4.1-76.8-4.2
	C425,241.9,425.8,250.4,431.3,250.4L431.3,250.4z"/>
<path class="st1" d="M428.9,283.5c35.9,9.1,71.9,17.2,107.9,24.1c3.8,0.7,4.6-7.6,0.8-8.4c-36-6.9-72-15-107.9-24.1
	C425.9,274.2,425.1,282.6,428.9,283.5L428.9,283.5z"/>
<path class="st1" d="M119.9,202.7c-36.2,0.5-72.3,2.5-108.4,5.8c-5.5,0.5-4.7,9,0.8,8.5c36-3.3,72.2-5.2,108.4-5.8
	C126.2,211.1,125.4,202.6,119.9,202.7L119.9,202.7z"/>
<path class="st1" d="M123.8,234.1c-21.3,4.9-42.6,9.4-64.1,13.8c-5.3,1.1-4.6,9.6,0.8,8.5c22.2-4.5,44.3-9.2,66.3-14.3
	C132.2,240.9,129.1,232.9,123.8,234.1L123.8,234.1z"/>
<path class="st1" d="M144.9,270.3c-39.7,9.5-78.8,20.9-117.4,34c-5.2,1.8-2.2,9.8,3,8c38.6-13.2,77.8-24.5,117.4-34
	C153.3,277,150.3,269,144.9,270.3L144.9,270.3z"/>
<g>
	<path class="st2" d="M304.2,234.4c0.1,1.5-0.2,2.8-1.1,3.8s-2,1.6-3.3,1.7c-1,0.1-2-0.1-2.9-0.7c-0.9-0.6-1.6-1.4-2.2-2.4
		l-5.5-10.1l-25.9,2.3l-3.6,11c-0.3,1.1-0.8,2-1.6,2.7c-0.8,0.7-1.7,1.1-2.7,1.2c-1.5,0.1-2.7-0.2-3.5-0.9c-0.9-0.7-1.3-1.8-1.5-3.2
		c0-0.5,0-1.1,0.1-1.7l16.9-53.8c0.4-1.2,1-2.2,1.8-2.9c0.9-0.7,1.9-1.1,3.1-1.1c1-0.1,2,0.1,3,0.6s1.7,1.3,2.2,2.4l25.9,48.9
		C304,233.1,304.2,233.8,304.2,234.4z M266.8,218.8l17.3-1.6l-10.6-19.5L266.8,218.8z"/>
</g>
<g>
	<path class="st2" d="M374.3,199.3c0.7,0.5,1,1.2,1.1,2.2c0.1,0.9-0.2,1.7-0.7,2.3c-0.6,0.6-1.3,1-2.3,1.1l-8.5,0.8l2.6,28.2
		c0.1,0.9-0.2,1.7-0.8,2.4c-0.6,0.7-1.4,1.1-2.4,1.2c-1,0.1-1.9-0.2-2.6-0.7c-0.7-0.6-1.1-1.3-1.2-2.3l-2.6-28.2l-8.5,0.8
		c-1,0.1-1.8-0.1-2.4-0.6c-0.7-0.5-1-1.2-1.1-2.2c-0.1-0.9,0.2-1.7,0.7-2.3c0.6-0.6,1.3-1,2.3-1.1l23.9-2.2
		C372.8,198.5,373.6,198.7,374.3,199.3z"/>
</g>
<path class="st0" d="M199.9,199.8c-3.9-6.2-8.1-12.2-11.1-18.9c-1.3-3-5.6-3.7-8.2-2.2c-3,1.8-3.5,5.2-2.2,8.2
	c3,6.7,7.2,12.7,11.1,18.9C193.7,212.3,204.1,206.3,199.9,199.8z"/>
<g>
	<path class="st2" d="M198.5,203.5c0.1,0.9-0.2,1.8-0.7,2.6c-0.6,0.9-1.4,1.4-2.4,1.5c-0.7,0.1-1.4-0.1-2.2-0.4
		c-2.1-0.8-4.4-1-6.7-0.8c-2.9,0.3-5.4,1.1-7.4,2.5s-3.6,3.3-4.5,5.6c-1,2.3-1.3,4.9-1.1,7.8c0.4,4.9,2.1,8.5,5,10.8
		s6.4,3.2,10.7,2.9c2.5-0.2,4.7-0.9,6.5-2c0.7-0.4,1.4-0.6,1.9-0.7c1.1-0.1,2,0.3,2.9,1.1c0.7,0.7,1.1,1.6,1.2,2.5
		c0.1,0.7-0.1,1.3-0.3,1.8c-0.3,0.6-0.7,1-1.3,1.4c-3.1,1.9-6.5,3-10.1,3.4c-4.1,0.4-7.9-0.2-11.4-1.6c-3.6-1.4-6.5-3.7-8.8-6.9
		s-3.7-7.2-4.2-11.9c-0.4-4.2,0.2-8.1,1.9-11.7c1.6-3.5,4.1-6.4,7.3-8.6c3.2-2.2,7-3.5,11.3-3.9c3.7-0.3,7.2,0.2,10.5,1.5
		C197.7,201,198.4,202,198.5,203.5z"/>
</g>
<path class="st3" d="M553.8,406.9c-15.6-4-30.8,1.1-45.8,5.2c-5.4,1.5-11.2,2.8-17,3.4c4.5-7.8,0.3-18.7-5-25.1
	c-0.1-0.2-0.4-0.4-0.7-0.7c0.9-1.5,1.8-3,2.5-4.5c2.3-5.2,1.4-13.4-5.7-14.2c-6.1-0.7-9.3,6.4-7.9,11.5c0.8,3,2.7,5.2,4.8,7.4
	c-4.8,6.2-10.6,11.6-17.2,15.8c-4.9,3.2-22.2,13.2-21.3-0.3c0.3-4.4,3.8-10.3,5.5-14.2c1.9-4.3,3.8-8.5,5.8-12.7
	c0.8-1.7-0.6-4.4-2.7-3.5c-7.5,3.1-15.1,3.1-22.6-0.1c-0.9-0.4-2.3,0.3-2.7,1.1c-7.5,13.7-24.7,8.3-36.3,3.6
	c-10.3-8.2-24.6-1.4-27,11.3c-0.9,4.5-0.5,9.3-1.8,13.6c-1.7,5.8-7.1,12.7-13.3,7c-7.5-6.8-5-19.6-3.3-28.2c0.5-2.3-2.2-4.1-4-2.3
	c-7.9,7.7-20.8,7.8-28.9,0.3c-1.9-1.8-4.3,0.1-4,2.3c1.8,12.8-1.9,25.6-9.9,35.6c-7.5-11.7-12.3-24.6-14.2-38.5
	c-0.1-1-1.4-1.8-2.3-1.8c-10.5,0.1-14,11-16.1,19.5c-1.4,5.9-4.4,16.2-12.7,13.8c-3.3-1-5.3-2.9-6.5-5.5c2.5-6.6,1.5-14.6,0.4-21.5
	c-0.2-1.2-1.2-1.7-2.2-1.7c-6.8-7.4-18.6-4.1-24.3,3.4c-5,6.7-6.2,15.1-10.4,22.2c-2.3,3.9-5.6,7.9-10.2,9
	c-10.2,2.4-7.3-9.2-7.1-14.3c0.4-7.1,0.1-33.4-14-24.8c-5.6,3.4-8.9,11-11.4,16.7c-1.7,3.9-3,7.9-3.9,12c-0.8-4-1.4-8-1.9-12
	c4.9-9.3,8.1-20.3,8.8-30.6c0.5-7.6-1.1-16.1-8.6-19.6c-1.3-0.6-3.3-0.2-3.5,1.4c-2.8,15.9-3.3,31.9-1.6,47.8
	c-7.6,13.1-22.5,24.1-38.1,17.8c-7.2-2.9-12.9-9.4-12.6-17.5c0.1-2,0.6-4,1.3-5.9c6.3,0.7,13.8,1.1,17.9-3.3
	c4.1-4.4,0.6-10-4.7-10.8c-6.4-0.9-12.6,3.6-15.9,8.8c0,0,0,0.1,0,0.1c-2.9-0.3-5.9-0.6-8.8-1c-8.8-1.3-17.4-3.2-25.9-5.8
	c-3-0.7-4.3,3.8-1.3,4.7c16,3.9,20.9,29.3,3.8,35.4c-6.9,2.4-15.4,1-20.8-3.9c-6.7-6.1-6.6-16.3-5.6-25.2c6.9-5.2,13-11.3,17.6-18.7
	c3.7-5.9,9.4-16.6,5.5-23.6c-3.9-7.1-13.2-4.5-17.2,0.9c-3.1,4.2-4.5,9.8-5.8,14.7c-1.8,6.5-3.1,13.2-4,19.9
	c-0.2,1.4-0.4,2.8-0.6,4.3c-8.3,6.1-17.6,11-26.6,15.6c-2.8,1.4-0.3,5.6,2.4,4.2c7.9-4.1,16-8.4,23.6-13.5
	c-0.5,7.5,0.1,15.3,4.2,21.4c8,11.9,27.7,13.6,37.5,3c8.1-8.7,6.6-22.1-0.3-30.8c6.4,1.4,12.9,2.5,19.4,3.2c0.2,0,0.4,0,0.6,0.1
	c-4.3,12.5,4.1,25.5,17,29.4c15,4.5,29.5-3.9,38.2-15.8c1,6.4,2.3,12.9,4.1,19.2c0.7,2.7,4.6,2,4.7-0.6c0.5-7.5,2-14.8,4.8-21.8
	c1.5-3.7,3.3-7.3,5.5-10.6c1.6-2.4,5.6-9,9.7-3.2c0.5,0.7,0.5,2.1,0.7,2.8c1.6,7.8,0.6,15.4,0.1,23.2c-0.3,4.8,1,9.1,5.8,11
	c9.8,4,18.6-5.2,22.5-13.2c1.3-2.7,2.3-5.6,3.4-8.5c-0.4,4.5,0.4,9,2.9,12.4c4.8,6.7,13.8,5.7,19.6,0.9c1-0.8,1.9-1.8,2.6-2.7
	c3.4,4.4,9,7.2,14.6,5.5c5.7-1.7,8.7-7.3,10.4-12.6c2.1-6.3,2.9-18.3,10.7-20.2c2.3,14.6,7.8,28.2,16.2,40.4
	c0.8,1.2,2.7,1.7,3.8,0.5c9.4-10.3,14-23.3,13.6-36.9c8,4.7,18,4.8,26.1,0.2c-1,6.6-1.4,13.4,1.1,19.6c2.5,6.3,8.7,12.8,16.1,10.2
	c3.7-1.3,6.2-4,7.9-7.2c0.9,2.3,2.4,4.4,4.8,5.9c6.9,4.3,17.1,2.2,22.2-4c6.4-7.7,5.2-18.2,1.7-27.1c12.8,4.5,28.6,7.1,36.9-5.5
	c6,2.2,12.3,2.5,18.4,1.1c-1.6,3.4-3.1,6.8-4.5,10.2c-2,4.7-5,10.1-5.3,15.3c-0.3,7.2,5.8,10.7,12.3,10.1c4.6-0.4,9.1-2.3,13.2-4.8
	c0.1,0.2,0.2,0.4,0.4,0.6c5.7,6.8,16.4,12.6,24.6,7.9c21.8-0.4,45-14.7,66.7-9.1C555.5,412.4,556.8,407.7,553.8,406.9z M47,365
	c1.2-4.8,2.3-11,5.4-15c1.5-3.1,3.6-3.7,6.4-1.8c3.1-0.2,4.3,1,3.5,3.7c-0.2,2.5-1.1,5.2-2.1,7.6c-1.5,3.9-3.7,7.7-6.2,11
	c-3,4-6.5,7.6-10.2,10.8C44.5,375.8,45.6,370.4,47,365z M116.5,381.7c1.6,2.9-0.9,2.7-3.4,3c-1.9,0.2-3.9,0-5.8-0.1
	c-0.1,0-0.2,0-0.3,0C109.1,382.2,114.4,378,116.5,381.7z M161.8,369.2c-0.9,5.7-2.3,11.4-4.4,16.9c-0.6-11.3-0.1-22.8,1.6-34.1
	C163.2,356.2,162.7,363.6,161.8,369.2z M223.4,411.3c-9.2-8.6,3.3-34.5,15-23.8c-1.4,6.2-2.6,13-0.4,19
	C235.2,411.6,228.2,415.9,223.4,411.3z M386,407.2c-2.7,5.3-9.1,8.1-14.9,6.6c-14.2-3.7-2.1-36.8,12.5-30.4
	C387.1,390.5,389.8,399.6,386,407.2z M478.9,378.2c1.8,0.5,3.6,1,5.4,1.4c-0.1,1.7-0.6,3.3-1.5,4.8c-0.3,0.5-0.6,1.1-0.9,1.6
	C479.2,383.1,476.8,379.6,478.9,378.2z M482.3,393.8c2.9,3.6,5.2,8,5.6,12.6c0.3,3.8-1,7.4-3.6,9.4c-7-0.2-13.7-1.9-19.5-6.3
	c1.6-1.1,3-2.2,4.5-3.3C473.8,402.8,478.5,398.6,482.3,393.8z"/>
<path class="st3" d="M347.6,360c-0.3-1.3-1.4-2.1-2.6-2.2c-0.3-0.1-0.6,0-0.9,0.1c-0.3,0.1-0.5,0.2-0.8,0.4c-1,0.7-1.5,1.9-1.1,3.2
	c0.4,1.5,1.9,2.5,3.5,2.1C347.3,363.2,347.9,361.5,347.6,360z"/>
<rect y="451.7" class="st4" width="566" height="91.8"/>
<text transform="matrix(1 0 0 1 99.9287 534.2754)" class="st2 st5 st6">EXPLAINED </text>
</svg>
