<?xml version="1.0" encoding="utf-8"?>
<!-- Generator: Adobe Illustrator 21.1.0, SVG Export Plug-In . SVG Version: 6.00 Build 0)  -->
<svg version="1.1" id="Layer_1" xmlns="http://www.w3.org/2000/svg" xmlns:xlink="http://www.w3.org/1999/xlink" x="0px" y="0px"
	 viewBox="0 0 721 500" style="enable-background:new 0 0 721 500;" xml:space="preserve">
<style type="text/css">
	.st0{fill:#EE554B;}
	.st1{font-family:'Quicksand-Bold';}
	.st2{font-size:529.7511px;}
	.st3{letter-spacing:-27;}
	.st4{fill:#311C4B;}
	.st5{fill:#FFFFFF;}
</style>
<text transform="matrix(1 0 0 1 46.6787 429.0469)"><tspan x="0" y="0" class="st0 st1 st2 st3">1</tspan><tspan x="165.8" y="0" class="st0 st1 st2">0</tspan></text>
<g>
	<path class="st4" d="M529.3,45.2c-8,24.9-9.8,51.2-5.3,76.7c3.5,19.8,10.7,43.1,31.5,54.3c11.2,6,25.2,7.2,38,8
		c12.6,0.8,25.8,0.3,37.8-3.6c23.9-7.8,35.4-28.2,41.3-48.8c8.1-28.5,8.8-58.4,2.6-87.2c-0.5-2.4-4.6-1.4-4.1,1
		c5.3,24.6,5.3,50,0,74.6c-4.3,20-11.9,42.9-33.5,53.7c-10.6,5.3-23,6.9-35,6.9c-12.3,0-25.7-0.9-37.4-4.6
		c-22.5-7.1-31.4-29-35.6-47.8c-6.1-27.2-4.7-55.5,3.8-82.1C534.2,43.9,530.1,42.9,529.3,45.2L529.3,45.2z"/>
	<path class="st4" d="M673.4,42.6c-9.7,1.3-19.6,2.7-28.6,6.5c-4.2,1.8-8.2,4.1-11.5,7.1c-3.9,3.6-6.3,7.9-9.1,12.1
		c-11.4,17.2-34.6,22.9-55.9,23.8c-14.9,0.6-29.7-0.5-44.6-0.1c-2.7,0.1-2.8,3.8,0,3.8c24.6-0.7,50.1,3,73.8-4.5
		c9.2-2.9,17.9-7.4,24.5-13.8c7.3-7.2,10.2-17,19.6-22.5c9.7-5.7,21.6-7.3,32.9-8.8C677.2,45.9,676.1,42.2,673.4,42.6L673.4,42.6z"
		/>
	<path class="st4" d="M676.8,41.6c-17.5-11-40.3-5.4-55.3,6.1c-8.5,6.5-14.1,15.6-23.9,20.8c-9.4,5-20.6,6.5-31.4,6.8
		c-14.1,0.4-28.2-1-42.3,0.7c-2.7,0.3-1.6,3.9,1.1,3.6c22.4-2.7,46,2.9,67.6-4.8c4.5-1.6,8.6-3.7,12.4-6.4c4.3-3.1,7.7-7,11.3-10.7
		c6.8-7,15-13.1,24.9-16.3c11.1-3.5,23.6-2.8,33.3,3.3C676.9,46.3,679,43,676.8,41.6L676.8,41.6z"/>
	<path class="st4" d="M677.5,39.6c-14.8-15-39.4-20-60.2-12.1c-5,1.9-9.7,4.5-13.8,7.7c-4.6,3.6-8.4,7.9-12.6,11.9
		c-8,7.5-17.7,11.9-29.2,13.8c-12.7,2.1-25.9,1.3-38.7,0.5c-2.7-0.2-2.7,3.6,0,3.8c20.6,1.4,44.1,2.6,61.9-8.4
		c9.4-5.8,15.2-14.8,24.3-20.8c9.2-6.1,20.9-9.1,32.4-8.4c12.7,0.8,24.6,6.4,32.9,14.8C676.3,44.1,679.3,41.4,677.5,39.6L677.5,39.6
		z"/>
	<path class="st4" d="M667.7,31.4c-16.8-8.6-34.9-16.5-54.7-17.6c-9.2-0.5-18.6,0.5-27.2,3.5c-9.1,3.2-16.4,9-24.8,13.3
		c-4.4,2.2-9,4-13.7,5.4c-4.6,1.3-9.6,1.7-14,3.3c-3.9,1.4-6.2,4.2-8.2,7.3c-2.4,3.6-5,7.1-8,10.4c-11.2,12.4-25.2,23.8-27.1,40.4
		c-0.8,7.5,1.7,14.2,7.1,20c2.9,3.1,6.5,6.3,6.7,10.6c0.2,4.5-2.5,8.7-5,12.4c-5.7,8.3-11.7,16.4-17.5,24.7
		c-4.6,6.5-9.1,14-6.7,21.9c2.1,6.8,9,8.9,14.2,13.4c3.2,2.7,2.7,5.4,0.3,8.5c-2.6,3.3-5.9,6.2-8.5,9.6c-3.9,5.4-5.7,13.4,0.4,18.2
		c2.9,2.3,6.8,3.5,10.4,4.6c3.9,1.2,8.2,2.1,12.3,1.9c7.8-0.5,11.8-5,15-10.7c1.4-2.6,2.8-5.8,5.8-7.2c3.7-1.8,8.3-0.6,12.1-2.5
		c6.5-3.2,8.7-10.3,9-16.4c0.2-4.3-0.3-8.7,0.6-13c0.9-4.3,3.9-7.6,6-11.5c1.7-3,2.6-6.2,1.3-9.4c-0.9-2.3-5-1.3-4.1,1
		c1.5,3.8-1.2,7.2-3.3,10.3c-2.1,3.2-3.8,6.5-4.4,10.2c-1.1,7,1,14.7-2.9,21.2c-2.1,3.5-5.1,5.1-9.6,5.4c-3.4,0.2-6.5,0.7-9.1,2.8
		c-4.7,3.7-5.3,10-9.9,13.7c-6.1,4.9-16.5,1.6-22.9-1.2c-9.8-4.1-5.8-12.9-0.4-18.7c4-4.3,10.7-9.7,7.8-15.9
		c-2.4-5.1-9.2-7-13.2-10.8c-6.8-6.4-2.1-15.6,2.2-22c5.2-7.5,10.5-14.9,15.8-22.4c4.4-6.2,10-13.3,8-20.9
		c-1.9-7-9.8-11.1-12.3-17.9c-5.6-15.2,7.3-29.6,17.7-40.3c5.7-5.8,11.1-11.6,15.5-18.3c2.5-3.8,4.9-6,10-6.9
		c4.4-0.8,8.7-1.8,13-3.2c8.6-2.8,16-7.2,23.5-11.8c7.6-4.6,15.6-7.9,24.8-9c18.8-2.4,37.4,3.2,53.8,10.8c4.1,1.9,8.1,3.8,12,5.9
		C667.9,35.8,670.1,32.6,667.7,31.4L667.7,31.4z"/>
	<path class="st4" d="M522.2,60.5c-9.7,9.7-17.4,21.7-15.1,35c2.3,13.4,13.1,25.3,10.7,39.4c-1.2,7.1-5,13.6-9.3,19.6
		c-4.2,5.8-9.5,11-12.6,17.3c-2.6,5.4-2.5,10.9-0.5,16.4c2.1,5.7,5.8,10.9,7.1,16.8c2.8,13-15.5,20.3-13,33.3c0.4,2.4,4.6,1.4,4.1-1
		c-1-5.4,3.3-10.1,6.6-14.2c3.3-4.2,6.5-8.6,6.9-13.8c1-11.8-12.1-21.7-8.2-33.7c2.1-6.4,7.4-11.6,11.6-17
		c4.2-5.4,7.9-11.2,10.1-17.5c2.1-6.1,2.4-12.3,0.8-18.5c-1.6-6.3-4.7-12.1-7.1-18.1c-2.9-7.1-4.5-14.4-2.1-21.9
		c2.3-7.4,7.4-13.8,13.1-19.5C527.1,61.4,524.1,58.7,522.2,60.5L522.2,60.5z"/>
	<path class="st4" d="M533.2,151.2c-2.7,11.7-17.3,20.7-11.5,33.6c1.5,3.4,3.7,6.5,4.5,10.1c0.9,3.8,0.6,7.9-0.8,11.6
		c-2.7,7-8.8,13.6-5.3,21.3c1,2.2,5.1,1.3,4.1-1c-3.4-7.5,4.2-14.5,6-21.5c1.8-7-0.1-13.2-3.4-19.5c-1.7-3.2-2.8-6.3-2-9.8
		c0.6-2.8,2.1-5.4,3.8-7.9c3.4-5.2,7.4-10.1,8.8-16C537.8,149.9,533.7,148.9,533.2,151.2L533.2,151.2z"/>
	<path class="st4" d="M676.1,41.8c10.6,5.7,21.8,11.7,28.3,21.3c6,8.9,5.3,18.3,0.5,27.5c-4.1,7.7-9.7,14.7-13.2,22.6
		c-3.6,8-3.6,16.2,0.8,24.1c5.1,9,13.9,16.1,17,26c1.6,5.1,2,10.9,0,16c-2.1,5.4-7.1,7.9-11.9,11.2c-9.5,6.6-9.8,16.8-11.6,26.5
		c-0.9,5-2.4,10.5-6.9,14c-4.1,3.2-10.5,4.6-14.7,0.8c-4.7-4.3-4-11-4.4-16.5c-0.2-3.1-0.8-6.1-2-9c-1.2-2.9-2.6-5.8-2.9-9
		c-1-10.9,6.4-21.6,0.8-32.2c-1.1-2.2-4.8-0.3-3.7,1.9c5.2,10-2.8,21.3-1.2,31.6c0.4,2.9,1.6,5.5,2.7,8.2c1.3,3.3,2,6.5,2.1,9.9
		c0.3,5.1,0.3,10.4,3.3,14.9c5.8,8.8,18.6,7.2,25.2,0c7.9-8.6,5.2-20.6,9.4-30.4c2.5-5.8,7.7-8.3,12.8-12c4.3-3.1,7.1-7.4,8.1-12.2
		c2.3-11.2-2.9-21.3-10-30.3c-6.7-8.4-13.4-16.9-10.5-27.6c2.5-9.1,9-16.8,13.7-25c5.4-9.6,7.6-19.7,2.3-29.8
		c-6.3-11.9-19.4-19.2-31.7-25.8C675.9,37.3,673.8,40.5,676.1,41.8L676.1,41.8z"/>
	<path class="st4" d="M674.3,56.7c6.8,2.7,14.4,5.6,18.8,11.2c2.1,2.7,3.6,6,3.3,9.3c-0.3,3.5-2.7,6.4-4.8,9.3
		c-7.8,10.4-12.5,22.1-13.6,34.5c-1.1,12.4,1.6,24.7,7.6,36c3.5,6.6,7.5,13.7,2.7,20.7c-3.5,5-8.8,8.8-11.8,14.1
		c-6.6,11.6-5.9,25.9,2,36.8c1.5,2,5.2,0.1,3.7-1.9c-7.7-10.6-8-24.7-0.5-35.5c3.5-5,9.1-8.7,11.8-14.2c3.1-6.4,0.5-12.8-2.5-18.8
		c-3.2-6.2-6.1-12.3-7.6-19c-1.4-6.3-1.7-12.7-1-19.1c0.6-6.3,2.3-12.6,5-18.6c1.3-3,3-6,4.8-8.8c2-3,4.5-5.8,6.3-8.9
		c3.5-6.1,2.6-12.7-1.9-18.3c-4.9-6-12.6-9.3-20.1-12.2C673.9,52.4,671.8,55.6,674.3,56.7L674.3,56.7z"/>
	<path class="st4" d="M635.6,89.4c0.1-4.9,6.1-6.9,10.8-5.4c4.9,1.5,7.9,5.5,9.9,9.5c1.2,2.2,4.8,0.3,3.7-1.9
		c-3-5.8-8.2-11.3-15.9-11.8c-6.6-0.5-12.7,3.7-12.8,9.7C631.2,91.9,635.5,91.9,635.6,89.4L635.6,89.4z"/>
	<path class="st4" d="M597.7,106.6c0,6.9,0,13.7,0,20.6c0,2-0.2,4.3,2.3,5.3c2.6,1,6.9-0.4,9.5-0.7c2.7-0.3,1.6-4-1.1-3.6
		c-1.5,0.2-3,0.5-4.4,0.6c-0.4,0-0.7,0.1-1.1,0.1c-1,0.1-1.3-0.2-0.9-1.2c-0.5-2.1,0-4.8,0-6.9c0-4.8,0-9.5,0-14.3
		C602,104.2,597.7,104.2,597.7,106.6L597.7,106.6z"/>
	<path class="st4" d="M563.2,146.8c21.4,13.8,50.9,14.2,72.8,0.9c2.3-1.4,0.1-4.6-2.2-3.2c-20.8,12.6-48.1,12.2-68.5-0.9
		C563.2,142.1,561,145.4,563.2,146.8L563.2,146.8z"/>
	<path class="st4" d="M578.2,151.2c3.9-2,8.2-3.8,12.7-4.5c2.7-0.4,3.7,0,5.3,1.7c0.9,0.9,1.9,1.6,3.3,1.6c1.4,0,2.7-0.6,3.7-1.4
		c0.8-0.6,1.5-1.6,2.7-1.7c1.2-0.1,2.4,0.7,3.4,1.2c3.8,1.8,7.5,3.3,11.8,3.9c2.7,0.4,3.8-3.2,1.1-3.6c-2.5-0.4-4.9-1-7.2-1.9
		c-2-0.8-3.8-1.9-5.8-2.7c-1.8-0.7-3.8-1-5.7-0.3c-0.9,0.3-1.5,0.8-2.2,1.3c-1.2,0.9-1.2,1.5-2.5,0.4c-2.8-2.4-5.3-2.9-9.2-2.2
		c-4.8,0.9-9.5,2.7-13.7,4.9C573.7,149.2,575.9,152.5,578.2,151.2L578.2,151.2z"/>
	<path class="st4" d="M576.4,152.2c2.7,8.4,11.1,14.9,21,15.8c10,0.9,19.9-4.3,24.2-12.2c1.2-2.2-2.5-4.1-3.7-1.9
		c-3.5,6.5-11.3,10.9-19.7,10.4c-8.4-0.5-15.5-6.1-17.8-13.1C579.8,148.8,575.7,149.8,576.4,152.2L576.4,152.2z"/>
	<path class="st4" d="M533.5,42.3c8.7-8.6,19-17.6,30.7-23.1c6.5-3.1,13.7-3.1,20.9-3.2c7.4-0.2,14.9-0.2,22.3,0
		c2.8,0.1,2.8-3.7,0-3.8c-7.8-0.2-15.7-0.2-23.5,0c-7.3,0.2-14.4,0.4-21,3.3c-6.1,2.7-11.6,6.7-16.7,10.5
		c-5.6,4.2-10.9,8.8-15.8,13.6C528.7,41.4,531.7,44.1,533.5,42.3L533.5,42.3z"/>
	<path class="st4" d="M631,18.2c-19.2-3.6-32.9,10.3-46.9,19.1c-15.1,9.5-33.8,12.7-52,11.5c-2.7-0.2-2.7,3.6,0,3.8
		c17.2,1.1,34.9-1.6,49.8-9.5c14.7-7.8,28.7-24.9,48-21.3C632.5,22.3,633.7,18.7,631,18.2L631,18.2z"/>
	<path class="st4" d="M544.5,112.1c-5.3,4-7,11.2-3,16.4c3.8,5,11.5,7,17.6,4.1c6.2-2.9,8.8-9.7,5.6-15.2c-3.6-6.3-12-8.4-19.3-6.5
		c-2.6,0.7-1.5,4.3,1.1,3.6c5.2-1.3,11.2-0.3,14.1,4.1c2.5,3.9,0.8,8.7-3.7,10.8c-4.3,2-9.8,0.3-12.2-3.4c-2.5-3.8-0.8-8.5,2.8-11.2
		C549.7,113.2,546.6,110.5,544.5,112.1L544.5,112.1z"/>
	<path class="st4" d="M657.9,109.1c-5.1-5.3-14.2-3.7-18.6,1.4c-4.6,5.3-5.6,13.8,1.4,17.9c5.9,3.4,14.3,1.9,18.7-2.9
		c4.6-5.1,3.4-12.9-2.1-17.1c-2.1-1.6-5.1,1.1-3,2.7c3.7,2.8,5,7.8,2.2,11.6c-2.5,3.3-7.8,4.7-12,3.2c-12.1-4.3,1.9-22.9,10.4-14.1
		C656.6,113.6,659.6,110.9,657.9,109.1L657.9,109.1z"/>
</g>
<path class="st4" d="M578.9,183.8c1.2,2,2,4.3,2.2,6.5c0.3,2.4,4.6,2.4,4.3,0c-0.4-3-1.3-5.8-2.8-8.4
	C581.4,179.7,577.7,181.6,578.9,183.8L578.9,183.8z"/>
<path class="st4" d="M621.9,182.5c-0.3,2.6,0.3,5,1.4,7.4c0.5,0.9,2,1.1,2.9,0.7c1.1-0.6,1.2-1.6,0.8-2.6c-0.9-1.8-1.1-3.6-0.9-5.5
	c0.1-1-1.1-1.9-2.1-1.9C622.8,180.6,622,181.5,621.9,182.5L621.9,182.5z"/>
<path class="st4" d="M582.8,191.9c2.5,5.5,12.7,6.9,18.6,6.9c8.3,0,16.2-2.7,23.5-5.9c2.5-1.1,0.3-4.3-2.2-3.2
	c-5.9,2.6-12.2,4.9-18.9,5.3c-2.9,0.2-5.9,0.1-8.7-0.5c-2.1-0.4-7.2-1.5-8.2-3.6C585.9,188.7,581.7,189.6,582.8,191.9L582.8,191.9z"
	/>
<g>
	<path class="st5" d="M572.8,252.4c-24.4,34.3-36.4,75.2-33.8,115.4c0.5,8.2,1.7,16.3,2.8,24.4c1.8,13.1,3.6,26.2,6,39.2
		c0.7,3.9,1.6,8.1,4.5,11.2c2.9,3.1,8.5,4.7,12.2,2.4c3.3-2,3.9-5.9,4.2-9.4c1.7-17.7,3.3-35.5,5-53.2c0.1-1.3,0.3-2.6,1.1-3.6
		c0.9-1.1,2.5-1.6,4-2c11.3-3,23.5-3.2,34.9-0.8c2.3,0.5,4.7,1.2,6.5,2.6c2.6,2.1,3.3,5.4,3.8,8.5c2.4,15.4,3.7,30.9,3.7,46.5
		c0,3.5,0.6,7.9,4.3,9.2c4.2,1.5,8.4-2.2,10.4-5.7c4.9-8.7,5.5-18.6,5.9-28.3c0.4-9,0.8-17.9,1.1-26.9c1.3-34.2,2.2-68.5-2.1-102.5
		c-1.4-11.3-4.2-23.7-14.7-30.5"/>
	<path class="st4" d="M570.9,251.4c-23.4,33-35.6,71.9-34.3,110.7c0.3,10.4,1.8,20.8,3.2,31.1c1.4,10.5,2.9,21,4.7,31.5
		c1.3,7.8,1.7,19.1,11.6,22.5c3.5,1.2,7.7,1,10.6-1.3c3.1-2.5,3.8-6.4,4.1-9.9c1.1-10.9,2.1-21.9,3.1-32.8c0.5-5.5,1-11,1.5-16.5
		c0.2-2.7-0.3-6.6,3.1-7.8c2.7-0.9,5.6-1.4,8.4-1.8c5.8-0.9,11.7-1,17.6-0.5c4.7,0.4,12.7,0.8,15.5,4.8c1.2,1.7,1.5,3.9,1.9,5.9
		c0.5,2.9,0.9,5.9,1.3,8.8c0.7,5.4,1.2,10.9,1.6,16.4c0.4,5.6,0.7,11.3,0.8,16.9c0.1,3.8-0.4,8,1.5,11.5c1.6,3,5.2,4.8,8.9,3.9
		c4.4-1,7.3-4.6,9-8c4.4-8.6,5.1-18.2,5.5-27.5c0.5-10.9,0.9-21.8,1.3-32.7c0.8-21.8,1.3-43.7,0.3-65.6c-0.5-10.9-1.3-21.9-2.8-32.8
		c-1.1-7.8-2.6-15.8-7.2-22.6c-2.2-3.3-5-6-8.4-8.3c-2.2-1.5-4.3,1.8-2.2,3.2c7.3,4.9,10.4,12.8,12.2,20.4c2.1,9.3,2.7,19,3.4,28.4
		c1.5,20.8,1.4,41.6,0.8,62.4c-0.3,10.1-0.7,20.3-1.1,30.4c-0.4,9.8-0.3,19.7-1.7,29.4c-0.7,4.6-1.9,9.4-4.1,13.6
		c-1.7,3.2-8,9.5-10.5,3.2c-1.5-3.9-0.7-8.8-0.8-12.9c-0.2-5.3-0.4-10.6-0.9-15.9c-0.4-5.1-1-10.2-1.6-15.3
		c-0.6-4.3-0.7-9.1-2.5-13.2c-3.4-7.6-14.9-8.3-22.9-8.7c-5.3-0.3-10.7,0-16,0.9c-3.9,0.6-10,1.2-12.6,4.2c-1.2,1.4-1.4,3.1-1.6,4.7
		c-0.3,2.7-0.5,5.3-0.7,8c-0.5,5.1-1,10.3-1.4,15.4c-1,10.3-1.6,20.6-2.9,30.9c-0.5,4-2.5,8.6-8.2,7.2c-5.2-1.4-6.9-6.3-7.9-10.5
		c-2.2-10-3.5-20.3-4.9-30.4c-1.4-10-2.9-20.1-3.9-30.2c-3.4-37.1,5.4-74.8,25.3-107.8c2.4-4,5-7.9,7.8-11.8
		C576.1,251.3,572.4,249.4,570.9,251.4L570.9,251.4z"/>
</g>
<path class="st4" d="M553.3,172.1c-7,5-7.2,13.2-7,20.5c0.2,8.9-1.3,17.5-5.4,25.7c-1.1,2.2,2.6,4.1,3.7,1.9
	c3.6-7.2,5.8-14.8,6-22.6c0.3-7.7-2-17.3,5.7-22.9C558.5,173.3,555.4,170.6,553.3,172.1L553.3,172.1z"/>
<g>
	<path class="st5" d="M532.3,158.3c-1.9,15.7-3.9,31.6-1,47.1c2.9,15.6,11.2,31,26,40c8.8,5.4,19.4,8.1,30.1,9.6
		c11.4,1.6,23.2,1.9,34.5-0.2c11.3-2.2,22.1-6.9,30-14.4c13-12.4,16.3-30.3,17.4-47.2c0.9-13.4,0.8-27.1-4.2-39.8
		c-0.2-0.6-0.5-1.2-1.1-1.5c-1.1-0.5-2.3,0.3-3.2,1c-4.6,3.8-8.8,8-12.6,12.5c-1.4,1.6-2.8,3.4-4.9,4.1c-1.6,0.6-3.3,0.6-5,0.5
		c-27.4-0.6-54.8-1.2-82.2-1.7c-1.5,0-3-0.1-4.3-0.6c-1-0.4-1.8-1.1-2.6-1.7c-4.5-3.8-8.9-7.5-13.4-11.3c-1.5,0.8-2.6,2.4-2.7,4"/>
	<path class="st4" d="M530.2,158.3c-3.3,26.3-6.1,55.9,13.5,78.2c8.8,10,21.1,15.9,34.9,18.9c15.3,3.3,31.9,4.2,47.2,0.5
		c13.4-3.2,25.5-10.2,33.1-20.5c7.4-10,10.3-22,11.7-33.7c1.6-13.3,2.2-27.1-0.9-40.3c-0.8-3.6-2.5-14.6-9.4-10.6
		c-2.8,1.6-5.2,4.3-7.4,6.5c-2.7,2.7-5,5.5-7.6,8.3c-1.7,1.9-3.3,2.6-6.2,2.7c-2.3,0.1-4.7-0.1-7.1-0.1c-4.8-0.1-9.7-0.2-14.5-0.3
		c-9.7-0.2-19.3-0.4-29-0.6c-9.7-0.2-19.3-0.4-29-0.6c-2,0-4.6,0.3-6.5-0.4c-1.9-0.6-3.5-2.4-5-3.7c-3.6-3.1-7.3-6.1-10.9-9.2
		c-0.6-0.5-1.8-0.8-2.6-0.3c-2,1.3-3.3,2.9-3.7,5.1c-0.4,2.4,3.7,3.4,4.1,1c0.2-1.2,0.5-2.1,1.7-2.9c-0.9-0.1-1.7-0.2-2.6-0.3
		c2.8,2.4,5.6,4.7,8.4,7.1c2.4,2,4.8,4.6,7.7,6.1c2.5,1.2,5.4,1.1,8.1,1.1c4.4,0.1,8.9,0.2,13.3,0.3c16.1,0.3,32.2,0.7,48.3,1
		c4,0.1,8.1,0.2,12.1,0.3c3.7,0.1,8.1,0.7,11.6-0.5c2.3-0.8,3.9-2.4,5.4-4.1c2.4-2.8,4.9-5.5,7.5-8.1c1.3-1.2,2.6-2.4,3.9-3.5
		c0.1-0.1,1.3-1.3,1.6-1.4c0.3-0.1,0.5-0.2,0.8-0.3c0.2,0.6,0.5,1.2,0.7,1.9c1.1,3.1,2,6.3,2.6,9.5c1.3,6.8,1.5,13.7,1.3,20.5
		c-0.7,23.2-4.6,50-30.4,62.1c-13.4,6.3-29.1,7.4-44,5.9c-14.4-1.4-29.3-5-40.1-13.9c-25.4-20.8-21.9-54.2-18.5-81.6
		C534.7,155.9,530.5,156,530.2,158.3L530.2,158.3z"/>
</g>
<path class="st4" d="M567.7,200c1-3.8,6.8-4.7,8.5-0.7c1,2.2,5.1,1.3,4.1-1c-1.4-3.3-4.9-5.7-9-5.4c-3.8,0.3-6.9,2.9-7.7,6.1
	C562.9,201.4,567.1,202.4,567.7,200L567.7,200z"/>
<path class="st4" d="M624.9,199.2c1.2-4.3,7.4-3.8,8.2,0.4c0.4,2.4,4.6,1.4,4.1-1c-0.6-3.4-4-6.2-8-6.3c-4-0.1-7.5,2.5-8.4,5.9
	C620.1,200.6,624.2,201.6,624.9,199.2L624.9,199.2z"/>
<path class="st4" d="M625.7,181.1c-0.4,0.9-0.8,1.9-1.3,2.8c-0.4,0.9,0.4,2.1,1.5,2.3c1.2,0.2,2.2-0.3,2.6-1.3
	c0.4-0.9,0.8-1.9,1.3-2.8c0.4-0.9-0.4-2.1-1.5-2.3C627.1,179.5,626.2,180.1,625.7,181.1L625.7,181.1z"/>
<path class="st4" d="M634.7,182.4c-0.9,0.8-1.5,2-1.4,3.1c0,1,0.9,1.9,2.1,1.9c1.1,0,2.2-0.8,2.1-1.9c0-0.1,0-0.1,0-0.2
	c0-0.2,0-0.1,0,0.2c0-0.1,0-0.1,0.1-0.2c0.1-0.1,0-0.1,0,0c-0.2,0.3,0.1-0.1,0.1-0.2c0.1-0.2,0.1-0.1-0.1,0.1
	c0.1-0.1,0.1-0.1,0.2-0.2c0.8-0.7,0.8-2,0-2.7C636.9,181.7,635.6,181.6,634.7,182.4L634.7,182.4z"/>
<path class="st4" d="M643.9,184.2c-0.7,1.4-1.6,2.7-2.7,3.8c-0.7,0.8-0.9,1.9,0,2.7c0.8,0.7,2.3,0.8,3,0c1.3-1.4,2.5-2.9,3.3-4.6
	c0.5-0.9,0.3-2-0.8-2.6C645.9,183.1,644.4,183.3,643.9,184.2L643.9,184.2z"/>
<path class="st4" d="M550.4,190.3c1.2,0.7,2.4,1.5,3.6,2.2c1,0.6,2.4,0.2,2.9-0.7c0.6-0.9,0.2-2-0.8-2.6c-1.2-0.7-2.4-1.5-3.6-2.2
	c-1-0.6-2.4-0.2-2.9,0.7C549,188.7,549.4,189.8,550.4,190.3L550.4,190.3z"/>
<path class="st4" d="M558.5,185c1.2,0.9,2.1,1.8,2.9,2.9c0.6,0.9,1.9,1.2,2.9,0.7c1-0.5,1.4-1.7,0.8-2.6c-1-1.4-2.2-2.6-3.6-3.6
	c-0.9-0.6-2.1-0.8-3,0C557.8,183,557.6,184.4,558.5,185L558.5,185z"/>
<path class="st4" d="M570.2,181.6c0.2,1.5,0.3,3.1,0.5,4.6c0.1,1,0.9,1.9,2.1,1.9c1.1,0,2.2-0.9,2.1-1.9c-0.2-1.5-0.3-3.1-0.5-4.6
	c-0.1-1-0.9-1.9-2.1-1.9C571.2,179.7,570.1,180.5,570.2,181.6L570.2,181.6z"/>
<path class="st4" d="M598.7,208.6c-0.8,1.7-1.7,3.4-2.5,5.1c-0.6,1.2-1.5,2.4-1.3,3.7c0.4,2.9,5.7,2.8,8.1,3.1
	c1.6,0.2,3.4,0.5,4.7-0.6c0.9-0.7,1.1-2,0.8-3c-0.4-1.3-1.5-2.5-2.4-3.7c-1.1-1.6-2.3-3.2-3.4-4.8c-1.4-2.1-5.1-0.2-3.7,1.9
	c1,1.4,2,2.8,3,4.2c0.4,0.6,0.9,1.2,1.3,1.8c0.3,0.4,0.6,0.8,0.9,1.2c0.2,0.5,0.3,0.5,0.2,0.1c0.4-0.3,0.9-0.6,1.3-0.9
	c-1.1,0.4-3-0.1-4.1-0.2c-0.5-0.1-1.1-0.2-1.6-0.3c-0.4-0.1-0.8-0.2-1.2-0.2c-0.5-0.1-0.5-0.1-0.2,0c0.2,0.4,0.4,0.9,0.6,1.3
	c-0.1-0.9,1.1-2.6,1.6-3.4c0.6-1.2,1.2-2.4,1.8-3.5C603.5,208.3,599.8,206.4,598.7,208.6L598.7,208.6z"/>
<path class="st4" d="M598.5,219.5c0.3,4.7,0.7,10.1-2.8,14.1c-2.8,3.2-8.9,4.4-11.2,0c-1.2-2.2-4.9-0.3-3.7,1.9
	c2.8,5.2,10.6,6,15.5,2.8c6.8-4.3,6.9-12.2,6.5-18.8C602.6,217.1,598.3,217.1,598.5,219.5L598.5,219.5z"/>
<path class="st4" d="M597.4,233c1.7,3.1,5,6,9.2,6.1c3.6,0.1,7.1-2,7.8-5.2c0.5-2.4-3.6-3.4-4.1-1c-0.4,1.8-2.4,2.8-4.5,2.3
	c-2.3-0.5-3.8-2.4-4.7-4.1C599.9,229,596.2,230.9,597.4,233L597.4,233z"/>
<path class="st4" d="M643.6,214.5c16,0.4,32.1,0.8,48.1,1.2c2.8,0.1,2.8-3.7,0-3.8c-16-0.4-32.1-0.8-48.1-1.2
	C640.8,210.6,640.8,214.4,643.6,214.5L643.6,214.5z"/>
<path class="st4" d="M645.6,226.3c8.2,0.8,16.2,2.1,24.2,3.8c2.7,0.6,3.8-3.1,1.1-3.6c-8.4-1.7-16.8-3-25.4-3.9
	C642.9,222.3,642.9,226,645.6,226.3L645.6,226.3z"/>
<path class="st4" d="M641,237.7c12.5,2.9,25,5.8,37.5,8.6c2.7,0.6,3.8-3,1.1-3.6c-12.5-2.9-25-5.8-37.5-8.6
	C639.5,233.4,638.4,237,641,237.7L641,237.7z"/>
<path class="st4" d="M551.9,211.4c-14.5,0.3-29.1,0.6-43.6,0.8c-2.8,0.1-2.8,3.8,0,3.8c14.5-0.3,29.1-0.6,43.6-0.8
	C554.6,215.1,554.6,211.4,551.9,211.4L551.9,211.4z"/>
<path class="st4" d="M552.6,220.3c-8.2,1.7-16.2,3.8-24.1,6.3c-2.6,0.8-1.5,4.4,1.1,3.6c7.9-2.4,16-4.5,24.1-6.3
	C556.4,223.3,555.2,219.7,552.6,220.3L552.6,220.3z"/>
<path class="st4" d="M560.2,228.3c-14.6,5-28.9,10.6-42.9,16.7c-2.5,1.1-0.3,4.3,2.2,3.2c13.7-6,27.6-11.5,41.8-16.4
	C563.9,231,562.8,227.4,560.2,228.3L560.2,228.3z"/>
<path class="st4" d="M536.8,168.5c-0.7,1.9-1.4,3.8-2.1,5.7c-0.8,2.3,3.3,3.3,4.1,1c0.7-1.9,1.4-3.8,2.1-5.7
	C541.7,167.2,537.6,166.2,536.8,168.5L536.8,168.5z"/>
<path class="st4" d="M539.1,171.2c1.8,0.9,3.4,2.1,4.7,3.5c0.8,0.8,2.3,0.7,3,0c0.9-0.8,0.8-1.9,0-2.7c-1.6-1.6-3.5-3-5.6-4
	C538.8,166.8,536.7,170,539.1,171.2L539.1,171.2z"/>
<path class="st4" d="M657.2,164.9c-2.4,1.5-4.3,3.3-6,5.4c-0.7,0.8-0.2,2.1,0.8,2.6c1.1,0.6,2.3,0.2,2.9-0.7c1.2-1.5,2.8-2.9,4.5-4
	c0.9-0.6,1.4-1.6,0.8-2.6C659.6,164.7,658.1,164.3,657.2,164.9L657.2,164.9z"/>
<path class="st4" d="M656.9,168.1c0.7,2.6,1.5,5.2,2.2,7.8c0.7,2.3,4.8,1.4,4.1-1c-0.7-2.6-1.5-5.2-2.2-7.8
	C660.4,164.8,656.3,165.8,656.9,168.1L656.9,168.1z"/>
<path class="st4" d="M570.3,275.4c-1.5,12.9-4.4,25.7-8.7,38.1c-1,2.9-2.1,5.8-3.3,8.7c-1.1,2.8-2.6,5.6-2.5,8.6
	c0,2.9,1.6,4.7,3.3,7c1,1.3,2.4,3.8-0.4,4.3c-1.4,0.2-3.3-0.6-4.5-1.1c-1.1-0.5-2.2-0.2-2.9,0.7c-0.9,1.1-2.3,2.4-2.9,3.7
	c-0.3,0.6,0.7,1.4-0.2,0.1c-0.5-0.7-1-1.5-1.5-2.3c-0.6-0.9-1.9-1.1-2.9-0.7c-1.3,0.6-2.2,0.8-3.6,0.8c-2.8,0-2.8,3.8,0,3.8
	c2.1,0,3.9-0.4,5.8-1.3c-1-0.2-2-0.4-2.9-0.7c1.2,1.9,2.5,5.4,5.7,4.8c2.9-0.6,4.8-4.4,6.3-6.3c-1,0.2-2,0.4-2.9,0.7
	c4.5,1.9,12.8,2.7,12.7-3.8c-0.1-3.4-3.5-5.3-4.4-8.4c-1.1-3.7,1.9-8.3,3.3-11.8c5.6-14.6,9.2-29.6,11-44.9
	C574.8,273,570.6,273,570.3,275.4L570.3,275.4z"/>
<path class="st4" d="M625.4,275.5c-1.3,15.8-5.6,31.7-2.4,47.6c0.8,3.7,2.2,7.2,3.5,10.8c0.7,1.7,1.5,3.7,0.9,5.6
	c-0.5,1.8-2.4,2.8-3.3,4.4c-1,1.8-0.8,4.4,1.2,5.7c2.8,1.8,6.9-0.4,9.3-1.9c-1-0.9-2-1.7-2.9-2.6c-1.3,2.7-0.5,5.9,2.8,7.1
	c3.4,1.2,7.1-0.8,7.8-3.8c-1.2,0.3-2.4,0.6-3.6,0.8c2.6,2.6,6.4,3.5,10.2,2.6c2.7-0.6,1.5-4.2-1.1-3.6c-2.4,0.6-4.4-0.1-6.1-1.7
	c-1-1-3.2-0.5-3.6,0.8c-0.5,2-3.7,1.5-2.8-0.4c0.8-1.5-1-3.7-2.9-2.6c-0.6,0.4-4.3,2.7-4.7,1.4c-0.2-0.8,2.3-2.8,2.8-3.5
	c1.4-2.1,1.4-4.7,0.8-7c-0.7-3-2.3-5.7-3.2-8.6c-1.1-3.4-1.7-6.9-2-10.4c-1.2-13.7,2.2-27.3,3.3-40.9
	C629.9,273.1,625.6,273.1,625.4,275.5L625.4,275.5z"/>
<g>
	<path class="st5" d="M589.2,375c-3.2,25.5-2.2,51.5,2.8,76.8c2.1,10.2,5.1,20.9,13.7,28.2c5.5,4.7,13,7.5,20.7,7.8
		c7.7,0.3,15.5-1.9,21.4-6.1c2.9-2.1,5.5-4.7,6.5-7.8c0.2-0.7,0.4-1.5,0.1-2.2c-0.5-1.1-2-1.7-3.3-1.9c-8.7-1.4-17.3,5.8-25.8,3.7
		c-7-1.7-10-8.7-11.6-14.8c-7.1-26.6-6.8-54.2-6.4-81.5"/>
	<path class="st4" d="M587.1,375c-2.7,21.9-2.4,43.9,0.9,65.7c2.6,17.3,6,38.9,26.7,46.6c9.3,3.4,19.9,3,28.9-1
		c4.3-1.9,8.4-4.7,11-8.3c2-2.7,3.8-6.9,0.1-9.1c-3.6-2.2-8.8-1.2-12.7-0.2c-4.5,1.2-9.2,3.5-14,3.2c-10.6-0.7-12.4-14.3-13.9-21.3
		c-5.2-24.2-4.9-49-4.6-73.5c0-2.4-4.2-2.4-4.3,0c-0.3,20.1-0.5,40.4,2.2,60.4c1.2,8.8,2.4,18.3,5.9,26.6
		c2.7,6.5,8.1,12.2,16.7,11.5c4.2-0.3,8.1-1.9,12.1-3c2-0.6,4.2-1.1,6.3-1.2c1.5,0,2.6-0.1,3.3,1.1c0.8,1.3-0.4,2.8-1.3,4
		c-5.7,7.4-17.9,10.5-27.5,9.1c-22.7-3.4-27.4-24.7-30.3-41.5c-3.9-22.9-4.3-46.1-1.4-69.1C591.7,372.6,587.4,372.6,587.1,375
		L587.1,375z"/>
</g>
<path class="st4" d="M648.5,297.2c9.6-0.6,19.4-0.6,29-1.7c3.5-0.4,5-2.3,4.9-5.3c-0.1-3.9-0.8-7.8-1.4-11.7
	c-2.6-16.1-8.4-31.8-16.8-46.3c-1.2-2.2-4.9-0.3-3.7,1.9c7.3,12.6,12.5,26.2,15.4,40.1c0.7,3.5,1.3,7.1,1.7,10.6
	c0.2,1.7,0.6,3.6,0.5,5.4c-0.1,2-1.7,1.6-3.7,1.7c-8.6,0.5-17.2,1-25.8,1.5C645.8,293.6,645.7,297.3,648.5,297.2L648.5,297.2z"/>
<path class="st4" d="M538.4,231.5c-14.8,15.5-24.9,34.1-29.2,53.9c-0.2,1.1,0.6,2.5,2.1,2.4c12.7-1,25.5-1,38.2,0.1
	c2.7,0.2,2.7-3.5,0-3.8c-12.7-1.1-25.4-1.2-38.2-0.1c0.7,0.8,1.4,1.6,2.1,2.4c4.1-19.2,13.8-37.3,28.1-52.3
	C543.2,232.3,540.2,229.7,538.4,231.5L538.4,231.5z"/>
<g>
	<path class="st5" d="M518.2,286.9c-2.1,11.5-4,23-5.7,34.6c-0.3,1.9-0.5,3.8,0.2,5.5c1.5,3.5,6.5,4.7,10.7,4.6
		c8.7-0.1,16.8-3.6,24.5-7.1c8.6-3.9,17.1-7.9,25.6-12c1.6-0.8,3.5-1.9,3.7-3.5c0.2-1.6-1.4-3-3-3.8c-6.9-3.3-15.4-0.3-23.2,0
		c-1.1,0-2.4-0.1-3-0.9c-0.4-0.6-0.2-1.3,0-1.9c1.4-5.2,2.8-10.4,4.2-15.7c-10.4-0.3-20.9,0-31.3,0.9"/>
	<path class="st4" d="M516.1,286.4c-2.1,11.8-4.2,23.7-5.8,35.6c-0.6,4.5,0.8,8.4,5.7,10.3c4.5,1.8,9.7,1.4,14.4,0.5
		c5.9-1.1,11.3-3.4,16.7-5.7c6-2.7,11.9-5.4,17.9-8.2c2.9-1.4,5.8-2.8,8.7-4.2c2-1,4.3-2,5.3-4c2-3.8-2.3-6.8-6-8
		c-6.1-1.9-12.7-0.3-18.9,0.4c-1.1,0.1-3.5,0.7-4-0.2c-0.1-0.2,0.5-1.7,0.6-2.1c0.3-1,0.6-2.1,0.8-3.1c0.9-3.5,1.9-7,2.8-10.4
		c0.3-1.2-0.6-2.3-2.1-2.4c-10.4-0.2-20.9,0-31.3,0.9c-2.7,0.2-2.7,4,0,3.8c10.4-0.8,20.8-1.1,31.3-0.9c-0.7-0.8-1.4-1.6-2.1-2.4
		c-1.4,5.2-3,10.4-4.2,15.7c-0.7,3.1,1,5.2,4.7,5.2c5.2,0.1,10.2-1.5,15.4-1.5c2.5,0,5.3,0.2,7.5,1.5c3.6,2.1-1,3.9-3,4.9
		c-10,4.8-20,9.9-30.4,14c-6.3,2.5-26.7,8.7-25.5-3c1.2-11.9,3.7-23.7,5.8-35.5C520.7,285.1,516.5,284,516.1,286.4L516.1,286.4z"/>
</g>
<g>
	<path class="st5" d="M650.5,295.2c8.7-1.2,17.6-1.6,26.4-0.9c0.7,0,1.5,0.1,2,0.6c0.4,0.4,0.5,1.1,0.5,1.7c0.4,11,0,22-1.4,33
		c-0.2,1.9-0.5,3.8-1.7,5.4c-1.7,2.3-5,3.4-8.1,3.4c-3.1,0-6.1-0.9-9.1-1.9c-12-4-23.5-9.2-34.1-15.6c-4.1-2.4-8.2-5.2-10.3-9.1
		c-0.6-1.1-1-2.3-0.4-3.4c1-1.8,3.9-1.6,6.1-1.1c9,1.9,18,3.8,27,5.7c0-5,0-10.1,0.1-15.1c0-0.9,0.1-2,0.9-2.6
		c0.7-0.5,1.6-0.5,2.5-0.5c8.2,0,16.4,0,24.6,0"/>
	<path class="st4" d="M651,297.1c5.7-0.8,11.4-1.2,17.2-1.2c1.3,0,2.7,0,4,0.1c1.1,0,3-0.2,4,0.2c1.3,0.5,1,1.2,1,2.5
		c0,1.4,0.1,2.8,0.1,4.1c0,5-0.1,10-0.4,15c-0.3,4.7-0.2,10-1.7,14.5c-1.7,5.2-8.5,4.6-13.1,3.2c-5.2-1.5-10.2-3.5-15.1-5.5
		c-4.8-2-9.5-4.3-14-6.7c-4.4-2.3-9-4.8-12.7-7.9c-1-0.9-2-1.8-2.8-2.9c-0.9-1.2-1.4-3.2,0.6-3.5c1.2-0.2,3,0.5,4.1,0.7
		c1.6,0.3,3.1,0.7,4.7,1c6.7,1.4,13.3,2.8,20,4.2c1.3,0.3,2.7-0.6,2.7-1.8c0-3.2,0-6.4,0-9.6c0-1.5,0-3,0-4.5c0-0.9-0.2-1.6,0.6-2.1
		c0.7-0.4,2.2-0.2,2.9-0.2c7.4,0,14.8,0,22.3,0c2.8,0,2.8-3.8,0-3.8c-4.7,0-9.4,0-14.1,0c-2.3,0-4.7,0-7,0c-1.9,0-4.3-0.3-6.1,0.3
		c-3.4,1.2-2.9,4.6-2.9,7.2c0,4.2,0,8.4-0.1,12.6c0.9-0.6,1.8-1.2,2.7-1.8c-7.8-1.7-15.7-3.3-23.5-5c-3.9-0.8-11.5-2.8-12.6,2.5
		c-1,5,5.6,9.7,9.6,12.2c5.5,3.6,11.5,6.7,17.5,9.5c6.2,2.9,12.5,5.4,19,7.6c5.4,1.8,11.6,3.3,16.9,0.5c5.3-2.9,5.2-8.9,5.7-13.7
		c0.7-6.7,1-13.4,1.1-20.1c0-3,0.7-7-0.4-9.9c-1-2.5-4.1-2.5-6.7-2.6c-8.3-0.4-16.5,0-24.7,1.2C647.2,293.8,648.3,297.4,651,297.1
		L651,297.1z"/>
</g>
<g>
	<path class="st4" d="M519.5,332.7c0.2,7.6-1.5,15.1-2.2,22.6c-1.3,13.3-1.8,26.6-2.2,40c-0.5,17.1-0.5,34.2-0.5,51.4
		c0,4.1-0.8,9.2,0.8,13.2"/>
	<g>
		<path class="st4" d="M517,332.7c0.1,10.7-2.3,21.5-3,32.2c-0.8,10.8-1.1,21.6-1.4,32.5c-0.3,10.9-0.4,21.7-0.4,32.6
			c0,5.6,0.1,11.2,0,16.8c-0.1,4.7-0.6,9.3,0.8,13.8c1,3.1,5.8,1.8,4.8-1.3c-1.5-4.7-0.7-9.7-0.7-14.5c0-5.6,0-11.2,0-16.8
			c0-10.9,0.1-21.7,0.5-32.6c0.3-10.2,0.7-20.3,1.4-30.5c0.7-10.7,3.1-21.4,3-32.2C522,329.5,517,329.5,517,332.7L517,332.7z"/>
	</g>
</g>
<g>
	<path class="st4" d="M670.7,338.6c0,20.2,1.6,40.4,1.1,60.6c-0.3,14.1-2.4,28.2-3.4,42.3c-0.2,3.4,0.2,7.6-1.1,10.8"/>
	<g>
		<path class="st4" d="M668.2,338.6c0,19.2,1.4,38.4,1.1,57.7c-0.1,9.3-0.9,18.6-1.9,27.9c-0.4,4.5-0.9,9-1.3,13.4
			c-0.4,4.6,0.1,9.6-1.3,14c-1,3.1,3.9,4.4,4.8,1.3c1.2-3.8,1-7.6,1.2-11.5c0.2-4.5,0.7-9,1.2-13.4c1-9.9,2-19.8,2.2-29.8
			c0.4-19.9-1.1-39.7-1.1-59.6C673.2,335.4,668.2,335.4,668.2,338.6L668.2,338.6z"/>
	</g>
</g>
</svg>
