<?xml version="1.0" encoding="utf-8"?>
<!-- Generator: Adobe Illustrator 21.1.0, SVG Export Plug-In . SVG Version: 6.00 Build 0)  -->
<svg version="1.1" id="Layer_1" xmlns="http://www.w3.org/2000/svg" xmlns:xlink="http://www.w3.org/1999/xlink" x="0px" y="0px"
	 viewBox="0 0 401 500" style="enable-background:new 0 0 401 500;" xml:space="preserve">
<style type="text/css">
	.st0{fill:#E5AB1A;}
	.st1{fill:#311C4B;}
</style>
<title>CatButt</title>
<path class="st0" d="M359.5,25.3c7.4,7.6,11.4,17.7,11,28.3v374.6c0.3,10.8-4.2,21.1-12.3,28.3c-8.2,7.6-18.4,11.4-30.5,11.4
	c-12.1,0-22.1-3.8-29.8-11.4c-7.7-7.4-12-17.7-11.6-28.3V120.9l-40.2,24.6c-6.2,3.8-13.4,5.9-20.7,5.9c-10.5,0.1-20.6-4.4-27.6-12.3
	c-7.6-8.2-11.4-17.3-11.4-27.2c0-6.8,1.9-13.6,5.5-19.5c3.5-5.9,8.6-10.8,14.5-14.2l97.9-58.4c7.3-3.9,16.7-5.9,27.8-5.9
	C342.5,13.7,352.4,17.8,359.5,25.3z"/>
<path class="st1" d="M159.2,92.3c16.8,8.1,36.9-2.9,42.4-20.2c6.7-21.2-9.6-42.9-28.3-51.1c-20.7-9-44.9-5.7-62.3,8.6
	C93.4,44.5,87.1,67.1,90.9,89.2c2.3,13.4,7.4,26.7,7.2,40.5c-0.2,13.5-7.1,24.1-16.4,33.4c-8.2,8.1-17.4,15.1-25.2,23.7
	c-7.2,8-13.2,17-17.7,26.8c-20.7,45.1-12.3,96.2,2.6,141.7c4.9,14.8,10.4,29.4,15.7,44c2.8,7.7,5.7,15.4,8.2,23.2
	c2.4,7,6,15,6.5,22.6c0.5,8.9-7.2,7.7-12.4,11.8c-3.2,2.3-4.7,6.2-3.9,10c2.4,13.2,17.5,11.4,26.8,8.2l-4.3-2.4
	c1.5,7.5,9.6,12.9,17,9.7c7.1-3.1,9-11.8,5.5-18.3l-6.1,3.6c4.7,7.4,13.7,16.1,22.9,9.7c9.2-6.5,1.4-15.8-3.7-21.5
	c-12.1-13.2,0.5-27.2,5-40.9s3.1-32.3,17-40.6l-5.2-2.1l12.3,39.9l5.7,18.6c1.7,5.5,6.8,15.6,5,21.2c-2,6.5-9.4,12-2.5,18.6
	c4.2,4.1,11.8,4.3,15.6-0.5l-5.6-0.7c5.5,9.9,19.9,11,23.5-1l-6.9-0.9c0.1,13.1,17.7,12.7,22.2,2.2c3.1-7.4,0.2-14.9-2.4-21.9
	c-4.4-12.3-1.7-22.9,2.4-34.8c14.1-39.7,24.7-81.8,18.1-124.2c-3.2-20.7-11.4-40.1-20-59c-8.6-18.9-17.4-37.1-30.2-53.6
	c-12.3-15.9-26.5-30.5-35.3-48.8c-4.6-9.5-7.7-19.6-9.4-30c-1.7-10.4-3.8-25.2,3.5-34c6.8-8,20.7-12.3,30.9-11.5
	c5.9,0.5,13.2,3.6,14.9,10.1c2.2,8.6-7.5,5.9-12.3,6.3c-16.7,1.4-16.2,25,0.7,24.8c4.5-0.1,4.6-7.1,0-7s-9.2-4.4-4.9-8.9
	c2.2-2.3,5.3-1.7,7.9-1.7c3.1,0,6.1,0.4,9.1-0.8c5.8-2.3,7.8-8.6,6.3-14.5c-4.1-15.3-22.7-16.8-35.5-13.7
	c-14.5,3.6-26.8,12.3-28.6,27.9c-2,18.2,2.8,37.9,10.3,54.4c7.5,16.5,19.6,30.3,30.9,44.2c13.5,16.5,23.4,34.1,32.3,53.3
	c8.5,18.4,16.9,36.8,21.2,56.8c4.5,21.4,4,43.6,0.5,65c-3.6,22.5-10.6,44-18.1,65.5c-3.2,9.4-5.9,19.4-3.8,29.4
	c1.2,5.4,4.1,10.4,5.2,15.8c0.5,2.4,0.5,5-0.1,7.4c-1.1,3.2-8.8,7.8-8.9,1.4c-0.1-2-1.7-3.5-3.6-3.4c-1.5,0-2.9,1.1-3.3,2.5
	c-2.4,8-8.9,2.4-10.6-0.6c-1-1.8-4.1-2.5-5.6-0.7c-1.1,1.4-3.6,2.3-5.2,0.7c-1.6-1.6,0.1-4.6,0.7-5.9c1.5-3.2,3.5-5,3.7-8.9
	c0.5-8-4-17.1-6.3-24.7L137,370.6c-0.5-1.9-2.5-3-4.4-2.4c-0.3,0.1-0.5,0.2-0.7,0.4c-8.2,4.9-12.6,13.1-15.1,22
	c-1.7,6.4-2.4,13-4.1,19.4c-1.7,6.4-4.9,12-7.6,17.9c-3.7,8.2-6.4,17.9-2,26.5c2,3.8,5.2,6.6,8,9.8c1.1,1.1,2,2.3,2.7,3.7
	c-0.2,4.1-1.9,5.8-5.3,4.8c-3.9-0.9-6.3-5.1-8.2-8.1c-1-1.7-3.2-2.3-4.9-1.3c-1.7,1-2.3,3.2-1.3,4.9c4.1,7.4-7.7,12.2-9.6,3.1
	c-0.5-1.9-2.4-3-4.3-2.4c-4.9,1.6-18.4,5.4-16.6-3.6c0.8-3.9,3.2-3.4,6.3-4.8c1.6-0.6,3.2-1.5,4.6-2.6c5.7-5,4.7-13.2,2.9-19.7
	c-6.2-22.8-15.4-44.8-23.3-67c-14.7-41.3-26.8-85.4-17.1-129.3c4.4-19.6,13.2-38.2,27.4-52.6c12.8-13.1,29.6-23.6,37-40.9
	c8.5-19.6,0.1-39.6-3.5-59.4c-4.1-22.3,3.5-45.3,23.3-57.7c21.4-13.4,52.9-9.6,67.8,11.7c6.8,9.6,9.7,22.9,2.9,33.3
	c-6.1,9.4-18.6,15.4-29.2,10.2C158.7,84.2,155.2,90.3,159.2,92.3L159.2,92.3z"/>
<path class="st1" d="M133.7,141.2c17.9,0.3,35.9,1.2,53.8,0.8c6-0.1,9.9-1.6,13.1-6.8c4.7-7.5,8.6-15.6,12.8-23.2h-6.1
	c5.3,7.7,4.2,20,5,29.1c0.8,9.7,1.6,19.4,2.3,29.1c1.2,16.6-0.1,40.8-21,44.1c-4.5,0.7-2.6,7.5,1.9,6.8c20.5-3.2,26.9-25.1,26.6-43
	c-0.3-12.8-1.8-25.7-2.8-38.4c-0.8-10,0.2-22.6-5.8-31.3c-1-1.7-3.2-2.3-5-1.2c-0.5,0.3-0.9,0.7-1.2,1.2l-9.9,17.8
	c-1.9,3.4-3.4,7.7-7.7,8.7c-3.4,0.8-8.3,0-11.7-0.1l-44.4-0.6C129.1,134.2,129.1,141.2,133.7,141.2L133.7,141.2z"/>
<path class="st1" d="M218,186.3c12.7,0.7,25.4,0.4,38-1.2c4.5-0.5,4.5-7.6,0-7c-12.6,1.5-25.3,1.9-38,1.2
	C213.5,179,213.5,186.1,218,186.3z"/>
<path class="st1" d="M219.2,169.5c9.3-1.7,18.4-4,27.4-6.9c4.2-1.4,2.4-8.2-1.9-6.8c-8.9,3-18.1,5.2-27.4,6.9
	C212.8,163.6,214.7,170.3,219.2,169.5z"/>
<path class="st1" d="M213.7,208.2l29.8,3.9c4.5,0.6,4.4-6.5,0-7l-29.8-3.9C209.2,200.6,209.2,207.7,213.7,208.2z"/>
<path class="st1" d="M104.1,217.6l21.2,20.3c3.3,3.2,8.3-1.9,5-5l-21.2-20.3C105.8,209.4,100.7,214.5,104.1,217.6L104.1,217.6z"/>
<path class="st1" d="M128.7,217.9c-10.3,4.1-20.4,8.8-30.1,14.1c-4,2.2-0.5,8.3,3.6,6.1c9.2-5,18.6-9.6,28.4-13.5
	C134.7,223,132.9,216.2,128.7,217.9L128.7,217.9z"/>
<path class="st1" d="M213.4,308.4c-1.8-4.9-0.5-10.3-0.8-15.6c-0.3-5.5-2.2-10.7-4-15.9l-5.7-15.7c-1.7-4.9-1.7-10.2-7.2-10.2
	c-9.5,0-19.9,5.3-28.5,8.7c-2.3,0.7-4.4,2-6.1,3.7c-1.5,1.8-2.1,4.8-0.5,6.6c2.5,2.8,8.9,1.7,9.6,5.5c0.7,5-10.4,4.9-9.7,9.9
	c0.6,5,11.5,2,12,7c0.2,2-1.9,3.7-2,5.7c-0.1,2.8,3.4,4.2,6.2,4.8c12,2.2,24,3.9,36.1,5.1"/>
<path class="st1" d="M216.8,307.4c-1.6-5.9-0.2-11.9-1-17.8c-0.9-6.5-3.4-12.7-5.7-18.8c-2-5.5-3.4-11.4-5.7-16.8
	c-0.9-3-3.2-5.2-6.1-6.2c-9.8-3-23.3,4.9-32,8.5c-5.9,2.5-14.6,9.2-8.2,16.2c1.2,1.1,2.5,2,4.1,2.4c1,0.4,2,0.6,3.1,0.9
	c1.5-0.1,1.5,0.1,0.1,0.7c-1.6,2.3-5.8,2.3-7.5,5c-4.1,6.9,3.7,9.2,8.4,10.8c3.2,1.1,1.8-0.3,1.5,2.4c-0.2,1.4-0.9,2.6-0.7,4.2
	c0.5,3.8,3.6,5.7,6.9,6.8c6.1,2.1,13.3,2.4,19.8,3.3c6.4,0.9,12.7,1.7,19.1,2.3c4.5,0.5,4.5-6.6,0-7c-10.9-1.2-21.8-2.5-32.6-4.5
	c-2.1-0.4-5-0.3-5.7-2.8c0,0.2,1.3-3.6,1.3-3.7c0.3-1.9-0.5-3.9-1.8-5.2c-1.6-1.6-3.9-2-5.9-2.5c-3.2-0.8-4.7,0.3-1.6-1.8
	c3.4-2.3,8.2-3.9,7-9.2c-0.5-2.2-2.2-4-4.2-4.8c-0.9-0.5-3.2-0.5-3.8-1.2l0.2-4.3c1.4-0.7,3-1.4,4.5-2c4.9-2.1,22.3-11.5,27.1-6.8
	c1.9,1.8,3.2,9.6,4.1,12c1.6,4.6,3.3,9.2,4.9,13.8c1.8,4.8,2.7,9.9,2.6,15c-0.1,4.6-0.3,8.6,1,13.1
	C211.1,313.8,218,311.9,216.8,307.4L216.8,307.4z"/>
<path class="st1" d="M31.1,260.9c-0.6-9.2,2.3-18.4,5.7-26.9c2-5.2,4.2-10.5,6.6-15.6c1.4-3.2,3.8-11.6,7.3-12.9
	c7.6-2.8,12.2,10.5,9.6,15.8c-1,2-2.5,3.6-3.2,5.7c-1.6,5,2.3,10.4,1.3,15.6c-1,5.2-6.2,8.2-10.9,10.5l-15.7,7.7"/>
<path class="st1" d="M34.6,260.9c-0.5-12.7,4.8-24.9,9.7-36.3c1.7-3.8,3.1-7.7,4.9-11.5c2.4-5.2,6-4.4,7.6,1
	c1.4,4.9-1.3,6.9-2.8,11.1c-1.4,3.6-0.6,6.8,0,10.5c1.4,7.8-1.7,10.8-8.5,14.3c-5.1,2.6-10.5,5.1-15.7,7.7c-4.1,2-0.5,8.1,3.6,6.1
	c10.7-5.3,30.5-10.7,28.2-26c-0.7-4.9-1.9-7.8,0.5-12.7c1.2-2,2-4.1,2.3-6.4c0.3-4.7-1.2-9.3-4.1-13c-2.6-3.1-6.6-4.9-10.6-3.4
	c-4.7,1.7-6.6,7.2-8.2,11.4c-6.1,15.3-14.4,30.5-13.9,47.4C27.7,265.5,34.8,265.5,34.6,260.9L34.6,260.9z"/>
<path class="st1" d="M146,398.1c2.3-1.6,11.4-7.8,11.7,0c0.1,1.8-1.2,2.8-0.8,4.9c0.5,2.5,2,4.7,4.1,6c3.2,2.3,7.9,2,5.5,8
	c-1,2.3-4.1,4.7-5.8,6.5c-0.7,0.7-4.5,5.7-5.5,5.9c1.9,0.4,2-0.4,0.2-2.2c-0.7-1.5-1.4-3.1-1.8-4.7c-1.6-5.5-2.7-11.1-3.2-16.8
	c0,0-0.6-6.7-0.3-6.5c0,0-1.6,5.6-1.7,6c-1.5,7.7,0.9,15,5.8,21c1.4,1.4,3.6,1.4,5,0c0.2-0.2,0.4-0.5,0.5-0.7
	c2.5-4.7,3.2-10.2,1.7-15.2l-4.3,4.4c1.7,0,3.2,1.2,3.6,2.8l4.9,1.3l-6.8-13.2c-2.1-4.1-8.1-0.5-6.1,3.6l3.9,7.9
	c2,4.1,8.1,0.5,6.1-3.6l-3.9-7.9l-6.1,3.6l6.8,13.2c1,1.7,3.2,2.3,4.9,1.3c8.1-5.4,1.7-13.5-5.3-15.7c-1.9-0.5-3.9,0.6-4.3,2.5
	c-0.2,0.6-0.2,1.3,0,1.8c1,3.2,0.6,6.8-1,9.8l5.6-0.7c-4.2-5.1-4.9-10.8-3.2-16.9c0.7-2.6,1.9-5.3,1.2-8.1
	c-1.3-5.3-7.5-6.7-11.4-3.2c-5.4,4.8-2.4,14.9-1.4,20.9s2.8,19.9,9.6,22.3c6,2.2,12.8-8.5,15.9-12.3c4-4.7,7.1-11.3,2-16.4
	c-1.2-1.2-2.8-1.6-4.1-2.6c-2.3-2-2.8-3.4-3-6.6c-0.1-3.3,0-5.6-2.4-8.1c-6-6.3-14.4-2.3-20.3,1.8
	C138.8,394.7,142.3,400.8,146,398.1L146,398.1z"/>
<path class="st1" d="M67.1,406.7C53,386.2,54.6,357.9,41,337l-1-0.1l31.9-1.4c1.3-0.2,2.5,0.1,3.6,0.7c2.8,2.3-1.1,6.7-0.4,10.2
	c1.1,5,10,4.1,11.8,8.9c1.5,4.2-4,7.8-4.8,12.3c-1.3,6.9,9.1,13.2,5.9,19.6c-0.5,1-1.3,1.9-2.1,2.6l-21,21.1"/>
<path class="st1" d="M70.2,404.9C61.7,392,59,377.1,55.1,362.4c-1.6-6.3-3.8-12.5-6.4-18.6c-1.9-4.1-3.6-10.1-8.7-10.5v7l21.3-0.9
	c1.7-0.1,9.5-1.4,10.6-0.5c1.4,1.2,0.1,2.4-0.2,4.9c-0.5,2.6,0.5,5.3,2.3,7.2c2.3,2.4,9.6,3,9.4,7c-0.2,1.8-3,4.3-3.7,6
	c-0.7,1.5-1.1,3.2-1.1,4.9c0,3.2,1.7,6.2,3.3,8.9c0.9,1.5,3.2,4.1,3.2,6c0,3.2-5.3,6.9-7.3,9l-15.2,15.3c-3.2,3.2,1.8,8.2,5,5
	l18.1-18.2c3.3-3.3,7-6.5,6.5-11.6c-0.6-5.1-6-8.8-6.5-13.9c-0.5-5.3,6-8.6,4.9-14.5c-0.9-4.2-4.5-5.8-8.1-7.4s-3.5-2.3-3-6
	c0.3-2.1,0.9-3.8,0-5.9c-2.2-5.1-8.6-4-13-3.8l-26.6,1.2c-4.6,0.2-4.5,6.7,0,7l1,0.1l-3.1-1.7c13.4,21.4,12.2,48.5,26.1,69.7
	C66.5,412.2,72.6,408.7,70.2,404.9L70.2,404.9z"/>
</svg>
