<svg id="Layer_1" data-name="Layer 1" xmlns="http://www.w3.org/2000/svg" viewBox="0 0 513 343"><defs><style>.cls-1{fill:#e5ab1a;}.cls-2{fill:#311c4b;}</style></defs><title>CatButt</title><path class="cls-1" d="M382.13,9A27.52,27.52,0,0,1,389.93,29V294a26,26,0,0,1-8.71,20q-8.71,8-21.55,8t-21.1-8a26.68,26.68,0,0,1-8.25-20V76.66L301.88,94.09a28.05,28.05,0,0,1-14.67,4.13,25.5,25.5,0,0,1-19.49-8.72q-8-8.7-8-19.26a26,26,0,0,1,3.9-13.76A28.33,28.33,0,0,1,273.91,46.4L343.15,5.13Q350.94,1,362.87,1A25.81,25.81,0,0,1,382.13,9Z"/><path class="cls-2" d="M240.46,56.45c11.85,5.72,26.13-2.07,30-14.26,4.72-15-6.85-30.32-20-36.14a42.71,42.71,0,0,0-44.1,6.15c-12.46,10.5-16.89,26.42-14.19,42.12,1.64,9.51,5.25,18.86,5.12,28.62-.13,9.57-5.06,17.11-11.63,23.66-5.78,5.76-12.33,10.72-17.83,16.77a74.5,74.5,0,0,0-12.53,19c-14.64,31.94-8.7,68.08,1.82,100.24,3.42,10.46,7.3,20.77,11.07,31.11,2,5.46,4,10.93,5.81,16.44,1.69,5,4.26,10.62,4.6,16,.4,6.32-5.08,5.5-8.82,8.33a7.06,7.06,0,0,0-2.76,7.06c1.7,9.29,12.34,8.06,18.91,5.83l-3.08-1.75c1.09,5.29,6.79,9.11,12.05,6.86,5.06-2.15,6.4-8.38,3.91-12.91l-4.32,2.52c3.3,5.25,9.68,11.44,16.18,6.87s1.05-11.18-2.62-15.22c-8.55-9.4.3-19.22,3.56-28.92s2.17-22.85,12.07-28.74l-3.67-1.49,8.64,28.26,4,13.19c1.19,3.91,4.79,11,3.57,15-1.41,4.56-6.65,8.47-1.81,13.12,3,2.92,8.32,3.08,11-.32l-3.93-.51c3.89,7,14.08,7.79,16.63-.73l-4.91-.66c.09,9.24,12.56,9,15.66,1.54C271,318.25,269,313,267.17,308c-3.14-8.68-1.23-16.18,1.74-24.61,9.93-28.13,17.47-57.87,12.78-87.86-2.29-14.67-8.05-28.34-14.18-41.76s-12.33-26.29-21.33-37.91c-8.7-11.24-18.73-21.6-25-34.52a76.79,76.79,0,0,1-6.64-21.22c-1.18-7.36-2.7-17.86,2.47-24.06,4.75-5.69,14.67-8.75,21.87-8.17,4.23.34,9.36,2.58,10.5,7.14,1.52,6.06-5.3,4.21-8.76,4.49-11.77.93-11.48,17.73.51,17.52,3.21-.06,3.22-5.06,0-5s-6.51-3.12-3.42-6.32c1.51-1.57,3.76-1.22,5.63-1.19,2.19,0,4.36.24,6.43-.6,4.1-1.67,5.55-6.09,4.43-10.23-2.94-10.86-16.09-11.95-25.14-9.67-10.23,2.58-19,8.65-20.23,19.77-1.4,12.88,1.95,26.83,7.28,38.47s13.8,21.42,21.87,31.3c9.53,11.68,16.59,24.08,22.9,37.74,6,13,12,26.08,15,40.15,3.17,15.1,2.81,30.82.38,46-2.56,15.94-7.54,31.12-12.78,46.33-2.29,6.65-4.2,13.71-2.65,20.75.84,3.83,2.95,7.3,3.67,11.15a10.69,10.69,0,0,1-.06,5.23c-.75,2.27-6.23,5.52-6.28,1a2.51,2.51,0,0,0-4.91-.66c-1.7,5.7-6.28,1.71-7.49-.46-.71-1.28-2.93-1.78-3.93-.51-.79,1-2.56,1.63-3.68.5s.06-3.22.53-4.18c1.11-2.26,2.47-3.59,2.64-6.29.36-5.69-2.83-12.12-4.46-17.46l-12.09-39.57a2.53,2.53,0,0,0-3.67-1.49c-5.78,3.44-8.95,9.21-10.69,15.54-1.24,4.5-1.71,9.18-2.92,13.68s-3.45,8.48-5.35,12.69c-2.6,5.77-4.5,12.71-1.41,18.72,1.39,2.69,3.7,4.68,5.66,6.93a11.39,11.39,0,0,1,1.91,2.6q-.17,4.39-3.73,3.4c-2.74-.62-4.46-3.61-5.81-5.75a2.5,2.5,0,0,0-4.32,2.52c2.87,5.24-5.51,8.58-6.82,2.19a2.52,2.52,0,0,0-3.08-1.75c-3.41,1.16-13,3.85-11.73-2.52.56-2.76,2.26-2.44,4.46-3.38a11.61,11.61,0,0,0,3.23-1.85c4-3.53,3.31-9.33,2.06-13.95-4.37-16.12-10.93-31.69-16.52-47.41-10.4-29.22-19-60.41-12.1-91.48,3.1-13.9,9.35-27,19.4-37.23,9.06-9.22,20.9-16.67,26.2-28.95,6-13.85.05-28.07-2.46-42-2.85-15.73,2.51-32.06,16.52-40.8,15.17-9.47,37.4-6.74,48,8.3,4.79,6.79,6.86,16.21,2.06,23.56-4.33,6.63-13.13,10.87-20.67,7.23-2.89-1.39-5.42,2.92-2.52,4.32Z"/><path class="cls-2" d="M222.42,91.06c12.66.18,25.41.82,38.06.55,4.3-.09,7-1.16,9.27-4.86,3.3-5.28,6.08-11,9.08-16.44h-4.32c3.77,5.49,3,14.18,3.48,20.6.55,6.87,1.15,13.73,1.64,20.61.84,11.74-.08,28.89-14.82,31.14-3.17.48-1.82,5.3,1.33,4.82,14.45-2.2,19.07-17.76,18.78-30.38-.2-9.06-1.29-18.15-2-27.18-.57-7.06.11-16-4.09-22.13a2.53,2.53,0,0,0-4.32,0l-7,12.64c-1.33,2.41-2.42,5.43-5.43,6.17-2.4.59-5.86,0-8.3-.08l-31.4-.46c-3.22,0-3.22,5,0,5Z"/><path class="cls-2" d="M282.08,122.94a153.69,153.69,0,0,0,26.92-.8c3.16-.37,3.19-5.38,0-5a153.69,153.69,0,0,1-26.92.8c-3.21-.19-3.2,4.82,0,5Z"/><path class="cls-2" d="M282.9,111.07a145.63,145.63,0,0,0,19.36-4.9c3-1,1.74-5.83-1.33-4.82a145.63,145.63,0,0,1-19.36,4.9c-3.16.57-1.82,5.39,1.33,4.82Z"/><path class="cls-2" d="M279,138.45l21.07,2.75c3.18.42,3.15-4.59,0-5L279,133.45c-3.18-.42-3.15,4.59,0,5Z"/><path class="cls-2" d="M201.43,145.06l15,14.32c2.33,2.22,5.87-1.31,3.54-3.54l-15-14.32c-2.33-2.22-5.87,1.31-3.54,3.54Z"/><path class="cls-2" d="M218.86,145.29a195.76,195.76,0,0,0-21.27,10c-2.82,1.55-.3,5.87,2.52,4.32a185,185,0,0,1,20.07-9.54c2.95-1.19,1.66-6-1.33-4.82Z"/><path class="cls-2" d="M278.77,209.31c-1.25-3.47-.41-7.29-.58-11-.18-3.88-1.5-7.61-2.8-11.26l-4-11.11c-1.23-3.46-1.19-7.21-5.07-7.22-6.68,0-14.08,3.73-20.14,6.18a10.77,10.77,0,0,0-4.33,2.62c-1.11,1.29-1.47,3.39-.35,4.67,1.81,2,6.33,1.19,6.73,3.89.52,3.51-7.35,3.44-6.88,7s8.14,1.41,8.46,5c.13,1.43-1.33,2.59-1.38,4-.07,2,2.42,3,4.42,3.36q12.7,2.32,25.55,3.62"/><path class="cls-2" d="M281.18,208.64c-1.15-4.14-.14-8.41-.72-12.63-.63-4.61-2.43-9-4-13.31-1.39-3.89-2.44-8-4-11.84a6.78,6.78,0,0,0-4.32-4.4c-6.94-2.11-16.48,3.41-22.62,6-4.14,1.78-10.3,6.52-5.77,11.46a7.5,7.5,0,0,0,2.86,1.73q1.06.35,2.14.61,1.61-.13.07.49c-1.12,1.59-4.09,1.59-5.29,3.59-2.93,4.91,2.63,6.5,5.93,7.62,2.2.75,1.28-.17,1.09,1.73-.11,1-.66,1.84-.51,3,.37,2.65,2.58,4,4.93,4.81,4.34,1.45,9.45,1.72,14,2.36s9,1.18,13.48,1.64c3.2.33,3.17-4.67,0-5-7.72-.8-15.45-1.76-23.07-3.2-1.48-.28-3.51-.21-4-2,0,.13.87-2.55.87-2.61A4.49,4.49,0,0,0,251,195c-1.13-1.12-2.72-1.4-4.19-1.77-2.22-.56-3.32.21-1.13-1.27,2.43-1.64,5.83-2.75,5-6.5a5,5,0,0,0-3-3.37c-.66-.33-2.28-.38-2.68-.85l.11-3.07q1.55-.77,3.16-1.4c3.45-1.48,15.76-8.15,19.2-4.87,1.34,1.28,2.24,6.79,2.84,8.45,1.16,3.25,2.37,6.5,3.47,9.77a30.48,30.48,0,0,1,1.88,10.62c-.07,3.23-.2,6.12.67,9.26s5.68,1.78,4.82-1.33Z"/><path class="cls-2" d="M149.83,175.75c-.44-6.53,1.64-13,4-19.07q2.15-5.58,4.65-11c1-2.23,2.67-8.19,5.16-9.11,5.38-2,8.62,7.46,6.8,11.13-.69,1.38-1.77,2.55-2.25,4-1.15,3.53,1.57,7.33.88,11s-4.4,5.77-7.72,7.4l-11.08,5.46"/><path class="cls-2" d="M152.33,175.75c-.3-9,3.35-17.58,6.91-25.71,1.18-2.69,2.19-5.51,3.43-8.16,1.73-3.7,4.24-3.14,5.38.68,1,3.42-.9,4.91-2,7.87-1,2.56-.47,4.78,0,7.37,1,5.54-1.19,7.67-6,10.11-3.66,1.87-7.39,3.64-11.08,5.46-2.89,1.42-.36,5.74,2.52,4.32,7.59-3.74,21.6-7.57,19.94-18.45-.52-3.43-1.32-5.56.35-9a11.47,11.47,0,0,0,1.6-4.54,13.22,13.22,0,0,0-2.94-9.17c-1.85-2.16-4.66-3.44-7.49-2.42-3.32,1.19-4.63,5.11-5.81,8.08-4.32,10.84-10.22,21.53-9.83,33.53.11,3.21,5.11,3.22,5,0Z"/><path class="cls-2" d="M231.08,272.76c1.58-1.12,8.06-5.53,8.29,0,.05,1.3-.81,2-.57,3.47a6.66,6.66,0,0,0,2.94,4.26c2.21,1.59,5.63,1.41,3.88,5.65-.68,1.65-2.88,3.31-4.07,4.57-.48.51-3.21,4-3.87,4.12q2,.38.14-1.53a24.74,24.74,0,0,1-1.27-3.34,61.21,61.21,0,0,1-2.29-11.89s-.47-4.71-.17-4.59c0,0-1.16,3.94-1.23,4.27-1.09,5.45.63,10.62,4.08,14.83a2.51,2.51,0,0,0,3.93-.51,14.39,14.39,0,0,0,1.2-10.8L239,284.4a2.57,2.57,0,0,1,2.54,2l3.42.9-4.75-9.36c-1.46-2.88-5.73-.35-4.32,2.52l2.75,5.59c1.42,2.89,5.73.36,4.32-2.52l-2.75-5.59-4.32,2.52,4.75,9.36a2.52,2.52,0,0,0,3.42.9c5.73-3.83,1.18-9.59-3.74-11.12a2.52,2.52,0,0,0-3.08,3.08,8.89,8.89,0,0,1-.7,6.95l3.93-.51c-3-3.61-3.43-7.62-2.26-12,.5-1.87,1.33-3.77.86-5.75-.89-3.75-5.27-4.7-8-2.28-3.85,3.37-1.71,10.52-1,14.81s2,14.08,6.81,15.77c4.29,1.5,9.07-6,11.3-8.66,2.83-3.31,5.05-7.95,1.42-11.6-.82-.82-2-1.12-2.84-1.84-1.68-1.42-2-2.43-2.08-4.64-.06-2.36,0-3.92-1.74-5.76-4.26-4.45-10.22-1.64-14.36,1.29-2.61,1.84-.11,6.18,2.52,4.32Z"/><path class="cls-2" d="M175.33,278.84c-10-14.53-8.86-34.52-18.5-49.3l-.7-.06,22.58-1a3.73,3.73,0,0,1,2.56.52c2,1.6-.75,4.72-.24,7.19.75,3.57,7.09,2.92,8.35,6.34,1.11,3-2.81,5.55-3.39,8.71-.91,4.93,6.44,9.33,4.19,13.81a7.59,7.59,0,0,1-1.49,1.86l-14.82,14.92"/><path class="cls-2" d="M177.49,277.58c-6-9.09-7.92-19.72-10.7-30.06a85.2,85.2,0,0,0-4.5-13.12c-1.33-2.94-2.56-7.11-6.17-7.42v5l15.05-.64c1.2-.05,6.7-1,7.53-.32,1,.85.06,1.75-.13,3.45a6,6,0,0,0,1.59,5.1c1.67,1.72,6.84,2.12,6.63,5-.1,1.29-2.08,3.07-2.6,4.3a8.45,8.45,0,0,0-.77,3.47c0,2.3,1.24,4.4,2.39,6.31.66,1.1,2.28,2.89,2.26,4.24,0,2.29-3.73,4.9-5.19,6.37L172.1,280.09c-2.27,2.29,1.26,5.82,3.54,3.54l12.8-12.89c2.37-2.39,5-4.58,4.58-8.24s-4.24-6.27-4.56-9.81c-.34-3.77,4.3-6.11,3.43-10.24-.63-3-3.18-4.1-5.71-5.22s-2.46-1.62-2.09-4.26c.2-1.46.65-2.68,0-4.13-1.51-3.62-6.1-2.8-9.19-2.66l-18.82.8c-3.25.14-3.18,4.73,0,5l.7.06-2.16-1.24c9.47,15.15,8.6,34.3,18.5,49.3,1.77,2.67,6.1.17,4.32-2.52Z"/></svg>