<?xml version="1.0" encoding="utf-8"?>
<!-- Generator: Adobe Illustrator 21.1.0, SVG Export Plug-In . SVG Version: 6.00 Build 0)  -->
<svg version="1.1" id="Layer_1" xmlns="http://www.w3.org/2000/svg" xmlns:xlink="http://www.w3.org/1999/xlink" x="0px" y="0px"
	 viewBox="0 0 805 538.2" style="enable-background:new 0 0 805 538.2;" xml:space="preserve">
<style type="text/css">
	.st0{fill:#E5AB1A;}
	.st1{fill:#311C4B;}
</style>
<title>CatButt</title>
<path class="st0" d="M516.2,19.8c8.2,8.4,12.6,19.7,12.2,31.4V467c0.3,12-4.7,23.4-13.7,31.4c-9.1,8.4-20.4,12.6-33.8,12.6
	s-24.5-4.2-33.1-12.6c-8.6-8.2-13.3-19.6-12.9-31.4V126l-44.6,27.3c-6.9,4.2-14.9,6.5-23,6.5c-11.7,0.1-22.9-4.9-30.6-13.7
	c-8.4-9.1-12.6-19.2-12.6-30.2c0-7.6,2.1-15.1,6.1-21.6c3.9-6.6,9.5-12,16.1-15.8L455,13.7c8.1-4.3,18.5-6.5,30.9-6.5
	C497.3,7,508.3,11.5,516.2,19.8z"/>
<path class="st1" d="M293.9,94.2c18.6,9,41-3.2,47.1-22.4c7.4-23.5-10.7-47.6-31.4-56.7c-23-10-49.8-6.3-69.2,9.6
	c-19.5,16.5-26.5,41.5-22.3,66.1c2.6,14.9,8.2,29.6,8,44.9c-0.2,15-7.9,26.8-18.2,37.1c-9.1,9-19.3,16.8-28,26.3
	c-8,8.9-14.7,18.9-19.7,29.8c-23,50.1-13.7,106.8,2.9,157.3c5.4,16.4,11.5,32.6,17.4,48.8c3.1,8.6,6.3,17.1,9.1,25.8
	c2.7,7.8,6.7,16.7,7.2,25.1c0.6,9.9-8,8.6-13.8,13.1c-3.5,2.5-5.2,6.9-4.3,11.1c2.7,14.6,19.4,12.6,29.7,9.1l-4.8-2.7
	c1.7,8.3,10.7,14.3,18.9,10.8c7.9-3.4,10-13.1,6.1-20.3l-6.8,4c5.2,8.2,15.2,17.9,25.4,10.8c10.2-7.2,1.6-17.5-4.1-23.9
	c-13.4-14.7,0.5-30.2,5.6-45.4c5.1-15.2,3.4-35.9,18.9-45.1l-5.8-2.3l13.6,44.3l6.3,20.7c1.9,6.1,7.5,17.3,5.6,23.5
	c-2.2,7.2-10.4,13.3-2.8,20.6c4.7,4.6,13.1,4.8,17.3-0.5l-6.2-0.8c6.1,11,22.1,12.2,26.1-1.1l-7.7-1c0.1,14.5,19.7,14.1,24.6,2.4
	c3.4-8.2,0.2-16.5-2.7-24.3c-4.9-13.6-1.9-25.4,2.7-38.6c15.6-44.1,27.4-90.8,20.1-137.9c-3.6-23-12.6-44.5-22.2-65.5
	s-19.3-41.2-33.5-59.5c-13.7-17.6-29.4-33.9-39.2-54.2c-5.1-10.5-8.6-21.7-10.4-33.3c-1.9-11.5-4.2-28,3.9-37.7
	c7.5-8.9,23-13.7,34.3-12.8c6.6,0.5,14.7,4,16.5,11.2c2.4,9.5-8.3,6.6-13.7,7c-18.5,1.5-18,27.8,0.8,27.5c5-0.1,5.1-7.9,0-7.8
	c-5.1,0.1-10.2-4.9-5.4-9.9c2.4-2.5,5.9-1.9,8.8-1.9c3.4,0,6.8,0.4,10.1-0.9c6.4-2.6,8.7-9.6,7-16.1c-4.6-17-25.2-18.7-39.4-15.2
	c-16.1,4-29.8,13.6-31.7,31c-2.2,20.2,3.1,42.1,11.4,60.4s21.7,33.6,34.3,49.1c15,18.3,26,37.8,35.9,59.2
	c9.4,20.4,18.8,40.9,23.5,63c5,23.7,4.4,48.4,0.6,72.2c-4,25-11.8,48.8-20.1,72.7c-3.6,10.4-6.6,21.5-4.2,32.6
	c1.3,6,4.6,11.5,5.8,17.5c0.6,2.7,0.6,5.5-0.1,8.2c-1.2,3.6-9.8,8.7-9.9,1.6c-0.1-2.2-1.9-3.9-4-3.8c-1.7,0-3.2,1.2-3.7,2.8
	c-2.7,8.9-9.9,2.7-11.8-0.7c-1.1-2-4.6-2.8-6.2-0.8c-1.2,1.6-4,2.6-5.8,0.8c-1.8-1.8,0.1-5.1,0.8-6.6c1.7-3.5,3.9-5.6,4.1-9.9
	c0.6-8.9-4.4-19-7-27.4l-19-62.1c-0.6-2.1-2.8-3.3-4.9-2.7c-0.3,0.1-0.6,0.2-0.8,0.4c-9.1,5.4-14,14.5-16.8,24.4
	c-1.9,7.1-2.7,14.4-4.6,21.5c-1.9,7.1-5.4,13.3-8.4,19.9c-4.1,9.1-7.1,19.9-2.2,29.4c2.2,4.2,5.8,7.3,8.9,10.9
	c1.2,1.2,2.2,2.6,3,4.1c-0.2,4.6-2.1,6.4-5.9,5.3c-4.3-1-7-5.7-9.1-9c-1.1-1.9-3.5-2.5-5.4-1.4c-1.9,1.1-2.5,3.5-1.4,5.4
	c4.5,8.2-8.6,13.5-10.7,3.4c-0.6-2.1-2.7-3.3-4.8-2.7c-5.4,1.8-20.4,6-18.4-4c0.9-4.3,3.5-3.8,7-5.3c1.8-0.7,3.5-1.7,5.1-2.9
	c6.3-5.5,5.2-14.6,3.2-21.9c-6.9-25.3-17.1-49.7-25.9-74.4c-16.3-45.8-29.8-94.8-19-143.5c4.9-21.8,14.7-42.4,30.4-58.4
	c14.2-14.5,32.8-26.2,41.1-45.4c9.4-21.7,0.1-44-3.9-65.9c-4.5-24.7,3.9-50.3,25.9-64c23.8-14.9,58.7-10.6,75.3,13
	c7.5,10.7,10.8,25.4,3.2,37c-6.8,10.4-20.6,17.1-32.4,11.3C293.3,85.2,289.4,92,293.9,94.2L293.9,94.2z"/>
<path class="st1" d="M265.6,148.5c19.9,0.3,39.9,1.3,59.7,0.9c6.7-0.1,11-1.8,14.5-7.6c5.2-8.3,9.5-17.3,14.2-25.8h-6.8
	c5.9,8.6,4.7,22.2,5.5,32.3c0.9,10.8,1.8,21.5,2.6,32.3c1.3,18.4-0.1,45.3-23.3,48.9c-5,0.8-2.9,8.3,2.1,7.6
	c22.7-3.5,29.9-27.9,29.5-47.7c-0.3-14.2-2-28.5-3.1-42.6c-0.9-11.1,0.2-25.1-6.4-34.7c-1.1-1.9-3.6-2.5-5.5-1.3
	c-0.5,0.3-1,0.8-1.3,1.3l-11,19.8c-2.1,3.8-3.8,8.5-8.5,9.7c-3.8,0.9-9.2,0-13-0.1l-49.3-0.7C260.5,140.7,260.5,148.5,265.6,148.5
	L265.6,148.5z"/>
<path class="st1" d="M359.2,198.6c14.1,0.8,28.2,0.4,42.2-1.3c5-0.6,5-8.4,0-7.8c-14,1.7-28.1,2.1-42.2,1.3
	C354.2,190.4,354.2,198.3,359.2,198.6z"/>
<path class="st1" d="M360.5,179.9c10.3-1.9,20.4-4.4,30.4-7.7c4.7-1.6,2.7-9.1-2.1-7.6c-9.9,3.3-20.1,5.8-30.4,7.7
	C353.4,173.3,355.5,180.8,360.5,179.9z"/>
<path class="st1" d="M354.4,222.9l33.1,4.3c5,0.7,4.9-7.2,0-7.8l-33.1-4.3C349.4,214.4,349.4,222.3,354.4,222.9z"/>
<path class="st1" d="M232.7,233.3l23.5,22.5c3.7,3.5,9.2-2.1,5.6-5.6l-23.5-22.5C234.6,224.2,229,229.8,232.7,233.3L232.7,233.3z"/>
<path class="st1" d="M260,233.6c-11.4,4.6-22.6,9.8-33.4,15.7c-4.4,2.4-0.5,9.2,4,6.8c10.2-5.6,20.7-10.6,31.5-15
	C266.7,239.3,264.7,231.7,260,233.6L260,233.6z"/>
<path class="st1" d="M354,334.1c-2-5.4-0.6-11.4-0.9-17.3c-0.3-6.1-2.4-11.9-4.4-17.7l-6.3-17.4c-1.9-5.4-1.9-11.3-8-11.3
	c-10.5,0-22.1,5.9-31.6,9.7c-2.6,0.8-4.9,2.2-6.8,4.1c-1.7,2-2.3,5.3-0.5,7.3c2.8,3.1,9.9,1.9,10.6,6.1c0.8,5.5-11.5,5.4-10.8,11
	c0.7,5.6,12.8,2.2,13.3,7.8c0.2,2.2-2.1,4.1-2.2,6.3c-0.1,3.1,3.8,4.7,6.9,5.3c13.3,2.4,26.6,4.3,40.1,5.7"/>
<path class="st1" d="M357.8,333c-1.8-6.5-0.2-13.2-1.1-19.8c-1-7.2-3.8-14.1-6.3-20.9c-2.2-6.1-3.8-12.6-6.3-18.6
	c-1-3.3-3.5-5.8-6.8-6.9c-10.9-3.3-25.9,5.4-35.5,9.4c-6.5,2.8-16.2,10.2-9.1,18c1.3,1.2,2.8,2.2,4.5,2.7c1.1,0.4,2.2,0.7,3.4,1
	c1.7-0.1,1.7,0.1,0.1,0.8c-1.8,2.5-6.4,2.5-8.3,5.6c-4.6,7.7,4.1,10.2,9.3,12c3.5,1.2,2-0.3,1.7,2.7c-0.2,1.6-1,2.9-0.8,4.7
	c0.6,4.2,4,6.3,7.7,7.5c6.8,2.3,14.8,2.7,22,3.7c7.1,1,14.1,1.9,21.2,2.6c5,0.5,5-7.3,0-7.8c-12.1-1.3-24.2-2.8-36.2-5
	c-2.3-0.4-5.5-0.3-6.3-3.1c0,0.2,1.4-4,1.4-4.1c0.3-2.1-0.5-4.3-2-5.8c-1.8-1.8-4.3-2.2-6.6-2.8c-3.5-0.9-5.2,0.3-1.8-2
	c3.8-2.6,9.1-4.3,7.8-10.2c-0.6-2.4-2.4-4.4-4.7-5.3c-1-0.5-3.6-0.6-4.2-1.3l0.2-4.8c1.6-0.8,3.3-1.5,5-2.2
	c5.4-2.3,24.7-12.8,30.1-7.6c2.1,2,3.5,10.7,4.5,13.3c1.8,5.1,3.7,10.2,5.4,15.3c2,5.3,3,11,2.9,16.7c-0.1,5.1-0.3,9.6,1.1,14.5
	C351.5,340.1,359.1,338,357.8,333L357.8,333z"/>
<path class="st1" d="M151.7,281.4c-0.7-10.2,2.6-20.4,6.3-29.9c2.2-5.8,4.7-11.6,7.3-17.3c1.6-3.5,4.2-12.9,8.1-14.3
	c8.4-3.1,13.5,11.7,10.7,17.5c-1.1,2.2-2.8,4-3.5,6.3c-1.8,5.5,2.5,11.5,1.4,17.3c-1.1,5.8-6.9,9.1-12.1,11.6l-17.4,8.6"/>
<path class="st1" d="M155.6,281.4c-0.5-14.1,5.3-27.6,10.8-40.3c1.9-4.2,3.4-8.6,5.4-12.8c2.7-5.8,6.7-4.9,8.4,1.1
	c1.6,5.4-1.4,7.7-3.1,12.3c-1.6,4-0.7,7.5,0,11.6c1.6,8.7-1.9,12-9.4,15.9c-5.7,2.9-11.6,5.7-17.4,8.6c-4.5,2.2-0.6,9,4,6.8
	c11.9-5.9,33.9-11.9,31.3-28.9c-0.8-5.4-2.1-8.7,0.5-14.1c1.3-2.2,2.2-4.6,2.5-7.1c0.3-5.2-1.3-10.3-4.6-14.4
	c-2.9-3.4-7.3-5.4-11.8-3.8c-5.2,1.9-7.3,8-9.1,12.7c-6.8,17-16,33.8-15.4,52.6C147.9,286.4,155.8,286.4,155.6,281.4L155.6,281.4z"
	/>
<path class="st1" d="M279.2,433.6c2.5-1.8,12.6-8.7,13,0c0.1,2-1.3,3.1-0.9,5.4c0.6,2.8,2.2,5.2,4.6,6.7c3.5,2.5,8.8,2.2,6.1,8.9
	c-1.1,2.6-4.5,5.2-6.4,7.2c-0.8,0.8-5,6.3-6.1,6.5c2.1,0.4,2.2-0.4,0.2-2.4c-0.8-1.7-1.5-3.4-2-5.2c-1.8-6.1-3-12.3-3.6-18.7
	c0,0-0.7-7.4-0.3-7.2c0,0-1.8,6.2-1.9,6.7c-1.7,8.6,1,16.7,6.4,23.3c1.5,1.5,4,1.5,5.6,0c0.2-0.2,0.4-0.5,0.6-0.8
	c2.8-5.2,3.5-11.3,1.9-16.9l-4.8,4.9c1.9,0,3.6,1.3,4,3.1l5.4,1.4l-7.5-14.7c-2.3-4.5-9-0.5-6.8,4l4.3,8.8c2.2,4.5,9,0.6,6.8-4
	l-4.3-8.8l-6.8,4l7.5,14.7c1.1,1.9,3.5,2.5,5.4,1.4c9-6,1.9-15-5.9-17.4c-2.1-0.6-4.3,0.7-4.8,2.8c-0.2,0.7-0.2,1.4,0,2
	c1.1,3.6,0.7,7.6-1.1,10.9l6.2-0.8c-4.7-5.7-5.4-12-3.5-18.8c0.8-2.9,2.1-5.9,1.3-9c-1.4-5.9-8.3-7.4-12.6-3.6
	c-6,5.3-2.7,16.5-1.6,23.2c1.1,6.7,3.1,22.1,10.7,24.7c6.7,2.4,14.2-9.4,17.7-13.6c4.4-5.2,7.9-12.5,2.2-18.2
	c-1.3-1.3-3.1-1.8-4.5-2.9c-2.6-2.2-3.1-3.8-3.3-7.3c-0.1-3.7,0-6.2-2.7-9c-6.7-7-16-2.6-22.5,2
	C271.2,429.8,275.1,436.6,279.2,433.6L279.2,433.6z"/>
<path class="st1" d="M191.7,443.2c-15.7-22.8-13.9-54.2-29-77.4l-1.1-0.1l35.4-1.6c1.4-0.2,2.8,0.1,4,0.8c3.1,2.5-1.2,7.4-0.4,11.3
	c1.2,5.6,11.1,4.6,13.1,9.9c1.7,4.7-4.4,8.7-5.3,13.7c-1.4,7.7,10.1,14.6,6.6,21.7c-0.6,1.1-1.4,2.1-2.3,2.9l-23.3,23.4"/>
<path class="st1" d="M195.1,441.2c-9.4-14.3-12.4-30.9-16.8-47.2c-1.8-7-4.2-13.9-7.1-20.6c-2.1-4.6-4-11.2-9.7-11.6v7.8l23.6-1
	c1.9-0.1,10.5-1.6,11.8-0.5c1.6,1.3,0.1,2.7-0.2,5.4c-0.5,2.9,0.5,5.9,2.5,8c2.6,2.7,10.7,3.3,10.4,7.8c-0.2,2-3.3,4.8-4.1,6.7
	c-0.8,1.7-1.2,3.6-1.2,5.4c0,3.6,1.9,6.9,3.7,9.9c1,1.7,3.6,4.5,3.5,6.7c0,3.6-5.9,7.7-8.1,10l-16.9,17c-3.6,3.6,2,9.1,5.6,5.6
	l20.1-20.2c3.7-3.7,7.8-7.2,7.2-12.9c-0.7-5.7-6.7-9.8-7.2-15.4c-0.5-5.9,6.7-9.6,5.4-16.1c-1-4.7-5-6.4-9-8.2s-3.9-2.5-3.3-6.7
	c0.3-2.3,1-4.2,0-6.5c-2.4-5.7-9.6-4.4-14.4-4.2l-29.5,1.3c-5.1,0.2-5,7.4,0,7.8l1.1,0.1l-3.4-1.9c14.9,23.8,13.5,53.8,29,77.4
	C191,449.3,197.8,445.4,195.1,441.2L195.1,441.2z"/>
</svg>
