<svg id="Layer_1" data-name="Layer 1" xmlns="http://www.w3.org/2000/svg" viewBox="0 0 701 343"><defs><style>.cls-1{fill:#e5ab1a;}.cls-2{fill:#311c4b;}</style></defs><title>CatFriends</title><path class="cls-1" d="M243.32,277.43a24,24,0,0,1,7.08,17.69,22.75,22.75,0,0,1-7.08,17A24.39,24.39,0,0,1,225.63,319H75.27q-11.51,0-18.13-7.08T50.5,293.79a27.45,27.45,0,0,1,8-19.46l96.41-103a171.3,171.3,0,0,0,25.87-35.6q9.5-17.91,9.51-32.95,0-19.9-14.15-34.5T143.38,53.65q-12.83,0-25.87,8.62A95.74,95.74,0,0,0,93.84,85q-8,10.61-20.34,10.61-9.73,0-17.91-7.52T47.41,71.34a24.81,24.81,0,0,1,4.42-13.49A99.88,99.88,0,0,1,65.1,42.15a133.38,133.38,0,0,1,38.92-27Q126.12,5,146.47,5q29.19,0,51.3,12.38a86,86,0,0,1,34.05,34.05q11.94,21.67,11.94,49.09,0,27-14.37,55.5t-38.7,54.62l-56.17,59.7h91.1A24,24,0,0,1,243.32,277.43Z"/><path class="cls-2" d="M250.07,16.51c-5.68,9.31-7.56,20.07-8.61,30.77a174.63,174.63,0,0,0,.59,39.1c1.44,11.29,4.12,21.48,11.65,30.29a101.78,101.78,0,0,0,24.51,20.43c19.73,11.93,42.15,13.92,63.68,5.53,20.18-7.86,35.87-22.27,41-43.83,3.12-13.13,2.43-26.72.65-40-1.9-14.22-4.61-28.35-7.8-42.34a2.8,2.8,0,0,0-4.06-1.65,91.26,91.26,0,0,0-24.93,17.69c-2.23,2.18-4.09,3.69-7.38,3.89-2.78.16-5.64-.12-8.41-.22q-9-.31-17.95-.72-8.58-.39-17.16-.88c-5.78-.33-12-.12-17.68-1.19-4.84-.92-7.44-6-10.65-9.26a73.47,73.47,0,0,0-12.25-10c-3-2-5.75,2.82-2.79,4.77a66.46,66.46,0,0,1,13.46,11.65c3.21,3.65,5.73,7.14,10.76,8.16,5.43,1.1,11.3.94,16.81,1.26q9.75.57,19.5,1t19.51.77c5.24.17,10.43.79,14.89-2.46,4.06-3,7.3-7,11.28-10.11a83.19,83.19,0,0,1,15.78-9.6L370.41,18q3.91,17.14,6.66,34.51c1.74,11.14,3.09,22.45,2.21,33.74-.78,10.1-3.52,20.24-9.09,28.79-5.36,8.22-13.34,14.32-22,18.79-19.12,9.89-40.84,11.78-60.44,2.24a98.26,98.26,0,0,1-24.1-17c-8.13-7.65-13.2-15.79-15.21-26.85a161.92,161.92,0,0,1-2-38.76c.73-11.68,2.13-23.92,8.34-34.11,1.86-3-2.92-5.82-4.77-2.79Z"/><path class="cls-2" d="M334,48.67l-2.19,4.4a2.76,2.76,0,0,0,4.77,2.79l2.19-4.4A2.76,2.76,0,1,0,334,48.67Z"/><path class="cls-2" d="M347.06,49.15,345,53.61a2.83,2.83,0,0,0,1,3.78,2.8,2.8,0,0,0,3.78-1l2.07-4.46a2.83,2.83,0,0,0-1-3.78,2.8,2.8,0,0,0-3.78,1Z"/><path class="cls-2" d="M356.51,50.3l-1.66,3.3a2.76,2.76,0,1,0,4.77,2.79l1.66-3.3a2.76,2.76,0,0,0-4.77-2.79Z"/><path class="cls-2" d="M253.82,55.75A13.78,13.78,0,0,0,257,62.37a2.78,2.78,0,0,0,3.91,0,2.83,2.83,0,0,0,0-3.91,8.47,8.47,0,0,1-1.71-4.18,2.78,2.78,0,0,0-3.4-1.93,2.83,2.83,0,0,0-1.93,3.4Z"/><path class="cls-2" d="M264.25,53.57,267,58a2.76,2.76,0,1,0,4.77-2.79L269,50.78a2.76,2.76,0,1,0-4.77,2.79Z"/><path class="cls-2" d="M275,50.94l2.7,4.43a2.76,2.76,0,0,0,4.77-2.79l-2.7-4.43A2.76,2.76,0,1,0,275,50.94Z"/><path class="cls-2" d="M305.43,99.56a43.26,43.26,0,0,1-.68,14.34c-.39,1.55-1,4.31-3,4.43-2.27.14-3.76-3.28-4.57-4.88-1.61-3.17-6.38-.38-4.77,2.79,2.64,5.19,8.8,10.76,14.39,5.56,5.33-5,4.78-15.75,4.18-22.25-.33-3.51-5.86-3.55-5.53,0Z"/><path class="cls-2" d="M306,99.75c1.1,6.13,3,15.2,8.67,18.86,4.2,2.69,10.51,1.17,11.76-4,.84-3.46-4.49-4.93-5.33-1.47-.38,1.57-2.12,1.46-3.28.85-1.58-.83-2.48-2.69-3.19-4.26a48.53,48.53,0,0,1-3.31-11.45c-.63-3.5-6-2-5.33,1.47Z"/><path class="cls-2" d="M362.91,30.95a24.68,24.68,0,0,0-5.62,7.9,2.85,2.85,0,0,0,1,3.78,2.78,2.78,0,0,0,3.78-1,20.7,20.7,0,0,1,4.76-6.78c2.59-2.45-1.32-6.35-3.91-3.91Z"/><path class="cls-2" d="M363.18,35.36a24.11,24.11,0,0,1,3.91,7.22c1.14,3.35,6.48,1.91,5.33-1.47a31.81,31.81,0,0,0-5.33-9.66,2.78,2.78,0,0,0-3.91,0,2.83,2.83,0,0,0,0,3.91Z"/><path class="cls-2" d="M251.66,32.45a17.86,17.86,0,0,1-1.75,6.89c-1.55,3.19,3.22,6,4.77,2.79a24.82,24.82,0,0,0,2.51-9.68c.18-3.55-5.34-3.54-5.53,0Z"/><path class="cls-2" d="M253.07,34.44l6,8.28a2.84,2.84,0,0,0,3.78,1,2.79,2.79,0,0,0,1-3.78l-6-8.28a2.84,2.84,0,0,0-3.78-1,2.79,2.79,0,0,0-1,3.78Z"/><path class="cls-2" d="M358.91,98.72l55.79,1.79c3.56.11,3.55-5.41,0-5.53l-55.79-1.79c-3.56-.11-3.55,5.41,0,5.53Z"/><path class="cls-2" d="M360.39,110.36q18.77,2.58,37.38,6.18c3.48.67,5-4.65,1.47-5.33q-18.61-3.6-37.38-6.18c-3.48-.48-5,4.85-1.47,5.33Z"/><path class="cls-2" d="M352.93,121.34q22.49,8.78,45.52,16.06c3.4,1.07,4.86-4.26,1.47-5.33q-23-7.25-45.52-16.06c-3.31-1.29-4.75,4-1.47,5.33Z"/><path class="cls-2" d="M256.06,87.37a465.86,465.86,0,0,0-50.59,2.9c-3.5.39-3.54,5.92,0,5.53a465.86,465.86,0,0,1,50.59-2.9c3.56,0,3.56-5.54,0-5.53Z"/><path class="cls-2" d="M258.81,97.88q-13.62.92-27.14,2.8c-3.51.48-2,5.81,1.47,5.33q12.79-1.75,25.67-2.6c3.53-.24,3.56-5.77,0-5.53Z"/><path class="cls-2" d="M264.11,110.55a205.2,205.2,0,0,0-53.87,22.56c-3,1.82-.27,6.61,2.79,4.77a199.83,199.83,0,0,1,52.55-22c3.44-.89,2-6.23-1.47-5.33Z"/><path class="cls-2" d="M342.6,67.4a4.74,4.74,0,0,0-3.6,3.72,4.56,4.56,0,0,0,2.33,4.94,4.76,4.76,0,0,0,5.45-.65,4.57,4.57,0,0,0,1.08-4.7,4.08,4.08,0,0,0-4.82-2.77,4.43,4.43,0,0,0-3.17,4.34,4.22,4.22,0,0,0,4.11,4,4.53,4.53,0,0,0,4.51-3.08,4.94,4.94,0,0,0-2.19-5.63,5.35,5.35,0,0,0-6.36,1,2.76,2.76,0,0,0,3.91,3.91c.49-.48-.28.17,0,0s-.44.15.06,0c-.73.23.17,0-.24,0q-.33-.06.06,0l-.26-.1c-.6-.45.13.28-.3-.33.2.27,0,0,0-.13.2.53,0-.53,0,0a1.57,1.57,0,0,1,.19-.67c-.19.39.21-.25.36-.34s.5-.15.15-.08q.61-.06.28-.05t.29,0c.13,0,.48.26.17.07a1.72,1.72,0,0,1,.77,1.38c0-.38,0,.12-.05.23q.11-.33,0,0a.88.88,0,0,1-.3.46c.29-.33-.19.14-.35.21a1.84,1.84,0,0,1-1.52-.09l-.31-.26q.23.24,0,0c0-.09-.33-.77-.22-.38s0-.51,0-.17.17-.69,0-.18a2,2,0,0,1,.54-.77q.26-.18.07-.06t.26-.1c-.47.17.45,0,.12,0s.64.19.12,0l.33.14q-.3-.19,0,0t0,0l.22.27c.09.14.15.82.16.6s-.19.57,0,.09l-.14.31q.19-.31,0,0t0,0l-.26.21c.41-.3-.5.13,0,0a2.78,2.78,0,0,0,1.93-3.4,2.84,2.84,0,0,0-3.4-1.93Z"/><path class="cls-2" d="M273.37,66.34a5.76,5.76,0,0,0-2,10.28c3.81,2.73,9.84-.63,8.45-5.48a5,5,0,0,0-5-3.62,3.92,3.92,0,0,0-3.61,5.09,4,4,0,0,0,5.7,2.37,4.39,4.39,0,0,0,1.62-5.76,4.54,4.54,0,0,0-6.38-1.48,5,5,0,0,0-1.2,7.05,2.84,2.84,0,0,0,3.78,1,2.79,2.79,0,0,0,1-3.78c-.37-.52-.06-.06-.49.31-.83.71-2-.58-1.67-1.43a.87.87,0,0,1,.78-.56,1.19,1.19,0,0,1,1.77,0c.83.8-.16,3.27-1.25,2.61-.38-.23-.35-.15-.37-.59,0-.09.09-.16.1-.22,0-.28,0,.27-.17,0-.06-.06.28,0,.28,0s-.41-.27-.19-.1c-.11-.09-.13-.43-.11-.18s0-.08.07-.17c-.21.18.21-.12.2-.11-.17.11-.11.09.22,0a2.76,2.76,0,0,0-1.47-5.33Z"/><path class="cls-2" d="M279.33,135.07c-19.43,26.26-25.36,58.23-27.77,90.12-1.34,17.69-3,35.79-1.59,53.51.57,7.16,2,14.19,6.29,20.13a46.25,46.25,0,0,0,15,12.93c14.34,8.14,31.18,10.67,47.47,10.7a221.81,221.81,0,0,0,27.7-1.92c7.87-1,15.92-2,23.41-4.68,14.5-5.27,24-18.59,29.45-32.52,5.64-14.37,6.64-30.14,6.44-45.43-.13-9.83-1.29-19.26-4.83-28.49-3.42-8.91-7.56-17.6-11.54-26.27-8.44-18.38-17.77-36.35-29.81-52.66-2.09-2.83-6.89-.08-4.77,2.79,9.77,13.23,17.81,27.57,25,42.36,3.51,7.25,6.82,14.59,10.09,21.94s6.93,14.93,8.73,22.94,1.76,16.33,1.62,24.46a130,130,0,0,1-2,21.75c-2.65,14.14-8.83,28.8-20.07,38.28-6,5.08-13.82,7.13-21.42,8.51a230.66,230.66,0,0,1-25.27,3c-16.09,1.1-32.71.52-48-5.12-13.1-4.84-25.16-13.54-27.48-28.11-2.61-16.41-.5-33.89.56-50.37,2.15-33.53,7-67.31,27.55-95,2.12-2.86-2.68-5.62-4.77-2.79Z"/><path class="cls-2" d="M383.87,182.6c-5.06,5.85-7.76,13.27-9.77,20.63a227.28,227.28,0,0,0-5.46,28.92,381.07,381.07,0,0,0-3.41,60.23l4.72-2c-5.63-4.54-12-1.88-15.2,4.21-3.47,6.7-3.56,15.36-1.54,22.49,1,3.42,6.3,2,5.33-1.47a28.71,28.71,0,0,1-.48-13.79c.67-3.12,3.59-11.07,8-7.53,1.75,1.41,4.77.64,4.72-2a376.46,376.46,0,0,1,2.92-56.54,262.37,262.37,0,0,1,4.73-27.13c1.83-7.68,4.09-16.1,9.37-22.2,2.32-2.68-1.58-6.6-3.91-3.91Z"/><path class="cls-2" d="M282.63,202.64,277,273.2c-.23,2.84-.13,6-.75,8.77s-2.54,4.18-4.15,6.36c-2.29,3.11-3.58,6.92-2.38,10.73a7,7,0,0,0,6.64,5.15c3.92-.09,6.4-3.71,10.07-4.42l-3.5-2.66c.13,5.14,1.43,13.49,8.18,13.47,8.6,0,8.31-11.16,7.37-16.92l-4.62,2.69c2.15,2.69,5.27,5.72,9,5.73a6.56,6.56,0,0,0,6.22-5.31c.71-3.18-.59-6.58-2.49-9.1-1.27-1.67-2.9-3-4.19-4.66-1.89-2.4-1.72-4.88-1.6-7.8.91-22.3,1.9-44.59,2.85-66.88.15-3.56-5.38-3.55-5.53,0L295.78,262c-.19,4.41-.38,8.81-.56,13.22-.14,3.37-.22,6.54,1.58,9.53,1.62,2.69,4.45,4.46,6,7.17.6,1.07,1.8,4,.05,4.64-1.47.56-4.33-3.17-5.08-4.11-1.92-2.4-5,.32-4.62,2.69.23,1.39,1.1,12.3-2.93,9.42-1.81-1.3-1.71-5.52-1.76-7.44a2.81,2.81,0,0,0-3.5-2.66,12.92,12.92,0,0,0-4.17,1.69c-1.09.64-2.56,2.21-3.84,2.31-2.77.2-2.37-3.36-1.48-5.18,1-2.1,2.89-3.54,4.25-5.39,2.31-3.14,2.19-7,2.49-10.77l1.2-14.9,4.78-59.59c.28-3.55-5.24-3.53-5.53,0Z"/><path class="cls-2" d="M317.9,210.75c-1.3,23.15-1.83,46.51-4.1,69.59-.54,5.48-1.91,10.74-2.73,16.16-.56,3.71-.3,7.94,2.52,10.76,6.57,6.57,12.64-3.09,14.54-8.57H322.8c.85,5.14,3.26,12.44,9.9,11.45,6.19-.92,8-8.05,5.18-12.92-1.79-3.15-6.23-.39-4.77,2.79,1.26,2.74,3.16,5.68,6.54,5.71,3,0,4.9-2.28,5.16-5.07.35-3.81-1.22-8.2-3.17-11.4-1-1.69-2.79-3.21-3.4-5.13s0-4.85.18-6.92l5.2-62.21c.3-3.54-5.23-3.52-5.53,0l-4,48.21-1,12.44c-.24,2.88-.86,6-.34,8.84.55,3.08,2.62,5,4.18,7.56a16.86,16.86,0,0,1,2.14,5.49c.81,4.08-.6.83-1.12-.3L333.11,300c1.74,3.06-1.21,6.21-3.49,2.89-1-1.5-1.2-3.94-1.48-5.69-.48-2.91-4.53-2.32-5.33,0s-4.72,10.1-6.32,3.9c-.93-3.61,1.07-8.31,1.69-11.92,1.44-8.39,1.79-16.92,2.27-25.41l3-53c.2-3.55-5.33-3.54-5.53,0Z"/><path class="cls-2" d="M504.46,22.91c0,41.35,7.21,91.71,52,107.21,18.54,6.41,42.83,10.41,61,1.1,16.24-8.33,25.86-26,30.09-43.15,6.42-26,.94-53.25-4.6-78.9-.37-1.71-3-2.57-4.18-1.1L628.28,21.41c-1.79,2.27-3.5,5.06-5.59,7.06-2.48,2.37-5.92,1.83-9.12,1.94l-36.71,1.24-35.72,1.21c-6,.2-13.4,1.55-19.18-.49-5.39-1.89-8.88-7-12.06-11.46-1.85-2.6-6.19-.1-4.32,2.52,2.92,4.1,5.93,8.39,10.11,11.31,4.7,3.29,10,3.6,15.52,3.44,14.56-.4,29.11-1,43.66-1.48s29.18-.42,43.66-1.48c5.17-.38,7.23-2.61,10.36-6.58l13.44-17.06-4.18-1.1c4.68,21.68,9.2,44,6.45,66.28-2.11,17.11-9.36,35.46-23.42,46.2-16.15,12.33-38.69,9.2-57.05,4.25-19.51-5.26-34-17.14-42.93-35.29-10.46-21.3-11.76-45.7-11.75-69,0-3.22-5-3.22-5,0Z"/><path class="cls-2" d="M631.5,32.83l-4.71,7.88c-1.66,2.77,2.67,5.29,4.32,2.52l4.71-7.88c1.66-2.77-2.67-5.29-4.32-2.52Z"/><path class="cls-2" d="M632.13,35.65l3,7.5a2.58,2.58,0,0,0,3.08,1.75,2.52,2.52,0,0,0,1.75-3.08l-3-7.5a2.58,2.58,0,0,0-3.08-1.75,2.52,2.52,0,0,0-1.75,3.08Z"/><path class="cls-2" d="M513.5,43.5V51c0,3.22,5,3.22,5,0V43.5c0-3.22-5-3.22-5,0Z"/><path class="cls-2" d="M515.64,46.38a65,65,0,0,0,7.16,5.18c2.74,1.7,5.25-2.62,2.52-4.32a55.55,55.55,0,0,1-6.15-4.4,2.57,2.57,0,0,0-3.54,0,2.52,2.52,0,0,0,0,3.54Z"/><path class="cls-2" d="M552.42,49.51l.61,6a2.57,2.57,0,0,0,2.5,2.5,2.52,2.52,0,0,0,2.5-2.5l-.61-6a2.57,2.57,0,0,0-2.5-2.5,2.52,2.52,0,0,0-2.5,2.5Z"/><path class="cls-2" d="M542.1,54.66a13.59,13.59,0,0,0,3.63,5.61,2.55,2.55,0,0,0,3.54,0,2.53,2.53,0,0,0,0-3.54,9.05,9.05,0,0,1-1.39-1.55,8.14,8.14,0,0,1-.95-1.85,2.56,2.56,0,0,0-3.08-1.75,2.52,2.52,0,0,0-1.75,3.08Z"/><path class="cls-2" d="M534.71,61.7l4.51,3a2.5,2.5,0,0,0,2.52-4.32l-4.51-3a2.5,2.5,0,0,0-2.52,4.32Z"/><path class="cls-2" d="M606.27,48.39l-2.14,6.45c-1,3.06,3.81,4.37,4.82,1.33l2.14-6.45c1-3.06-3.81-4.37-4.82-1.33Z"/><path class="cls-2" d="M615.76,51.76a25.39,25.39,0,0,0-3.44,5.47,2.58,2.58,0,0,0,.9,3.42,2.52,2.52,0,0,0,3.42-.9,20.66,20.66,0,0,1,2.66-4.46,2.58,2.58,0,0,0,0-3.54,2.52,2.52,0,0,0-3.54,0Z"/><path class="cls-2" d="M624.23,57.23a12,12,0,0,0-3.14,4.6,2.51,2.51,0,0,0,1.75,3.08,2.58,2.58,0,0,0,3.08-1.75c-.1.24-.07.15,0,0l.21-.41c.17-.3.37-.58.55-.87s-.23.23,0,0l.3-.34a10,10,0,0,1,.74-.71,2.51,2.51,0,0,0,0-3.54,2.56,2.56,0,0,0-3.54,0Z"/><path class="cls-2" d="M552.12,64.63a3.74,3.74,0,0,0-1,2.59,4.14,4.14,0,0,0,1.11,2.59,3.71,3.71,0,0,0,4.72.74,3.8,3.8,0,0,0,1.14-5,3.75,3.75,0,0,0-4.26-2,2.5,2.5,0,1,0,1.33,4.82q.38-.09-.38,0-.74-.13-.44-.06t-.38-.18l.16.09c-.11-.08-.52-.45-.22-.13-.46-.5-.3-.4-.17-.18s-.21-.6-.11-.23,0-.73,0-.23c0,.17.21-.73,0-.25l.17-.43q.47-.56.22-.29.56-.39.3-.24t.36-.15q.76-.07.38-.06l.47.06c-.39-.08.6.35.18.08-.16-.11.55.47.15.1s.34.53.14.17.22.62.09.22,0,.67,0,.28q-.14.75,0,.38a1.56,1.56,0,0,1-.44.76,2.69,2.69,0,0,0,.73-1.77,2.5,2.5,0,0,0-4.27-1.77Z"/><path class="cls-2" d="M609.71,62.45a4.7,4.7,0,0,0-6,1.58,4.38,4.38,0,0,0,1.36,6.05,4.32,4.32,0,0,0,5.86-.9,4.65,4.65,0,0,0-.22-5.94,2.51,2.51,0,0,0-3.54,0,2.56,2.56,0,0,0,0,3.54c-.45-.53.05.29-.24-.38.18.41,0-.36,0-.08s.12-.53,0-.08.26-.4,0,0l.19-.24q-.24.22,0,0c.16-.06.63-.21.23-.15.82-.13-.41-.09.42,0-.44,0,.24.1,0,0s-.11-.07,0,0,.15.1,0-.06l.17.21q-.16-.31,0,0c0,.16.07.65.09.24,0,.1-.25.82-.07.44l-.18.23q.25-.23,0,0c-.25.27.09-.09.2-.09q-.45.18-.18.1t-.23,0c.41,0-.25-.08-.41-.16a2.56,2.56,0,0,0,3.42-.9,2.53,2.53,0,0,0-.9-3.42Z"/><path class="cls-2" d="M578.43,76.46Q576.3,82.29,573.86,88c-.61,1.41-.23,3.26,1.49,3.67a31.94,31.94,0,0,0,9.37.93c2.22-.13,4.9-.3,5.83-2.68.83-2.12-.53-4.58-1.4-6.48A34.25,34.25,0,0,0,584.4,76c-2-2.49-5.56,1.07-3.54,3.54a28.94,28.94,0,0,1,2.8,4.08c.27.48,1.82,4.46,2,4.49l.85-.75a10.93,10.93,0,0,1-1.35.16c-.81.07-1.62.1-2.44.09a27.14,27.14,0,0,1-6.09-.8l1.49,3.67q2.71-6.3,5.07-12.72c1.11-3-3.72-4.33-4.82-1.33Z"/><path class="cls-2" d="M625,82q23.24-.79,46.5-.4c3.22.05,3.22-4.95,0-5q-23.25-.39-46.5.4c-3.21.11-3.22,5.11,0,5Z"/><path class="cls-2" d="M627.5,95l26,3c3.19.36,3.17-4.64,0-5l-26-3c-3.19-.36-3.17,4.64,0,5Z"/><path class="cls-2" d="M621.86,107.32q20.44,5.09,40.48,11.57c3.07,1,4.38-3.83,1.33-4.82q-20-6.48-40.48-11.57c-3.12-.78-4.45,4-1.33,4.82Z"/><path class="cls-2" d="M529,79a326,326,0,0,0-33.63,3.32c-3.17.48-1.82,5.3,1.33,4.82A313.1,313.1,0,0,1,529,84c3.2-.15,3.22-5.15,0-5Z"/><path class="cls-2" d="M531.33,90.05a152.39,152.39,0,0,0-17.47,4.62c-3,1-1.74,5.83,1.33,4.82a152.39,152.39,0,0,1,17.47-4.62c3.15-.64,1.82-5.46-1.33-4.82Z"/><path class="cls-2" d="M541.79,101.89a146.63,146.63,0,0,0-38,15c-2.8,1.58-.28,5.9,2.52,4.32a141.75,141.75,0,0,1,36.84-14.47c3.13-.75,1.8-5.57-1.33-4.82Z"/><path class="cls-2" d="M542.13,122.53a284.83,284.83,0,0,0-35.79,100.38c-4.71,30.74-4.24,68.22,23.34,88.66,13.39,9.92,31.05,11.42,47.15,12.55,16.88,1.18,35.5,1.55,51-6.18,27.78-13.83,38.88-46.81,37-76-1.29-20.56-7.59-40.54-15.1-59.6a339.71,339.71,0,0,0-27.72-55c-1.7-2.73-6-.22-4.32,2.52,17.62,28.3,32.4,59.86,39.37,92.6,6.26,29.41,3.21,63.49-21.14,84.18-12.65,10.75-28.49,13-44.6,13A223.18,223.18,0,0,1,565.21,318c-8.61-1-17.54-2.33-25.42-6.14-30.55-14.78-33.24-53.21-29.35-82.65a279.68,279.68,0,0,1,36-104.18c1.63-2.78-2.69-5.3-4.32-2.52Z"/><path class="cls-2" d="M549.54,197c1.93,25.33.18,50.67-2,75.92-.24,2.77,0,6-.82,8.69-.89,3-3.09,3.53-5,5.52a7.46,7.46,0,0,0-1.64,8.18c3.73,9.35,13,4.22,17.84-.86l-4.27-1.77c-.18,4.6.11,11.6,5.67,13,6.13,1.58,9.48-5.16,10.51-10l-3.67,1.49c2.52,1.64,5.45,3.15,8.45,1.91a6.24,6.24,0,0,0,3.77-6.85c-.59-3.71-4.22-5.14-6.22-7.95-2.91-4.1-2.91-9.84-2.86-14.66.25-23.73.42-47.14-1.86-70.81-.31-3.17-5.31-3.21-5,0a495.09,495.09,0,0,1,2.23,58.2c-.16,7.56-1.14,15.44.44,22.92a18.55,18.55,0,0,0,3.52,7.9c.9,1.12,2.5,2,3.26,3.13q2.23,1.3-.21,3.53a13.44,13.44,0,0,1-3-1.64,2.52,2.52,0,0,0-3.67,1.49c-.5,2.35-2.7,9.09-5.77,4.79-1.09-1.52-.66-4.76-.59-6.52a2.53,2.53,0,0,0-4.27-1.77c-1.56,1.63-3.74,4.49-6.15,4.74q-5.78-.93-2-5.78,1.06-.67,2.05-1.43a9.07,9.07,0,0,0,3.4-5.82c1.73-8.73,1.68-18.33,2.33-27.2,1.42-19.45,2.09-39,.6-58.41-.24-3.19-5.25-3.21-5,0Z"/><path class="cls-2" d="M576.67,205.51c2.15,25.63,5,51.3,6.42,77,.33,5.86-.16,10.75-3.61,15.63-1.91,2.71-3.18,5.52-1.43,8.68,4.76,8.62,14.55,2.5,19.26-2.36L593.13,302c-.87,5.32,3.23,11.28,9.19,10,5.51-1.14,7.53-7.71,5-12.26l-2.82,3.67c4.9,1.47,14.31.61,11.79-7-1.21-3.66-5.19-5.25-8.6-6s-5.72-1.34-6.54-5.33c-.6-2.91-.22-6.58-.32-9.56l-2.43-76.06c-.1-3.21-5.1-3.22-5,0l2,63.22.51,15.8c.11,3.53-.37,7.78,1.07,11.11,1.22,2.82,3.72,4.24,6.57,5,1.5.43,5.22.41,6.25,1.67q1.35,4-1.77,2.9a16.74,16.74,0,0,1-2.21-.58,2.53,2.53,0,0,0-2.82,3.67c2.63,4.72-5.91,6.3-5,1,.38-2.3-2.29-4.38-4.18-2.43-1.58,1.64-3.25,3.6-5.38,4.54-4.69,2.07-7-1.5-4.17-5.37a20.28,20.28,0,0,0,3.65-9.33c1.16-8.14-.47-16.8-1.15-24.92l-5.05-60.32c-.27-3.18-5.27-3.21-5,0Z"/><path class="cls-2" d="M647.45,186.86c-9.44,4.24-12.54,14.87-14.12,24.27A286.18,286.18,0,0,0,629.5,256q-.1,11.58.73,23.15c.3,4.14,1.76,8.56-1.66,11.47-1.81,1.54-3.81,2.53-5.47,4.33-6.21,6.74-8.28,16.93-3.41,25,1.67,2.75,6,.24,4.32-2.52-2.79-4.6-2.61-9.92-.23-14.68a18.7,18.7,0,0,1,4.22-5.57c1.82-1.64,4.28-2.42,6-4.11,3.48-3.39,1.51-9.67,1.21-13.87q-.72-10.11-.74-20.25a287.26,287.26,0,0,1,2.79-40.7c1.36-9.62,2.66-22.5,12.7-27,2.93-1.32.39-5.63-2.52-4.32Z"/><path class="cls-2" d="M451.87,154c-2.59,3.44-6-1.87-5.46-4.58a9.62,9.62,0,0,1,4.15-5.64c4.25-3,9.92-3.42,14.95-3.79,9.45-.7,17.22,2.51,22.22,10.8,9.23,15.31,2.64,36.48-3,52.06A160.33,160.33,0,0,1,430.24,276a154.25,154.25,0,0,1-45.68,23.58c-3.05,1-1.75,5.8,1.33,4.82,37.7-12,70.1-38.27,90.38-72.17,10.16-17,18-36.48,20.33-56.23,2.42-20.13-7-42.47-30.25-41.13-9.33.54-23.6,2.71-25,14.4-1,8.6,9,14.9,14.79,7.2,1.93-2.57-2.4-5.07-4.32-2.52Z"/><path class="cls-2" d="M454,158c5.36-3.17,13.9-8.22,19.58-2.79,4.69,4.49,2,15.78.52,21.26-3.3,12-10.36,22.75-17.77,32.64-14.21,19-31.6,37.49-55,44.43-3.08.91-1.77,5.74,1.33,4.82C430.79,250,452,225.75,467.47,201.9c7.86-12.1,15.14-27.33,13.23-42.2-.75-5.84-4.25-10.05-10.07-11.38-7-1.59-13.38,1.93-19.17,5.35-2.77,1.64-.26,6,2.52,4.32Z"/><path class="cls-2" d="M447.45,141.45c-5.21-7.42-14.51-10-23.15-7.69-10.22,2.76-16.45,12.31-17.91,22.39-4,27.71,22.69,45.66,35.81,66.37,1.72,2.71,6,.21,4.32-2.52-11-17.41-30.77-31.13-34.92-52.28-1.82-9.26.3-20.58,8.33-26.43,6.91-5,18.05-4.67,23.22,2.68,1.84,2.61,6.17.12,4.32-2.52Z"/><path class="cls-2" d="M459.71,250.13c12.82,25.4,36.48,43.58,62,55,2.91,1.3,5.46-3,2.52-4.32-24.85-11.13-47.76-28.52-60.23-53.23-1.45-2.87-5.77-.34-4.32,2.52Z"/><path class="cls-2" d="M448.29,155.59c-4.37-5.89-10.46-11.16-18.32-10-7.17,1.1-11,7.91-10.38,14.77.81,9.14,8.28,17,13.38,24.1l19.77,27.64c1.86,2.59,6.19.1,4.32-2.52q-12.71-17.77-25.42-35.54c-3.75-5.25-9.09-12-6.46-18.84,3.81-9.91,14.76-2.57,18.79,2.86,1.9,2.56,6.24.07,4.32-2.52Z"/><path class="cls-2" d="M474.29,233.71a202.2,202.2,0,0,0,29.45,23.45c2.7,1.77,5.21-2.56,2.52-4.32a195.18,195.18,0,0,1-28.43-22.67c-2.32-2.23-5.86,1.3-3.54,3.54Z"/><path class="cls-2" d="M580.47,92c-.11,6.82.81,14.63,7.16,18.59s13.05.28,18.13-3.85c2.5-2-1.06-5.55-3.54-3.54-3.77,3.06-9.18,6.17-13.38,2-3.42-3.41-3.45-8.7-3.37-13.19.05-3.22-4.95-3.22-5,0Z"/><path class="cls-2" d="M580.23,94l.79,7.76c.23,2.27,1.62,6.12-.69,7.65-4.91,3.24-9.64-2.33-9.23-6.91.29-3.2-4.71-3.18-5,0A11.44,11.44,0,0,0,579.33,115c3.29-.58,6.89-2.62,7.25-6.25.46-4.64-.88-10-1.36-14.67-.32-3.17-5.33-3.2-5,0Z"/><path class="cls-2" d="M305.78,81.21l-3.92,8.63c-.85,1.86-2.49,4.3-2.59,6.41-.27,5.38,7.33,3.68,10.38,3.51s10.49.76,9.77-4.4c-.31-2.24-2.17-4.29-3.33-6.13l-5.16-8.15c-1.72-2.71-6-.21-4.32,2.52l4.19,6.63c1.16,1.82,3.4,4.33,3.8,6.46l.25-1.93q1.58-.46.24-.29l-1.81.1-3.63.2-3,.16-1.81.1q-2.06-.17-.66.32,1,.78,1-.83l.49-1.08,1.47-3.24,2.94-6.47c1.32-2.91-3-5.45-4.32-2.52Z"/></svg>