<?xml version="1.0" encoding="utf-8"?>
<!-- Generator: Adobe Illustrator 21.1.0, SVG Export Plug-In . SVG Version: 6.00 Build 0)  -->
<svg version="1.1" id="Layer_1" xmlns="http://www.w3.org/2000/svg" xmlns:xlink="http://www.w3.org/1999/xlink" x="0px" y="0px"
	 viewBox="0 0 996 500" style="enable-background:new 0 0 996 500;" xml:space="preserve">
<style type="text/css">
	.st0{fill:#EE534A;}
	.st1{fill:#311C4B;}
</style>
<title>CatFriends</title>
<path class="st0" d="M321.6,418.2c7.1,7.1,11,16.8,10.7,26.8c0.2,9.7-3.7,19.1-10.7,25.8c-7.2,7-16.9,10.7-26.8,10.4H66.6
	c-11.6,0-20.8-3.6-27.5-10.7C32.4,463.3,29,454.2,29,443c0-11.1,4.3-21.7,12.1-29.5l146.3-156.3c15.4-16.2,28.5-34.4,39.3-54
	c9.6-18.1,14.4-34.8,14.4-50c0-20.1-7.2-37.6-21.5-52.4C205.3,86,188.8,78.6,170,78.6c-13,0-26.1,4.4-39.3,13.1
	c-13.9,9.3-26,21-35.9,34.5c-8.1,10.7-18.4,16.1-30.9,16.1c-9.8,0-18.9-3.8-27.2-11.4s-12.4-16.1-12.4-25.4C24.5,98.1,26.9,91,31,85
	c5.9-8.6,12.6-16.6,20.1-23.8c17.1-17.1,37.1-30.9,59.1-41c22.4-10.3,43.8-15.4,64.4-15.4c29.5,0,55.5,6.3,77.8,18.8
	c21.8,12,39.7,29.9,51.7,51.7c12.1,21.9,18.1,46.8,18.1,74.5c0,27.3-7.3,55.4-21.8,84.2c-14.5,28.8-34.1,56.5-58.7,82.9l-85.2,90.6
	h138.2C304.8,407.1,314.5,411,321.6,418.2z"/>
<path class="st1" d="M331.8,22.2c-8.6,14.1-11.5,30.5-13.1,46.7c-1.9,19.7-1.6,39.7,0.9,59.3c2.2,17.1,6.3,32.6,17.7,46
	c10.7,12.2,23.2,22.7,37.2,31c29.9,18.1,64,21.1,96.6,8.4c30.6-11.9,54.4-33.8,62.2-66.5c4.7-19.9,3.7-40.5,1-60.7
	c-2.9-21.6-7-43-11.8-64.2c-0.7-2.3-3-3.5-5.3-2.9c-0.3,0.1-0.6,0.2-0.9,0.4c-14,6.8-26.8,15.8-37.8,26.8c-3.4,3.3-6.2,5.6-11.2,5.9
	c-4.2,0.2-8.6-0.2-12.8-0.3c-9.1-0.3-18.2-0.7-27.2-1.1c-8.7-0.4-17.4-0.8-26-1.3c-8.8-0.5-18.2-0.2-26.8-1.8
	c-7.3-1.4-11.3-9.1-16.2-14.1c-5.6-5.7-11.9-10.8-18.6-15.2c-4.6-3-8.7,4.3-4.2,7.2c7.6,5,14.4,10.9,20.4,17.7
	c4.9,5.5,8.7,10.8,16.3,12.4c8.2,1.7,17.1,1.4,25.5,1.9c9.9,0.6,19.7,1.1,29.6,1.5c9.9,0.4,19.7,0.8,29.6,1.2
	c8,0.3,15.8,1.2,22.6-3.7c6.2-4.6,11.1-10.6,17.1-15.3c7.4-5.7,15.4-10.6,23.9-14.6l-6.2-2.4c4,17.3,7.3,34.8,10.1,52.4
	c2.6,16.9,4.7,34.1,3.4,51.2c-1.2,15.3-5.3,30.7-13.8,43.7c-8.1,12.5-20.2,21.7-33.4,28.5c-29,15-62,17.9-91.7,3.4
	c-13.4-6.7-25.7-15.4-36.6-25.8c-12.3-11.6-20-24-23.1-40.7c-3.4-19.4-4.4-39.2-3-58.8c1.1-17.7,3.2-36.3,12.7-51.8
	C341.8,22,334.6,17.7,331.8,22.2L331.8,22.2z"/>
<path class="st1" d="M459.2,71l-3.3,6.7c-1.2,2-0.5,4.6,1.5,5.7s4.6,0.5,5.7-1.5l3.3-6.7c1.2-2,0.5-4.6-1.5-5.7
	C462.9,68.4,460.4,69,459.2,71L459.2,71z"/>
<path class="st1" d="M479,71.8l-3.1,6.8c-1.1,2-0.4,4.5,1.5,5.7c2,1.1,4.6,0.5,5.7-1.5l3.1-6.8c1.1-2,0.4-4.5-1.5-5.7
	C482.8,69.1,480.2,69.8,479,71.8L479,71.8z"/>
<path class="st1" d="M493.4,73.5l-2.5,5c-1.2,2-0.5,4.6,1.5,5.7c2,1.2,4.6,0.5,5.7-1.5l2.5-5c1.2-2,0.5-4.6-1.5-5.7
	C497.1,70.8,494.5,71.5,493.4,73.5L493.4,73.5z"/>
<path class="st1" d="M337.5,81.8c0.7,3.7,2.3,7.2,4.8,10c1.6,1.6,4.3,1.6,5.9,0c1.6-1.7,1.6-4.3,0-5.9c-1.4-1.8-2.3-4-2.6-6.3
	c-0.6-2.2-2.9-3.5-5.2-2.9C338.3,77.3,337.1,79.6,337.5,81.8L337.5,81.8z"/>
<path class="st1" d="M353.4,78.5l4.2,6.7c1.2,2,3.7,2.7,5.7,1.5c2-1.2,2.7-3.7,1.5-5.7l0,0l-4.2-6.7c-1.2-2-3.7-2.7-5.7-1.5
	S352.2,76.5,353.4,78.5L353.4,78.5L353.4,78.5z"/>
<path class="st1" d="M369.7,74.5l4.1,6.7c1.2,2,3.7,2.7,5.7,1.5c2-1.2,2.7-3.7,1.5-5.7l0,0l-4.1-6.7c-1.2-2-3.7-2.7-5.7-1.5
	C369.2,69.9,368.5,72.5,369.7,74.5L369.7,74.5z"/>
<path class="st1" d="M415.9,148.3c0.9,7.3,0.5,14.6-1,21.8c-0.6,2.4-1.5,6.5-4.6,6.7c-3.4,0.2-5.7-5-6.9-7.4
	c-2.4-4.8-9.7-0.6-7.2,4.2c4,7.9,13.4,16.3,21.8,8.4c8.1-7.6,7.3-23.9,6.3-33.8C423.8,142.9,415.4,142.9,415.9,148.3L415.9,148.3z"
	/>
<path class="st1" d="M416.7,148.5c1.7,9.3,4.6,23.1,13.2,28.6c6.4,4.1,15.9,1.8,17.8-6.1c1.3-5.3-6.8-7.5-8.1-2.2
	c-0.6,2.4-3.2,2.2-5,1.3c-2.4-1.3-3.8-4.1-4.8-6.5c-2.4-5.6-4.1-11.4-5-17.4C423.8,141,415.7,143.3,416.7,148.5L416.7,148.5z"/>
<path class="st1" d="M503.1,44.1c-3.6,3.4-6.5,7.5-8.5,12c-1.1,2-0.4,4.5,1.5,5.7c2,1.2,4.6,0.5,5.7-1.5c1.7-3.9,4.1-7.4,7.2-10.3
	C513,46.3,507,40.4,503.1,44.1L503.1,44.1z"/>
<path class="st1" d="M503.5,50.8c2.6,3.3,4.6,7,5.9,11c1.7,5.1,9.8,2.9,8.1-2.2c-1.8-5.3-4.6-10.3-8.1-14.7c-1.6-1.6-4.3-1.6-5.9,0
	C501.9,46.6,501.9,49.2,503.5,50.8z"/>
<path class="st1" d="M334.3,46.4c-0.2,3.6-1.1,7.2-2.7,10.5c-2.4,4.8,4.9,9.1,7.2,4.2c2.3-4.6,3.5-9.6,3.8-14.7
	C342.9,41,334.5,41.1,334.3,46.4z"/>
<path class="st1" d="M336.4,49.4l9.1,12.6c1.2,2,3.7,2.6,5.7,1.5c2-1.2,2.7-3.7,1.5-5.7l-9.1-12.6c-1.2-2-3.7-2.6-5.7-1.5
	C335.9,44.9,335.3,47.4,336.4,49.4z"/>
<path class="st1" d="M497,147l84.7,2.7c5.4,0.2,5.4-8.2,0-8.4l-84.7-2.7C491.6,138.4,491.6,146.8,497,147z"/>
<path class="st1" d="M499.2,164.6c19,2.6,37.9,5.7,56.7,9.4c5.3,1,7.6-7.1,2.2-8.1c-18.8-3.6-37.7-6.8-56.7-9.4
	C496.2,155.8,493.9,163.9,499.2,164.6z"/>
<path class="st1" d="M487.9,181.3c22.8,8.9,45.8,17,69.1,24.4c5.2,1.6,7.4-6.5,2.2-8.1c-23.3-7.3-46.3-15.5-69.1-24.4
	C485.1,171.3,483,179.3,487.9,181.3z"/>
<path class="st1" d="M340.9,129.8c-25.6,0.1-51.3,1.5-76.8,4.4c-5.3,0.6-5.4,9,0,8.4c25.5-2.9,51.1-4.3,76.8-4.4
	C346.3,138.2,346.3,129.7,340.9,129.8z"/>
<path class="st1" d="M345.1,145.7c-13.8,0.9-27.5,2.3-41.2,4.2c-5.3,0.7-3,8.8,2.2,8.1c12.9-1.8,25.9-3.1,39-3.9
	C350.5,153.7,350.5,145.3,345.1,145.7z"/>
<path class="st1" d="M353.2,164.9c-28.7,7.5-56.3,19-81.7,34.2c-4.6,2.8-0.4,10,4.2,7.2c24.8-14.9,51.7-26.1,79.7-33.4
	C360.6,171.7,358.4,163.6,353.2,164.9z"/>
<path class="st1" d="M472.3,99.5c-2.8,0.6-4.9,2.8-5.5,5.6c-0.6,3,0.8,6.1,3.5,7.5c2.7,1.5,6,1.1,8.3-1c1.9-1.9,2.5-4.6,1.6-7.1
	c-1-3.1-4.2-4.9-7.3-4.2c-2.9,0.9-4.9,3.6-4.8,6.6c0.2,3.3,2.9,6,6.2,6.1c3.1,0.1,5.9-1.8,6.8-4.7c1-3.3-0.4-6.8-3.3-8.5
	c-3.2-1.7-7.1-1.1-9.7,1.5c-1.6,1.6-1.6,4.3,0,5.9c1.6,1.6,4.3,1.6,5.9,0c0.7-0.7-0.4,0.3,0,0c0.4-0.3-0.7,0.2,0.1,0
	c-1.1,0.3,0.3,0-0.4,0c-0.3-0.1-0.3-0.1,0.1,0l-0.4-0.2c-0.9-0.7,0.2,0.4-0.5-0.5c0.3,0.4,0,0,0-0.2c0.3,0.8,0-0.8,0,0
	c0-0.4,0.1-0.7,0.3-1c-0.3,0.6,0.3-0.4,0.5-0.5s0.8-0.2,0.2-0.1c0.6-0.1,0.8-0.1,0.4-0.1c-0.3,0-0.2,0,0.4,0c0.2,0,0.7,0.4,0.3,0.1
	c0.7,0.5,1.1,1.2,1.2,2.1c0-0.6,0,0.2-0.1,0.3c0.1-0.3,0.1-0.3,0,0c-0.1,0.3-0.2,0.5-0.5,0.7c0.4-0.5-0.3,0.2-0.5,0.3
	c-0.8,0.3-1.6,0.2-2.3-0.1l-0.5-0.4c0.2,0.2,0.2,0.2,0,0c0-0.1-0.5-1.2-0.3-0.6s0-0.8,0-0.3c0,0.5,0.3-1,0-0.3
	c0.2-0.4,0.5-0.8,0.8-1.2c0.3-0.2,0.3-0.2,0.1-0.1c-0.2,0.1-0.1,0.1,0.4-0.2c-0.7,0.3,0.7,0,0.2,0c-0.5,0,1,0.3,0.2,0l0.5,0.2
	c-0.3-0.2-0.3-0.2,0,0c0.3,0.2,0.3,0.2,0,0l0.3,0.4c0.1,0.2,0.2,1.2,0.2,0.9c0-0.3-0.3,0.9,0,0.1l-0.2,0.5c0.2-0.3,0.2-0.3,0,0
	c-0.2,0.3-0.2,0.3,0,0l-0.4,0.3c0.6-0.5-0.8,0.2,0,0c2.2-0.6,3.5-2.9,2.9-5.2C476.7,100.2,474.4,98.9,472.3,99.5L472.3,99.5z"/>
<path class="st1" d="M367.2,97.9c-4.7,1.1-7.6,5.9-6.4,10.6c0.5,2,1.7,3.8,3.4,5c5.8,4.1,14.9-1,12.8-8.3c-1-3.4-4.1-5.6-7.6-5.5
	c-3.3,0.1-5.9,2.9-5.7,6.1c0,0.5,0.1,1.1,0.3,1.6c1,3.2,4.4,5,7.6,4c0.4-0.1,0.7-0.3,1.1-0.4c3-1.8,4.1-5.6,2.5-8.7
	c-1.9-3.3-6.2-4.3-9.4-2.4c-0.1,0-0.2,0.1-0.2,0.1c-3.4,2.4-4.3,7.1-1.9,10.6c0,0,0.1,0.1,0.1,0.1c1.2,2,3.7,2.6,5.7,1.5
	c2-1.2,2.7-3.7,1.5-5.7c-0.6-0.8-0.1-0.1-0.7,0.5c-1.3,1.1-3-0.9-2.5-2.2c0.2-0.5,0.7-0.8,1.2-0.8c0.7-0.7,1.8-0.8,2.6-0.1
	c0,0,0.1,0.1,0.1,0.1c1.3,1.2-0.2,5-1.9,4c-0.6-0.3-0.5-0.2-0.6-0.9c0-0.1,0.1-0.2,0.2-0.3c0-0.4,0,0.4-0.3,0c-0.1-0.1,0.4,0,0.4,0
	s-0.6-0.4-0.3-0.2c-0.2-0.1-0.2-0.7-0.2-0.3c0,0.4,0-0.1,0.1-0.3c-0.3,0.3,0.3-0.2,0.3-0.2c-0.3,0.2-0.2,0.1,0.3,0
	c2.2-0.6,3.5-2.9,2.9-5.2c-0.6-2.2-2.9-3.5-5.2-2.9l0,0L367.2,97.9z"/>
<path class="st1" d="M376.2,202.1c-29.5,39.8-38.5,88.4-42.1,136.8c-2,26.8-4.6,54.3-2.4,81.2c0.9,10.9,3,21.5,9.5,30.5
	c6.1,8.1,13.8,14.8,22.8,19.6c21.8,12.4,47.3,16.2,72,16.2c14.1-0.1,28.1-1.1,42-2.9c11.9-1.5,24.2-3,35.5-7.1
	c22-8,36.4-28.2,44.7-49.3c8.6-21.8,10.1-45.7,9.8-68.9c-0.2-14.9-2-29.2-7.3-43.2c-5.2-13.5-11.5-26.7-17.5-39.9
	c-12.8-27.9-27-55.2-45.2-79.9c-3.2-4.3-10.5-0.1-7.2,4.2c14.8,20.1,27,41.8,37.9,64.3c5.3,11,10.3,22.1,15.3,33.3
	c5,11.2,10.5,22.7,13.2,34.8s2.7,24.8,2.5,37.1c-0.1,11.1-1.1,22.1-3,33c-4,21.5-13.4,43.7-30.5,58.1c-9.1,7.7-21,10.8-32.5,12.9
	c-12.7,2.2-25.5,3.7-38.3,4.6c-24.4,1.7-49.6,0.8-72.8-7.8c-19.9-7.3-38.2-20.5-41.7-42.7c-4-24.9-0.8-51.4,0.8-76.4
	c3.3-50.9,10.6-102.1,41.8-144.2C386.7,202.1,379.4,197.9,376.2,202.1L376.2,202.1z"/>
<path class="st1" d="M534.9,274.3c-7.7,8.9-11.8,20.1-14.8,31.3c-3.7,14.4-6.5,29.1-8.3,43.9c-4.1,30.3-5.9,60.8-5.2,91.4l7.2-3
	c-8.5-6.9-18.2-2.9-23.1,6.4c-5.3,10.2-5.4,23.3-2.3,34.1c1.5,5.2,9.6,3,8.1-2.2c-1.9-6.8-2.2-14-0.7-20.9c1-4.7,5.4-16.8,12.1-11.4
	c2.7,2.1,7.2,1,7.2-3c-0.7-28.7,0.8-57.3,4.4-85.8c1.7-13.8,4.1-27.6,7.2-41.2c2.8-11.7,6.2-24.4,14.2-33.7c3.5-4.1-2.4-10-5.9-5.9
	L534.9,274.3z"/>
<path class="st1" d="M381.3,304.7l-8.5,107.1c-0.3,4.3-0.2,9.1-1.1,13.3c-0.9,4.2-3.9,6.3-6.3,9.7c-3.5,4.7-5.4,10.5-3.6,16.3
	c1.2,4.6,5.4,7.7,10.1,7.8c5.9-0.1,9.7-5.6,15.3-6.7l-5.3-4c0.2,7.8,2.2,20.5,12.4,20.4c13,0,12.6-16.9,11.2-25.7l-7,4.1
	c3.3,4.1,8,8.7,13.7,8.7c4.6-0.2,8.6-3.5,9.4-8.1c1.1-4.8-0.9-10-3.8-13.8c-1.9-2.5-4.4-4.6-6.4-7.1c-2.9-3.6-2.6-7.4-2.4-11.8
	c1.4-33.8,2.9-67.7,4.3-101.5c0.2-5.4-8.2-5.4-8.4,0l-3.6,81.4c-0.3,6.7-0.6,13.4-0.8,20.1c-0.2,5.1-0.3,9.9,2.4,14.5
	c2.5,4.1,6.8,6.8,9.1,10.9c0.9,1.6,2.7,6.1,0.1,7c-2.2,0.8-6.6-4.8-7.7-6.2c-2.9-3.6-7.6,0.5-7,4.1c0.3,2.1,1.7,18.7-4.4,14.3
	c-2.7-2-2.6-8.4-2.7-11.3c-0.1-2.4-2-4.2-4.4-4.2c-0.3,0-0.6,0.1-1,0.1c-2.2,0.5-4.4,1.3-6.3,2.6c-1.7,1-3.9,3.4-5.8,3.5
	c-4.2,0.3-3.6-5.1-2.2-7.9c1.5-3.2,4.4-5.4,6.4-8.2c3.5-4.8,3.3-10.6,3.8-16.3l1.8-22.6l7.3-90.4
	C390.1,299.3,381.7,299.3,381.3,304.7L381.3,304.7z"/>
<path class="st1" d="M434.8,317c-2,35.1-2.8,70.6-6.2,105.6c-0.8,8.3-2.9,16.3-4.1,24.5c-0.8,5.6-0.5,12,3.8,16.3
	c10,10,19.2-4.7,22.1-13h-8.1c1.3,7.8,4.9,18.9,15,17.4c9.4-1.4,12.1-12.2,7.9-19.6c-2.7-4.8-9.5-0.6-7.2,4.2
	c1.9,4.2,4.8,8.6,9.9,8.7c4.6,0,7.4-3.5,7.8-7.7c0.5-5.8-1.9-12.4-4.8-17.3c-1.5-2.6-4.2-4.9-5.2-7.8c-0.9-2.9,0-7.4,0.3-10.5
	l7.9-94.4c0.5-5.4-7.9-5.3-8.4,0l-6.1,73.2l-1.5,18.9c-0.4,4.4-1.3,9.1-0.5,13.4c0.8,4.7,4,7.6,6.3,11.5c1.6,2.6,2.7,5.4,3.2,8.3
	c1.2,6.2-0.9,1.3-1.7-0.5l-7.3,4.2c2.6,4.6-1.8,9.4-5.3,4.4c-1.5-2.3-1.8-6-2.2-8.6c-0.7-4.4-6.9-3.5-8.1,0
	c-1.2,3.5-7.2,15.3-9.6,5.9c-1.4-5.5,1.6-12.6,2.6-18.1c2.2-12.7,2.7-25.7,3.4-38.6l4.6-80.4C443.5,311.6,435.1,311.6,434.8,317
	L434.8,317z"/>
<path class="st1" d="M717.9,31.9c0,62.7,10.9,139.2,78.9,162.7c28.1,9.7,65,15.8,92.6,1.7c24.6-12.6,39.2-39.5,45.7-65.5
	c9.7-39.5,1.4-80.8-7-119.7c-0.6-2.6-4.6-3.9-6.3-1.7l-15.9,20.2c-2.7,3.4-5.3,7.7-8.5,10.7c-3.8,3.6-9,2.8-13.8,2.9l-55.7,1.9
	L773.5,47c-9.1,0.3-20.3,2.4-29.1-0.7c-8.2-2.9-13.5-10.6-18.3-17.4c-2.8-3.9-9.4-0.2-6.6,3.8c4.4,6.2,9,12.7,15.3,17.2
	c7.1,5,15.2,5.5,23.6,5.2c22.1-0.6,44.2-1.5,66.3-2.2c22.1-0.7,44.3-0.6,66.3-2.2c7.8-0.6,11-4,15.7-10l20.4-25.9l-6.3-1.7
	c7.1,32.9,14,66.8,9.8,100.6c-3.2,26-14.2,53.8-35.5,70.1c-24.5,18.7-58.7,14-86.6,6.4c-29.6-8-51.6-26-65.1-53.5
	c-15.9-32.3-17.8-69.3-17.8-104.7C725.4,27.1,717.8,27.1,717.9,31.9L717.9,31.9z"/>
<path class="st1" d="M910.6,47l-7.1,12c-2.5,4.2,4.1,8,6.6,3.8l7.1-12C919.7,46.6,913.1,42.8,910.6,47z"/>
<path class="st1" d="M911.6,51.3l4.6,11.4c0.6,2,2.7,3.1,4.7,2.7c2-0.6,3.2-2.7,2.7-4.7l-4.6-11.4c-0.6-2-2.7-3.1-4.7-2.7
	C912.2,47.2,911.1,49.3,911.6,51.3z"/>
<path class="st1" d="M731.6,63.2v11.4c0,4.9,7.6,4.9,7.6,0V63.2C739.2,58.3,731.6,58.3,731.6,63.2z"/>
<path class="st1" d="M734.8,67.6c3.4,2.9,7.1,5.5,10.9,7.9c4.2,2.6,8-4,3.8-6.6c-3.3-2-6.4-4.2-9.3-6.7c-1.5-1.4-3.9-1.4-5.4,0
	C733.3,63.7,733.3,66.1,734.8,67.6L734.8,67.6z"/>
<path class="st1" d="M790.6,72.3l0.9,9.1c0.1,2.1,1.7,3.7,3.8,3.8c2.1,0,3.8-1.7,3.8-3.8l-0.9-9.1c-0.1-2.1-1.7-3.7-3.8-3.8
	C792.3,68.5,790.7,70.2,790.6,72.3z"/>
<path class="st1" d="M775,80.1c1.1,3.3,3,6.2,5.5,8.5c1.5,1.4,3.9,1.4,5.4,0c1.5-1.5,1.5-3.9,0-5.4c-0.8-0.7-1.5-1.5-2.1-2.4
	c-0.6-0.9-1.1-1.8-1.4-2.8c-0.6-2-2.7-3.2-4.7-2.7C775.6,76,774.4,78.1,775,80.1L775,80.1z"/>
<path class="st1" d="M763.8,90.8l6.8,4.6c1.8,1.1,4.1,0.4,5.2-1.4c1.1-1.8,0.4-4.1-1.4-5.2l-6.8-4.6c-1.8-1.1-4.1-0.4-5.2,1.4
	C761.3,87.4,762,89.8,763.8,90.8C763.8,90.8,763.8,90.8,763.8,90.8z"/>
<path class="st1" d="M872.4,70.6l-3.2,9.8c-1.5,4.6,5.8,6.6,7.3,2l3.2-9.8C881.2,68,873.9,66,872.4,70.6z"/>
<path class="st1" d="M886.8,75.7c-2.1,2.5-3.8,5.3-5.2,8.3c-1,1.8-0.4,4.1,1.4,5.2c1.8,1,4.1,0.4,5.2-1.4c1.1-2.4,2.4-4.7,4-6.8
	c1.4-1.5,1.4-3.9,0-5.4C890.6,74.2,888.2,74.2,886.8,75.7L886.8,75.7z"/>
<path class="st1" d="M899.6,84c-2.1,1.9-3.7,4.3-4.8,7c-0.6,2,0.6,4.1,2.7,4.7c2,0.5,4.1-0.7,4.7-2.7c-0.2,0.4-0.1,0.2,0,0l0.3-0.6
	c0.3-0.5,0.6-0.9,0.8-1.3s-0.3,0.3,0,0l0.5-0.5c0.4-0.4,0.7-0.7,1.1-1.1c1.5-1.5,1.5-3.9,0-5.4C903.4,82.7,901,82.7,899.6,84
	L899.6,84z"/>
<path class="st1" d="M790.2,95.3c-1,1.1-1.5,2.5-1.5,3.9c0.1,1.5,0.7,2.9,1.7,3.9c1.8,2.1,4.8,2.5,7.2,1.1c2.5-1.7,3.2-5,1.7-7.6
	c-1.2-2.4-3.9-3.7-6.5-3c-2,0.6-3.2,2.6-2.6,4.7c0.6,2,2.6,3.2,4.7,2.6c0.4-0.1,0.2-0.1-0.6,0c-0.7-0.1-1-0.2-0.7-0.1
	c0.3,0.1,0.1,0-0.6-0.3l0.2,0.1c-0.2-0.1-0.8-0.7-0.3-0.2c-0.7-0.8-0.5-0.6-0.3-0.3c0.2,0.3-0.3-0.9-0.2-0.3s0-1.1,0-0.3
	c0,0.3,0.3-1.1,0-0.4l0.3-0.7c0.5-0.6,0.6-0.7,0.3-0.4c0.6-0.4,0.7-0.5,0.5-0.4c-0.3,0.2-0.1,0.1,0.5-0.2c0.8-0.1,1-0.1,0.6-0.1
	l0.7,0.1c-0.6-0.1,0.9,0.5,0.3,0.1c-0.2-0.2,0.8,0.7,0.2,0.2c-0.6-0.6,0.5,0.8,0.2,0.3c-0.3-0.5,0.3,0.9,0.1,0.3c-0.2-0.6,0,1,0,0.4
	c-0.1,0.8-0.1,1,0,0.6c-0.1,0.4-0.3,0.8-0.7,1.2c0.7-0.7,1.1-1.7,1.1-2.7c0-2.1-1.7-3.8-3.8-3.8c-1,0-2,0.4-2.7,1.1L790.2,95.3z"/>
<path class="st1" d="M877.6,91.9c-3.2-1.6-7.1-0.6-9.1,2.4c-2,3.1-1,7.2,2.1,9.2c0,0,0,0,0,0c2.9,2,6.8,1.4,8.9-1.4
	c2.1-2.7,1.9-6.5-0.3-9c-1.5-1.5-3.9-1.5-5.4,0c-1.4,1.5-1.4,3.9,0,5.4c-0.7-0.8,0.1,0.4-0.4-0.6c0.3,0.6,0-0.5,0-0.1s0.2-0.8,0-0.1
	c-0.2,0.7,0.4-0.6,0,0l0.3-0.4c-0.2,0.2-0.2,0.2,0,0c0.2-0.1,1-0.3,0.3-0.2c1.2-0.2-0.6-0.1,0.6,0c-0.7,0,0.4,0.2,0,0
	c-0.4-0.2-0.2-0.1,0,0c0.2,0.1,0.2,0.2,0-0.1l0.3,0.3c-0.2-0.3-0.2-0.3,0,0c0,0.2,0.1,1,0.1,0.4c0,0.2-0.4,1.2-0.1,0.7l-0.3,0.3
	c0.3-0.2,0.3-0.2,0,0c-0.4,0.4,0.1-0.1,0.3-0.1c-0.5,0.2-0.5,0.2-0.3,0.2c0.3-0.1,0.2-0.1-0.3,0c0.6,0-0.4-0.1-0.6-0.2
	c1.8,1,4.1,0.4,5.2-1.4C879.9,95.3,879.3,93,877.6,91.9L877.6,91.9z"/>
<path class="st1" d="M830.1,113.2c-2.2,5.9-4.5,11.7-6.9,17.5c-0.9,2.1-0.3,4.9,2.3,5.6c4.6,1.2,9.4,1.6,14.2,1.4
	c3.4-0.2,7.4-0.5,8.8-4.1c1.3-3.2-0.8-6.9-2.1-9.8c-1.9-4.1-4.3-7.9-7.2-11.3c-3-3.8-8.4,1.6-5.4,5.4c1.6,1.9,3,4,4.2,6.2
	c0.4,0.7,2.8,6.8,3,6.8l1.3-1.1c-0.7,0.1-1.4,0.2-2,0.2c-1.2,0.1-2.5,0.2-3.7,0.1c-3.1-0.1-6.2-0.5-9.2-1.2l2.3,5.6
	c2.7-6.4,5.3-12.8,7.7-19.3C839,110.6,831.7,108.6,830.1,113.2L830.1,113.2z"/>
<path class="st1" d="M900.8,121.6c23.5-0.8,47-1,70.6-0.6c4.9,0.1,4.9-7.5,0-7.6c-23.5-0.4-47-0.2-70.6,0.6
	C895.9,114.2,895.9,121.8,900.8,121.6z"/>
<path class="st1" d="M904.6,141.3l39.5,4.6c4.8,0.5,4.8-7,0-7.6l-39.5-4.6C899.7,133.2,899.8,140.8,904.6,141.3z"/>
<path class="st1" d="M896,160c20.7,5.1,41.2,11,61.4,17.6c4.7,1.5,6.6-5.8,2-7.3c-20.2-6.6-40.7-12.4-61.4-17.6
	C893.3,151.5,891.3,158.8,896,160z"/>
<path class="st1" d="M755.1,117.1c-17.1,0.8-34.1,2.5-51,5c-4.8,0.7-2.8,8,2,7.3c16.2-2.4,32.6-4,49-4.8
	C760,124.4,760,116.8,755.1,117.1z"/>
<path class="st1" d="M758.6,133.8c-9,1.8-17.8,4.2-26.5,7c-4.6,1.5-2.6,8.8,2,7.3c8.7-2.9,17.5-5.2,26.5-7
	C765.4,140.2,763.4,132.9,758.6,133.8z"/>
<path class="st1" d="M774.5,151.8c-20.2,4.9-39.6,12.5-57.7,22.8c-4.2,2.4-0.4,9,3.8,6.6c17.5-9.9,36.3-17.3,55.9-22
	C781.3,158,779.3,150.7,774.5,151.8L774.5,151.8z"/>
<path class="st1" d="M775,183.1c-27.5,46.9-46,98.6-54.3,152.3c-7.1,46.6-6.4,103.5,35.4,134.5c20.3,15.1,47.1,17.3,71.5,19
	c25.6,1.8,53.9,2.4,77.4-9.4c42.2-21,59-71,56.1-115.3c-2-31.2-11.5-61.5-22.9-90.4c-11.5-29-25.5-57-42.1-83.5
	c-2.6-4.1-9.1-0.3-6.6,3.8c26.7,42.9,49.2,90.8,59.7,140.5c9.5,44.6,4.9,96.3-32.1,127.7c-19.2,16.3-43.2,19.7-67.7,19.7
	c-13.2-0.1-26.5-0.9-39.6-2.5c-13.1-1.5-26.6-3.5-38.6-9.3C725.1,448,721,389.7,726.9,345c7.5-55.8,26.1-109.5,54.6-158.1
	C784,182.7,777.5,178.9,775,183.1L775,183.1z"/>
<path class="st1" d="M786.3,296.1c2.9,38.4,0.3,76.9-3,115.2c-0.4,4.2,0,9.1-1.2,13.2c-1.4,4.6-4.7,5.4-7.6,8.4
	c-3.3,3.2-4.3,8.2-2.5,12.4c5.7,14.2,19.7,6.4,27.1-1.3l-6.5-2.7c-0.3,7,0.2,17.6,8.6,19.7c9.3,2.4,14.4-7.8,15.9-15.2l-5.6,2.3
	c3.8,2.5,8.3,4.8,12.8,2.9c4.1-1.7,6.5-6,5.7-10.4c-0.9-5.6-6.4-7.8-9.4-12.1c-4.4-6.2-4.4-14.9-4.3-22.2c0.4-36,0.6-71.5-2.8-107.4
	c-0.5-4.8-8.1-4.9-7.6,0c2.9,29.3,4,58.8,3.4,88.3c-0.2,11.5-1.7,23.4,0.7,34.8c0.8,4.4,2.6,8.5,5.3,12c1.4,1.7,3.8,3,4.9,4.7
	c2.3,1.3,2.1,3.1-0.3,5.4c-1.6-0.6-3.1-1.5-4.6-2.5c-1.8-1-4.2-0.4-5.2,1.4c-0.2,0.3-0.3,0.5-0.4,0.8c-0.8,3.6-4.1,13.8-8.8,7.3
	c-1.7-2.3-1-7.2-0.9-9.9c-0.1-2.1-1.8-3.8-3.9-3.7c-0.9,0-1.9,0.4-2.5,1.1c-2.4,2.5-5.7,6.8-9.3,7.2c-5.8-0.9-6.9-3.9-3-8.8
	c1.1-0.7,2.1-1.4,3.1-2.2c2.8-2.2,4.6-5.3,5.2-8.8c2.6-13.2,2.5-27.8,3.5-41.3c2.2-29.5,3.2-59.2,0.9-88.6c-0.4-4.8-8-4.9-7.6,0
	L786.3,296.1z"/>
<path class="st1" d="M827.4,309c3.3,38.9,7.6,77.8,9.7,116.8c0.5,8.9-0.2,16.3-5.5,23.7c-2.9,4.1-4.8,8.4-2.2,13.2
	c7.2,13.1,22.1,3.8,29.2-3.6l-6.3-3.7c-1.3,8.1,4.9,17.1,13.9,15.2c8.4-1.7,11.4-11.7,7.6-18.6l-4.3,5.6c7.4,2.2,21.7,0.9,17.9-10.6
	c-1.8-5.6-7.9-8-13-9.1s-8.7-2-9.9-8.1c-0.9-4.4-0.3-10-0.5-14.5l-3.7-115.4c-0.2-4.9-7.7-4.9-7.6,0l3,95.9l0.8,24
	c0.2,5.4-0.6,11.8,1.6,16.9c1.9,4.3,5.6,6.4,10,7.6c2.3,0.7,7.9,0.6,9.5,2.5c1.4,4,0.5,5.5-2.7,4.4c-1.1-0.2-2.3-0.5-3.4-0.9
	c-2.1-0.5-4.1,0.8-4.6,2.8c-0.2,0.9-0.1,1.9,0.4,2.7c4,7.2-9,9.6-7.6,1.5c0.6-3.5-3.5-6.6-6.3-3.7c-2.4,2.5-4.9,5.5-8.2,6.9
	c-7.1,3.1-10.6-2.3-6.3-8.1c3-4.2,4.9-9,5.5-14.2c1.8-12.4-0.7-25.5-1.7-37.8l-7.7-91.5c-0.4-4.8-8-4.9-7.6,0L827.4,309z"/>
<path class="st1" d="M934.8,280.7c-14.3,6.4-19,22.6-21.4,36.8c-3.7,22.5-5.7,45.3-5.8,68.1c-0.1,11.7,0.3,23.4,1.1,35.1
	c0.5,6.3,2.7,13-2.5,17.4c-2.7,2.3-5.8,3.8-8.3,6.6c-9.4,10.2-12.6,25.7-5.2,37.9c2.5,4.2,9.1,0.4,6.6-3.8c-4.2-7-4-15.1-0.3-22.3
	c1.6-3.2,3.8-6.1,6.4-8.5c2.8-2.5,6.5-3.7,9.1-6.2c5.3-5.1,2.3-14.7,1.8-21c-0.7-10.2-1.1-20.5-1.1-30.7
	c-0.1-20.7,1.4-41.3,4.2-61.8c2.1-14.6,4-34.1,19.3-41c4.4-2,0.6-8.5-3.8-6.6L934.8,280.7z"/>
<path class="st1" d="M638.1,230.9c-3.9,5.2-9.1-2.8-8.3-6.9c0.9-3.5,3.2-6.6,6.3-8.6c6.4-4.6,15.1-5.2,22.7-5.8
	c14.3-1.1,26.1,3.8,33.7,16.4c14,23.2,4,55.4-4.6,79c-16.2,44.2-45,82.8-82.7,111c-20.9,15.7-44.4,27.8-69.3,35.8
	c-4.6,1.5-2.7,8.8,2,7.3c57.2-18.2,106.4-58.1,137.1-109.5c15.4-25.8,27.3-55.4,30.8-85.3c3.7-30.5-10.6-64.4-45.9-62.4
	c-14.2,0.8-35.8,4.1-37.9,21.9c-1.5,13,13.7,22.6,22.4,10.9C647.5,230.7,640.9,226.9,638.1,230.9L638.1,230.9z"/>
<path class="st1" d="M641.3,236.9c8.1-4.8,21.1-12.5,29.7-4.2c7.1,6.8,3,23.9,0.8,32.3c-5,18.2-15.7,34.5-27,49.5
	c-21.6,28.8-48,56.9-83.5,67.4c-4.7,1.4-2.7,8.7,2,7.3c42.7-12.7,74.9-49.5,98.3-85.7c11.9-18.4,23-41.5,20.1-64
	c-1.1-8.9-6.4-15.3-15.3-17.3c-10.6-2.4-20.3,2.9-29.1,8.1C633.2,232.9,637,239.5,641.3,236.9L641.3,236.9z"/>
<path class="st1" d="M631.4,211.8c-7.9-11.3-22-15.2-35.1-11.7c-15.5,4.2-25,18.7-27.2,34c-6.1,42,34.4,69.3,54.3,100.7
	c2.6,4.1,9.1,0.3,6.6-3.8c-16.7-26.4-46.7-47.2-53-79.3c-2.8-14.1,0.5-31.2,12.6-40.1c10.5-7.6,27.4-7.1,35.2,4.1
	C627.6,219.6,634.2,215.8,631.4,211.8L631.4,211.8z"/>
<path class="st1" d="M650,376.7c19.5,38.5,55.4,66.1,94.1,83.5c4.4,2,8.3-4.6,3.8-6.6c-37.7-16.9-72.5-43.3-91.4-80.8
	C654.3,368.5,647.7,372.4,650,376.7L650,376.7z"/>
<path class="st1" d="M632.6,233.3c-6.6-8.9-15.9-16.9-27.8-15.2c-10.9,1.7-16.7,12-15.8,22.4c1.2,13.9,12.6,25.8,20.3,36.6l30,41.9
	c2.8,3.9,9.4,0.2,6.6-3.8c-12.9-18-25.7-36-38.6-53.9c-5.7-8-13.8-18.2-9.8-28.6c5.8-15,22.4-3.9,28.5,4.3
	C629,240.9,635.5,237.1,632.6,233.3L632.6,233.3z"/>
<path class="st1" d="M672.1,351.8c13.8,13.2,28.7,25.1,44.7,35.6c4.1,2.7,7.9-3.9,3.8-6.6c-15.4-10.1-29.9-21.6-43.1-34.4
	C673.9,343.1,668.6,348.4,672.1,351.8L672.1,351.8z"/>
<path class="st1" d="M833.2,136.8c-0.2,10.3,1.2,22.2,10.9,28.2c9.6,6,19.8,0.4,27.5-5.8c3.8-3-1.6-8.4-5.4-5.4
	c-5.7,4.6-13.9,9.4-20.3,3c-5.2-5.2-5.2-13.2-5.1-20C840.9,131.9,833.3,131.9,833.2,136.8L833.2,136.8z"/>
<path class="st1" d="M832.8,139.8l1.2,11.8c0.3,3.4,2.5,9.3-1,11.6c-7.5,4.9-14.6-3.5-14-10.5c0.4-4.9-7.1-4.8-7.6,0
	c-1,9.5,5.9,18.1,15.4,19.1c1.5,0.2,3.1,0.1,4.7-0.1c5-0.9,10.5-4,11-9.5c0.7-7-1.3-15.2-2.1-22.3c-0.5-4.8-8.1-4.9-7.6,0
	L832.8,139.8z"/>
<path class="st1" d="M416.4,120.4l-5.9,13.1c-1.3,2.8-3.8,6.5-3.9,9.7c-0.4,8.2,11.1,5.6,15.8,5.3c4.6-0.3,15.9,1.2,14.8-6.7
	c-0.5-3.4-3.3-6.5-5.1-9.3l-7.8-12.4c-2.6-4.1-9.1-0.3-6.6,3.8l6.4,10.1c1.8,2.8,5.2,6.6,5.8,9.8l0.4-2.9c1.6-0.5,1.7-0.6,0.4-0.4
	l-2.7,0.2l-5.5,0.3l-4.6,0.2l-2.7,0.2c-2.1-0.2-2.4,0-1,0.5c1,0.8,1.5,0.4,1.5-1.3l0.7-1.6l2.2-4.9l4.5-9.8
	C424.9,119.8,418.4,116,416.4,120.4L416.4,120.4z"/>
</svg>
