<svg id="Layer_1" data-name="Layer 1" xmlns="http://www.w3.org/2000/svg" viewBox="0 0 725 343"><defs><style>.cls-1{fill:#e5ab1a;}.cls-2,.cls-3{fill:#311c4b;}.cls-3{stroke:#311c4b;stroke-miterlimit:10;stroke-width:4px;}</style></defs><title>4Purrfect</title><path class="cls-1" d="M266.1,200.19a25.09,25.09,0,0,1,7.39,18.48,23.77,23.77,0,0,1-7.39,17.79q-7.4,7.17-18.48,7.16h-19.4v59.6A27.62,27.62,0,0,1,200,331.4a26,26,0,0,1-19.4-8.09q-7.86-8.08-7.85-20.1v-59.6H52.65q-10.17,0-18.94-8.09t-8.78-19.17a28.18,28.18,0,0,1,6.93-18.48l146-178.8A28,28,0,0,1,201,8a26,26,0,0,1,19.4,8.09,27.72,27.72,0,0,1,7.85,20.1V192.8h19.4A25.09,25.09,0,0,1,266.1,200.19ZM97.93,192.8h74.84V100.4Z"/><path class="cls-2" d="M515.47,96.46c-7.7-26.36-27.75-50.15-54.64-58-15.69-4.58-33.72-3.06-48.84,3a44.83,44.83,0,0,0-18.24,12.84c-3.71,4.41-7.51,11.22-12.67,14.62C372.79,58.38,363.16,48.84,351.55,42S327,31.6,313.72,30.09c-28.94-3.28-55.78,13.24-71.22,37.26-8.66,13.47-11.6,28.58-9.14,44.38,2.61,16.79,9.53,33.43,16,49.08,12.73,31,31.21,60.14,54.52,84.25,13.61,14.07,28.7,26.59,43.85,39,14.9,12.16,28.87,25.89,45.78,35.3a6.72,6.72,0,0,0,7.84-1.79c16.69-25.78,41-44.75,60.75-68,18.61-21.93,34.88-46.17,45.81-72.86C518.16,151.52,523.23,123,515.47,96.46Zm-16.15,74.82c-9.93,25.39-25.51,48.72-43,69.55-19.64,23.44-43.74,42.66-61.16,67.92-12.54-7.59-23.43-17.53-34.61-27-12.11-10.22-24.55-20-36.23-30.74a265,265,0,0,1-56.7-74.14c-7.19-14-12.69-28.69-18-43.49-5.35-15-10.19-31.44-5.21-47.25,7.35-23.33,32.68-45.7,57.67-46.72a84,84,0,0,1,40.36,9c12.88,6.61,23.11,16.76,31.95,28.07a4.78,4.78,0,0,0,1.47,1.28,4,4,0,0,0,5.39,2c11.67-4.69,15.79-17.26,25.44-24.36,11.11-8.17,28.06-10.77,41.53-9.37,26.85,2.79,48.2,25,56.49,49.71C513.16,120.69,508.68,147.36,499.32,171.28Z"/><path class="cls-2" d="M371,98c0-6.43-10-6.45-10,0,0,4.71,1.52,37.73-9.26,32.86-4.09-1.85-4.73-10.57-5.15-14.28A153.41,153.41,0,0,1,346,100c0-6.43-10-6.45-10,0,0,12-1.48,36.75,13.73,40.72,9.5,2.48,16.6-5.28,19.1-13.55C371.67,117.8,371,107.67,371,98Z"/><path class="cls-2" d="M411.52,129.68c-6.55-4.65-12.12-10.48-17.9-16,5.57-5.43,11.36-10.94,9-19.7-2.44-9-13.19-13.7-21.39-9-17.18,9.88-2.87,37.38-3.22,52-.16,6.44,9.84,6.43,10,0,.14-5.8-1.2-11.57-2.53-17.34,6.83,6.43,13.31,13.19,21,18.65C411.73,142.05,416.73,133.38,411.52,129.68Zm-28-20a37.73,37.73,0,0,1-.17-10.62c.63-4.44,6.36-9.28,9.31-3.44C395.34,101,387,106.22,383.49,109.68Z"/><path class="cls-2" d="M329.27,154.48c-3.29-9-13.53-13.36-21.8-7.8a4.9,4.9,0,0,0-2.2,4.94A5.49,5.49,0,0,0,305,153c-.86,12.46.79,26,5.68,37.52,2.51,5.9,11.12.81,8.63-5a52.74,52.74,0,0,1-3-9.89C325.77,173.07,333,164.64,329.27,154.48Zm-14.31,11a92.82,92.82,0,0,1,0-11.27c2.2-.43,3.94.85,4.91,3.44C321.31,161.63,318.77,164.16,315,165.52Z"/><path class="cls-2" d="M370.82,149.67c-2-6.11-11.61-3.5-9.64,2.66,1.33,4.16.28,9.46-.68,13.66-.76,3.32-2.49,12.09-6.43,13.33-6.14,1.94-9.83-25.35-11.25-29.65-2-6.08-11.67-3.48-9.64,2.66,2.73,8.27,3.29,17.06,6.69,25.16,2.94,7,9.37,14.42,17.77,11.14,6.85-2.68,10.07-11,11.88-17.52S372.94,156.3,370.82,149.67Z"/><path class="cls-2" d="M409.52,178.68c-4.7-3.39-10.17-6.47-14.86-10.24a12.84,12.84,0,0,0,2.91-1,13.3,13.3,0,0,0,7.18-10.5c.81-8.43-7.4-12.81-14.86-11.71-18.63,2.75-12.61,28.71-9.72,41.11,1.46,6.26,11.11,3.61,9.64-2.66-.61-2.63-1.17-5.28-1.64-7.94,5.15,4.19,10.91,7.71,16.29,11.59C409.7,191.09,414.7,182.42,409.52,178.68ZM394.87,155.8c.54,2.85-4.07,3.54-7.81,3.86a7,7,0,0,1,1.29-3.08C389.62,155,394.59,154.28,394.87,155.8Z"/><path class="cls-2" d="M444.52,176.68c-3.74-2.68-9.27-5.06-13.18-8.43a12.05,12.05,0,0,0,5.78-11.49c-.5-6.27-5.25-12.88-11.4-14.7-7.45-2.2-13.41,3.63-15,10.58-2.27,10.26,5,19.54,6.23,29.36.78,6.3,10.79,6.38,10,0a41.4,41.4,0,0,0-1.06-5.37c4.33,3.27,9.54,5.83,13.54,8.69C444.72,189.07,449.72,180.4,444.52,176.68Zm-22-25.17c1.12-.24,3.74,2.76,4.37,4.6,1.25,3.65-1.49,4.46-4.95,5a4.32,4.32,0,0,0-.69.17C420.47,158.1,419.55,152.16,422.48,151.52Z"/><path class="cls-2" d="M455.33,154.18a18,18,0,0,0-10.85,1.5c-2.37,1.12-3.17,4.71-1.79,6.84a5.14,5.14,0,0,0,6.84,1.79c-.81.38.5-.17.59-.2a10.82,10.82,0,0,1,1.07-.26s.7,0,.89,0,1.57.14.6,0c2.58.38,5.5-.64,6.15-3.49C459.36,158,458.1,154.59,455.33,154.18Z"/><path class="cls-2" d="M339,214h-5.84c-.1-2.32-.14-4.65-.15-7h5a5,5,0,0,0,0-10h-7a5.2,5.2,0,0,0-4.78,3.45A4.55,4.55,0,0,0,323,205c0,11.31.42,22.55,4.18,33.33,2.1,6,11.77,3.44,9.64-2.66A62.4,62.4,0,0,1,334,224h5a5,5,0,0,0,0-10Z"/><path class="cls-2" d="M365.67,229.18c-1.77.38-5.06,1.48-6.49,0-1-1-1.24-3.13-1.3-5.18a4,4,0,0,0,.45-.12c3.16-1.09,6.37-.91,9.67-.82,6.44.18,6.43-9.82,0-10a42.12,42.12,0,0,0-10.06.56,6.22,6.22,0,0,1,.61-1.83c1.41-2.61,5.19-3.25,7.78-3.92,6.23-1.61,3.59-11.25-2.66-9.64-5.3,1.37-11,3.43-13.76,8.51-2.55,4.65-2.19,10.43-1.91,15.53.27,4.92.66,10.74,4.42,14.4,4.29,4.17,10.59,3.34,15.91,2.19C374.62,237.47,372,227.82,365.67,229.18Z"/><path class="cls-2" d="M387.49,207.92h0l0,0h0Z"/><path class="cls-2" d="M399.68,225.48a21.31,21.31,0,0,1-2.07,3.84,10.69,10.69,0,0,1-1.37,1.35c-.19.21-.18.3-1.12-.31a14.78,14.78,0,0,1-2.94-3.24,32.63,32.63,0,0,1-3.06-6,36.78,36.78,0,0,1-2-7.26,17.52,17.52,0,0,1-.2-2.49c0-.44.13-2.16.1-2.22.07-.34.17-.67.25-1,.26,0,.42,0,0-.1h0l.1-.08,0-.07v0s.05,0,.07,0l.11-.13-.11.13c0,.1,0,.23,0,0l-.11.09a12,12,0,0,1,3.13,1.27c5.64,3.11,10.69-5.53,5-8.63-4.74-2.61-10.93-4.2-15.21.15-3.54,3.59-3.64,9.22-3,13.9,1.18,9,6.1,23.24,16.22,25.73,7.08,1.74,12.17-4.13,14.83-9.93S402.36,219.62,399.68,225.48Z"/><polygon class="cls-2" points="387.35 208.05 387.35 208.05 387.35 208.05 387.35 208.05"/><path class="cls-2" d="M438.33,196.18c-10.34-2-20,.88-30.33.82-6.44,0-6.44,10,0,10a78.92,78.92,0,0,0,10-.77V230c0,6.43,10,6.45,10,0V205.29a35.13,35.13,0,0,1,7.67.53C442,207,444.65,197.39,438.33,196.18Z"/><path class="cls-3" d="M593.64,49.84c-4.18-6.58-15.55-3.75-21.62-4.8-2.6-.45-3.71,4-1.1,4.45a76.69,76.69,0,0,0,9.46.64,32,32,0,0,1,7,.62c-7.86,7-15.81,13.91-24.54,19.51-4.95,3.17-11.92,7.31-18.53,8.11,1-6.71.46-14.55-5.85-16.17-3.91-1-9.92.81-11.72,5.18s1,8.83,4,11.45a15.73,15.73,0,0,0,8.36,3.93c-3.71,12.22-13.7,20-25,22.23-2.61.52-1.5,5,1.1,4.45a36.2,36.2,0,0,0,27.67-24.5c.2-.62.4-1.3.59-2,5.6-.4,11.34-2.86,16.15-5.46,11.39-6.16,21.38-15.07,31.23-23.84.9,2.94-.37,8.18-.77,10.65-.57,3.55-1.36,7.08-1.62,10.68-.21,3,3.91,2.94,4.12,0,.33-4.67,1.55-9.25,2.09-13.9C595,57.55,595.59,52.91,593.64,49.84ZM540.1,78.36a12.36,12.36,0,0,1-6.68-3c-1.54-1.35-3.91-3.93-2.81-6.33s6.27-3.26,8.11-1.79C541.39,69.35,540.73,74.89,540.1,78.36Z"/><path class="cls-3" d="M309.34,239.59c-12.33,4-22.23,12.59-32,20.79-2.9,2.43-5.9,4.75-8.77,7.2-6.56-6.19-17.93-7.06-25.91-10-3-1.11-4.33,3.72-1.33,4.82,6.85,2.51,17.6,3.3,23.48,8.57l-.65.63c-4.24,4.23-8.62,9.86-14.82,11a2.34,2.34,0,0,0-1,.45c-5-4.87-13.17-5.88-19.63-7.45-3.13-.76-4.46,4.06-1.33,4.82,5.7,1.38,14.12,2.05,18.16,6.91,5.15,6.19.23,16.2-.9,23-.52,3.15,4.3,4.5,4.82,1.33,1.28-7.7,5.36-16.82,1.9-24.39,4.68-1.06,8.45-4.31,11.84-7.57,1.6-1.54,3.18-3.05,4.77-4.55,4,8,3.5,18,5.67,26.51.8,3.12,5.62,1.8,4.82-1.33-2.34-9.18-1.76-20.3-6.66-28.71,1.38-1.23,2.77-2.45,4.23-3.63,10.77-8.77,21.16-19.22,34.68-23.58C313.71,243.43,312.41,238.6,309.34,239.59Z"/></svg>