<svg id="Layer_1" data-name="Layer 1" xmlns="http://www.w3.org/2000/svg" viewBox="0 0 725 343"><defs><style>.cls-1{fill:#e5ab1a;}.cls-2{fill:#311c4b;}</style></defs><title>5CatYawn</title><path class="cls-1" d="M541.28,127.78a100.48,100.48,0,0,1,38,37.75q13.79,24,13.79,53.35a99.07,99.07,0,0,1-17.18,56.06,123.57,123.57,0,0,1-45.66,40.92A129,129,0,0,1,468.71,331a130.78,130.78,0,0,1-36.39-5.42q-18.77-5.43-30.52-14.92a34.13,34.13,0,0,1-9-12.66,37.85,37.85,0,0,1-3.62-15.37q0-8.14,7-14.69t18.31-6.55q8.13,0,20.34,8.59,19,11.76,33.46,11.76a73.44,73.44,0,0,0,34.81-8.59,70,70,0,0,0,26-23.06,54.85,54.85,0,0,0,9.72-31.19q0-24.42-16.73-39.79a56.83,56.83,0,0,0-39.79-15.37,58.47,58.47,0,0,0-18.54,2.71,171.58,171.58,0,0,0-19.44,8.14q-8.13,4.07-12.88,5.88a27.08,27.08,0,0,1-9.72,1.81q-17.63,0-25.09-9.5a35.47,35.47,0,0,1-7.46-22.6,29.79,29.79,0,0,1,.45-6.33l14-112.13a25.76,25.76,0,0,1,9.27-15.6A27.29,27.29,0,0,1,430.74,10H561.4a24.73,24.73,0,0,1,25.32,25.32,23.26,23.26,0,0,1-7.24,17.41,24.93,24.93,0,0,1-18.08,7H449.27l-8.59,65.56q8.58-5,21.7-8.14A106.45,106.45,0,0,1,487.25,114Q517.09,114,541.28,127.78Z"/><path class="cls-2" d="M82.22,45.65a332.53,332.53,0,0,0-.53,159.53c6,24.43,15.69,47.69,33.75,65.71,17.13,17.09,38.7,30.51,60.78,40.2,46.12,20.23,98.49,22.86,144.4.48,21.71-10.58,40.1-26.71,50.81-48.59,10.86-22.19,17.2-47.15,21-71.46,8.88-56.38,2.27-114.88-19.72-167.6-1.2-2.87-5-4.78-7.52-2l-20.64,23C338.22,52,332.2,59.75,325.28,66.27c-3.78,3.57-7.81,3-12.6,2.37-5.26-.7-10.53-1.35-15.82-1.91q-15.13-1.61-30.33-2.39a562.18,562.18,0,0,0-61.81.22c-20.49,1.2-40.86,3.92-61.35,5.17-5.83.36-11.7.67-17.55.62-2.82,0-5.18,0-7.42-2-1.94-1.69-3.38-4.18-4.88-6.25L93,33.82c-1.57-2.16-5-3.3-7.07-.91a23.15,23.15,0,0,0-6,15.75c0,5.79,9,5.8,9,0a13.59,13.59,0,0,1,3.32-9.38l-7.07-.91,19.37,26.73C110.31,73,114.54,79.21,125,79.36c22.36.32,44.72-3.09,67-4.9A563.43,563.43,0,0,1,258.69,73q16.67.62,33.29,2.24Q299.8,76,307.59,77c4.91.62,10.22,2,15.15.84,4.77-1.08,8.23-4.34,11.42-7.85,3.9-4.28,7.74-8.62,11.61-12.93l25.8-28.74-7.52-2a303.39,303.39,0,0,1,22.27,141.36,295.48,295.48,0,0,1-14.41,70c-3.85,11.45-8.36,22.78-15.16,32.83A90.83,90.83,0,0,1,333,294c-40.18,27.76-92,30.57-137.37,15.12A207.42,207.42,0,0,1,134,275.36c-9.32-7.41-18-15.84-24.68-25.78a125.59,125.59,0,0,1-14.78-31.75C77.2,163.5,77.14,103.13,90.9,48c1.4-5.62-7.27-8-8.68-2.39Z"/><path class="cls-2" d="M94.5,91.82a64.65,64.65,0,0,1,4.32-13.65l-7.07.91,9.38,10.12c3.94,4.26,10.3-2.12,6.36-6.36L98.11,72.72c-1.82-2-5.89-1.71-7.07.91a74.81,74.81,0,0,0-5.23,15.8c-1.16,5.65,7.51,8.07,8.68,2.39Z"/><path class="cls-2" d="M340.65,85.94a187.81,187.81,0,0,0,20.51-16.26l-7.07-.91a88.86,88.86,0,0,1,7.79,22.44c1.17,5.67,9.85,3.27,8.68-2.39a97.7,97.7,0,0,0-8.69-24.59c-1.37-2.7-5-2.75-7.07-.91A171.08,171.08,0,0,1,336.1,78.17c-4.75,3.26-.25,11.06,4.54,7.77Z"/><path class="cls-2" d="M353.49,181.38q37.56-5.29,75.52-6.78c5.77-.23,5.8-9.23,0-9q-39.12,1.58-77.91,7.1c-5.71.8-3.28,9.48,2.39,8.68Z"/><path class="cls-2" d="M361,215.5a363,363,0,0,1,40.66,1.45c5.77.53,5.73-8.47,0-9A363,363,0,0,0,361,206.5c-5.78.12-5.8,9.12,0,9Z"/><path class="cls-2" d="M347.1,241.44a531.93,531.93,0,0,0,76.73,24.49c5.63,1.34,8-7.34,2.39-8.68a531.93,531.93,0,0,1-76.73-24.49c-5.37-2.17-7.7,6.53-2.39,8.68Z"/><path class="cls-2" d="M26.66,190.34q35-.94,70-.43c5.79.08,5.8-8.92,0-9q-35-.51-70,.43c-5.78.15-5.8,9.16,0,9Z"/><path class="cls-2" d="M106.75,209.83q-24.1,2.65-48.28,4.42c-5.74.42-5.79,9.42,0,9q24.18-1.77,48.28-4.42c5.69-.63,5.76-9.63,0-9Z"/><path class="cls-2" d="M120,235.62l-90.89,27c-5.54,1.64-3.18,10.33,2.39,8.68l90.89-27c5.54-1.64,3.18-10.33-2.39-8.68Z"/><path class="cls-2" d="M228.12,165.9l-13.07,26.47c-2.55,5.18,5.2,9.74,7.77,4.54l13.07-26.47c2.55-5.18-5.2-9.74-7.77-4.54Z"/><path class="cls-2" d="M229,168.68c2.52,4.91,4.91,9.87,7.13,14.93q1.61,3.67,3.1,7.4.85,2.13,1.66,4.28c.3.78.6,3.08.93,2l2.07-2.69q2.27-.53-1-.35l-3.77-.14-6.6-.24-14.15-.52c-5.79-.21-5.78,8.79,0,9l20.75.76c4.17.15,10.54,1.31,11.63-4.29,1-4.9-3.53-12-5.4-16.4q-4-9.31-8.59-18.3c-2.64-5.16-10.41-.61-7.77,4.54Z"/><path class="cls-2" d="M269.53,94.87A134.28,134.28,0,0,0,266,108.81c-1.1,5.66,7.58,8.08,8.68,2.39a134.28,134.28,0,0,1,3.48-13.95c1.71-5.55-7-7.92-8.68-2.39Z"/><path class="cls-2" d="M289.43,99.49a101.89,101.89,0,0,0-1.64,13.84c-.28,5.79,8.72,5.78,9,0a84,84,0,0,1,1.32-11.45A4.62,4.62,0,0,0,295,96.35c-2.19-.6-5.09.74-5.54,3.14Z"/><path class="cls-2" d="M306.59,105.34,305.82,118c-.35,5.78,8.65,5.76,9,0l.77-12.66c.35-5.78-8.65-5.76-9,0Z"/><path class="cls-2" d="M327.86,112a41,41,0,0,1-1.23,10.79c-1.42,5.62,7.26,8,8.68,2.39A50.76,50.76,0,0,0,336.86,112c-.09-5.79-9.09-5.8-9,0Z"/><path class="cls-2" d="M178.26,103l6.17,11.24c2.79,5.08,10.56.54,7.77-4.54L186,98.5c-2.79-5.08-10.56-.54-7.77,4.54Z"/><path class="cls-2" d="M152.8,111.77a91.43,91.43,0,0,0,8.41,12.7c1.5,1.92,4.79,1.57,6.36,0,1.89-1.89,1.5-4.44,0-6.36a78.1,78.1,0,0,1-7-10.88c-2.76-5.1-10.53-.56-7.77,4.54Z"/><path class="cls-2" d="M133.6,126.41l6.22,8.51c1.43,2,3.91,2.93,6.16,1.61,1.93-1.13,3.06-4.18,1.61-6.16l-6.22-8.51c-1.43-2-3.91-2.93-6.16-1.61-1.93,1.13-3.06,4.18-1.61,6.16Z"/><path class="cls-2" d="M115.69,141.29l10.23,11.8c3.8,4.38,10.14-2,6.36-6.36l-10.23-11.8c-3.8-4.38-10.14,2-6.36,6.36Z"/><path class="cls-2" d="M294.33,159c16.73,0,16.76-26,0-26s-16.76,26,0,26Z"/><path class="cls-2" d="M175,159c16.73,0,16.76-26,0-26s-16.76,26,0,26Z"/><path class="cls-2" d="M227.36,201.28a89.37,89.37,0,0,1,2.89,15.22c.23,2.46.37,4.94.38,7.42a17.43,17.43,0,0,1-.06,3s-3.13.07-3.34.1a39.11,39.11,0,0,0-21.51,10.63c-6.05,5.9-10.34,14.35-9.23,23,1,7.63,6.16,13.64,12.49,17.63,7.77,4.89,17.14,6.91,26.15,7.92,9.37,1,19.49,1.28,28.66-1.22,15.89-4.32,27.25-19.56,20-35.82-8.79-19.78-31.59-21.91-50.55-22.23-5.79-.1-5.79,8.9,0,9,14.06.23,31.64.43,40.42,13.43,3.82,5.65,4.9,12.76.76,18.58-4.62,6.5-12.85,9-20.41,9.63-13.87,1.24-33.36.36-44.1-9.82-12.82-12.15,3.38-28.21,15.94-31.32,3.29-.81,7.37-.35,10.23-2.45,2.51-1.84,3.3-4.61,3.49-7.59.57-9.09-1.19-18.74-3.56-27.47-1.52-5.58-10.2-3.21-8.68,2.39Z"/></svg>