<?xml version="1.0" encoding="utf-8"?>
<!-- Generator: Adobe Illustrator 21.1.0, SVG Export Plug-In . SVG Version: 6.00 Build 0)  -->
<svg version="1.1" id="Layer_1" xmlns="http://www.w3.org/2000/svg" xmlns:xlink="http://www.w3.org/1999/xlink" x="0px" y="0px"
	 viewBox="0 0 1862.4 500" style="enable-background:new 0 0 1862.4 500;" xml:space="preserve">
<style type="text/css">
	.st0{fill:#E4AC24;}
	.st1{font-family:'Quicksand-Bold';}
	.st2{font-size:611.4139px;}
	.st3{fill:#311C4B;stroke:#311C4B;stroke-width:0.5;stroke-miterlimit:10;}
	.st4{fill:#311C4B;}
</style>
<text transform="matrix(1 0 0 1 49.3912 458.2185)" class="st0 st1 st2">7</text>
<g>
	<path class="st3" d="M305.2,125.1c-66,72.9-65.3,192.5-7.4,269.8C359.3,477,469.9,507.6,567,480c49.7-14.1,95.4-42.5,129-81.9
		c33.2-38.9,53.4-87.6,59.8-138.2c6.3-49.8-1.7-102.2-27.9-145.4c-25-41.2-64.7-71.6-109.9-87.6C514.7-9.8,406.7,37.6,330.2,107.9
		c-10.4,9.5-20.2,19.5-29.7,29.9c-5.5,6,3.4,15,8.9,8.9C376,74,473.7,12.2,576.4,29.2c44.3,7.3,86.2,28.1,117.1,60.9
		c33,34.9,49.8,81.4,51.5,129c1.7,48.5-11,97.6-35.9,139.2c-25.4,42.3-64.1,75.5-108.8,96.1c-86.7,39.8-194.3,27.9-265.6-37.4
		c-35-32-57.8-74.6-64.8-121.6c-6.7-45.4,0.7-94.2,24.1-134.1c5.7-9.8,12.4-18.9,20.1-27.3C319.6,128,310.6,119,305.2,125.1
		L305.2,125.1z"/>
	<path class="st3" d="M339.1,106.1c39.1,31.6,67.9,73.3,91.2,117.4c24.8,47,47.4,97.7,59.1,149.7c7.3,32.1,9.1,65.2,1.6,97.4
		c-1.8,7.9,10.4,11.3,12.2,3.4c13.4-57.8-1.4-116.2-22.6-170.1c-19.5-49.7-42.4-99.2-73.5-142.8c-16.9-23.8-36.4-45.6-59.1-64
		C341.8,92.1,332.8,101,339.1,106.1L339.1,106.1z"/>
	<path class="st3" d="M314.8,147.6c90.3,88,140.1,212.4,144.5,337.6c0.3,8.1,12.9,8.2,12.7,0c-3.6-101.1-35.7-201.6-94.7-284.2
		c-16-22.3-33.9-43.3-53.5-62.4C317.9,132.9,308.9,141.9,314.8,147.6L314.8,147.6z"/>
	<path class="st3" d="M421.7,471.5c-7.9-31.2-15.8-62.3-23.6-93.5c-7.4-29.4-14.3-59-23.6-87.9c-15.7-48.1-41.2-97.7-88.2-121.6
		c-7.2-3.7-13.7,7.2-6.4,10.9c47.2,24,70.6,75.2,85.3,123.4c17.2,56.6,29.8,114.7,44.3,172C411.5,482.8,423.7,479.5,421.7,471.5
		L421.7,471.5z"/>
	<path class="st3" d="M266.3,241.7c33.9,57.5,58.4,119.8,73.7,184.7c1.9,7.9,14.1,4.6,12.2-3.4c-15.5-65.9-40.6-129.3-75-187.7
		C273.1,228.3,262.2,234.7,266.3,241.7L266.3,241.7z"/>
	<path class="st3" d="M479,291.9C535.8,214.1,631.9,132,735,171.8c7.6,2.9,10.9-9.3,3.4-12.2c-50.9-19.6-107.9-9.4-154.6,16.5
		c-47,26.1-84.2,66.4-115.6,109.4C463.3,292.1,474.3,298.4,479,291.9L479,291.9z"/>
	<path class="st3" d="M492,327c57.6-72.4,149.6-132.6,245.2-101.9c7.8,2.5,11.1-9.7,3.4-12.2c-99.8-32-197.2,29.3-257.6,105.2
		C478,324.4,486.9,333.4,492,327L492,327z"/>
	<path class="st3" d="M503,368c15.8-15.6,33-29.5,50.9-42.6c16.7-12.1,33.8-24.2,52.5-33.1c38.3-18.2,81.7-14.8,115.8,10.9
		c6.5,4.9,12.8-6.1,6.4-10.9c-34.9-26.3-80.6-31.2-120.7-14.4c-21.3,8.9-40.5,22.2-59.1,35.7c-19.3,13.9-37.9,28.7-54.8,45.5
		C488.3,364.8,497.2,373.8,503,368L503,368z"/>
	<path class="st3" d="M514.5,424.6c29.1-27.2,60.3-53.1,94-74.4c16.2-10.3,34.3-19.2,54-18.7c21.3,0.6,35.2,14.8,48.6,29.6
		c5.5,6,14.4-2.9,8.9-8.9c-13.4-14.8-27.7-29-48.3-32.4c-20.5-3.4-40.8,3.3-58.7,13c-39.2,21.4-75,52.6-107.5,82.9
		C499.6,421.3,508.6,430.2,514.5,424.6L514.5,424.6z"/>
	<path class="st3" d="M532.1,481.9c24.8-16,43.4-39.2,66.1-57.8c21.7-17.8,52.8-32.8,78.9-14.8c6.7,4.6,13.1-6.3,6.4-10.9
		c-25.2-17.3-57.1-9.4-80.8,6.6c-28.2,19.1-48.4,47.6-77,66C518.9,475.4,525.2,486.4,532.1,481.9L532.1,481.9z"/>
	<path class="st3" d="M457.5,237.8c14.6-8.7,30.8-11.3,47.3-6.8c7.9,2.1,11.2-10.1,3.4-12.2c-19.6-5.4-39.6-2.2-57.1,8.1
		C444.1,231,450.5,241.9,457.5,237.8L457.5,237.8z"/>
	<path class="st3" d="M440.9,200c29.9-27.9,71.6-19.1,107.3-10c7.9,2,11.3-10.2,3.4-12.2c-40.6-10.3-86-18-119.6,13.3
		C426,196.6,434.9,205.5,440.9,200L440.9,200z"/>
	<path class="st3" d="M404.4,156.2c34.7-23.4,74.4-45.1,117.3-45.5c36.1-0.4,71.7,15.8,90.7,47.2c4.2,7,15.2,0.6,10.9-6.4
		c-20.4-33.7-57.6-52.2-96.5-53.4c-46.9-1.5-91.1,21.6-128.9,47.1C391.3,149.8,397.6,160.8,404.4,156.2L404.4,156.2z"/>
	<path class="st3" d="M386,132.2c35.6-41.7,88.4-68.8,144-66.7c54.9,2.2,105.1,33.8,134.9,79.2c4.4,6.8,15.4,0.4,10.9-6.4
		c-24.7-37.7-61.9-66.6-105.4-79c-43.8-12.5-90.7-6.2-131,14.4c-23.8,12.2-44.9,29.2-62.2,49.5C371.8,129.4,380.7,138.4,386,132.2
		L386,132.2z"/>
</g>
<path class="st4" d="M850.7,324.5c-10.6,7.5-16,19.7-22.5,30.5c-7.8,13.1-15.6,27.1-26.3,38.1c-10,10.3-22.6,19.1-36.4,23.5
	c-14.4,4.6-31.2,3.3-45.3-2c-13.3-5-25.3-17.4-40.5-16.2c-7.6,0.6-7.7,12.5,0,11.9c6.4-0.5,12.3,2.7,17.7,5.7
	c5.9,3.3,11.6,6.8,17.9,9.4c14.6,5.9,32.1,7.5,47.5,4.2c14.3-3.1,27.5-11,38.7-20.1c12.2-9.9,21-22.6,29.2-35.8
	c4.4-7.1,8.7-14.3,12.8-21.6c3.5-6.1,7.2-13.1,13.1-17.3C862.9,330.4,857,320.1,850.7,324.5z"/>
<path class="st4" d="M1369.8,310.7c-13.8-1.3-28.3-5.2-40.3-12.5c7.7-7.4,12.6-18,6.2-28.3c-7.3-11.7-22.8-13.2-30.4-0.9
	c-6.1,10-2.6,20.1,3.9,27.9c-5.5,2.3-11.6,3.9-17.6,4.2c-4.8,0.2-9.8-0.5-14.5-0.8c-5.1-0.3-10.2-0.7-15.3-1.1
	c-10.2-0.9-20.4-2-30.5-3.3c-11.1-1.5-22.2-3.2-33.3-5.2c-2.7-0.5-5.2,0.6-6.6,2.9c-1.5,2.4-1.2,5.4,0.6,7.8
	c22.9,29.9,71.3,104.8,25.1,152.9c-9.7,10.1-23.2,16.2-36.2,16.5c-10.8,0.2-20.6-3.6-28.3-11c-13.5-13-20.1-34.5-20.2-65.8
	c0-3-1.8-5.4-4.6-6.1c-2.7-0.7-5.5,0.4-6.9,2.9c-3.4,5.8-6.8,11.6-10.2,17.4c-6.8,11.6-13.7,23.2-20.5,34.8
	c-0.4,0.7-0.8,1.4-1.2,2.1c-4.3,7.4-9.2,15.8-15.9,17.5c-3,0.8-6.2,0.1-9.7-2c-6.3-3.8-12-11.1-7-36.8c8.4-43,23.2-85.5,35.2-117.7
	c0.9-2.3,0.3-4.7-1.4-6.3c-2-1.8-5.1-2.3-7.5-1.3c-36.1,16.7-74.1,25.3-113,25.7c-1-3.8-2.2-7.4-3.5-10.9
	c-9.4-23.6-30.8-37.3-52.1-33.5c-9.1,1.6-21,9.4-25.9,19.7c-19.8,0.6-38.5,14.2-51.3,37.4c-4.8,8.7-8.5,18-12.1,27
	c-2.3,5.6-4.6,11.4-7.1,16.9l-0.1,0.2l0,0.2c-1,4.9-1.3,10.7-1.4,12.9c-0.2,4.9,0,7,0.4,8c-0.2,2.6-0.2,5.1-0.2,7.5
	c0.1,9.3,1.3,23,6.6,34.9c5.5,12.4,14.1,19.9,25.4,22.3c20.3,4.3,45.9-2.4,68.7-17.9c17.4-11.8,32.5-29.3,42.5-49.2
	c10.5-20.7,14.8-42.3,12.5-62.8c5.5-0.1,10.2-0.3,14.6-0.6c29.8-2.1,59.4-9.1,88.2-20.8c-9.1,25.7-17,51-23.3,75.3
	c-0.7,2.8-1.6,5.8-2.5,8.9c-5.6,19.8-12.6,44.4-1.6,62.4c4.7,7.7,11.8,12.6,19.6,13.7c7.2,0.9,14.4-1.6,20.2-7.1
	c6.8-6.5,11.6-15.2,16.2-23.7c1.5-2.7,2.9-5.2,4.3-7.7l13.4-22.8c2.9,25.7,11.5,44.8,25.6,56.7c9.5,8.1,21.3,12.1,33.5,12.1
	c13.2,0,26.9-4.7,38.7-14.1c25.4-20.3,31.1-55.7,27.9-82.1c-2.1-17.5-8.2-42.5-36-81.5c20.3,3.2,40.7,5.5,61.2,6.9
	c8.1,0.6,16.3,1.2,24.4,0.1c7.7-1.1,15.3-3.4,22.2-7.2c14.5,10.4,33.3,15.6,50.6,17.2C1377.1,323.7,1377.5,311.4,1369.8,310.7z
	 M903.2,299.5c0.5-1.5,1.9-2.8,4.2-3.7l0.3-0.1c2.9-1.8,6.9-3.1,10.6-3.4c20.4-1.8,33.2,15.4,38.4,31.8c-1.4,0-2.7-0.1-4.1-0.2
	c-11-0.6-21.9-1.9-32.6-3.8c-1-0.2-2.1-0.3-3.5-0.4c-2.8-0.3-6.8-0.7-8.6-1.7l-2-10.2l-0.2-0.3C903.4,304.1,902.6,301.4,903.2,299.5
	z M912.2,436.8c-16.2,11.4-34,17.6-51.7,17.9c-8.3,0.2-15.1-2.4-20.2-7.6c-10.8-11-11.9-30.6-11.5-41.3
	c1.2-38.7,25.3-75.1,58.7-89.5c0.7,1.7,1.6,3.3,2.7,4.8c7.5,10.4,23.4,11.9,36.1,13.1c2.3,0.2,4.5,0.4,6.4,0.7
	c8.6,1.1,17.6,1.8,26.6,2.1C963.7,373.9,944.9,413.8,912.2,436.8z M1320,290.6c-0.1,0.1-0.3,0.2-0.4,0.3c-2.1-2-3.8-4.3-4.8-6.8
	c-1.5-3.8-0.5-9.3,3.5-11.2c4-1.8,8.5,3,8.6,7C1327.1,284.3,1323,288.1,1320,290.6z"/>
<path class="st4" d="M1286.8,228.2c-1.6-0.9-3.7-1-5.4-0.2c-1.1,0.5-2,1.4-2.9,2.2c-4.5,4.4-9.5,8.3-14.7,11.9
	c-2.5,1.7-5,3.3-7.5,4.8c-2.2,1.3-4.8,3.3-7.2,3.9c-22.6,10.8-39.4-0.7-49.6-12.2c-4.7-5.4-9.1-11.7-12.8-18.7
	c10.5-11.4,20.1-25,27.9-39.4c8.1-15.1,14.1-31.2,17.8-47.7l0-0.2c3-13.6,7.1-32.3-3.2-44.4c-5.3-6.3-12.4-9.2-20.4-8.6
	c-14.5,1.2-29.8,13.9-36.7,25.4c-15.3,25.2-17.4,60.6-5.8,97.1c1.6,4.9,3.3,9.7,5.3,14.3c-11,10.4-31.1,26.4-49.2,24.1
	c-8.9-1.1-16.5-6.6-22.6-16.3c-13.7-21.9-11.4-47.4-9.3-72.1c0.9-9.8,1.8-19.9,1.6-29.7l0-1.3c-0.1-11.9-0.3-34-12.5-39.6
	c-10.3-4.7-18.6,5.7-24.1,12.6c-0.7,0.9-1.3,1.7-1.9,2.4c-19.9,24-38.2,50.4-54.4,78.6c0.3-29.4-1.1-58.9-3.9-87.9
	c-0.3-2.8-2-5.1-4.4-5.9c-2.2-0.7-4.4-0.2-6.1,1.6c-42.6,44-78.3,94.4-106.2,150L899,77.3c0.5-3.8-2.1-6.9-4.8-7.8
	c-2.1-0.6-4.9-0.1-6.6,3.2c-29,58.5-90.1,93.1-152,86.1c-3.2-0.4-5.8,1.7-6.2,5.1c-0.4,3.4,1.6,7.3,5.7,7.8c5.5,0.6,11,0.9,16.5,0.9
	c50.4,0,100-25.7,131.4-68.5l-21.9,166.7c-0.5,3.8,2.3,7.1,5.2,7.9c0.5,0.1,1,0.2,1.4,0.2c2.1,0,3.9-1.3,4.9-3.6
	c27.5-64.6,65-122.8,111.6-173.3c2.7,32.7,3.4,65.8,2.1,98.4c-0.1,3,1.7,5.5,4.6,6.2c2.8,0.8,5.6-0.4,6.9-3
	c10-19.2,20.6-37.2,31.6-53.6c0.7-1,1.7-2.6,3-4.6c7.9-12.5,28.9-45.6,41-47.7c1.5-0.3,2.7,0,3.7,0.8c4.2,3.3,2.9,24.6,2.5,31.6
	c-0.1,1.3-0.1,2.3-0.2,3.2c-0.3,6.3-0.9,12.7-1.5,18.8c-0.4,4.6-0.9,9.4-1.2,14.2c-1,14.8-1.2,34.2,6.5,53
	c5.4,13.2,13.9,23.6,24,29.4c11.1,6.4,23.7,7.1,36.4,2.2c11.5-4.5,22.9-11.9,33.9-22c11.5,21,26.3,34.2,43,38.3
	c15.1,3.7,30.7-1.4,43.6-9.2c4.9-2.9,9.5-6.3,14-9.8c4-3.2,7.8-6.5,10.3-11c0.5-1,1-2,1.2-3.1c0.3-2.1-0.6-4.3-2.3-5.6
	C1287.2,228.4,1287,228.3,1286.8,228.2z M1171.4,148.4c1.3-18.4,7.6-34.9,17.3-45.2c5.4-5.8,13.2-9.8,19.7-10.3c0.5,0,1-0.1,1.5-0.1
	c3.9,0,6.8,1.1,8.9,3.5c3.9,4.3,5,13,3.2,24.4c-5.2,31.8-19.8,62.3-41.3,86.2C1173.4,188.4,1170.1,167.8,1171.4,148.4z"/>
</svg>
