<svg id="Layer_1" data-name="Layer 1" xmlns="http://www.w3.org/2000/svg" viewBox="0 0 725 343"><defs><style>.cls-1{font-size:400px;fill:#e5ab1a;font-family:Quicksand-Bold, Quicksand;font-weight:700;}.cls-2{fill:#311c4b;}</style></defs><title>9SmellyCat-07</title><text class="cls-1" transform="translate(319 311)">9</text><path class="cls-2" d="M180.46,15.91c0,41.35,7.21,91.71,52,107.21,18.54,6.41,42.83,10.41,61,1.1,16.24-8.33,25.86-26,30.09-43.15,6.42-26,.94-53.25-4.6-78.9-.37-1.71-3-2.57-4.18-1.1L304.28,14.41c-1.79,2.27-3.5,5.06-5.59,7.06-2.48,2.37-5.92,1.83-9.12,1.94l-36.71,1.24-35.72,1.21c-6,.2-13.4,1.55-19.18-.49-5.39-1.89-8.88-7-12.06-11.46-1.85-2.6-6.19-.1-4.32,2.52,2.92,4.1,5.93,8.39,10.11,11.31,4.7,3.29,10,3.6,15.52,3.44,14.56-.4,29.11-1,43.66-1.48s29.18-.42,43.66-1.48c5.17-.38,7.23-2.61,10.36-6.58L318.34,4.59l-4.18-1.1c4.68,21.68,9.2,44,6.45,66.28-2.11,17.11-9.36,35.46-23.42,46.2-16.15,12.33-38.69,9.2-57.05,4.25-19.51-5.26-34-17.14-42.93-35.29-10.46-21.3-11.76-45.7-11.75-69,0-3.22-5-3.22-5,0Z"/><path class="cls-2" d="M218.13,115.53a284.83,284.83,0,0,0-35.79,100.38c-4.71,30.74-4.24,68.22,23.34,88.66,13.39,9.92,31.05,11.42,47.15,12.55,16.88,1.18,35.5,1.55,51-6.18,27.78-13.83,38.88-46.81,37-76-1.29-20.56-7.59-40.54-15.1-59.6a339.71,339.71,0,0,0-27.72-55c-1.7-2.73-6-.22-4.32,2.52,17.62,28.3,32.4,59.86,39.37,92.6,6.26,29.41,3.21,63.49-21.14,84.18-12.65,10.75-28.49,13-44.6,13A223.18,223.18,0,0,1,241.21,311c-8.61-1-17.54-2.33-25.42-6.14-30.55-14.78-33.24-53.21-29.35-82.65a279.68,279.68,0,0,1,36-104.18c1.63-2.78-2.69-5.3-4.32-2.52Z"/><path class="cls-2" d="M323.45,179.86c-9.44,4.24-12.54,14.87-14.12,24.27A286.18,286.18,0,0,0,305.5,249q-.1,11.58.73,23.15c.3,4.14,1.76,8.56-1.66,11.47-1.81,1.54-3.81,2.53-5.47,4.33-6.21,6.74-8.28,16.93-3.41,25,1.67,2.75,6,.24,4.32-2.52-2.79-4.6-2.61-9.92-.23-14.68a18.7,18.7,0,0,1,4.22-5.57c1.82-1.64,4.28-2.42,6-4.11,3.48-3.39,1.51-9.67,1.21-13.87q-.72-10.11-.74-20.25a287.26,287.26,0,0,1,2.79-40.7c1.36-9.62,2.66-22.5,12.7-27,2.93-1.32.39-5.63-2.52-4.32Z"/><path class="cls-2" d="M224.2,253.52c2.77-2.61,15.1-4.26,17.84-.75,1.73,2.21,2.28,6.45,2.74,9.14a94.14,94.14,0,0,1,1.3,12.48c.4,11.77-10.62,23.28-21,27.9-7.4,3.28-14.74-2.58-9.26-10.14,3.12-4.31,10.31-2.67,12.45-8.21,1.74-4.51-.47-10.33-1.64-14.77s-4.88-11.92-2.09-16c1.36-2-1.89-3.88-3.24-1.89-2.76,4.08-.83,10,.38,14.32,1.38,4.94,6.17,15.62.94,19-2.42,1.56-5.55,1.49-7.9,3.35a12.5,12.5,0,0,0-3.85,6c-1.55,4.79-.4,9.58,4.21,12.09,9.48,5.15,20.2-5.62,26.25-11.69,4.25-4.27,7.51-8.84,8.33-15,.92-6.84-.21-14.9-1.84-21.6-1.2-4.9-2.79-9.71-8.39-10.33-5.43-.6-13.62-.52-17.82,3.43C219.79,252.52,222.44,255.17,224.2,253.52Z"/><path class="cls-2" d="M247.47,271.49c-11.32.09-13.58,12.92-9.6,21.44,1,2.18,4.25.28,3.24-1.89-2.77-5.94-1.85-15.74,6.36-15.8,2.41,0,2.42-3.77,0-3.75Z"/><path class="cls-2" d="M214,295c5.25-.25,9.79,2.51,11.11,7.74.59,2.34,4.21,1.35,3.62-1C227,295,220.9,290.92,214,291.26c-2.4.12-2.42,3.87,0,3.75Z"/><path class="cls-2" d="M226.21,256.65c-.16,4.39,1.63,8.39,2.35,12.66.4,2.37,4,1.37,3.62-1-.66-3.93-2.36-7.62-2.21-11.66.09-2.41-3.66-2.41-3.75,0Z"/><path class="cls-2" d="M230.46,255.82a26.47,26.47,0,0,1,1.41,6.12,47.14,47.14,0,0,0,1.57,5.66c.7,2.3,4.32,1.32,3.62-1a46.49,46.49,0,0,1-1.57-5.66,26,26,0,0,0-1.41-6.12c-.92-2.19-4.55-1.23-3.62,1Z"/><path class="cls-2" d="M235.52,253.86c0,4.24,2.12,7.37,3.3,11.27.7,2.3,4.32,1.32,3.62-1-1.07-3.53-3.18-6.43-3.16-10.27,0-2.41-3.74-2.42-3.75,0Z"/><path class="cls-2" d="M276.83,242.42c-6.3-3.88-17.42-2.69-19.24,5.31-1.1,4.86-.65,10.28-.64,15.23,0,6.25.16,13,2.19,18.94,3.38,9.93,13.93,16.37,24.34,15.85,9.4-.47,10.33-14.32,5.32-20.06-2.25-2.58-5.44-4-7.85-6.37a12,12,0,0,1-3.56-10c.43-6.35,2.33-12,1-18.4-.48-2.36-4.1-1.36-3.62,1,1.85,9.12-4.46,19.24,1.39,27.57,3,4.27,9,6,11.14,10.75,1.25,2.77,1.16,7.62-.95,10.06-2.26,2.62-6.14,1.52-9.1.81-14.73-3.54-16.54-17.16-16.57-30.2,0-4.52-.81-10.47.62-14.8,1.08-3.25,3-3.55,6-3.67,2.38-.1,5.51-.13,7.61,1.16s3.95-2,1.89-3.24Z"/><path class="cls-2" d="M259.71,271.86a12.42,12.42,0,0,1,6.64,18.39c-1.27,2.06,2,3.95,3.24,1.89a16.22,16.22,0,0,0-8.88-23.9c-2.29-.78-3.27,2.84-1,3.62Z"/><path class="cls-2" d="M286.74,278.65c-6.48,2.25-8.4,10.9-6.7,16.91.66,2.32,4.27,1.33,3.62-1-1.09-3.85-.33-10.76,4.09-12.3,2.27-.79,1.29-4.41-1-3.62Z"/><path class="cls-2" d="M270,249.09c-.42,4.33-1.2,8.62-1.52,13-.18,2.41,3.57,2.4,3.75,0,.33-4.34,1.1-8.63,1.52-13,.23-2.4-3.52-2.38-3.75,0Z"/><path class="cls-2" d="M263.18,248.91c1,4.62-.44,9-1.19,13.58-.39,2.36,3.22,3.38,3.62,1,.87-5.28,2.4-10.21,1.19-15.57-.53-2.35-4.15-1.36-3.62,1Z"/><path class="cls-2" d="M215.35,197.6c-.07,8.83,2.21,17.22,4,25.8.8,3.88,1.27,7.82,2.08,11.7.94,4.5,2.16,8.92,2.06,13.56-.05,2.41,3.7,2.41,3.75,0,.16-7.51-2.28-15.28-3.57-22.65-1.66-9.49-4.62-18.67-4.55-28.4,0-2.41-3.73-2.42-3.75,0Z"/><path class="cls-2" d="M230.5,199.84c2.3,8.7,5.11,17.26,5.83,26.29.64,8.08.83,15.85,3.46,23.61.77,2.27,4.39,1.3,3.62-1-2.91-8.62-2.58-17.32-3.68-26.22-1-8.08-3.53-15.83-5.6-23.67-.62-2.33-4.23-1.34-3.62,1Z"/><path class="cls-2" d="M264.39,242.11c-4.51-5.06-2.37-14-2.32-20.19.07-8.7-1.67-17.34-1.77-26.06,0-2.41-3.78-2.42-3.75,0,.12,10,2.09,19.8,1.63,29.77-.29,6.44-1.05,14,3.56,19.13,1.61,1.8,4.25-.85,2.65-2.65Z"/><path class="cls-2" d="M271.11,196.36c4.23,15.77-.62,32.26,2.9,48.15.52,2.36,4.14,1.36,3.62-1-3.52-15.89,1.34-32.33-2.9-48.15-.62-2.33-4.24-1.34-3.62,1Z"/><path class="cls-2" d="M309.5,255.38c8.84-.16,18.33-3.31,27-.57,2.31.73,3.29-2.89,1-3.62-9.08-2.87-18.75.26-28,.43-2.41,0-2.42,3.79,0,3.75Z"/><path class="cls-2" d="M329.5,276.19c-11.73-4.62-18.24,14.78-12.62,22.75,1.38,2,4.63.09,3.24-1.89-3.8-5.38-.08-20.58,8.38-17.25,2.25.88,3.22-2.74,1-3.62Z"/><path class="cls-2" d="M297,297.38c4.83.5,8.21,4.25,7.63,9.13-.29,2.39,3.47,2.37,3.75,0,.84-7-4.71-12.19-11.37-12.87-2.4-.25-2.38,3.5,0,3.75Z"/><path class="cls-2" d="M312.63,259.5a38.8,38.8,0,0,0,2.07,9.5c.84,2.24,4.47,1.27,3.62-1a34.85,34.85,0,0,1-1.93-8.5c-.26-2.37-4-2.4-3.75,0Z"/><path class="cls-2" d="M321.13,258c0,4.51.45,9,.5,13.5,0,2.41,3.78,2.42,3.75,0,0-4.51-.49-9-.5-13.5,0-2.41-3.76-2.42-3.75,0Z"/><path class="cls-2" d="M329.19,257c-1.15,3.38-1.18,7-1.57,10.5-.26,2.4,3.49,2.38,3.75,0,.35-3.2.38-6.43,1.43-9.5.78-2.29-2.84-3.27-3.62-1Z"/><path class="cls-2" d="M151.74,58.84c-5.12,3.8-11.43,9.25-9.71,16.42,1.39,5.79,7.09,9.8,11.35,13.45,6.26,5.37,11.33,10.42,9.76,19.3-.75,4.22-2.31,8.39-2,12.74.31,5.13,3.2,8.94,7.14,12,2.51,2,6.07-1.56,3.54-3.54-4.62-3.59-6.35-7.39-5.3-13.16.68-3.72,1.9-7.35,2.06-11.15.27-6.15-2.64-11.12-6.83-15.38-4-4-8.87-7.14-12.5-11.47-5.08-6.06-.24-11,5.06-14.92,2.55-1.9.06-6.24-2.52-4.32Z"/><path class="cls-2" d="M127.53,87.93c1.29,5.46-4.84,10.08-1.93,15.66,1.1,2.1,3.22,3.15,4.87,4.72,2.26,2.16,2.89,4.7,3.08,7.74.59,9.4-1,17.73,9.08,22.47,2.89,1.36,5.44-2.94,2.52-4.32-10-4.72-4.93-14.47-7.3-23a13.8,13.8,0,0,0-2.13-4.51c-1.47-2-4.36-3.21-5.34-5.47-1.19-2.75.88-5.36,1.72-8.07a11.74,11.74,0,0,0,.25-6.54c-.74-3.13-5.56-1.81-4.82,1.33Z"/><path class="cls-2" d="M334.09,129.92c5.42,4.55,11.22,10,11.77,17.5.45,6-1.82,12.12-3.12,17.92-1.65,7.32-2.88,14.43-.29,21.69,2.9,8.11,8.39,15,10.27,23.47.69,3.14,5.51,1.81,4.82-1.33-1.93-8.77-7.67-15.74-10.49-24.13s.17-16.93,2.12-25.1c1.26-5.31,2.44-10.86,1.16-16.28-1.7-7.21-7.24-12.69-12.71-17.29-2.45-2.06-6,1.46-3.54,3.54Z"/><path class="cls-2" d="M358.23,88.77c6.67,5.44,9.82,10.37,11.62,18.82a68.41,68.41,0,0,1,1.79,13c.1,5.35-1.75,8.88-4,13.52-2.92,6-3,11.78.37,17.5,2.36,4,5.55,7.36,7.09,11.79s1.4,9.06,1.41,13.61c0,3.22,5,3.22,5,0,0-9.42-1.33-16.46-6.74-24.31-2.88-4.18-5.38-7.86-4-13.21,1.1-4.16,4.18-7.54,5.25-11.76,2-8-.29-17.62-2.28-25.44-1.9-7.45-6.14-12.28-12-17.05-2.47-2-6,1.5-3.54,3.54Z"/><path class="cls-2" d="M109.25,105.87c-2.55,4.91-6.43,11.32-4.9,17.09,1.75,6.66,11,6.63,12.22,12.91,1.39,7.1-3.23,14.57-3.45,21.71a30.93,30.93,0,0,0,6.68,20.64c2,2.53,5.5-1,3.54-3.54-5-6.34-6.19-14.5-4.45-22.26,1.25-5.56,3.63-11.47,2.65-17.25-.86-5.08-4.24-7.21-8.41-9.57-7.2-4.07-2.47-11.6.44-17.21,1.48-2.85-2.83-5.38-4.32-2.52Z"/><path class="cls-2" d="M357.84,171.26c3.52,7.18-.93,14.65,2.27,21.69,1.31,2.88,3.92,4.32,5.9,6.64,3,3.57,1.44,7.85,2.57,12.07.83,3.1,5.66,1.79,4.82-1.33-1-3.72.37-7.63-1.51-11.18-1.79-3.39-6-5.11-7.42-8.65-1.3-3.33-.06-7.26.16-10.67a21.34,21.34,0,0,0-2.49-11.1c-1.42-2.89-5.73-.36-4.32,2.52Z"/><path class="cls-2" d="M193,282.11c-9.4-6.14-19.08-9.08-24.15-20-5.79-12.44-10.62-26-11.76-39.75-1.12-13.55,3.08-25.72,8-38.1,3.29-8.2,8-17.45,4.74-26.46-2.37-6.6-9.36-7.76-14.51-3.14-2.61,2.35-3.41,10.09-8.09,7.37-8-4.63-.58-13,4.16-16.08,4.16-2.7,9.06-5.11,14.14-4.21,5.47,1,9.41,5.4,12,10,6.15,11.05,4.92,22.48,0,33.66-4.71,10.63-9.11,20.39-8.21,32.31.79,10.41,4.1,21.22,11.52,28.84,2.25,2.31,5.78-1.23,3.54-3.54-8.22-8.44-11.11-22-10-33.42,1.19-12.48,9.75-22.6,12-34.79,3.38-18.13-10.22-46.1-32.1-36.16-8,3.63-18.31,11.21-14.51,21.28,2.9,7.68,13.13,11.1,17,2.32,1-2.31,2.12-5.45,5.24-5.55,2.45-.08,3.17,2.22,3.62,4.25,1.32,6-1.23,11.75-3.37,17.18-4.85,12.3-10.21,24.54-10.37,38-.19,16,5.23,31.65,11.61,46.06,2.61,5.9,5.69,10.94,11,14.78,5,3.64,10.85,6,16,9.38,2.7,1.76,5.21-2.56,2.52-4.32Z"/><path class="cls-2" d="M222.91,47.84c-.73-2.15-1.42-4.31-2-6.5-.82-3.11-5.65-1.79-4.82,1.33.58,2.19,1.27,4.35,2,6.5,1,3,5.86,1.73,4.82-1.33Z"/><path class="cls-2" d="M214.16,50.74c-.84-1.45-1.94-3-2.16-4.74a2.58,2.58,0,0,0-2.5-2.5A2.51,2.51,0,0,0,207,46a19.27,19.27,0,0,0,2.84,7.26c1.61,2.79,5.93.27,4.32-2.52Z"/><path class="cls-2" d="M205.66,57.74c-1-1.74-1.62-3.68-2.5-5.5a2.52,2.52,0,0,0-3.42-.9,2.55,2.55,0,0,0-.9,3.42c.88,1.82,1.47,3.75,2.5,5.5,1.63,2.77,6,.26,4.32-2.52Z"/><path class="cls-2" d="M290.16,49.76c1.71-2.26,3-4.39,3.34-7.26A2.52,2.52,0,0,0,291,40a2.56,2.56,0,0,0-2.5,2.5c-.2,1.8-1.62,3.36-2.66,4.74a2.52,2.52,0,0,0,.9,3.42,2.56,2.56,0,0,0,3.42-.9Z"/><path class="cls-2" d="M298.5,45.5c-.21,2.57-1.9,4.82-2.41,7.34-.64,3.14,4.18,4.48,4.82,1.33s2.33-5.54,2.59-8.66-4.74-3.19-5,0Z"/><path class="cls-2" d="M280.72,38.14c-1.13,1.56-1.95,3.34-3.36,4.68-2.34,2.22,1.2,5.75,3.54,3.54,1.73-1.64,2.76-3.79,4.14-5.7a2.52,2.52,0,0,0-.9-3.42,2.56,2.56,0,0,0-3.42.9Z"/><path class="cls-2" d="M285.24,58.84c-3.35,2-4.67,6.1-2,9.29a2.42,2.42,0,0,0,2.43.64c3.31-1.28,5.21-3.92,4.6-7.53a2.4,2.4,0,0,0-1.75-1.75,4.79,4.79,0,0,0-4.25,1,6.21,6.21,0,0,0-1.65,3.34,2.56,2.56,0,0,0,1.75,3.08,2.53,2.53,0,0,0,3.08-1.75c.06-.27.12-.54.19-.81s.11-.32,0-.09a2.11,2.11,0,0,1,.16-.29c.24-.15-.32.25-.38.31a.55.55,0,0,1-.35.06q.42,0,.12,0l-1.75-1.75a1,1,0,0,1-.13.66,2.71,2.71,0,0,1-1,.72l2.43.64c.23.28-.05-.37,0,0q0-.46,0-.12.15-.42,0-.17a2.62,2.62,0,0,1,1.05-1.16c2.74-1.67.23-6-2.52-4.32Z"/><path class="cls-2" d="M220.5,61a5.66,5.66,0,0,0-4.68,4.4,4.75,4.75,0,0,0,3.71,5.84c2.32.34,4.13-1.34,4.9-3.39a5.76,5.76,0,0,0-1.15-6,2.58,2.58,0,0,0-3-.39,6.75,6.75,0,0,0-2.91,2.76,2.5,2.5,0,1,0,4.32,2.52c.1-.15.19-.3.29-.44-.19.25.1-.08.18-.17.26-.27-.25.13.07-.07a4.26,4.26,0,0,1,.57-.29l-3-.39q.28.31,0-.06.2.37,0-.1a4.9,4.9,0,0,1,.15.53c-.16-.68-.08,0,0,.16s0,.12,0-.21q0,.18-.08.36c-.09.33-.21.38,0,.07q-.08.15-.17.3-.23.34.09-.11c-.19.14-.49.26,0,0q-.35.2.2-.06-.3.07.05,0t0,0a1.09,1.09,0,0,1,.67.17q-.27-.17,0,0t0-.06q-.29-.32,0,0t0,0l0,.26q0-.43,0,0c.05-.19.22-.58,0-.2.07-.13.56-.78.19-.37a5,5,0,0,1,.42-.41q-.4.3-.07.09a1.21,1.21,0,0,1-.7.16,2.58,2.58,0,0,0,2.5-2.5,2.51,2.51,0,0,0-2.5-2.5Z"/><path class="cls-2" d="M250.66,86.26c2.61-3.94,4.07-8.68,7.17-12.28H254.3c3.76,3.15,5,8.68,6.07,13.25l1.75-3.08C258,85.4,253.68,82.84,249.5,83c-3.21.13-3.22,5.13,0,5,4.79-.19,9.12,2.45,13.94,1a2.55,2.55,0,0,0,1.75-3.08c-1.26-5.38-2.94-11.76-7.35-15.46a2.54,2.54,0,0,0-3.54,0c-3.42,4-5.08,9-8,13.29-1.78,2.69,2.54,5.2,4.32,2.52Z"/><path class="cls-2" d="M313,74a243.72,243.72,0,0,0,30.5,2.5c3.22,0,3.22-5,0-5A243.72,243.72,0,0,1,313,69c-3.18-.41-3.15,4.59,0,5Z"/><path class="cls-2" d="M310.74,89.66c6.26,2.9,13,3,19.6,4.75,3.12.81,4.44-4,1.33-4.82-6.1-1.59-12.61-1.57-18.4-4.25-2.9-1.34-5.44,3-2.52,4.32Z"/><path class="cls-2" d="M304.24,101.66c7.92,5.25,16.79,8.78,25.5,12.5,2.93,1.25,5.48-3.06,2.52-4.32-8.71-3.72-17.57-7.25-25.5-12.5-2.69-1.78-5.2,2.55-2.52,4.32Z"/><path class="cls-2" d="M195,70.5c-8.19-.18-16.45,1-23.76,4.84-2.85,1.5-.32,5.82,2.52,4.32C180.3,76.2,187.7,75.34,195,75.5c3.22.07,3.22-4.93,0-5Z"/><path class="cls-2" d="M200.84,82.09c-5.29,2-9.9,5.16-14.6,8.25-2.68,1.76-.17,6.09,2.52,4.32,4.3-2.83,8.56-5.92,13.4-7.75,3-1.12,1.69-6-1.33-4.82Z"/><path class="cls-2" d="M206.23,96.23c-6.17,6.14-15,8.63-21,15-2.21,2.34,1.32,5.88,3.54,3.54,6-6.34,14.81-8.85,21-15,2.28-2.27-1.25-5.81-3.54-3.54Z"/><path class="cls-2" d="M254.59,89.34c-1.09,4.95-.51,12.21,4.07,15.29,3.4,2.29,10.24,4.16,12.5-.62,1.37-2.89-2.94-5.43-4.32-2.52-.74,1.57-4.93-.43-5.85-1.33-2.12-2.06-2.17-6.8-1.58-9.5.69-3.14-4.13-4.48-4.82-1.33Z"/><path class="cls-2" d="M239.59,99.41c.79,4.66,7.26,7.45,11.41,5.48,2.22-1.05,3.27-3.14,4.25-5.28,1.64-3.57,3.4-7.07,4.91-10.7,1.23-3-3.6-4.26-4.82-1.33-1.51,3.63-3.23,7.25-5,10.77-.58,1.16-1.08,2.15-2.53,2.13s-3.17-.91-3.42-2.4c-.54-3.17-5.36-1.82-4.82,1.33Z"/></svg>