<?xml version="1.0" encoding="utf-8"?>
<!-- Generator: Adobe Illustrator 21.1.0, SVG Export Plug-In . SVG Version: 6.00 Build 0)  -->
<svg version="1.1" id="Layer_1" xmlns="http://www.w3.org/2000/svg" xmlns:xlink="http://www.w3.org/1999/xlink" x="0px" y="0px"
	 viewBox="0 0 755 499" style="enable-background:new 0 0 755 499;" xml:space="preserve">
<style type="text/css">
	.st0{fill:#E5AB1A;}
	.st1{fill:#311C4B;}
	.st2{fill:#C1DDD9;}
	.st3{fill:#FFFFFF;}
</style>
<path class="st0" d="M304.4,209.8c-3.3-17.3-13-33.1-27.7-42.9c-0.8-0.6-1.8-0.9-2.8-0.9c-1.9-1.9-5.5-2.2-6.9,1
	c-8.7,19.8-12.9,42-6.8,63.1c2.7,9.5,7.6,18.6,14.3,26c4.4,4.8,11.6,13.1,17.6,6.2c2.9-3.3,4.9-8.5,6.8-12.5
	c2.1-4.4,3.8-8.9,4.9-13.6C305.9,227.6,306.1,218.4,304.4,209.8z M286.8,190.1c0.1-0.3,0.2-0.6,0.3-0.9c0.5,0.8,1,1.7,1.5,2.5
	C288.1,191.2,287.5,190.7,286.8,190.1z M275.8,177c0-0.1,0-0.1,0.1-0.2c0.1,0.1,0.1,0.1,0.2,0.2C275.9,177.1,275.9,177,275.8,177z"
	/>
<path class="st1" d="M188.2,59.4c-0.9,62.4-1.6,127.3,23.3,185.8c10.5,24.8,25.4,47.9,45.2,66.3c19.9,18.6,44.4,31.1,70.4,39
	c29.5,8.9,60.4,11.3,91.1,11c28.4-0.3,57.7-1.4,85.4-7.9c24.9-5.8,48.7-17.6,63.2-39.5c15.5-23.5,19.5-52.8,20.8-80.3
	c1.6-35.2-1.7-70.8-5.7-105.8c-3.9-34.4-10.2-68.9-25.1-100.4c-1.5-3.1-4.9-3.5-7.3-1.2c-9,8.4-17.2,17.5-24.4,27.5
	c-3.3,4.6-6.4,9.3-9.2,14.1c-3,5-5.1,11.2-8.9,15.6c-4.1,4.7-11.2,4.3-16.9,5c-7.2,0.8-14.4,1.5-21.6,2.1c-14,1.1-28.1,1.9-42.2,2.4
	c-56.5,2-113-0.6-169.3-3.5c-7.8-0.4-14.6,0.4-19.4-6.7c-3.6-5.3-6.7-10.7-10.6-15.8c-8.2-10.6-17.9-20-28.7-27.9
	c-1.7-1.2-4.7-1.5-6,0.5c-4.1,6.4-6,13.2-5.1,20.8c0.6,5.5,9.1,4.7,8.5-0.8c-0.6-5.2,0.3-10.1,3.2-14.6c-2,0.2-4,0.4-6,0.5
	c10.8,7.9,20.5,17.2,28.5,28c6,8,10.4,20.6,21.1,23.3c6.5,1.6,13.8,1.1,20.4,1.4c8.1,0.4,16.1,0.8,24.2,1.2
	c14.1,0.7,28.2,1.3,42.3,1.7c29.8,1,59.7,1.4,89.5,0.6c14.9-0.4,29.8-1.1,44.6-2.2c7.2-0.5,14.4-1.2,21.7-1.9
	C491.7,97,498.8,97,505,95c5.5-1.7,9.1-5.6,11.9-10.5c3.7-6.4,6.9-13,11-19.2c8.1-12.3,17.8-23.5,28.6-33.6
	c-2.4-0.4-4.9-0.8-7.3-1.2c12.6,26.7,19,55.6,22.9,84.7c3.9,29.4,6.6,59.3,7.5,89c0.8,28.4,0.1,58.9-10,85.9
	c-9.4,25.1-28,42.2-53.2,50.9c-24.8,8.6-51.7,9.9-77.7,11.1c-30.1,1.4-60.4,0.9-90-5.2c-26.5-5.5-52.5-15.6-74.1-32
	c-20.9-15.8-37.2-37-48.9-60.3c-30.4-60.6-29.6-130-28.6-196.1C196.8,53.2,188.3,54,188.2,59.4L188.2,59.4z"/>
<path class="st1" d="M538.7,70.9c-4.5,4.8-8.9,9.6-13.4,14.4c-3.8,4,2.8,9.5,6.6,5.5c4.5-4.8,8.9-9.6,13.4-14.4
	C549,72.4,542.4,66.9,538.7,70.9L538.7,70.9z"/>
<path class="st1" d="M540.5,77.4c3.1,8,6.9,15.7,11.3,23.1c2.9,4.7,9.8-0.3,7-5c-4.1-6.7-7.5-13.7-10.3-21.1
	C546.5,69.3,538.5,72.3,540.5,77.4L540.5,77.4z"/>
<path class="st1" d="M203.7,92.7c0.5,8.4,1,16.8,1.5,25.3c0.3,5.5,8.9,4.7,8.5-0.8c-0.5-8.4-1-16.8-1.5-25.3
	C212,86.5,203.4,87.2,203.7,92.7L203.7,92.7z"/>
<path class="st1" d="M205.3,96.3c8,5.7,15.4,12.2,22.3,19.3c3.8,4,9.3-2.6,5.5-6.6c-6.8-7.1-14.2-13.6-22.3-19.3
	C206.3,86.6,200.8,93.1,205.3,96.3L205.3,96.3z"/>
<path class="st1" d="M444.8,126.5c-0.3,6.3-0.6,12.6-0.9,18.9c-0.3,5.4,8.2,7,8.4,1.5c0.3-6.3,0.6-12.6,0.9-18.9
	C453.5,122.6,445.1,121,444.8,126.5L444.8,126.5z"/>
<path class="st1" d="M471.1,128.2c-0.7,4.7-1.4,9.4-2.1,14.1c-0.8,5.4,7.6,7,8.4,1.5c0.7-4.7,1.4-9.4,2.1-14.1
	C480.3,124.3,471.9,122.7,471.1,128.2L471.1,128.2z"/>
<path class="st1" d="M497.5,128.1c-1,5.4-2,10.7-3,16.1c-1,5.4,7.5,6.1,8.5,0.7c1-5.4,2-10.7,3-16.1
	C507.1,123.4,498.5,122.7,497.5,128.1L497.5,128.1z"/>
<path class="st1" d="M237.6,145.9c3.1,4.2,6.7,8,10.8,11.3c4.3,3.5,9.8-3.1,5.5-6.6c-3.5-2.9-6.6-6.1-9.3-9.7
	C241.3,136.5,234.3,141.5,237.6,145.9L237.6,145.9z"/>
<path class="st1" d="M257.4,141c4,4.3,7.9,8.5,11.9,12.8c1.6,1.7,4.7,1.1,6-0.5c1.7-1.9,1-4.3-0.5-6c-4-4.3-7.9-8.5-11.9-12.8
	c-1.6-1.7-4.7-1.1-6,0.5C255.2,136.9,255.9,139.3,257.4,141L257.4,141z"/>
<path class="st1" d="M280.4,133.2c3.7,4.9,7.5,9.6,11.6,14.2c3.6,4.1,10.6-0.8,7-5c-4-4.6-7.9-9.3-11.6-14.2
	C284,123.9,277,128.8,280.4,133.2L280.4,133.2z"/>
<path class="st0" d="M504.5,194c-2.6-8.6-7.4-16.7-14.1-22.7c-2.8-2.5-6.7-5.8-10.6-6c-1,0-1.8,0.1-2.6,0.4c-2-1.4-4.9-1.2-6.1,1.6
	c-7.7,18.8-9,39.5-3.8,59.2c2.3,8.7,18.3,49.4,28.8,27.3C505,235.5,510.6,214.1,504.5,194z M487.8,251.9c0.4-0.4,0.1-1.3-0.4-2.3
	c0.2-0.3,0.4-0.6,0.5-1c0.6-0.1,1.2-0.3,1.7-0.8c0.2-0.1,0.3-0.3,0.5-0.4C489.4,249.4,488.6,251.3,487.8,251.9z"/>
<path class="st1" d="M378.9,218.9c5.3,17.4,6.9,35.6,7.3,53.7c0.2,8.1,0.6,17.9-5.5,24.1c-7.2,7.2-14.7,1.9-19-5.2
	c-2.9-4.7-9.8,0.3-7,5c4.5,7.4,11.9,13.8,21.1,12.3c9.5-1.6,15.6-9.9,17.8-18.8c2.8-11.3,1.2-24.4,0.3-35.8c-1-13-3.2-25.8-7-38.2
	C385.4,210.6,377.3,213.6,378.9,218.9L378.9,218.9z"/>
<path class="st1" d="M388.7,269.1c-0.6,13.9,4.5,35.2,17.3,39.1c12.5,3.7,21.4-10.5,19.5-25c-0.7-5.4-7.5-4.9-6.8,0.6
	c1.2,9.4-4.9,20.8-13.4,15.1c-7.4-4.9-10.3-18.8-9.9-28.1C395.7,265.3,388.9,263.6,388.7,269.1L388.7,269.1z"/>
<path class="st1" d="M545.1,214.2c43.6-3.6,87.2-7.2,130.9-10.8c5.5-0.5,4.7-9-0.8-8.5c-43.6,3.6-87.2,7.2-130.9,10.8
	C538.9,206.1,539.6,214.7,545.1,214.2L545.1,214.2z"/>
<path class="st1" d="M552.2,250.1c24.9,0.1,49.8,1.5,74.5,4.1c5.5,0.6,7-7.9,1.5-8.4c-25.5-2.7-51.2-4.1-76.8-4.2
	C545.9,241.6,546.7,250.1,552.2,250.1L552.2,250.1z"/>
<path class="st1" d="M549.8,283.2c35.9,9.1,71.9,17.2,107.9,24.1c3.8,0.7,4.6-7.6,0.8-8.4c-36-6.9-72-15-107.9-24.1
	C546.8,273.9,546,282.3,549.8,283.2L549.8,283.2z"/>
<path class="st1" d="M221.1,202.4c-36.2,0.5-72.3,2.5-108.4,5.8c-5.5,0.5-4.7,9,0.8,8.5c36-3.3,72.2-5.2,108.4-5.8
	C227.4,210.8,226.6,202.3,221.1,202.4L221.1,202.4z"/>
<path class="st1" d="M230.4,235.8c-21.3,4.9-42.6,9.4-64.1,13.8c-5.3,1.1-4.6,9.6,0.8,8.5c22.2-4.5,44.3-9.2,66.3-14.3
	C238.8,242.6,235.7,234.6,230.4,235.8L230.4,235.8z"/>
<path class="st1" d="M250.8,273.2c-39.7,9.5-78.8,20.9-117.4,34c-5.2,1.8-2.2,9.8,3,8c38.6-13.2,77.8-24.5,117.4-34
	C259.2,279.9,256.2,271.9,250.8,273.2L250.8,273.2z"/>
<g>
	<path class="st1" d="M293.4,197.3c0.1,0.9-0.2,1.8-0.7,2.6c-0.6,0.9-1.4,1.4-2.4,1.5c-0.7,0.1-1.4-0.1-2.2-0.4
		c-2.1-0.8-4.4-1-6.7-0.8c-2.9,0.3-5.4,1.1-7.4,2.5s-3.6,3.3-4.5,5.6c-1,2.3-1.3,4.9-1.1,7.8c0.4,4.9,2.1,8.5,5,10.8
		s6.4,3.2,10.7,2.9c2.5-0.2,4.7-0.9,6.5-2c0.7-0.4,1.4-0.6,1.9-0.7c1.1-0.1,2,0.3,2.9,1.1c0.7,0.7,1.1,1.6,1.2,2.5
		c0.1,0.7-0.1,1.3-0.3,1.8c-0.3,0.6-0.7,1-1.3,1.4c-3.1,1.9-6.5,3-10.1,3.4c-4.1,0.4-7.9-0.2-11.4-1.6c-3.6-1.4-6.5-3.7-8.8-6.9
		s-3.7-7.2-4.2-11.9c-0.4-4.2,0.2-8.1,1.9-11.7c1.6-3.5,4.1-6.4,7.3-8.6c3.2-2.2,7-3.5,11.3-3.9c3.7-0.3,7.2,0.2,10.5,1.5
		C292.6,194.8,293.3,195.8,293.4,197.3z"/>
</g>
<g>
	<path class="st1" d="M412.1,228.2c0.1,1.5-0.2,2.8-1.1,3.8s-2,1.6-3.3,1.7c-1,0.1-2-0.1-2.9-0.7c-0.9-0.6-1.6-1.4-2.2-2.4
		l-5.5-10.1l-25.9,2.3l-3.6,11c-0.3,1.1-0.8,2-1.6,2.7c-0.8,0.7-1.7,1.1-2.7,1.2c-1.5,0.1-2.7-0.2-3.5-0.9c-0.9-0.7-1.3-1.8-1.5-3.2
		c0-0.5,0-1.1,0.1-1.7l16.9-53.8c0.4-1.2,1-2.2,1.8-2.9c0.9-0.7,1.9-1.1,3.1-1.1c1-0.1,2,0.1,3,0.6s1.7,1.3,2.2,2.4l25.9,48.9
		C411.9,226.9,412.1,227.6,412.1,228.2z M374.7,212.6L392,211l-10.6-19.5L374.7,212.6z"/>
</g>
<g>
	<path class="st1" d="M498.2,193.1c0.7,0.5,1,1.2,1.1,2.2c0.1,0.9-0.2,1.7-0.7,2.3c-0.6,0.6-1.3,1-2.3,1.1l-8.5,0.8l2.6,28.2
		c0.1,0.9-0.2,1.7-0.8,2.4c-0.6,0.7-1.4,1.1-2.4,1.2c-1,0.1-1.9-0.2-2.6-0.7c-0.7-0.6-1.1-1.3-1.2-2.3l-2.6-28.2l-8.5,0.8
		c-1,0.1-1.8-0.1-2.4-0.6c-0.7-0.5-1-1.2-1.1-2.2c-0.1-0.9,0.2-1.7,0.7-2.3c0.6-0.6,1.3-1,2.3-1.1l23.9-2.2
		C496.7,192.3,497.5,192.5,498.2,193.1z"/>
</g>
<path class="st2" d="M718.3,432.6c-19.4,2.1-38.9,2.3-58.3,0.4c1.1-1.9,1.9-4,2.3-6.1c1.6-8-2-15-6.8-21.1c-1.2-1.5-2.4-2.9-3.7-4.3
	c0.1-0.4,0.2-0.8,0.2-1.2c1.3-7.8-4-17.4-12.9-16.4c-2.5,0.3-4.2,2.2-3.7,4.8c1.2,5.6,4.5,10,8,14.1c-0.7,1.7-1.7,3.3-2.6,4.8
	c-3.4,5.7-7,11.5-11.6,16.3c-4.1,4.2-9.7,8.2-15.9,7.6c-5.1-0.5-11-4-12.6-9.1c-1.6-5.4,3.8-9.4,7-12.9c3.4-3.7,6.5-8.1,5.1-13.4
	c-1.5-5.5-9.6-7.4-14.5-7.1c-6.5,0.4-12.6,3.1-18.2,6.3c-5.8,3.3-11,7.3-17.5,9c-4,1.1-8.6,1.6-12-0.4c0.2-0.6,0.2-1.2,0.1-1.9
	c-2.3-9.9-14.4-10.4-21.4-5.4c-2.1,1.5-4,3.3-5.8,5.2c-0.1,0.1-0.3,0.2-0.4,0.3c-2.4,1.9-4.5,4.3-6.2,6.9c-4.3,4.7-8.7,9.4-13,14.1
	c-3.9,4.2-7.8,9.2-12.7,12.4c-3.5,2.3-9.2,3.8-12.5,0.3c-2-2-1.6-5.2-1.5-7.8c0.1-2.9,0.2-5.9,0.3-8.8c0.3-6.9,0.5-13.8,0.8-20.6
	c0.1-2.4-2.5-4.4-4.8-3.7c-11.4,3.7-22.7,7.4-34.1,11.1c-1.8,0.6-3.4,2.7-2.7,4.7c3.1,8.4,7.2,18.7,3.9,27.6
	c-2,5.3-8.1,10.8-14.1,9.5c-10.7-2.3-7.6-20.6-8.4-28.3c-0.5-5.1-1.6-10.3-5.2-14.2c-4.8-5.3-11.8-6.1-16.8-0.7
	c-5.1,5.5-7.4,12.8-9.6,19.8c-2.3,7-5.1,14.1-12.3,17.4c-3.1,1.4-6.8,1.7-9.3-1c-2.3-2.5-2.3-6.1-2.2-9.2c0.2-6.1,1.2-12.1-0.2-17.9
	c1.1-1.4,1.4-3.5-0.2-5.1c-7.3-7.2-17.8-10.1-27.8-7.9c-9.1,2-16.7,8.5-20.9,16.7c-2,2.6-3.9,5.5-5.7,8.5
	c-3.8,6.4-10.9,19.3-20,12.3c-3.7-2.8-5.8-7.5-8-11.4c-2.4-4.2-5-8.5-8.7-11.8c-1-0.8-2.4-1.5-3.7-1c-14.5,5.5-19.8,19.7-21.7,34.2
	c-2-5.3-3.5-10.7-4.7-16.2c3.1-3.6,5.7-7.5,7.8-11.7c7.5-15.2,8.3-33.4,1.9-49.2c-0.7-1.7-2.6-3.5-4.7-2.7
	c-7.2,3-10.7,9.6-12.4,16.9c-2,8.8-2.8,18.1-2.5,27.1c0.1,5.8,0.7,11.5,1.7,17.2c-2,2.1-4.3,4-6.7,5.7c-9.2,6.5-20.4,10.4-31.7,9.7
	c-10.1-0.5-20.8-5.9-23.5-16.2c10.1-1.4,19.4-6.2,25.1-14.9c0.9-1.4,0.5-3.4-0.6-4.6c-8.1-8.6-23.2-5.9-29.4,3.7
	c-1.7,2.7-2.7,5.6-3.1,8.5c-9.6-0.5-19.7-3.7-27.7-6.3c-2.4-0.8-4.8,1.3-4.8,3.7c-0.1,12.1-3.3,35.7-21.3,28.9
	c-12.3-4.6-15.7-19.4-15.5-32.8c4.4-3.9,8.4-8,12.2-12.5c3.3-3.9,6.3-7.9,9.1-12.1c2.8-4.2,6.1-9,7.4-13.9c1.1-4.4-0.6-9.6-5.1-11.2
	c-3.7-1.3-7.9-0.1-11.1,1.8c-8.8,5.1-13.6,16.8-16.5,26c-1.7,5.4-3,11.8-3.4,18.4c-2.8,2.4-5.8,4.6-8.8,6.7
	c-15.2,10.5-32.7,17.6-51,20c-4.8,0.6-4.8,8.2,0,7.6c20.4-2.7,40-10.3,56.7-22.4c1-0.8,2.1-1.5,3.1-2.3c0.9,13,5.5,25.4,16.4,31.8
	c9.5,5.6,21.5,4.1,28.3-4.8c5.2-6.8,6.6-15.7,7.1-24.1c8.3,2.7,16.8,5,25.4,5.2c1.6,7.3,6.5,14.1,12.7,18
	c12.3,7.6,28.6,6.5,41.6,1.3c6.2-2.5,12-6,17.1-10.4c2.4,9.4,5.9,18.5,10.5,27.1c1.8,3.4,7,1.7,7.1-1.9c0.2-13.6,1.3-34.3,15.3-41.3
	c8.7,9.8,13,29.5,29.8,24.9c5.8-1.6,9.9-6.3,13.2-11.3c0.8,3.8,2.5,7.3,5.5,10c8.1,7.3,18.4,2.3,24-5.3c5.1-6.9,6.9-20.4,15.1-24.8
	c1.5,6.1-0.7,13.1-0.2,19.3c0.5,7,4.3,13.7,11.7,15.2c7.1,1.4,14.3-2.7,18.9-7.8c5.5-6.1,7.2-14.1,9.9-21.6c1.3-3.8,3-7.8,5.8-10.8
	c2.9-3.1,6.1-0.1,7.4,2.9c2.4,5.1,1.9,11.4,2,16.9c0.2,5.8,0.5,12.1,3.3,17.3c3.1,5.7,9.2,9.2,15.8,8.4c7.8-0.9,14.7-6.9,17.5-14.2
	c3.7-9.5,0.9-19.8-2.3-29.1c8.4-2.7,16.8-5.5,25.2-8.2c-0.2,5.1-0.4,10.2-0.6,15.3c-0.2,5.4-1.3,11.6,0.3,16.9
	c3.1,9.9,15.3,11.1,23.3,6.8c4.8-2.6,8.5-6.7,12.2-10.7c1.4-1.5,2.8-3,4.2-4.5c0,0.1,0,0.1,0,0.2c-1.1,8,0.8,17.8,9.6,20.5
	c9.9,3,19.1-5.5,23.3-13.6c3.7-7.4,4.9-15.6,5.3-23.9c8.1,3.8,19.2,0.6,26.9-3.5c6.7-3.7,12.7-8.5,20.3-10.4
	c2.7-0.7,8.1-1.4,10.2,1.1c1.4,1.6-2.3,5.3-3.6,6.6c-4.3,4.6-9.2,9.3-8.9,16.1c0.3,6.3,4.7,11.7,9.8,14.8c8.1,4.9,16.3,3.9,23.4-0.1
	c4.8,5.7,12.2,8.8,19.7,7.6c2.9-0.5,5.5-1.6,7.9-3.3c21.4,2.5,43.1,2.6,64.6,0.2C723.1,439.7,723.2,432.1,718.3,432.6z M106.8,376.5
	c1.2-1.3,5.7-5.1,7.9-3.9c2.3,1.3-3,9.2-4,10.8c-4.4,7.3-9.7,14.1-15.7,20.2c0.2-1.2,0.5-2.4,0.7-3.5
	C97.7,392.2,101.1,382.8,106.8,376.5z M177.5,413.4c3.3-1.6,7.1-1.8,10.2-0.2c-4.5,5.2-10.3,7.7-16.7,8.5
	C171.8,418.1,173.9,415,177.5,413.4z M240.2,393.6c0.7-4.6,1.6-11.7,5.2-15.5c4.5,14.8,2.3,30.8-5.7,43.6c-0.2-1.7-0.3-3.4-0.4-5.1
	C238.7,408.9,239,401.1,240.2,393.6z M338.9,427.2c-1.9,4.6-4.1,9.5-8.1,12.7s-8.8,2.4-11.2-2.1c-2.7-5.1-2-11.1,0.6-16.3
	c2.6-3.3,5.6-6.1,9.6-8.1c6-2.9,12.8-3.7,19.1-2.3C344.2,415.1,341.3,421.5,338.9,427.2z M529.2,439.5c-3.5,2.4-8.7,3.3-11-1.1
	c-3.5-6.9,0.5-17.3,4-23.3c0.4-0.7,0.9-1.4,1.4-2.1c1.2-1.4,2.5-2.8,3.7-4.1c3.7-3.3,8.4-5.3,13.2-4.4c-0.1,8.3-0.3,16.9-3.5,24.7
	C535.4,433.1,532.8,437,529.2,439.5z M639.2,423.9c3.3-4.3,7.1-9.3,9.7-14.6c2.1,2.7,4,5.5,5.2,8.7c1.8,4.9,0.7,10.4-2.8,14.1
	c-5.7-0.7-11.4-1.6-17-2.7C636.1,427.6,637.7,425.8,639.2,423.9z"/>
<path class="st3" d="M476.3,370.8c-0.3-0.1-0.6-0.2-1-0.2c-0.3-0.1-0.7-0.1-1-0.1c-3.7,0.1-6.1,3-6.3,6.6c-0.2,3.2,1.6,6.3,4.8,7
	c3.5,0.8,6.8-1.7,7.6-5C481.4,375.5,479.8,372.1,476.3,370.8z"/>
<path class="st2" d="M481.8,375.8c-0.4-1.2-1.1-2.4-2.3-3c-0.7-0.3-1.3-0.7-2-1c-1.2-0.6-2.5-0.9-3.9-0.5c-1.2,0.3-2.4,1.2-3,2.3
	c-0.6,1.2-0.9,2.6-0.5,3.9c0.4,1.2,1.1,2.4,2.3,3c0.7,0.3,1.3,0.7,2,1c1.2,0.6,2.5,0.9,3.9,0.5c1.2-0.3,2.4-1.2,3-2.3
	C481.9,378.5,482.2,377.1,481.8,375.8z"/>
</svg>
